//Event file generated from Sappy .s format.
	#include "MPlayDef.event"

	#define	m_grp  voicegroup000
	#define	m_pri  10
	#define	m_rev  0
	#define	m_mvl  127
	#define	m_key  0
	#define	m_tbs  1
	#define	m_exg  0
	#define	m_cmp  1

	// .rodata
	//	m
	ALIGN 4


//**************** Track 1 (Midi-Chn.0) ****************//

m_001:
// 000   ----------------------------------------
Label_0_00:
 BYTE   KEYSH   m_key+0
 BYTE   VOICE   0
 BYTE   VOICE   0
 BYTE   VOICE   0
 BYTE   VOICE   0
 BYTE   VOL   85*m_mvl/mxv
 BYTE   VOL   85*m_mvl/mxv
 BYTE   VOL   85*m_mvl/mxv
 BYTE   VOL   85*m_mvl/mxv
 BYTE   VOL   85*m_mvl/mxv
 BYTE   PAN   c_v+0
 BYTE   PAN   c_v+0
 BYTE   PAN   c_v+0
 BYTE   PAN   c_v+0
 BYTE   PAN   c_v+0
 BYTE   BEND   c_v+0
 BYTE   BEND   c_v+0
 BYTE   BEND   c_v+0
 BYTE   BEND   c_v+0
 BYTE   BEND   c_v+0
 BYTE   N24  Dn1  v108
 BYTE   N36  Cs2  v086
 BYTE   TEMPO   172*m_tbs/2
 BYTE   TEMPO   172*m_tbs/2
 BYTE   TEMPO   172*m_tbs/2
 BYTE   W24
 BYTE   N03  Dn1  v070
 BYTE   W06
 BYTE   Dn1
 BYTE   W06
 BYTE   N24  Dn1  v101
 BYTE   N36  Cs2  v086
 BYTE   W06
 BYTE   N03  Dn1  v101
 BYTE   W30
 BYTE   N06  Dn1  v083
 BYTE   N06  Cs2
 BYTE   W36
// 001   ----------------------------------------
 BYTE   Cs2  v089
 BYTE   N06  Dn1
 BYTE   W36
 BYTE   Dn1  v076
 BYTE   W24
 BYTE   N03  Dn1  v066
 BYTE   W06
 BYTE   Dn1  v071
 BYTE   W06
 BYTE   N24  Dn1  v108
 BYTE   N36  Cs2  v086
 BYTE   W72
// 002   ----------------------------------------
 BYTE   N03  Dn1  v066
 BYTE   W06
 BYTE   Dn1  v071
 BYTE   W06
 BYTE   N24  Dn1  v108
 BYTE   N36  Cs2  v086
 BYTE   W72
 BYTE   N06  Dn1  v100
 BYTE   W06
 BYTE   Dn1
 BYTE   W06
// 003   ----------------------------------------
 BYTE   An1
 BYTE   W06
 BYTE   An1  v099
 BYTE   W06
 BYTE   Dn1  v097
 BYTE   W06
 BYTE   Dn1
 BYTE   W06
 BYTE   Dn1  v096
 BYTE   W06
 BYTE   N03
 BYTE   W03
 BYTE   Dn1  v097
 BYTE   W03
 BYTE   N24  Dn1  v108
 BYTE   N36  Cs2  v086
 BYTE   W24
 BYTE   N03  Dn1  v070
 BYTE   W06
 BYTE   Dn1
 BYTE   W06
 BYTE   N24  Dn1  v101
 BYTE   N36  Cs2  v086
 BYTE   W06
 BYTE   N03  Dn1  v101
 BYTE   W30
// 004   ----------------------------------------
Label_0_0720:
 BYTE   N06  Dn1  v083
 BYTE   N06  Cs2
 BYTE   W36
 BYTE   Cs2
 BYTE   N06  Dn1
 BYTE   W36
 BYTE   Dn1  v063
 BYTE   W24
 BYTE   PEND 
// 005   ----------------------------------------
 BYTE   N03  Dn1  v066
 BYTE   W06
 BYTE   Dn1  v071
 BYTE   W06
 BYTE   N24  Dn1  v108
 BYTE   N36  Cs2  v086
 BYTE   W72
 BYTE   N03  Dn1  v066
 BYTE   W06
 BYTE   Dn1  v071
 BYTE   W06
// 006   ----------------------------------------
 BYTE   N36  Cs2  v086
 BYTE   W72
 BYTE   N06  Dn1  v089
 BYTE   W06
 BYTE   Dn1
 BYTE   W06
 BYTE   Dn1  v088
 BYTE   W06
 BYTE   Dn1
 BYTE   W06
// 007   ----------------------------------------
 BYTE   An1  v091
 BYTE   W06
 BYTE   An1  v090
 BYTE   W06
 BYTE   Dn1  v087
 BYTE   W06
 BYTE   N03
 BYTE   W03
 BYTE   Dn1  v071
 BYTE   W03
 BYTE   N24  Dn1  v108
 BYTE   N36  Cs2  v086
 BYTE   W24
 BYTE   N03  Dn1  v070
 BYTE   W06
 BYTE   Dn1
 BYTE   W06
 BYTE   N24  Dn1  v101
 BYTE   N36  Cs2  v086
 BYTE   W06
 BYTE   N03  Dn1  v101
 BYTE   W30
// 008   ----------------------------------------
 BYTE   N06  Dn1  v083
 BYTE   N06  Cs2
 BYTE   W36
 BYTE   Cs2
 BYTE   N06  Dn1
 BYTE   W36
 BYTE   Dn1  v070
 BYTE   W24
// 009   ----------------------------------------
 BYTE   N03  Dn1  v066
 BYTE   W06
 BYTE   Dn1  v071
 BYTE   W06
 BYTE   N24  Dn1  v108
 BYTE   N36  Cs2  v086
 BYTE   W72
 BYTE   N03  Dn1  v071
 BYTE   W06
 BYTE   Dn1  v066
 BYTE   W06
// 010   ----------------------------------------
 BYTE   N24  Dn1  v108
 BYTE   N36  Cs2  v086
 BYTE   W72
 BYTE   N06  Dn1  v065
 BYTE   W24
// 011   ----------------------------------------
Label_0_11A0:
 BYTE   N06  Dn1  v065
 BYTE   W12
 BYTE   N03  Dn1  v071
 BYTE   W06
 BYTE   Dn1  v066
 BYTE   W06
 BYTE   N24  Dn1  v108
 BYTE   N36  Cs2  v086
 BYTE   W24
 BYTE   N03  Dn1  v070
 BYTE   W06
 BYTE   Dn1
 BYTE   W06
 BYTE   N24  Dn1  v101
 BYTE   N36  Cs2  v086
 BYTE   W06
 BYTE   N03  Dn1  v101
 BYTE   W30
 BYTE   PEND 
 BYTE   PATT
  POIN2 Label_0_0720
// 012   ----------------------------------------
Label_0_14A0:
 BYTE   N03  Dn1  v071
 BYTE   W06
 BYTE   Dn1  v066
 BYTE   W06
 BYTE   N24  Dn1  v108
 BYTE   N36  Cs2  v086
 BYTE   W72
 BYTE   N03  Dn1  v071
 BYTE   W06
 BYTE   Dn1  v066
 BYTE   W06
 BYTE   PEND 
// 013   ----------------------------------------
 BYTE   N24  Dn1  v108
 BYTE   N36  Cs2  v086
 BYTE   W96
 BYTE   W12
// 014   ----------------------------------------
 BYTE   N03  Dn1  v071
 BYTE   W06
 BYTE   Dn1  v066
 BYTE   W06
 BYTE   N24  Dn1  v108
 BYTE   N36  Cs2  v086
 BYTE   W24
 BYTE   N03  Dn1  v070
 BYTE   W06
 BYTE   Dn1
 BYTE   W06
 BYTE   N24  Dn1  v101
 BYTE   N36  Cs2  v086
 BYTE   W06
 BYTE   N03  Dn1  v101
 BYTE   W30
 BYTE   N06  Dn1  v083
 BYTE   N06  Cs2
 BYTE   W36
// 015   ----------------------------------------
 BYTE   Cs2
 BYTE   N06  Dn1
 BYTE   W36
 BYTE   Dn1  v070
 BYTE   W24
 BYTE   N03  Dn1  v071
 BYTE   W06
 BYTE   Dn1  v066
 BYTE   W06
 BYTE   N24  Dn1  v108
 BYTE   N36  Cs2  v086
 BYTE   W72
// 016   ----------------------------------------
 BYTE   N03  Dn1  v071
 BYTE   W06
 BYTE   Dn1  v066
 BYTE   W06
 BYTE   N24  Dn1  v108
 BYTE   N36  Cs2  v086
 BYTE   W72
 BYTE   N06  Dn1  v065
 BYTE   W24
 BYTE   PATT
  POIN2 Label_0_11A0
 BYTE   PATT
  POIN2 Label_0_0720
 BYTE   PATT
  POIN2 Label_0_14A0
// 017   ----------------------------------------
 BYTE   N24  Dn1  v108
 BYTE   N36  Cs2  v086
 BYTE   W96
 BYTE   W24
// 018   ----------------------------------------
 BYTE   N06  Fs1  v081
 BYTE   W06
 BYTE   Fs1
 BYTE   W06
 BYTE   Fs1
 BYTE   W06
 BYTE   Fs1
 BYTE   W06
 BYTE   Fs1
 BYTE   W06
 BYTE   Fs1
 BYTE   W06
 BYTE   Fs1
 BYTE   W48
 BYTE   N03
 BYTE   W03
 BYTE   Fs1
 BYTE   W03
 BYTE   Fs1
 BYTE   W06
// 019   ----------------------------------------
 BYTE   N06
 BYTE   W12
 BYTE   N03
 BYTE   W06
 BYTE   Fs1
 BYTE   W06
 BYTE   Fs1
 BYTE   W03
 BYTE   Fs1
 BYTE   W03
 BYTE   Fs1
 BYTE   W03
 BYTE   Fs1
 BYTE   W03
 BYTE   N06
 BYTE   W48
 BYTE   Fs1
 BYTE   W06
 BYTE   Fs1
 BYTE   W06
// 020   ----------------------------------------
 BYTE   Fs1
 BYTE   W12
 BYTE   Fs1
 BYTE   W06
 BYTE   Fs1
 BYTE   W06
 BYTE   Fs1
 BYTE   W06
 BYTE   Fs1
 BYTE   W06
 BYTE   Fs1
 BYTE   W44
 BYTE   W01
 BYTE   N03
 BYTE   W03
 BYTE   N06
 BYTE   W06
 BYTE   Fs1
 BYTE   W06
// 021   ----------------------------------------
 BYTE   Fs1
 BYTE   W12
 BYTE   N03
 BYTE   W06
 BYTE   Fs1
 BYTE   W06
 BYTE   Fs1
 BYTE   W03
 BYTE   Fs1
 BYTE   W03
 BYTE   Fs1
 BYTE   W03
 BYTE   Fs1
 BYTE   W03
 BYTE   Fs1
 BYTE   W48
 BYTE   Fs1
 BYTE   W06
 BYTE   Fs1
 BYTE   W06
// 022   ----------------------------------------
 BYTE   Fs1
 BYTE   N06  Dn1  v097
 BYTE   W12
// 023   ----------------------------------------
 BYTE   BEND   c_v-2
 BYTE   N03  Fs1  v081
 BYTE   W12
 BYTE   BEND   c_v-2
 BYTE   N03  Fs1  v081
 BYTE   N06  Dn1  v097
 BYTE   W06
 BYTE   BEND   c_v-2
 BYTE   W06
 BYTE   N03  Fs1  v081
 BYTE   W06
// 024   ----------------------------------------
 BYTE   BEND   c_v-2
 BYTE   W06
 BYTE   N03  Fs1  v081
 BYTE   N06  Dn1  v097
 BYTE   W06
 BYTE   BEND   c_v-2
 BYTE   W06
 BYTE   N03  Fs1  v081
 BYTE   W06
// 025   ----------------------------------------
 BYTE   BEND   c_v-2
 BYTE   W06
 BYTE   BEND   c_v-1
 BYTE   N03  Fs1  v081
 BYTE   N06  Dn1  v097
 BYTE   W12
 BYTE   BEND   c_v-1
 BYTE   N03  Fs1  v081
 BYTE   W12
// 026   ----------------------------------------
 BYTE   BEND   c_v-1
 BYTE   N03  Fs1  v081
 BYTE   N06  Dn1  v097
 BYTE   W12
 BYTE   N03  Fs1  v081
 BYTE   W06
 BYTE   BEND   c_v-1
 BYTE   W06
 BYTE   N03  Fs1  v081
 BYTE   N06  Dn1  v097
 BYTE   W06
// 027   ----------------------------------------
Label_0_2BF8:
 BYTE   BEND   c_v-1
 BYTE   W06
 BYTE   N03  Fs1  v081
 BYTE   W06
 BYTE   BEND   c_v-1
 BYTE   W06
 BYTE   N03  Fs1  v081
 BYTE   N06  Dn1  v097
 BYTE   W06
 BYTE   PEND 
 BYTE   PATT
  POIN2 Label_0_2BF8
 BYTE   PATT
  POIN2 Label_0_2BF8
// 028   ----------------------------------------
 BYTE   BEND   c_v-1
 BYTE   W06
 BYTE   N03  Fs1  v081
 BYTE   W12
 BYTE   BEND   c_v-1
 BYTE   N03  Fs1  v081
 BYTE   N06  Dn1  v097
 BYTE   W12
 BYTE   PATT
  POIN2 Label_0_2BF8
 BYTE   PATT
  POIN2 Label_0_2BF8
 BYTE   PATT
  POIN2 Label_0_2BF8
// 029   ----------------------------------------
 BYTE   BEND   c_v+0
 BYTE   N03  Fs1  v081
 BYTE   W12
 BYTE   Fs1
 BYTE   N06  Dn1  v097
 BYTE   W12
// 030   ----------------------------------------
 BYTE   BEND   c_v+0
 BYTE   N03  Fs1  v081
 BYTE   W12
 BYTE   Fs1
 BYTE   N06  Dn1  v097
 BYTE   W06
 BYTE   BEND   c_v+0
 BYTE   W06
 BYTE   N03  Fs1  v081
 BYTE   W06
// 031   ----------------------------------------
 BYTE   BEND   c_v+0
 BYTE   W06
 BYTE   N03  Fs1  v081
 BYTE   N06  Dn1  v097
 BYTE   W06
 BYTE   BEND   c_v+0
 BYTE   W06
 BYTE   N03  Fs1  v081
 BYTE   W06
// 032   ----------------------------------------
 BYTE   BEND   c_v+0
 BYTE   W06
 BYTE   N03  Fs1  v081
 BYTE   N03  Dn1  v097
 BYTE   W06
 BYTE   BEND   c_v+0
 BYTE   N03  Fs1  v081
 BYTE   W06
 BYTE   Fs1
 BYTE   N03  Dn1  v097
 BYTE   W06
 BYTE   Fs1  v081
 BYTE   W06
// 033   ----------------------------------------
 BYTE   BEND   c_v+0
 BYTE   N03  Fs1  v081
 BYTE   N03  Dn1  v097
 BYTE   W06
 BYTE   Fs1  v081
 BYTE   W06
 BYTE   BEND   c_v+0
 BYTE   N03  Fs1  v081
 BYTE   N03  Dn1  v097
 BYTE   W06
 BYTE   Fs1  v081
 BYTE   W06
// 034   ----------------------------------------
 BYTE   BEND   c_v+0
 BYTE   N03  Fs1  v081
 BYTE   N03  Dn1  v097
 BYTE   W06
 BYTE   Fs1  v081
 BYTE   N03  Dn1  v097
 BYTE   W06
 BYTE   Fs1  v081
 BYTE   N03  Dn1  v097
 BYTE   W06
 BYTE   BEND   c_v+0
 BYTE   N03  Fs1  v081
 BYTE   N03  Dn1  v097
 BYTE   W06
 BYTE   Fs1  v081
 BYTE   N03  Dn1  v097
 BYTE   W06
// 035   ----------------------------------------
 BYTE   BEND   c_v+0
 BYTE   N03  Fs1  v081
 BYTE   N03  Dn1  v097
 BYTE   W06
 BYTE   Fs1  v081
 BYTE   N03  Dn1  v097
 BYTE   W06
 BYTE   BEND   c_v+0
 BYTE   N03  Fs1  v081
 BYTE   N03  Dn1  v097
 BYTE   W18
// 036   ----------------------------------------
 BYTE   BEND   c_v+0
 BYTE   W72
 BYTE   N03  Dn1  v078
 BYTE   W06
 BYTE   Dn1  v073
 BYTE   W06
 BYTE   N24  Dn1  v111
 BYTE   N36  Cs2  v086
 BYTE   W24
 BYTE   N03  Dn1  v077
 BYTE   W06
 BYTE   Dn1
 BYTE   W06
 BYTE   N24  Dn1  v108
 BYTE   N36  Cs2  v086
 BYTE   W06
 BYTE   N03  Dn1  v108
 BYTE   W24
 BYTE   Dn1  v074
 BYTE   W06
 BYTE   N24  Dn1  v108
 BYTE   N36  Cs2  v086
 BYTE   W24
 BYTE   N03  Dn1  v077
 BYTE   W12
 BYTE   Dn1  v073
 BYTE   W12
 BYTE   N36  Dn1  v108
 BYTE   N36  Cs2  v086
 BYTE   W36
 BYTE   N03  Dn1
 BYTE   W12
 BYTE   Dn1  v087
 BYTE   W12
 BYTE   Dn1  v090
 BYTE   W06
 BYTE   Dn1  v093
 BYTE   W03
 BYTE   Dn1  v100
 BYTE   W03
 BYTE   N36  Dn1  v108
 BYTE   N36  Cs2  v086
 BYTE   W36
 BYTE   Dn1  v108
 BYTE   N36  Cs2  v086
 BYTE   W36
 BYTE   Dn1  v108
 BYTE   N36  Cs2  v086
 BYTE   W36
 BYTE   N03  Dn1  v077
 BYTE   W06
 BYTE   Dn1
 BYTE   W06
 BYTE   Dn1
 BYTE   W12
 BYTE   Dn1
 BYTE   W12
 BYTE   Dn1
 BYTE   W24
 BYTE   Dn1
 BYTE   W12
 BYTE   Dn1  v087
 BYTE   W06
 BYTE   Dn1  v080
 BYTE   W06
 BYTE   N36  Dn1  v108
 BYTE   N36  Cs2  v086
 BYTE   W36
 BYTE   N03  Dn1  v077
 BYTE   W12
 BYTE   Dn1
 BYTE   W12
 BYTE   Dn1  v072
 BYTE   W12
 BYTE   Dn1  v077
 BYTE   W12
 BYTE   Dn1  v094
 BYTE   W06
 BYTE   Dn1  v089
 BYTE   W06
 BYTE   N36  Dn1  v108
 BYTE   N36  Cs2  v086
 BYTE   W48
 BYTE   N03  Dn1  v077
 BYTE   W12
 BYTE   Dn1
 BYTE   W12
 BYTE   Dn1  v072
 BYTE   W12
 BYTE   Dn1  v077
 BYTE   W12
 BYTE   N36  Cs2  v086
 BYTE   W96
 BYTE   N06  Cs2  v083
 BYTE   W48
 BYTE   Dn1  v100
 BYTE   W06
 BYTE   Dn1
 BYTE   W06
 BYTE   Dn1
 BYTE   W06
 BYTE   Dn1
 BYTE   W06
 BYTE   An1
 BYTE   W06
 BYTE   An1
 BYTE   W06
 BYTE   Dn1
 BYTE   W06
 BYTE   N03  Dn1  v073
 BYTE   W03
 BYTE   Dn1  v078
 BYTE   W03
 BYTE   N24  Dn1  v111
 BYTE   N36  Cs2  v086
 BYTE   W24
 BYTE   N03  Dn1  v077
 BYTE   W06
 BYTE   Dn1
 BYTE   W06
 BYTE   N24  Dn1  v108
 BYTE   N36  Cs2  v086
 BYTE   W06
 BYTE   N03  Dn1  v108
 BYTE   W24
 BYTE   Dn1  v074
 BYTE   W06
 BYTE   N24  Dn1  v108
 BYTE   N36  Cs2  v086
 BYTE   W24
 BYTE   N03  Dn1  v077
 BYTE   W12
 BYTE   Dn1  v073
 BYTE   W12
 BYTE   N36  Dn1  v108
 BYTE   N36  Cs2  v086
 BYTE   W36
 BYTE   N03  Dn1
 BYTE   W12
 BYTE   Dn1  v087
 BYTE   W12
 BYTE   Dn1  v090
 BYTE   W06
 BYTE   Dn1  v093
 BYTE   W03
 BYTE   Dn1  v100
 BYTE   W03
 BYTE   N36  Dn1  v108
 BYTE   N36  Cs2  v086
 BYTE   W36
 BYTE   Dn1  v108
 BYTE   N36  Cs2  v086
 BYTE   W36
 BYTE   N03  Dn1  v077
 BYTE   W12
 BYTE   Dn1
 BYTE   W12
 BYTE   Dn1
 BYTE   W12
 BYTE   Dn1
 BYTE   W06
 BYTE   Dn1
 BYTE   W06
 BYTE   Dn1
 BYTE   W12
 BYTE   Dn1
 BYTE   W12
 BYTE   Dn1
 BYTE   W24
 BYTE   Dn1
 BYTE   W12
 BYTE   Dn1  v087
 BYTE   W06
 BYTE   Dn1  v080
 BYTE   W06
 BYTE   N36  Dn1  v108
 BYTE   N36  Cs2  v086
 BYTE   W84
 BYTE   N03  Dn1  v085
 BYTE   W06
 BYTE   Dn1  v083
 BYTE   W06
 BYTE   N36  Dn1  v108
 BYTE   N36  Cs2  v086
 BYTE   W96
 BYTE   Cs2
 BYTE   W96
 BYTE   N06  Cs2  v071
 BYTE   N06  Dn1  v100
 BYTE   W06
 BYTE   Dn1
 BYTE   W06
 BYTE   Dn1
 BYTE   W06
 BYTE   Dn1
 BYTE   W06
 BYTE   An1
 BYTE   W06
 BYTE   An1
 BYTE   W06
 BYTE   Dn1
 BYTE   W06
 BYTE   Dn1
 BYTE   W06
 BYTE   Dn1
 BYTE   W06
 BYTE   Dn1
 BYTE   W06
 BYTE   An1
 BYTE   W06
 BYTE   An1
 BYTE   W06
 BYTE   Dn1
 BYTE   W06
 BYTE   Dn1
 BYTE   W06
 BYTE   Dn1
 BYTE   W06
 BYTE   N03  Dn1  v066
 BYTE   W03
 BYTE   Dn1  v071
 BYTE   W03
 BYTE   N24  Dn1  v108
 BYTE   N36  Cs2  v086
 BYTE   W24
 BYTE   N03  Dn1  v070
 BYTE   W06
 BYTE   Dn1
 BYTE   W06
 BYTE   N24  Dn1  v101
 BYTE   N36  Cs2  v086
 BYTE   W06
 BYTE   N03  Dn1  v101
 BYTE   W96
 BYTE   W06
 BYTE   N06  Dn1  v070
 BYTE   W24
 BYTE   N03  Dn1  v071
 BYTE   W06
 BYTE   Dn1  v066
 BYTE   W06
 BYTE   N24  Dn1  v108
 BYTE   N36  Cs2  v086
 BYTE   W72
 BYTE   N03  Dn1  v071
 BYTE   W06
 BYTE   Dn1  v066
 BYTE   W06
 BYTE   N24  Dn1  v108
 BYTE   N36  Cs2  v086
 BYTE   W72
 BYTE   N06  Dn1  v065
 BYTE   W24
 BYTE   Dn1
 BYTE   W12
 BYTE   N03  Dn1  v071
 BYTE   W06
 BYTE   Dn1  v066
 BYTE   W06
 BYTE   N24  Dn1  v108
 BYTE   N36  Cs2  v086
 BYTE   W24
 BYTE   N03  Dn1  v070
 BYTE   W06
 BYTE   Dn1
 BYTE   W06
 BYTE   N24  Dn1  v101
 BYTE   N36  Cs2  v086
 BYTE   W06
 BYTE   N03  Dn1  v101
 BYTE   W96
 BYTE   W06
 BYTE   N06  Dn1  v063
 BYTE   W24
 BYTE   N03  Dn1  v071
 BYTE   W06
 BYTE   Dn1  v066
 BYTE   W06
 BYTE   N24  Dn1  v108
 BYTE   N36  Cs2  v086
 BYTE   W72
 BYTE   N03  Dn1  v071
 BYTE   W06
 BYTE   Dn1  v066
 BYTE   W06
 BYTE   N24  Dn1  v108
 BYTE   N36  Cs2  v086
 BYTE   W96
 BYTE   W12
 BYTE   N03  Dn1  v071
 BYTE   W06
 BYTE   Dn1  v066
 BYTE   W06
 BYTE   N24  Dn1  v108
 BYTE   N36  Cs2  v086
 BYTE   W24
 BYTE   N03  Dn1  v070
 BYTE   W06
 BYTE   Dn1
 BYTE   W06
 BYTE   N24  Dn1  v101
 BYTE   W06
 BYTE   N03
 BYTE   W96
 BYTE   W06
 BYTE   N06  Dn1  v070
 BYTE   W30
 BYTE   N03  Dn1  v066
 BYTE   W03
 BYTE   Dn1  v071
 BYTE   W03
 BYTE   N24  Dn1  v108
 BYTE   N36  Cs2  v086
 BYTE   W72
 BYTE   N03  Dn1  v071
 BYTE   W06
 BYTE   Dn1  v066
 BYTE   W06
 BYTE   N24  Dn1  v108
 BYTE   N36  Cs2  v086
 BYTE   W72
 BYTE   N06  Dn1  v065
 BYTE   W24
 BYTE   Dn1
 BYTE   W12
 BYTE   N03  Dn1  v071
 BYTE   W06
 BYTE   Dn1  v066
 BYTE   W06
 BYTE   N24  Dn1  v108
 BYTE   N36  Cs2  v086
 BYTE   W24
 BYTE   N03  Dn1  v070
 BYTE   W06
 BYTE   Dn1
 BYTE   W06
 BYTE   N24  Dn1  v101
 BYTE   N36  Cs2  v086
 BYTE   W06
 BYTE   N03  Dn1  v101
 BYTE   W96
 BYTE   W06
 BYTE   N06  Dn1  v063
 BYTE   W24
 BYTE   N03  Dn1  v071
 BYTE   W06
 BYTE   Dn1  v066
 BYTE   W06
 BYTE   N24  Dn1  v108
 BYTE   N36  Cs2  v086
 BYTE   W36
 BYTE   N12  Dn1  v039
 BYTE   W36
 BYTE   N03  Dn1  v071
 BYTE   W06
 BYTE   Dn1  v066
 BYTE   W06
 BYTE   N24  Dn1  v108
 BYTE   N36  Cs2  v086
 BYTE   W24
 BYTE   N12  Dn1  v039
 BYTE   W84
 BYTE   N03  Dn1  v071
 BYTE   W06
 BYTE   Dn1  v066
 BYTE   W06
 BYTE   N24  Dn1  v108
 BYTE   N36  Cs2  v086
 BYTE   W24
 BYTE   N03  Dn1  v070
 BYTE   W06
 BYTE   Dn1
 BYTE   W06
 BYTE   N24  Dn1  v101
 BYTE   N36  Cs2  v086
 BYTE   W06
 BYTE   N03  Dn1  v101
 BYTE   W96
 BYTE   W06
 BYTE   N06  Dn1  v070
 BYTE   W24
 BYTE   N03  Dn1  v071
 BYTE   W06
 BYTE   Dn1  v066
 BYTE   W06
 BYTE   N24  Dn1  v108
 BYTE   N36  Cs2  v086
 BYTE   W72
 BYTE   N03  Dn1  v071
 BYTE   W06
 BYTE   Dn1  v066
 BYTE   W06
 BYTE   N24  Dn1  v108
 BYTE   N36  Cs2  v086
 BYTE   W72
 BYTE   N06  Dn1  v065
 BYTE   W24
 BYTE   Dn1
 BYTE   W12
 BYTE   N03  Dn1  v071
 BYTE   W06
 BYTE   Dn1  v066
 BYTE   W06
 BYTE   N24  Dn1  v108
 BYTE   N36  Cs2  v086
 BYTE   W24
 BYTE   N03  Dn1  v070
 BYTE   W06
 BYTE   Dn1
 BYTE   W06
 BYTE   N24  Dn1  v101
 BYTE   N36  Cs2  v086
 BYTE   W06
 BYTE   N03  Dn1  v101
 BYTE   W96
 BYTE   W06
 BYTE   N06  Dn1  v063
 BYTE   W24
 BYTE   N03  Dn1  v071
 BYTE   W06
 BYTE   Dn1  v066
 BYTE   W06
 BYTE   N24  Dn1  v108
 BYTE   N36  Cs2  v086
 BYTE   W72
 BYTE   N03  Dn1  v071
 BYTE   W06
 BYTE   Dn1  v066
 BYTE   W06
 BYTE   N24  Dn1  v108
 BYTE   N36  Cs2  v086
 BYTE   W96
 BYTE   W24
 BYTE   N06  Fs1  v081
 BYTE   W06
 BYTE   Fs1
 BYTE   W06
 BYTE   Fs1
 BYTE   W06
 BYTE   Fs1
 BYTE   W06
 BYTE   Fs1
 BYTE   W06
 BYTE   Fs1
 BYTE   W06
 BYTE   Fs1
 BYTE   W48
 BYTE   N03
 BYTE   W03
 BYTE   Fs1
 BYTE   W03
 BYTE   Fs1
 BYTE   W06
 BYTE   N06
 BYTE   W12
 BYTE   N03
 BYTE   W06
 BYTE   Fs1
 BYTE   W06
 BYTE   Fs1
 BYTE   W03
 BYTE   Fs1
 BYTE   W03
 BYTE   Fs1
 BYTE   W03
 BYTE   Fs1
 BYTE   W03
 BYTE   N06
 BYTE   W48
 BYTE   Fs1
 BYTE   W06
 BYTE   Fs1
 BYTE   W06
 BYTE   Fs1
 BYTE   W12
 BYTE   Fs1
 BYTE   W06
 BYTE   Fs1
 BYTE   W06
 BYTE   Fs1
 BYTE   W06
 BYTE   Fs1
 BYTE   W06
 BYTE   Fs1
 BYTE   W44
 BYTE   W01
 BYTE   N03
 BYTE   W03
 BYTE   N06
 BYTE   W06
 BYTE   Fs1
 BYTE   W06
 BYTE   Fs1
 BYTE   W12
 BYTE   N03
 BYTE   W06
 BYTE   Fs1
 BYTE   W06
 BYTE   Fs1
 BYTE   W03
 BYTE   Fs1
 BYTE   W03
 BYTE   Fs1
 BYTE   W03
 BYTE   Fs1
 BYTE   W03
 BYTE   Fs1
 BYTE   W48
 BYTE   Fs1
 BYTE   W06
 BYTE   Fs1
 BYTE   W06
 BYTE   Fs1
 BYTE   N06  Dn1  v093
 BYTE   W12
// 037   ----------------------------------------
 BYTE   BEND   c_v-2
 BYTE   N03  Fs1  v081
 BYTE   W12
 BYTE   BEND   c_v-2
 BYTE   N03  Fs1  v081
 BYTE   N06  Dn1  v093
 BYTE   W06
 BYTE   BEND   c_v-2
 BYTE   W06
 BYTE   N03  Fs1  v081
 BYTE   W06
// 038   ----------------------------------------
 BYTE   BEND   c_v-2
 BYTE   W06
 BYTE   N03  Fs1  v081
 BYTE   N06  Dn1  v093
 BYTE   W06
 BYTE   BEND   c_v-2
 BYTE   W06
 BYTE   N03  Fs1  v081
 BYTE   W06
// 039   ----------------------------------------
 BYTE   BEND   c_v-2
 BYTE   W06
 BYTE   BEND   c_v-1
 BYTE   N03  Fs1  v081
 BYTE   N06  Dn1  v093
 BYTE   W12
 BYTE   BEND   c_v-1
 BYTE   N03  Fs1  v081
 BYTE   W12
// 040   ----------------------------------------
 BYTE   BEND   c_v-1
 BYTE   N03  Fs1  v081
 BYTE   N06  Dn1  v093
 BYTE   W12
 BYTE   N03  Fs1  v081
 BYTE   W06
 BYTE   BEND   c_v-1
 BYTE   W06
 BYTE   N03  Fs1  v081
 BYTE   N06  Dn1  v093
 BYTE   W06
// 041   ----------------------------------------
Label_0_76F8:
 BYTE   BEND   c_v-1
 BYTE   W06
 BYTE   N03  Fs1  v081
 BYTE   W06
 BYTE   BEND   c_v-1
 BYTE   W06
 BYTE   N03  Fs1  v081
 BYTE   N06  Dn1  v093
 BYTE   W06
 BYTE   PEND 
 BYTE   PATT
  POIN2 Label_0_76F8
// 042   ----------------------------------------
 BYTE   BEND   c_v-1
 BYTE   W06
 BYTE   N03  Fs1  v081
 BYTE   W06
 BYTE   BEND   c_v-1
 BYTE   W06
 BYTE   BEND   c_v+0
 BYTE   N03  Fs1  v081
 BYTE   N03  Dn1  v093
 BYTE   W06
// 043   ----------------------------------------
 BYTE   BEND   c_v+0
 BYTE   N03  Fs1  v081
 BYTE   W06
 BYTE   Fs1
 BYTE   N03  Dn1  v093
 BYTE   W06
 BYTE   Fs1  v081
 BYTE   W06
 BYTE   BEND   c_v+0
 BYTE   N03  Fs1  v081
 BYTE   N03  Dn1  v093
 BYTE   W06
 BYTE   Fs1  v081
 BYTE   W06
// 044   ----------------------------------------
 BYTE   BEND   c_v+0
 BYTE   N03  Fs1  v081
 BYTE   N03  Dn1  v093
 BYTE   W06
 BYTE   Fs1  v081
 BYTE   W06
 BYTE   BEND   c_v+0
 BYTE   N03  Fs1  v081
 BYTE   N03  Dn1  v093
 BYTE   W06
 BYTE   Fs1  v081
 BYTE   N03  Dn1  v093
 BYTE   W06
 BYTE   Fs1  v081
 BYTE   N03  Dn1  v093
 BYTE   W06
// 045   ----------------------------------------
 BYTE   BEND   c_v+0
 BYTE   N03  Fs1  v081
 BYTE   N03  Dn1  v093
 BYTE   W06
 BYTE   Fs1  v081
 BYTE   N03  Dn1  v093
 BYTE   W06
 BYTE   BEND   c_v+0
 BYTE   N03  Fs1  v081
 BYTE   N03  Dn1  v093
 BYTE   W06
 BYTE   Dn1
 BYTE   N03  Fs1  v081
 BYTE   W06
// 046   ----------------------------------------
 BYTE   BEND   c_v+0
 BYTE   N03  Fs1  v081
 BYTE   N03  Dn1  v093
 BYTE   W90
 BYTE   Dn1  v078
 BYTE   W06
 BYTE   Dn1  v073
 BYTE   W06
 BYTE   N24  Dn1  v111
 BYTE   N36  Cs2  v086
 BYTE   W24
 BYTE   N03  Dn1  v077
 BYTE   W06
 BYTE   Dn1
 BYTE   W06
 BYTE   N24  Dn1  v108
 BYTE   N36  Cs2  v086
 BYTE   W06
 BYTE   N03  Dn1  v108
 BYTE   W24
 BYTE   Dn1  v074
 BYTE   W06
 BYTE   N24  Dn1  v108
 BYTE   N36  Cs2  v086
 BYTE   W24
 BYTE   N03  Dn1  v077
 BYTE   W12
 BYTE   Dn1  v073
 BYTE   W12
 BYTE   N36  Dn1  v108
 BYTE   N36  Cs2  v086
 BYTE   W36
 BYTE   N03  Dn1
 BYTE   W12
 BYTE   Dn1  v087
 BYTE   W12
 BYTE   Dn1  v090
 BYTE   W06
 BYTE   Dn1  v093
 BYTE   W03
 BYTE   Dn1  v100
 BYTE   W03
 BYTE   N36  Dn1  v108
 BYTE   N36  Cs2  v086
 BYTE   W36
 BYTE   Dn1  v108
 BYTE   N36  Cs2  v086
 BYTE   W36
 BYTE   Dn1  v108
 BYTE   N36  Cs2  v086
 BYTE   W36
 BYTE   N03  Dn1  v077
 BYTE   W06
 BYTE   Dn1
 BYTE   W06
 BYTE   Dn1
 BYTE   W12
 BYTE   Dn1
 BYTE   W12
 BYTE   Dn1
 BYTE   W24
 BYTE   Dn1
 BYTE   W12
 BYTE   Dn1  v087
 BYTE   W06
 BYTE   Dn1  v080
 BYTE   W06
 BYTE   N36  Dn1  v108
 BYTE   N36  Cs2  v086
 BYTE   W36
 BYTE   N03  Dn1  v077
 BYTE   W12
 BYTE   Dn1
 BYTE   W12
 BYTE   Dn1  v072
 BYTE   W12
 BYTE   Dn1  v077
 BYTE   W12
 BYTE   Dn1  v094
 BYTE   W06
 BYTE   Dn1  v089
 BYTE   W06
 BYTE   N36  Dn1  v108
 BYTE   N36  Cs2  v086
 BYTE   W48
 BYTE   N03  Dn1  v077
 BYTE   W12
 BYTE   Dn1
 BYTE   W12
 BYTE   Dn1  v072
 BYTE   W12
 BYTE   Dn1  v077
 BYTE   W12
 BYTE   N36  Cs2  v086
 BYTE   W96
 BYTE   W84
 BYTE   N03  Dn1  v078
 BYTE   W06
 BYTE   Dn1  v073
 BYTE   W06
 BYTE   N24  Dn1  v111
 BYTE   N36  Cs2  v086
 BYTE   W24
 BYTE   N03  Dn1  v077
 BYTE   W06
 BYTE   Dn1
 BYTE   W06
 BYTE   N24  Dn1  v108
 BYTE   N36  Cs2  v086
 BYTE   W06
 BYTE   N03  Dn1  v108
 BYTE   W24
 BYTE   Dn1  v074
 BYTE   W06
 BYTE   N24  Dn1  v108
 BYTE   N36  Cs2  v086
 BYTE   W24
 BYTE   N03  Dn1  v077
 BYTE   W12
 BYTE   Dn1  v073
 BYTE   W12
 BYTE   N36  Dn1  v108
 BYTE   N36  Cs2  v086
 BYTE   W36
 BYTE   N03  Dn1
 BYTE   W12
 BYTE   Dn1  v087
 BYTE   W12
 BYTE   Dn1  v090
 BYTE   W06
 BYTE   Dn1  v093
 BYTE   W03
 BYTE   Dn1  v100
 BYTE   W03
 BYTE   N36  Dn1  v108
 BYTE   N36  Cs2  v086
 BYTE   W36
 BYTE   Dn1  v108
 BYTE   N36  Cs2  v086
 BYTE   W36
 BYTE   N03  Dn1  v077
 BYTE   W12
 BYTE   Dn1
 BYTE   W12
 BYTE   Dn1
 BYTE   W12
 BYTE   Dn1
 BYTE   W06
 BYTE   Dn1
 BYTE   W06
 BYTE   Dn1
 BYTE   W12
 BYTE   Dn1
 BYTE   W12
 BYTE   Dn1
 BYTE   W24
 BYTE   Dn1
 BYTE   W12
 BYTE   Dn1  v087
 BYTE   W06
 BYTE   Dn1  v080
 BYTE   W06
 BYTE   N36  Dn1  v108
 BYTE   N36  Cs2  v086
 BYTE   W84
 BYTE   N03  Dn1  v085
 BYTE   W06
 BYTE   Dn1  v083
 BYTE   W06
 BYTE   N36  Dn1  v108
 BYTE   N36  Cs2  v086
 BYTE   W96
 BYTE   N06  Cn1  v100
 BYTE   N36  Cs2  v086
 BYTE   W96
 BYTE   N06  Dn1  v100
 BYTE   W12
 BYTE   Cn1
 BYTE   W12
 BYTE   Dn1
 BYTE   W12
 BYTE   Cn1
 BYTE   W12
 BYTE   Dn1
 BYTE   W06
 BYTE   Dn1
 BYTE   W06
 BYTE   Dn1
 BYTE   W06
 BYTE   Dn1
 BYTE   W06
 BYTE   An1
 BYTE   W06
 BYTE   An1
 BYTE   W06
 BYTE   Dn1
 BYTE   W06
 BYTE   Dn1
 BYTE   W06
 BYTE   Cn1
 BYTE   N06  Cs2
 BYTE   W96
 BYTE   W96
 BYTE   W96
 BYTE   W96
 BYTE   W96
 BYTE   W96
 BYTE   W96
 BYTE   W96
// 047   ----------------------------------------
 BYTE   VOICE   0
 BYTE   VOL   85*m_mvl/mxv
 BYTE   PAN   c_v+0
 BYTE   BEND   c_v+0
 BYTE   VOICE   0
 BYTE   VOICE   0
 BYTE   VOL   85*m_mvl/mxv
 BYTE   VOL   85*m_mvl/mxv
 BYTE   PAN   c_v+0
 BYTE   PAN   c_v+0
 BYTE   BEND   c_v+0
 BYTE   BEND   c_v+0
 BYTE   GoTo
  POIN2 Label_0_00
 BYTE   FINE

//**************** Track 2 (Midi-Chn.1) ****************//

m_002:
// 000   ----------------------------------------
Label_1_00:
 BYTE   KEYSH   m_key+0
 BYTE   VOICE   0
 BYTE   VOICE   0
 BYTE   VOICE   0
 BYTE   VOICE   0
 BYTE   VOL   85*m_mvl/mxv
 BYTE   VOL   85*m_mvl/mxv
 BYTE   VOL   85*m_mvl/mxv
 BYTE   VOL   85*m_mvl/mxv
 BYTE   VOL   85*m_mvl/mxv
 BYTE   PAN   c_v+0
 BYTE   PAN   c_v+0
 BYTE   PAN   c_v+0
 BYTE   PAN   c_v+0
 BYTE   PAN   c_v+0
 BYTE   BEND   c_v+0
 BYTE   BEND   c_v+0
 BYTE   BEND   c_v+0
 BYTE   BEND   c_v+0
 BYTE   BEND   c_v+0
 BYTE   N96  Cn2  v068
 BYTE   TEMPO   172*m_tbs/2
 BYTE   TEMPO   172*m_tbs/2
 BYTE   TEMPO   172*m_tbs/2
 BYTE   W24
 BYTE   N84  Cn2  v068
 BYTE   W96
 BYTE   W60
// 001   ----------------------------------------
 BYTE   Gs1  v064
 BYTE   W84
 BYTE   N96  As1
 BYTE   W24
// 002   ----------------------------------------
 BYTE   N24
 BYTE   W96
// 003   ----------------------------------------
 BYTE   N96  Cn2
 BYTE   W24
 BYTE   N84
 BYTE   W96
 BYTE   W60
// 004   ----------------------------------------
Label_1_08D0:
 BYTE   N84  Gs1  v063
 BYTE   W84
 BYTE   N96  As1
 BYTE   W24
 BYTE   PEND 
// 005   ----------------------------------------
 BYTE   N24  As1  v063
 BYTE   W96
// 006   ----------------------------------------
Label_1_0C00:
 BYTE   N96  Cn2  v063
 BYTE   W24
 BYTE   N84
 BYTE   W96
 BYTE   W60
 BYTE   PEND 
 BYTE   PATT
  POIN2 Label_1_08D0
// 007   ----------------------------------------
 BYTE   N24  As1  v063
 BYTE   W96
 BYTE   PATT
  POIN2 Label_1_0C00
// 008   ----------------------------------------
 BYTE   N84  Gs1  v063
 BYTE   W84
 BYTE   N96  As1
 BYTE   W96
// 009   ----------------------------------------
 BYTE   W24
 BYTE   PATT
  POIN2 Label_1_0C00
 BYTE   PATT
  POIN2 Label_1_08D0
// 010   ----------------------------------------
 BYTE   N24  As1  v063
 BYTE   W96
 BYTE   PATT
  POIN2 Label_1_0C00
 BYTE   PATT
  POIN2 Label_1_08D0
// 011   ----------------------------------------
 BYTE   N24  As1  v063
 BYTE   W96
// 012   ----------------------------------------
Label_1_2400:
 BYTE   N72  Fn1  v063
 BYTE   W72
 BYTE   N96  Gn1
 BYTE   W24
 BYTE   PEND 
// 013   ----------------------------------------
 BYTE   N24  Gn1  v063
 BYTE   W96
// 014   ----------------------------------------
 BYTE   N72  Gs1
 BYTE   W72
 BYTE   N96  As1
 BYTE   W24
// 015   ----------------------------------------
 BYTE   N24
 BYTE   W96
// 016   ----------------------------------------
 BYTE   N96  Fn1
 BYTE   W96
// 017   ----------------------------------------
 BYTE   N72  Gn1
 BYTE   W72
 BYTE   N96  Cs2
 BYTE   W24
// 018   ----------------------------------------
 BYTE   Cs2
 BYTE   W24
 BYTE   Cs2
 BYTE   W24
 BYTE   N24
 BYTE   W96
 BYTE   W96
// 019   ----------------------------------------
 BYTE   W96
 BYTE   W48
// 020   ----------------------------------------
Label_1_3300:
 BYTE   N36  Gs1  v063
 BYTE   W36
 BYTE   Gs1
 BYTE   W36
 BYTE   Gs1
 BYTE   W48
 BYTE   PEND 
// 021   ----------------------------------------
Label_1_34E0:
 BYTE   N36  Gs1  v063
 BYTE   W36
 BYTE   Gs1
 BYTE   W36
 BYTE   Gn1
 BYTE   W36
 BYTE   PEND 
// 022   ----------------------------------------
Label_1_3690:
 BYTE   N36  Gn1  v063
 BYTE   W36
 BYTE   Cn2
 BYTE   W48
 BYTE   Cn2
 BYTE   W36
 BYTE   PEND 
// 023   ----------------------------------------
Label_1_3870:
 BYTE   N36  Cn2  v063
 BYTE   W36
 BYTE   N96  Fn1
 BYTE   W96
 BYTE   PEND 
// 024   ----------------------------------------
 BYTE   N96  Gn1  v063
 BYTE   W96
// 025   ----------------------------------------
Label_1_3C00:
 BYTE   N72  Cn2  v063
 BYTE   W72
 BYTE   N48  Dn2
 BYTE   W48
 BYTE   PEND 
// 026   ----------------------------------------
 BYTE   N48  Ds2  v063
 BYTE   W48
 BYTE   N24  As1
 BYTE   W24
 BYTE   N36  Gs1
 BYTE   W36
 BYTE   PATT
  POIN2 Label_1_3300
// 027   ----------------------------------------
 BYTE   N36  Gs1  v063
 BYTE   W36
 BYTE   Gn1
 BYTE   W36
 BYTE   Gn1
 BYTE   W36
// 028   ----------------------------------------
 BYTE   Cn2
 BYTE   W48
 BYTE   Cn2
 BYTE   W36
 BYTE   Cn2
 BYTE   W36
// 029   ----------------------------------------
 BYTE   N96  Fn1
 BYTE   W96
// 030   ----------------------------------------
 BYTE   Gn1
 BYTE   W96
// 031   ----------------------------------------
 BYTE   Cn2
 BYTE   W24
 BYTE   Cn2
 BYTE   W96
 BYTE   W72
// 032   ----------------------------------------
Label_1_4B00:
 BYTE   N21  Gs1  v063
 BYTE   W24
 BYTE   Gs1
 BYTE   W24
 BYTE   Gs1
 BYTE   W24
 BYTE   Gs1
 BYTE   W24
 BYTE   PEND 
// 033   ----------------------------------------
 BYTE   N21  Gs1  v063
 BYTE   W24
 BYTE   Gs1
 BYTE   W24
 BYTE   Gs1
 BYTE   W24
 BYTE   N12
 BYTE   W12
 BYTE   N21  Cn2
 BYTE   W36
// 034   ----------------------------------------
Label_1_4E60:
 BYTE   N21  Cn2  v063
 BYTE   W24
 BYTE   Cn2
 BYTE   W24
 BYTE   Gn1
 BYTE   W24
 BYTE   Gn1
 BYTE   W24
 BYTE   PEND 
// 035   ----------------------------------------
 BYTE   N21  Gn1  v063
 BYTE   W24
 BYTE   Gn1
 BYTE   W24
 BYTE   Gn1
 BYTE   W24
 BYTE   Gs1
 BYTE   W24
 BYTE   PATT
  POIN2 Label_1_4B00
// 036   ----------------------------------------
 BYTE   N21  Gs1  v063
 BYTE   W24
 BYTE   Gs1
 BYTE   W24
 BYTE   N12
 BYTE   W12
 BYTE   N21  Cn2
 BYTE   W36
 BYTE   PATT
  POIN2 Label_1_4E60
// 037   ----------------------------------------
 BYTE   N21  Gn1  v063
 BYTE   W24
 BYTE   Gn1
 BYTE   W24
 BYTE   Gn1
 BYTE   W96
 BYTE   W96
// 038   ----------------------------------------
 BYTE   W96
 BYTE   W96
 BYTE   W96
 BYTE   W96
// 039   ----------------------------------------
 BYTE   W96
 BYTE   W96
 BYTE   W24
// 040   ----------------------------------------
Label_1_6300:
 BYTE   N96  Gs1  v063
 BYTE   W24
 BYTE   N84
 BYTE   W96
 BYTE   W60
 BYTE   PEND 
// 041   ----------------------------------------
Label_1_65D0:
 BYTE   N84  Cn2  v063
 BYTE   W84
 BYTE   N96  Gn1
 BYTE   W24
 BYTE   PEND 
// 042   ----------------------------------------
 BYTE   N24  Gn1  v063
 BYTE   W96
 BYTE   PATT
  POIN2 Label_1_6300
 BYTE   PATT
  POIN2 Label_1_65D0
// 043   ----------------------------------------
 BYTE   N24  Gn1  v063
 BYTE   W96
// 044   ----------------------------------------
 BYTE   N32  Cn2
 BYTE   W08
 BYTE   N01
 BYTE   W28
 BYTE   N32  Fn1
 BYTE   W08
 BYTE   N01
 BYTE   W28
 BYTE   N21  As1
 BYTE   W24
// 045   ----------------------------------------
Label_1_7080:
 BYTE   N36  Cn2  v063
 BYTE   W24
 BYTE   Fn1
 BYTE   W36
 BYTE   Fn1
 BYTE   W36
 BYTE   PEND 
// 046   ----------------------------------------
 BYTE   N36  Cn2  v063
 BYTE   W36
 BYTE   Fn1
 BYTE   W36
 BYTE   N21  As1
 BYTE   W24
 BYTE   PATT
  POIN2 Label_1_7080
// 047   ----------------------------------------
 BYTE   N96  Fn1  v063
 BYTE   W96
 BYTE   PATT
  POIN2 Label_1_2400
// 048   ----------------------------------------
 BYTE   N24  Gn1  v063
 BYTE   W96
 BYTE   W96
 BYTE   PATT
  POIN2 Label_1_3300
 BYTE   PATT
  POIN2 Label_1_34E0
 BYTE   PATT
  POIN2 Label_1_3690
 BYTE   PATT
  POIN2 Label_1_3870
// 049   ----------------------------------------
 BYTE   N96  Gn1  v063
 BYTE   W96
 BYTE   PATT
  POIN2 Label_1_3C00
// 050   ----------------------------------------
 BYTE   N48  Ds2  v063
 BYTE   W48
 BYTE   N24  As1  v064
 BYTE   W24
 BYTE   N36  Gs1
 BYTE   W96
// 051   ----------------------------------------
 BYTE   W24
// 052   ----------------------------------------
 BYTE   Gs1
 BYTE   W36
 BYTE   Gs1
 BYTE   W36
 BYTE   Gn1
 BYTE   W36
// 053   ----------------------------------------
 BYTE   Gn1
 BYTE   W36
 BYTE   Cn2
 BYTE   W48
 BYTE   Cn2
 BYTE   W36
// 054   ----------------------------------------
 BYTE   Cn2
 BYTE   W36
 BYTE   N96  Fn1
 BYTE   W96
// 055   ----------------------------------------
 BYTE   Gn1
 BYTE   W96
// 056   ----------------------------------------
 BYTE   Cn2
 BYTE   W24
 BYTE   Cn2
 BYTE   W96
 BYTE   W96
 BYTE   W96
// 057   ----------------------------------------
 BYTE   W96
 BYTE   W96
 BYTE   W96
 BYTE   W96
// 058   ----------------------------------------
 BYTE   W96
 BYTE   W96
 BYTE   W72
// 059   ----------------------------------------
 BYTE   VOICE   0
 BYTE   VOL   85*m_mvl/mxv
 BYTE   PAN   c_v+0
 BYTE   BEND   c_v+0
 BYTE   VOICE   0
 BYTE   VOICE   0
 BYTE   VOL   85*m_mvl/mxv
 BYTE   VOL   85*m_mvl/mxv
 BYTE   PAN   c_v+0
 BYTE   PAN   c_v+0
 BYTE   BEND   c_v+0
 BYTE   BEND   c_v+0
 BYTE   GoTo
  POIN2 Label_1_00
 BYTE   FINE

//**************** Track 3 (Midi-Chn.2) ****************//

m_003:
// 000   ----------------------------------------
Label_2_00:
 BYTE   KEYSH   m_key+0
 BYTE   VOICE   0
 BYTE   VOICE   0
 BYTE   VOICE   0
 BYTE   VOICE   0
 BYTE   VOL   53*m_mvl/mxv
 BYTE   VOL   53*m_mvl/mxv
 BYTE   VOL   53*m_mvl/mxv
 BYTE   VOL   53*m_mvl/mxv
 BYTE   VOL   53*m_mvl/mxv
 BYTE   PAN   c_v+0
 BYTE   PAN   c_v+0
 BYTE   PAN   c_v+0
 BYTE   PAN   c_v+0
 BYTE   PAN   c_v+0
 BYTE   BEND   c_v+0
 BYTE   BEND   c_v+0
 BYTE   BEND   c_v+0
 BYTE   BEND   c_v+0
 BYTE   BEND   c_v+0
 BYTE   N96  Cn2  v127
 BYTE   N96  Gn2
 BYTE   N96  As2
 BYTE   TEMPO   172*m_tbs/2
 BYTE   TEMPO   172*m_tbs/2
 BYTE   TEMPO   172*m_tbs/2
 BYTE   W24
 BYTE   N84  Gn2  v127
 BYTE   N84  As2
 BYTE   N84  Cn2
 BYTE   W96
 BYTE   W60
// 001   ----------------------------------------
 BYTE   Gs1
 BYTE   N84  Ds2
 BYTE   W84
 BYTE   N96  As1
 BYTE   N96  Fn2
 BYTE   W24
// 002   ----------------------------------------
Label_2_0480:
 BYTE   N24  As1  v127
 BYTE   N24  Fn2
 BYTE   W96
 BYTE   PEND 
// 003   ----------------------------------------
Label_2_0600:
 BYTE   N96  Gn2  v127
 BYTE   N96  Cn2
 BYTE   W24
 BYTE   N84  Gn2
 BYTE   N84  Cn2
 BYTE   W96
 BYTE   W60
 BYTE   PEND 
// 004   ----------------------------------------
 BYTE   N84  Ds2  v127
 BYTE   N84  Gs1
 BYTE   W96
 BYTE   W78
// 005   ----------------------------------------
 BYTE   N06  As2
 BYTE   W06
 BYTE   Fn2
 BYTE   W06
 BYTE   Ds2
 BYTE   W06
 BYTE   Dn2
 BYTE   W06
 BYTE   As1
 BYTE   W06
 BYTE   N96  Gn2
 BYTE   N96  Cn2
 BYTE   W24
 BYTE   N84  Gn2
 BYTE   N84  Cn2
 BYTE   W96
 BYTE   W60
// 006   ----------------------------------------
Label_2_0ED0:
 BYTE   N84  Ds2  v127
 BYTE   N84  Gs1
 BYTE   W84
 BYTE   N96  As1
 BYTE   N96  Fn2
 BYTE   W24
 BYTE   PEND 
 BYTE   PATT
  POIN2 Label_2_0480
// 007   ----------------------------------------
 BYTE   N96  Cn2  v127
 BYTE   N96  Gn2
 BYTE   W24
 BYTE   N84  Cn2
 BYTE   N84  Gn2
 BYTE   W96
 BYTE   W60
// 008   ----------------------------------------
 BYTE   Gs1
 BYTE   N84  Ds2
 BYTE   W84
 BYTE   N96  As1
 BYTE   N96  Fn2
 BYTE   W96
// 009   ----------------------------------------
 BYTE   W24
 BYTE   PATT
  POIN2 Label_2_0600
 BYTE   PATT
  POIN2 Label_2_0ED0
 BYTE   PATT
  POIN2 Label_2_0480
 BYTE   PATT
  POIN2 Label_2_0600
// 010   ----------------------------------------
 BYTE   N84  Gs1  v127
 BYTE   N84  Ds2
 BYTE   W84
 BYTE   N96  As1
 BYTE   W24
// 011   ----------------------------------------
 BYTE   N24
 BYTE   W48
 BYTE   N12  As2
 BYTE   W12
 BYTE   Fn2
 BYTE   W12
 BYTE   Ds2
 BYTE   W12
 BYTE   Dn2
 BYTE   W12
// 012   ----------------------------------------
 BYTE   N72  Fn1
 BYTE   W12
 BYTE   N60  Cn2
 BYTE   W12
 BYTE   N12  Gn2
 BYTE   W12
 BYTE   N36  Gs2
 BYTE   W36
 BYTE   N96  Gn1
 BYTE   W12
 BYTE   Dn2
 BYTE   W12
// 013   ----------------------------------------
 BYTE   N12  Gn2
 BYTE   W12
 BYTE   N84  As2
 BYTE   W84
// 014   ----------------------------------------
 BYTE   N72  Gs1
 BYTE   W12
 BYTE   N60  Ds2
 BYTE   W12
 BYTE   N12  As2
 BYTE   W12
 BYTE   N36  Cn3
 BYTE   W36
 BYTE   N96  As1
 BYTE   W12
 BYTE   Fn2
 BYTE   W12
// 015   ----------------------------------------
 BYTE   N12  Cn3
 BYTE   W96
 BYTE   W96
 BYTE   W60
// 016   ----------------------------------------
 BYTE   As2
 BYTE   W12
 BYTE   N96  Cn3
 BYTE   W24
 BYTE   N24
 BYTE   W96
 BYTE   W96
 BYTE   W96
// 017   ----------------------------------------
 BYTE   W96
// 018   ----------------------------------------
Label_2_3300:
 BYTE   N96  Gs1  v127
 BYTE   W12
 BYTE   N24  Ds2
 BYTE   W12
 BYTE   N12  As2
 BYTE   W12
 BYTE   N24  Ds2
 BYTE   W12
 BYTE   N12  Cn3
 BYTE   W12
 BYTE   Ds2
 BYTE   W12
 BYTE   N48  Fn2
 BYTE   W48
 BYTE   PEND 
// 019   ----------------------------------------
Label_2_34E0:
 BYTE   N12  Gn2  v127
 BYTE   N72  Gs1
 BYTE   W12
 BYTE   N12  Fn2
 BYTE   W24
 BYTE   As2
 BYTE   W12
 BYTE   Gn2
 BYTE   W12
 BYTE   Ds2
 BYTE   W12
 BYTE   N24  Dn2
 BYTE   N72  Gn1
 BYTE   W24
 BYTE   PEND 
// 020   ----------------------------------------
Label_2_3660:
 BYTE   N24  Fn2  v127
 BYTE   W12
 BYTE   N36  Dn2
 BYTE   W12
 BYTE   N12  Gn2
 BYTE   W12
 BYTE   Fn2
 BYTE   W12
 BYTE   Gn2
 BYTE   N24  Cn2
 BYTE   W12
 BYTE   N12  Ds2
 BYTE   W12
 BYTE   Fn2
 BYTE   W12
 BYTE   Ds2
 BYTE   W12
 BYTE   PEND 
// 021   ----------------------------------------
Label_2_37E0:
 BYTE   N72  Cn2  v127
 BYTE   W48
 BYTE   N24  As2
 BYTE   W24
 BYTE   N96  Fn1
 BYTE   W12
 BYTE   N12  Ds2
 BYTE   W12
 BYTE   PEND 
// 022   ----------------------------------------
Label_2_3960:
 BYTE   N12  Gs2  v127
 BYTE   W12
 BYTE   Ds2
 BYTE   W12
 BYTE   Cn3
 BYTE   W12
 BYTE   Ds2
 BYTE   W12
 BYTE   Gn2
 BYTE   W12
 BYTE   Ds2
 BYTE   W12
 BYTE   N96  Gn1
 BYTE   W12
 BYTE   N12  Gn2
 BYTE   W12
 BYTE   PEND 
// 023   ----------------------------------------
Label_2_3AE0:
 BYTE   N12  Bn2  v127
 BYTE   W12
 BYTE   Gn2
 BYTE   W24
 BYTE   Gn2
 BYTE   W12
 BYTE   Bn2
 BYTE   W12
 BYTE   Gn2
 BYTE   W12
 BYTE   N24  Fn2
 BYTE   N72  Cn2
 BYTE   W24
 BYTE   PEND 
// 024   ----------------------------------------
Label_2_3C60:
 BYTE   N48  Gn2  v127
 BYTE   W48
 BYTE   Dn2
 BYTE   W48
 BYTE   PEND 
// 025   ----------------------------------------
Label_2_3DE0:
 BYTE   N24  Ds2  v127
 BYTE   W12
 BYTE   N12  Gn2
 BYTE   W12
 BYTE   As2
 BYTE   W12
 BYTE   Ds2
 BYTE   W12
 BYTE   N24  As1
 BYTE   W24
 BYTE   N96  Gs1
 BYTE   N96  Ds2
 BYTE   W96
// 026   ----------------------------------------
 BYTE   W24
 BYTE   PEND 
// 027   ----------------------------------------
Label_2_40E0:
 BYTE   N72  Ds2  v127
 BYTE   N72  Gs1
 BYTE   W72
 BYTE   N36  Dn2
 BYTE   N72  Gn1
 BYTE   W72
 BYTE   PEND 
// 028   ----------------------------------------
Label_2_4320:
 BYTE   N24  Cn2  v127
 BYTE   W48
 BYTE   N72
 BYTE   W72
 BYTE   PEND 
// 029   ----------------------------------------
 BYTE   N96  Fn1  v127
 BYTE   W96
// 030   ----------------------------------------
 BYTE   Gn1
 BYTE   W96
// 031   ----------------------------------------
 BYTE   Cn2
 BYTE   W24
 BYTE   Cn2
 BYTE   W96
 BYTE   W72
// 032   ----------------------------------------
 BYTE   Gs1
 BYTE   W24
 BYTE   N84
 BYTE   W24
 BYTE   N48  Gs2
 BYTE   N48  Cn3
 BYTE   W96
 BYTE   W36
// 033   ----------------------------------------
Label_2_4DD0:
 BYTE   N84  Cn2  v127
 BYTE   W84
 BYTE   N96  Gn1
 BYTE   W24
 BYTE   PEND 
// 034   ----------------------------------------
 BYTE   N24  Gn1  v127
 BYTE   W66
 BYTE   N06  As2
 BYTE   W06
 BYTE   Fn2
 BYTE   W06
 BYTE   Ds2
 BYTE   W06
 BYTE   Dn2
 BYTE   W06
 BYTE   As1
 BYTE   W06
// 035   ----------------------------------------
 BYTE   N96  Gs1
 BYTE   W24
 BYTE   N84
 BYTE   W96
 BYTE   W60
 BYTE   PATT
  POIN2 Label_2_4DD0
// 036   ----------------------------------------
 BYTE   N24  Gn1  v127
 BYTE   W96
 BYTE   W96
 BYTE   W96
 BYTE   W96
// 037   ----------------------------------------
 BYTE   W96
 BYTE   W96
 BYTE   W96
 BYTE   W96
// 038   ----------------------------------------
 BYTE   W96
// 039   ----------------------------------------
 BYTE   N96  Gs1
 BYTE   N96  Ds2
 BYTE   W24
 BYTE   N84  Gs1
 BYTE   N84  Ds2
 BYTE   W96
 BYTE   W60
// 040   ----------------------------------------
 BYTE   Gn2
 BYTE   N84  Cn2
 BYTE   W84
 BYTE   N96  Gn1
 BYTE   N96  Dn2
 BYTE   W24
// 041   ----------------------------------------
 BYTE   N24  Gn1
 BYTE   N24  Dn2
 BYTE   W96
// 042   ----------------------------------------
 BYTE   N96  Ds2
 BYTE   N96  Gs1
 BYTE   W24
 BYTE   N84  Ds2
 BYTE   N84  Gs1
 BYTE   W96
 BYTE   W60
// 043   ----------------------------------------
 BYTE   Cn2
 BYTE   N84  Gn2
 BYTE   W84
 BYTE   N96  Gn1
 BYTE   N96  Dn2
 BYTE   W72
// 044   ----------------------------------------
 BYTE   N12  As2
 BYTE   W12
 BYTE   Fn2
 BYTE   W12
 BYTE   Ds2
 BYTE   W12
 BYTE   N09  Dn2
 BYTE   W96
 BYTE   W96
 BYTE   W96
// 045   ----------------------------------------
 BYTE   W96
 BYTE   W96
 BYTE   W72
// 046   ----------------------------------------
 BYTE   N12  As2
 BYTE   W12
 BYTE   N96  Cn3
 BYTE   W24
 BYTE   N24
 BYTE   W96
 BYTE   W96
 BYTE   PATT
  POIN2 Label_2_3300
 BYTE   PATT
  POIN2 Label_2_34E0
 BYTE   PATT
  POIN2 Label_2_3660
 BYTE   PATT
  POIN2 Label_2_37E0
 BYTE   PATT
  POIN2 Label_2_3960
 BYTE   PATT
  POIN2 Label_2_3AE0
 BYTE   PATT
  POIN2 Label_2_3C60
 BYTE   PATT
  POIN2 Label_2_3DE0
 BYTE   PATT
  POIN2 Label_2_40E0
 BYTE   PATT
  POIN2 Label_2_4320
// 047   ----------------------------------------
 BYTE   N96  Fn1  v127
 BYTE   W96
// 048   ----------------------------------------
 BYTE   Gn1
 BYTE   W96
// 049   ----------------------------------------
 BYTE   Cn2
 BYTE   W24
 BYTE   Cn2
 BYTE   W96
 BYTE   W96
 BYTE   W96
// 050   ----------------------------------------
 BYTE   W96
 BYTE   W96
 BYTE   W96
 BYTE   W96
// 051   ----------------------------------------
 BYTE   W96
 BYTE   W96
 BYTE   W72
// 052   ----------------------------------------
 BYTE   VOICE   0
 BYTE   VOL   53*m_mvl/mxv
 BYTE   PAN   c_v+0
 BYTE   BEND   c_v+0
 BYTE   VOICE   0
 BYTE   VOICE   0
 BYTE   VOL   53*m_mvl/mxv
 BYTE   VOL   53*m_mvl/mxv
 BYTE   PAN   c_v+0
 BYTE   PAN   c_v+0
 BYTE   BEND   c_v+0
 BYTE   BEND   c_v+0
 BYTE   GoTo
  POIN2 Label_2_00
 BYTE   FINE

//**************** Track 4 (Midi-Chn.3) ****************//

m_004:
// 000   ----------------------------------------
Label_3_00:
 BYTE   KEYSH   m_key+0
 BYTE   VOICE   0
 BYTE   VOICE   0
 BYTE   VOICE   0
 BYTE   VOICE   0
 BYTE   VOL   55*m_mvl/mxv
 BYTE   VOL   55*m_mvl/mxv
 BYTE   VOL   55*m_mvl/mxv
 BYTE   VOL   55*m_mvl/mxv
 BYTE   VOL   55*m_mvl/mxv
 BYTE   PAN   c_v+0
 BYTE   PAN   c_v+0
 BYTE   PAN   c_v+0
 BYTE   PAN   c_v+0
 BYTE   PAN   c_v+0
 BYTE   BEND   c_v+0
 BYTE   BEND   c_v+0
 BYTE   BEND   c_v+0
 BYTE   BEND   c_v+0
 BYTE   BEND   c_v+0
 BYTE   TEMPO   172*m_tbs/2
 BYTE   TEMPO   172*m_tbs/2
 BYTE   TEMPO   172*m_tbs/2
 BYTE   W96
 BYTE   W96
 BYTE   W96
 BYTE   W72
// 001   ----------------------------------------
 BYTE   N12  Gn4  v061
 BYTE   W12
 BYTE   As4
 BYTE   W12
 BYTE   N72  Dn5
 BYTE   W72
// 002   ----------------------------------------
 BYTE   N12  Ds5
 BYTE   W12
 BYTE   N96  Cn5
 BYTE   W24
 BYTE   N12
 BYTE   W96
 BYTE   W12
// 003   ----------------------------------------
 BYTE   N24  Gn4
 BYTE   W06
 BYTE   N03
 BYTE   W18
 BYTE   N06  Dn5
 BYTE   W03
 BYTE   N21  Gn5
 BYTE   W21
 BYTE   N12  Fn5
 BYTE   W12
 BYTE   Ds5
 BYTE   W12
 BYTE   N06  Dn5
 BYTE   W06
 BYTE   Ds5  v060
 BYTE   W06
 BYTE   Dn5
 BYTE   W06
 BYTE   As4
 BYTE   W06
// 004   ----------------------------------------
 BYTE   Fn4
 BYTE   W06
 BYTE   Ds4
 BYTE   W06
 BYTE   Dn4
 BYTE   W06
 BYTE   As3
 BYTE   W06
 BYTE   Fn3
 BYTE   W06
 BYTE   Ds3
 BYTE   W06
 BYTE   Dn3
 BYTE   W96
 BYTE   W96
 BYTE   W96
// 005   ----------------------------------------
 BYTE   W96
 BYTE   W96
 BYTE   W12
// 006   ----------------------------------------
 BYTE   N12  Cn5
 BYTE   W12
 BYTE   Dn5
 BYTE   W12
 BYTE   N48  Ds5
 BYTE   W60
 BYTE   N12
 BYTE   W12
// 007   ----------------------------------------
 BYTE   Dn5
 BYTE   W12
 BYTE   N48  Cn5
 BYTE   W72
 BYTE   N12  As4
 BYTE   W12
// 008   ----------------------------------------
 BYTE   Gs4
 BYTE   W12
 BYTE   Gn4
 BYTE   W12
 BYTE   Fn4
 BYTE   W12
 BYTE   N60  Gn4
 BYTE   W96
 BYTE   W96
 BYTE   W96
// 009   ----------------------------------------
 BYTE   W96
 BYTE   W96
 BYTE   W96
 BYTE   W24
// 010   ----------------------------------------
 BYTE   N12  Gs4
 BYTE   W12
 BYTE   N24  Gn4
 BYTE   W24
 BYTE   N12  Fn4
 BYTE   W12
 BYTE   N48  Ds4
 BYTE   W48
// 011   ----------------------------------------
 BYTE   N12  Dn4
 BYTE   W12
 BYTE   Cn4
 BYTE   W12
 BYTE   Ds3
 BYTE   W12
 BYTE   Fn3
 BYTE   W12
 BYTE   N24  As3
 BYTE   W24
 BYTE   N12  Fn3
 BYTE   W12
 BYTE   Ds3
 BYTE   W12
// 012   ----------------------------------------
 BYTE   Dn3
 BYTE   W96
 BYTE   W96
 BYTE   W96
 BYTE   W72
// 013   ----------------------------------------
 BYTE   N84
 BYTE   W72
 BYTE   N12  As4
 BYTE   W12
 BYTE   Gs4
 BYTE   W12
// 014   ----------------------------------------
 BYTE   Gn4
 BYTE   W12
 BYTE   Ds4
 BYTE   W12
 BYTE   Cn4
 BYTE   W12
 BYTE   Gs3
 BYTE   W12
 BYTE   Gn3
 BYTE   W12
 BYTE   Ds3
 BYTE   W12
 BYTE   Gs3
 BYTE   W12
 BYTE   Fn4
 BYTE   W12
// 015   ----------------------------------------
 BYTE   Ds4
 BYTE   W12
 BYTE   As3
 BYTE   W12
 BYTE   Fn3
 BYTE   W12
 BYTE   Dn3
 BYTE   W24
 BYTE   N96  Cn4
 BYTE   W24
 BYTE   N72
 BYTE   W96
// 016   ----------------------------------------
 BYTE   W48
// 017   ----------------------------------------
 BYTE   N12  Fn4  v059
 BYTE   W12
 BYTE   Cn4
 BYTE   W12
 BYTE   N96  Fn4
 BYTE   W06
 BYTE   Cn5
 BYTE   W06
 BYTE   Fn5
 BYTE   W12
 BYTE   N24  Fn4
 BYTE   W06
 BYTE   N18  Cn5
 BYTE   W06
 BYTE   N12  Fn5
 BYTE   W96
 BYTE   W96
// 018   ----------------------------------------
 BYTE   W12
// 019   ----------------------------------------
Label_3_3360:
 BYTE   N12  As4  v059
 BYTE   W12
 BYTE   N48  Ds5
 BYTE   W48
 BYTE   N12  Ds4
 BYTE   W12
 BYTE   As4
 BYTE   W12
 BYTE   Ds5
 BYTE   W12
 BYTE   PEND 
// 020   ----------------------------------------
Label_3_34E0:
 BYTE   N12  Ds4  v059
 BYTE   W12
 BYTE   As3
 BYTE   W12
 BYTE   N48  Ds3
 BYTE   W72
 BYTE   PEND 
 BYTE   PATT
  POIN2 Label_3_3360
// 021   ----------------------------------------
 BYTE   N12  Ds4  v059
 BYTE   N96  Ds3
 BYTE   W12
 BYTE   N12  As3
 BYTE   W12
 BYTE   N24  Dn3
 BYTE   N24  Ds3
 BYTE   W48
 BYTE   N48  Ds4
 BYTE   W48
// 022   ----------------------------------------
Label_3_39C0:
 BYTE   N48  As3  v059
 BYTE   N48  As4
 BYTE   W48
 BYTE   N24  As3
 BYTE   N24  As4
 BYTE   W24
 BYTE   Gs3
 BYTE   N24  Gs4
 BYTE   W24
 BYTE   PEND 
// 023   ----------------------------------------
Label_3_3B40:
 BYTE   N12  Dn3  v059
 BYTE   N24  Gn3
 BYTE   N24  Gn4
 BYTE   W24
 BYTE   N12  Fn3
 BYTE   N12  Fn4
 BYTE   W12
 BYTE   N36  Gn3
 BYTE   N36  Gn4
 BYTE   W36
 BYTE   N12  As4
 BYTE   W12
 BYTE   N60  Ds5
 BYTE   W36
 BYTE   PEND 
// 024   ----------------------------------------
 BYTE   N12  Dn3  v059
 BYTE   W12
 BYTE   Ds3
 BYTE   W12
 BYTE   As4
 BYTE   N12  Fn3
 BYTE   W12
 BYTE   Gn3
 BYTE   N12  Ds5
 BYTE   W12
 BYTE   Ds3
 BYTE   N12  Ds4
 BYTE   W12
 BYTE   As4
 BYTE   W12
 BYTE   N48  Ds4
 BYTE   W72
 BYTE   PATT
  POIN2 Label_3_3360
 BYTE   PATT
  POIN2 Label_3_34E0
// 025   ----------------------------------------
Label_3_4260:
 BYTE   N12  As4  v059
 BYTE   W12
 BYTE   N48  Ds5
 BYTE   W48
 BYTE   N12  Ds4
 BYTE   W12
 BYTE   As4
 BYTE   W12
 BYTE   N36  Ds5
 BYTE   W12
 BYTE   PEND 
// 026   ----------------------------------------
Label_3_43E0:
 BYTE   N24  Ds4  v059
 BYTE   W24
 BYTE   Fn4
 BYTE   N24  Fn5
 BYTE   W24
 BYTE   Dn4
 BYTE   N24  Dn5
 BYTE   W24
 BYTE   N96  Ds4
 BYTE   N96  Ds5
 BYTE   W96
// 027   ----------------------------------------
 BYTE   W24
 BYTE   PEND 
// 028   ----------------------------------------
Label_3_46E0:
 BYTE   N24  Ds4  v059
 BYTE   N24  Ds5
 BYTE   W24
 BYTE   Fn4
 BYTE   N24  Fn5
 BYTE   W24
 BYTE   Dn4
 BYTE   N24  Dn5
 BYTE   W24
 BYTE   N36  Dn4
 BYTE   N36  Dn5
 BYTE   W36
 BYTE   PEND 
// 029   ----------------------------------------
Label_3_4890:
 BYTE   N96  Cn4  v059
 BYTE   N96  Cn5
 BYTE   W24
 BYTE   N60  Cn4
 BYTE   N60  Cn5
 BYTE   W96
 BYTE   W36
 BYTE   PEND 
// 030   ----------------------------------------
 BYTE   N48  Ds3  v059
 BYTE   N48  Gs3
 BYTE   W96
// 031   ----------------------------------------
 BYTE   Gn4
 BYTE   N48  Ds4
 BYTE   W48
 BYTE   N36  Cn4
 BYTE   N36  Ds4
 BYTE   W36
 BYTE   N60  As3
 BYTE   N60  Dn4
 BYTE   W72
// 032   ----------------------------------------
 BYTE   N12  As3
 BYTE   N12  Dn4
 BYTE   W12
 BYTE   N24  Ds4
 BYTE   N24  Cn4
 BYTE   W24
 BYTE   N06  Dn5
 BYTE   W06
 BYTE   Ds5
 BYTE   W06
 BYTE   Dn5
 BYTE   W06
 BYTE   As4
 BYTE   W06
 BYTE   Fn4
 BYTE   W06
 BYTE   Ds4
 BYTE   W06
 BYTE   Dn4
 BYTE   W06
 BYTE   As3
 BYTE   W06
 BYTE   Fn3
 BYTE   W06
 BYTE   Ds3
 BYTE   W06
// 033   ----------------------------------------
 BYTE   Dn3
 BYTE   W96
 BYTE   W36
// 034   ----------------------------------------
 BYTE   N48  Ds3
 BYTE   W48
 BYTE   N36  Gn4
 BYTE   N36  Ds4
 BYTE   W36
 BYTE   N84  Cn4
 BYTE   N84  Fn4
 BYTE   W84
// 035   ----------------------------------------
 BYTE   N96  Dn4
 BYTE   N96  Fn4
 BYTE   W24
 BYTE   N24  Dn4
 BYTE   N24  Fn4
 BYTE   W96
// 036   ----------------------------------------
 BYTE   N72  Dn4
 BYTE   N72  Dn5
 BYTE   N96  Dn3
 BYTE   N96  Fn3
 BYTE   W24
 BYTE   N48  Dn3
 BYTE   N48  Fn3
 BYTE   W48
 BYTE   N12  Ds4
 BYTE   N12  Ds5
 BYTE   W12
 BYTE   N96  Cn4
 BYTE   N96  Cn5
 BYTE   W24
// 037   ----------------------------------------
 BYTE   N12  Cn4
 BYTE   N12  Cn5
 BYTE   W36
 BYTE   N96  Ds3
 BYTE   W24
 BYTE   N24
 BYTE   W96
 BYTE   W72
// 038   ----------------------------------------
 BYTE   N48
 BYTE   N48  Gn3
 BYTE   W48
 BYTE   N24  Dn4
 BYTE   N24  Dn5
 BYTE   W24
 BYTE   N12  Ds4
 BYTE   N12  Ds5
 BYTE   W12
 BYTE   N60  Cn4
 BYTE   N60  Cn5
 BYTE   W60
// 039   ----------------------------------------
 BYTE   N24  Dn3
 BYTE   N24  Dn4
 BYTE   W24
 BYTE   N12  Ds3
 BYTE   N12  Ds4
 BYTE   W12
 BYTE   N60  Cn4
 BYTE   W96
 BYTE   W96
 BYTE   W96
// 040   ----------------------------------------
 BYTE   W96
 BYTE   W12
// 041   ----------------------------------------
 BYTE   N24  As4
 BYTE   W36
 BYTE   N84  Cn4
 BYTE   W84
// 042   ----------------------------------------
 BYTE   N96  Gn3
 BYTE   W24
 BYTE   N24
 BYTE   W96
 BYTE   W96
 BYTE   W36
// 043   ----------------------------------------
 BYTE   N12  Gs4
 BYTE   W12
 BYTE   N24  Gn4
 BYTE   W24
 BYTE   N12  Fn4
 BYTE   W12
 BYTE   N48  Ds4
 BYTE   W48
// 044   ----------------------------------------
 BYTE   N12  Dn4
 BYTE   W12
 BYTE   Cn4
 BYTE   W12
 BYTE   Ds3
 BYTE   W12
 BYTE   Fn3
 BYTE   W12
 BYTE   N24  As3
 BYTE   W24
 BYTE   N12  Fn3
 BYTE   W12
 BYTE   Ds3
 BYTE   W12
// 045   ----------------------------------------
 BYTE   Dn3
 BYTE   W96
 BYTE   W96
 BYTE   W96
 BYTE   W96
// 046   ----------------------------------------
 BYTE   W48
// 047   ----------------------------------------
 BYTE   As4
 BYTE   W12
 BYTE   Gs4
 BYTE   W12
 BYTE   Gn4
 BYTE   W12
 BYTE   Ds4
 BYTE   W12
 BYTE   Cn4
 BYTE   W12
 BYTE   Gs3
 BYTE   W12
 BYTE   Gn3
 BYTE   W12
 BYTE   Ds3
 BYTE   W12
// 048   ----------------------------------------
 BYTE   Gs3
 BYTE   W12
 BYTE   Fn4
 BYTE   W12
 BYTE   Ds4
 BYTE   W12
 BYTE   As3
 BYTE   W12
 BYTE   Fn3
 BYTE   W12
 BYTE   Dn3
 BYTE   W24
 BYTE   N96  Cn4
 BYTE   W24
// 049   ----------------------------------------
 BYTE   N12
 BYTE   W96
 BYTE   W24
// 050   ----------------------------------------
 BYTE   N24  As4
 BYTE   N24  Ds4
 BYTE   W24
 BYTE   As3
 BYTE   N24  Ds4
 BYTE   W24
 BYTE   Ds4
 BYTE   N24  Gn4
 BYTE   W48
 BYTE   PATT
  POIN2 Label_3_3360
 BYTE   PATT
  POIN2 Label_3_34E0
 BYTE   PATT
  POIN2 Label_3_3360
// 051   ----------------------------------------
 BYTE   N12  Ds4  v059
 BYTE   N96  Ds3
 BYTE   W12
 BYTE   N12  As3
 BYTE   W12
 BYTE   N24  Ds3
 BYTE   N24  Dn3
 BYTE   W48
 BYTE   N48  Ds4
 BYTE   W48
 BYTE   PATT
  POIN2 Label_3_39C0
 BYTE   PATT
  POIN2 Label_3_3B40
// 052   ----------------------------------------
 BYTE   N12  Dn3  v059
 BYTE   W12
 BYTE   Ds3
 BYTE   W12
 BYTE   Fn3
 BYTE   N12  As4
 BYTE   W12
 BYTE   Gn3
 BYTE   N12  Ds5
 BYTE   W12
 BYTE   Ds3
 BYTE   N12  Ds4
 BYTE   W12
 BYTE   As4
 BYTE   W12
 BYTE   N48  Ds4
 BYTE   W72
 BYTE   PATT
  POIN2 Label_3_3360
 BYTE   PATT
  POIN2 Label_3_34E0
 BYTE   PATT
  POIN2 Label_3_4260
 BYTE   PATT
  POIN2 Label_3_43E0
 BYTE   PATT
  POIN2 Label_3_46E0
 BYTE   PATT
  POIN2 Label_3_4890
// 053   ----------------------------------------
 BYTE   N06  Fn5  v059
 BYTE   N96  Ds5
 BYTE   N96  Dn5
 BYTE   W12
 BYTE   N06  Gn5
 BYTE   W12
 BYTE   Cn6  v127
 BYTE   W12
 BYTE   Fn5  v059
 BYTE   W12
 BYTE   Gn5
 BYTE   W12
 BYTE   Cn6  v127
 BYTE   W12
 BYTE   Fn5  v059
 BYTE   W12
 BYTE   Gn5
 BYTE   W12
// 054   ----------------------------------------
 BYTE   Cn6  v127
 BYTE   N84  Gs4  v059
 BYTE   N84  Cn5
 BYTE   W12
 BYTE   N06  Fn5
 BYTE   W12
 BYTE   Gn5
 BYTE   W12
 BYTE   Cn6  v127
 BYTE   W12
 BYTE   Fn5  v059
 BYTE   W12
 BYTE   Gn5
 BYTE   W12
 BYTE   Cn6  v127
 BYTE   W12
 BYTE   Fn5  v059
 BYTE   N84  As4
 BYTE   N84  Ds4
 BYTE   W12
// 055   ----------------------------------------
 BYTE   N06  Gn5
 BYTE   W12
 BYTE   Cn6  v127
 BYTE   W12
 BYTE   Fn5  v059
 BYTE   W12
 BYTE   Gn5
 BYTE   W12
 BYTE   Cn6  v127
 BYTE   W12
 BYTE   Fn5  v059
 BYTE   W12
 BYTE   Gn5
 BYTE   N96  As3
 BYTE   N96  Ds4
 BYTE   W12
 BYTE   N06  Cn6  v127
 BYTE   W12
// 056   ----------------------------------------
 BYTE   Fn5  v059
 BYTE   N24  Ds4
 BYTE   N24  As3
 BYTE   W12
 BYTE   N06  Gn5
 BYTE   W12
 BYTE   Cn6  v127
 BYTE   N24  Gn4  v059
 BYTE   W12
 BYTE   N06  Dn6  v127
 BYTE   W12
 BYTE   Gn5  v059
 BYTE   W12
 BYTE   Ds6  v127
 BYTE   W12
 BYTE   Dn6
 BYTE   W12
 BYTE   As5  v059
 BYTE   W12
// 057   ----------------------------------------
 BYTE   Fn5
 BYTE   N96  As4
 BYTE   N96  Ds5
 BYTE   N96  Dn5
 BYTE   W12
 BYTE   N06  Gn5
 BYTE   W12
 BYTE   Cn6  v127
 BYTE   W12
 BYTE   Fn5  v059
 BYTE   W12
 BYTE   Gn5
 BYTE   N48  Ds4
 BYTE   W12
 BYTE   N06  Cn6  v127
 BYTE   W12
 BYTE   Fn5  v059
 BYTE   W12
 BYTE   Gn5
 BYTE   W12
// 058   ----------------------------------------
 BYTE   Cn6  v127
 BYTE   N48  As4  v059
 BYTE   N84  Cn5
 BYTE   W12
 BYTE   N06  Fn5
 BYTE   W12
 BYTE   Gn5
 BYTE   W12
 BYTE   Cn6  v127
 BYTE   W12
 BYTE   Fn5  v059
 BYTE   N36  Gs4
 BYTE   W12
 BYTE   N06  Gn5
 BYTE   W12
 BYTE   Cn6  v127
 BYTE   W12
 BYTE   Fn5  v059
 BYTE   N84  As4
 BYTE   N84  Fn4
 BYTE   N84  Ds4
 BYTE   W12
// 059   ----------------------------------------
 BYTE   N06  Gn5
 BYTE   W12
 BYTE   Cn6  v127
 BYTE   W12
 BYTE   Fn5  v059
 BYTE   W12
 BYTE   Gn5
 BYTE   W12
 BYTE   Cn6  v127
 BYTE   W12
 BYTE   Fn5  v059
 BYTE   W12
 BYTE   Gn5
 BYTE   N48  Ds4
 BYTE   W12
 BYTE   N06  Cn6  v127
 BYTE   W12
// 060   ----------------------------------------
 BYTE   Fn5  v059
 BYTE   W12
 BYTE   Gn5
 BYTE   W12
 BYTE   Cn6  v127
 BYTE   N24  As3  v059
 BYTE   W12
 BYTE   N06  Dn6  v127
 BYTE   W12
 BYTE   Gn5  v059
 BYTE   N48  Dn4
 BYTE   W12
 BYTE   N06  Ds6  v127
 BYTE   W12
 BYTE   Dn6
 BYTE   W12
 BYTE   As5  v059
 BYTE   W12
// 061   ----------------------------------------
 BYTE   VOICE   0
 BYTE   VOL   55*m_mvl/mxv
 BYTE   PAN   c_v+0
 BYTE   BEND   c_v+0
 BYTE   VOICE   0
 BYTE   VOICE   0
 BYTE   VOL   55*m_mvl/mxv
 BYTE   VOL   55*m_mvl/mxv
 BYTE   PAN   c_v+0
 BYTE   PAN   c_v+0
 BYTE   BEND   c_v+0
 BYTE   BEND   c_v+0
 BYTE   GoTo
  POIN2 Label_3_00
 BYTE   FINE

//**************** Track 5 (Midi-Chn.4) ****************//

m_005:
// 000   ----------------------------------------
Label_4_00:
 BYTE   KEYSH   m_key+0
 BYTE   VOICE   0
 BYTE   VOICE   0
 BYTE   VOICE   0
 BYTE   VOICE   0
 BYTE   VOL   76*m_mvl/mxv
 BYTE   VOL   76*m_mvl/mxv
 BYTE   VOL   76*m_mvl/mxv
 BYTE   VOL   76*m_mvl/mxv
 BYTE   VOL   76*m_mvl/mxv
 BYTE   PAN   c_v+63
 BYTE   PAN   c_v+63
 BYTE   PAN   c_v+63
 BYTE   PAN   c_v+63
 BYTE   PAN   c_v+63
 BYTE   BEND   c_v+0
 BYTE   BEND   c_v+0
 BYTE   BEND   c_v+0
 BYTE   BEND   c_v+0
 BYTE   BEND   c_v+0
 BYTE   N18  Cn2  v114
 BYTE   TEMPO   172*m_tbs/2
 BYTE   TEMPO   172*m_tbs/2
 BYTE   TEMPO   172*m_tbs/2
 BYTE   W36
 BYTE   N18  Gn2  v114
 BYTE   W36
 BYTE   Dn3
 BYTE   W36
// 001   ----------------------------------------
Label_4_01B0:
 BYTE   N18  Ds3  v114
 BYTE   W36
 BYTE   Dn3
 BYTE   W36
 BYTE   Gs2
 BYTE   W48
 BYTE   PEND 
// 002   ----------------------------------------
Label_4_0390:
 BYTE   N18  Cn3  v114
 BYTE   W12
 BYTE   Gs2
 BYTE   W12
 BYTE   Ds2
 BYTE   W12
 BYTE   As2
 BYTE   W24
 BYTE   Fn2
 BYTE   W36
 BYTE   PEND 
// 003   ----------------------------------------
 BYTE   N18  As2  v114
 BYTE   W24
 BYTE   Fn2
 BYTE   W36
 BYTE   Cn2
 BYTE   W36
// 004   ----------------------------------------
 BYTE   Gn2
 BYTE   W36
 BYTE   Dn3
 BYTE   W36
 BYTE   Ds3
 BYTE   W36
// 005   ----------------------------------------
 BYTE   Dn3
 BYTE   W36
 BYTE   Gs2
 BYTE   W48
 BYTE   Cn3
 BYTE   W12
// 006   ----------------------------------------
 BYTE   Gs2
 BYTE   W12
 BYTE   Ds2
 BYTE   W12
 BYTE   As2
 BYTE   W24
 BYTE   Fn2
 BYTE   W36
 BYTE   As2
 BYTE   W24
// 007   ----------------------------------------
 BYTE   Fn2
 BYTE   W36
 BYTE   Cn2
 BYTE   W36
 BYTE   Gn2
 BYTE   W36
// 008   ----------------------------------------
 BYTE   Dn3
 BYTE   W36
 BYTE   Ds3
 BYTE   W36
 BYTE   Dn3
 BYTE   W36
// 009   ----------------------------------------
 BYTE   Gs2
 BYTE   W48
 BYTE   Cn3
 BYTE   W12
 BYTE   Gs2
 BYTE   W12
 BYTE   Ds2
 BYTE   W12
 BYTE   As2
 BYTE   W24
// 010   ----------------------------------------
 BYTE   Fn2
 BYTE   W36
 BYTE   As2
 BYTE   W24
 BYTE   Fn2
 BYTE   W36
// 011   ----------------------------------------
 BYTE   Cn2
 BYTE   W36
 BYTE   Gn2
 BYTE   W36
 BYTE   Dn3
 BYTE   W36
 BYTE   PATT
  POIN2 Label_4_01B0
 BYTE   PATT
  POIN2 Label_4_0390
// 012   ----------------------------------------
 BYTE   N18  As2  v114
 BYTE   W24
 BYTE   Fn2
 BYTE   W36
 BYTE   Cn2  v113
 BYTE   W36
// 013   ----------------------------------------
 BYTE   Gn2
 BYTE   W36
 BYTE   Dn3
 BYTE   W36
 BYTE   Ds3
 BYTE   W36
// 014   ----------------------------------------
 BYTE   Dn3
 BYTE   W36
 BYTE   Gs2
 BYTE   W48
 BYTE   Cn3
 BYTE   W12
// 015   ----------------------------------------
 BYTE   Gs2
 BYTE   W12
 BYTE   Ds2
 BYTE   W12
 BYTE   As2
 BYTE   W24
 BYTE   Fn2
 BYTE   W36
 BYTE   As2
 BYTE   W24
// 016   ----------------------------------------
 BYTE   Fn2
 BYTE   W36
 BYTE   Cn2
 BYTE   W36
 BYTE   Gn2
 BYTE   W36
// 017   ----------------------------------------
 BYTE   Dn3
 BYTE   W36
 BYTE   Ds3
 BYTE   W36
 BYTE   Dn3
 BYTE   W36
// 018   ----------------------------------------
 BYTE   Gs2
 BYTE   W48
 BYTE   Cn3
 BYTE   W12
 BYTE   Gs2
 BYTE   W12
 BYTE   Ds2
 BYTE   W12
 BYTE   As2
 BYTE   W24
// 019   ----------------------------------------
 BYTE   Fn2
 BYTE   W36
 BYTE   As2
 BYTE   W24
 BYTE   Fn2
 BYTE   W96
 BYTE   W96
// 020   ----------------------------------------
 BYTE   W96
 BYTE   W96
 BYTE   W96
 BYTE   W96
// 021   ----------------------------------------
 BYTE   W96
 BYTE   W96
 BYTE   W96
 BYTE   W96
// 022   ----------------------------------------
 BYTE   W36
// 023   ----------------------------------------
 BYTE   N09  Gs1  v112
 BYTE   W12
 BYTE   Ds2
 BYTE   W12
 BYTE   As2
 BYTE   W12
 BYTE   Ds2
 BYTE   W12
 BYTE   Cn3
 BYTE   W12
 BYTE   Ds2
 BYTE   W12
 BYTE   N44  Fn2
 BYTE   W11
 BYTE   N01
 BYTE   W36
 BYTE   W01
// 024   ----------------------------------------
Label_4_34E0:
 BYTE   N09  Gn2  v112
 BYTE   W12
 BYTE   Fn2
 BYTE   W12
 BYTE   Ds3
 BYTE   W12
 BYTE   As2
 BYTE   W12
 BYTE   Gn2
 BYTE   W12
 BYTE   Ds2
 BYTE   W12
 BYTE   N21  Dn2
 BYTE   W24
 BYTE   PEND 
// 025   ----------------------------------------
 BYTE   N09  Fn2  v112
 BYTE   W12
 BYTE   Dn2
 BYTE   W12
 BYTE   Gn2
 BYTE   W12
 BYTE   Fn2
 BYTE   W12
 BYTE   Cn2
 BYTE   N09  Gn2
 BYTE   W12
 BYTE   Ds2
 BYTE   W12
 BYTE   Fn2
 BYTE   W12
 BYTE   Ds2
 BYTE   W12
// 026   ----------------------------------------
Label_4_37E0:
 BYTE   N21  Cn2  v112
 BYTE   W24
 BYTE   Dn3
 BYTE   W24
 BYTE   As2
 BYTE   W24
 BYTE   N09  Fn1
 BYTE   W12
 BYTE   Ds2
 BYTE   W12
 BYTE   PEND 
// 027   ----------------------------------------
Label_4_3960:
 BYTE   N09  Gs2  v112
 BYTE   W12
 BYTE   Ds2
 BYTE   W12
 BYTE   Cn3
 BYTE   W12
 BYTE   Ds2
 BYTE   W12
 BYTE   Gn2
 BYTE   W12
 BYTE   Ds2
 BYTE   W12
 BYTE   Gn1
 BYTE   W12
 BYTE   Gn2
 BYTE   W12
 BYTE   PEND 
// 028   ----------------------------------------
 BYTE   N09  Bn2  v112
 BYTE   W12
 BYTE   Gn2
 BYTE   W12
 BYTE   Dn3
 BYTE   W12
 BYTE   Gn2
 BYTE   W12
 BYTE   Bn2
 BYTE   W12
 BYTE   Gn2
 BYTE   W12
 BYTE   N21  Fn2
 BYTE   W24
// 029   ----------------------------------------
 BYTE   N44  Gn2
 BYTE   W11
 BYTE   N01
 BYTE   W36
 BYTE   W01
 BYTE   N09  Dn3
 BYTE   W12
 BYTE   Ds3
 BYTE   W12
 BYTE   Fn3
 BYTE   W12
 BYTE   Gn3
 BYTE   W12
// 030   ----------------------------------------
 BYTE   Ds3
 BYTE   W12
 BYTE   Gn2
 BYTE   W12
 BYTE   As2
 BYTE   W12
 BYTE   Ds2
 BYTE   W12
 BYTE   N21  As1
 BYTE   W24
 BYTE   N09  Gs1
 BYTE   W12
 BYTE   Ds2
 BYTE   W12
// 031   ----------------------------------------
 BYTE   As2
 BYTE   W12
 BYTE   Ds2
 BYTE   W12
 BYTE   Cn3
 BYTE   W12
 BYTE   Ds2
 BYTE   W12
 BYTE   N44  Fn2
 BYTE   W11
 BYTE   N01
 BYTE   W36
 BYTE   W01
 BYTE   PATT
  POIN2 Label_4_34E0
// 032   ----------------------------------------
 BYTE   N09  Fn2  v112
 BYTE   W12
 BYTE   Dn2
 BYTE   W12
 BYTE   Gn2
 BYTE   W12
 BYTE   Fn2
 BYTE   W12
 BYTE   Gn2
 BYTE   N09  Cn2
 BYTE   W12
 BYTE   Ds2
 BYTE   W12
 BYTE   Fn2
 BYTE   W12
 BYTE   Ds2
 BYTE   W12
 BYTE   PATT
  POIN2 Label_4_37E0
 BYTE   PATT
  POIN2 Label_4_3960
// 033   ----------------------------------------
 BYTE   N09  Bn2  v112
 BYTE   W12
 BYTE   Gn2
 BYTE   W12
 BYTE   Dn3
 BYTE   W12
 BYTE   Cn3
 BYTE   W12
 BYTE   As2
 BYTE   W12
 BYTE   Gn2
 BYTE   W12
 BYTE   Cn2
 BYTE   W12
 BYTE   Fn2
 BYTE   W12
// 034   ----------------------------------------
 BYTE   Dn2
 BYTE   W12
 BYTE   Cn2
 BYTE   W12
 BYTE   Ds2
 BYTE   W12
 BYTE   Cn3
 BYTE   W12
 BYTE   Gn2
 BYTE   W12
 BYTE   As2
 BYTE   W12
 BYTE   Dn3
 BYTE   W12
 BYTE   Ds3
 BYTE   W12
// 035   ----------------------------------------
 BYTE   As2
 BYTE   W12
 BYTE   Gn2
 BYTE   W12
 BYTE   Fn2
 BYTE   W12
 BYTE   Ds2
 BYTE   W12
 BYTE   As1
 BYTE   W12
 BYTE   Gs1
 BYTE   W96
 BYTE   W96
// 036   ----------------------------------------
 BYTE   W96
 BYTE   W96
 BYTE   W96
 BYTE   W96
// 037   ----------------------------------------
 BYTE   W96
 BYTE   W96
 BYTE   W96
 BYTE   W96
// 038   ----------------------------------------
 BYTE   W96
 BYTE   W96
 BYTE   W66
// 039   ----------------------------------------
 BYTE   PAN   c_v-1
 BYTE   W96
 BYTE   W96
 BYTE   W96
 BYTE   W42
 BYTE   N12  Gs2  v112
 BYTE   W36
 BYTE   Ds2
 BYTE   W36
 BYTE   As2
 BYTE   W36
 BYTE   Cn3
 BYTE   W36
 BYTE   As2
 BYTE   W36
 BYTE   Cn3
 BYTE   W48
 BYTE   Fn2
 BYTE   W36
 BYTE   Gn2
 BYTE   W96
 BYTE   W24
 BYTE   Gs2
 BYTE   W36
 BYTE   Ds2
 BYTE   W36
 BYTE   As2
 BYTE   W36
 BYTE   Cn3
 BYTE   W36
 BYTE   As2
 BYTE   W36
 BYTE   Cn3
 BYTE   W48
 BYTE   Fn2
 BYTE   W36
 BYTE   Dn2
 BYTE   W96
 BYTE   W24
 BYTE   Cn3
 BYTE   W36
 BYTE   Fn2
 BYTE   W36
 BYTE   As2
 BYTE   W24
 BYTE   Cn3
 BYTE   W24
 BYTE   Fn2
 BYTE   W36
 BYTE   Fn2
 BYTE   W36
 BYTE   Cn3
 BYTE   W36
 BYTE   Fn2
 BYTE   W36
 BYTE   As2
 BYTE   W24
 BYTE   Cn3
 BYTE   W24
 BYTE   Fn2
 BYTE   W36
 BYTE   Fn2
 BYTE   W36
 BYTE   Cn3
 BYTE   W96
 BYTE   Cn3
 BYTE   W72
 BYTE   Cn3
 BYTE   W36
// 040   ----------------------------------------
 BYTE   PAN   c_v+63
 BYTE   W96
 BYTE   W84
 BYTE   N09  Gs1  v112
 BYTE   W12
 BYTE   Ds2
 BYTE   W12
 BYTE   As2
 BYTE   W12
 BYTE   Ds2
 BYTE   W12
 BYTE   Cn3
 BYTE   W12
 BYTE   Ds2
 BYTE   W12
 BYTE   N44  Fn2
 BYTE   W11
 BYTE   N01
 BYTE   W36
 BYTE   W01
 BYTE   N09  Gn2
 BYTE   W12
 BYTE   Fn2
 BYTE   W12
 BYTE   Ds3
 BYTE   W12
 BYTE   As2
 BYTE   W12
 BYTE   Gn2
 BYTE   W12
 BYTE   Ds2
 BYTE   W12
 BYTE   N21  Dn2
 BYTE   W24
 BYTE   N09  Fn2
 BYTE   W12
 BYTE   Dn2
 BYTE   W12
 BYTE   Gn2
 BYTE   W12
 BYTE   Fn2
 BYTE   W12
 BYTE   Cn2
 BYTE   N09  Gn2
 BYTE   W12
 BYTE   Ds2
 BYTE   W12
 BYTE   Fn2
 BYTE   W12
 BYTE   Ds2
 BYTE   W12
 BYTE   N21  Cn2
 BYTE   W24
 BYTE   Dn3
 BYTE   W24
 BYTE   As2
 BYTE   W24
 BYTE   N09  Fn1
 BYTE   W12
 BYTE   Ds2
 BYTE   W12
 BYTE   Gs2
 BYTE   W12
 BYTE   Ds2
 BYTE   W12
 BYTE   Cn3
 BYTE   W12
 BYTE   Ds2
 BYTE   W12
 BYTE   Gn2
 BYTE   W12
 BYTE   Ds2
 BYTE   W12
 BYTE   Gn1
 BYTE   W12
 BYTE   Gn2
 BYTE   W12
 BYTE   Bn2
 BYTE   W12
 BYTE   Gn2
 BYTE   W12
 BYTE   Dn3
 BYTE   W12
 BYTE   Gn2
 BYTE   W12
 BYTE   Bn2
 BYTE   W12
 BYTE   Gn2
 BYTE   W12
 BYTE   N21  Fn2
 BYTE   W24
 BYTE   N44  Gn2
 BYTE   W11
 BYTE   N01
 BYTE   W36
 BYTE   W01
 BYTE   N09  Dn3
 BYTE   W12
 BYTE   Ds3
 BYTE   W12
 BYTE   Fn3
 BYTE   W12
 BYTE   Gn3
 BYTE   W12
 BYTE   Ds3
 BYTE   W12
 BYTE   Gn2
 BYTE   W12
 BYTE   As2
 BYTE   W12
 BYTE   Ds2
 BYTE   W12
 BYTE   N21  As1
 BYTE   W24
 BYTE   N09  Gs1
 BYTE   W12
 BYTE   Ds2
 BYTE   W12
 BYTE   As2
 BYTE   W12
 BYTE   Ds2
 BYTE   W12
 BYTE   Cn3
 BYTE   W12
 BYTE   Ds2
 BYTE   W12
 BYTE   N44  Fn2
 BYTE   W11
 BYTE   N01
 BYTE   W36
 BYTE   W01
 BYTE   N09  Gn2
 BYTE   W12
 BYTE   Fn2
 BYTE   W12
 BYTE   Ds3
 BYTE   W12
 BYTE   As2
 BYTE   W12
 BYTE   Gn2
 BYTE   W12
 BYTE   Ds2
 BYTE   W12
 BYTE   N21  Dn2
 BYTE   W24
 BYTE   N09  Fn2
 BYTE   W12
 BYTE   Dn2
 BYTE   W12
 BYTE   Gn2
 BYTE   W12
 BYTE   Fn2
 BYTE   W12
 BYTE   Gn2
 BYTE   N09  Cn2
 BYTE   W12
 BYTE   Ds2
 BYTE   W12
 BYTE   Fn2
 BYTE   W12
 BYTE   Ds2
 BYTE   W12
 BYTE   N21  Cn2
 BYTE   W24
 BYTE   Dn3
 BYTE   W24
 BYTE   As2
 BYTE   W24
 BYTE   N09  Fn1
 BYTE   W12
 BYTE   Ds2
 BYTE   W12
 BYTE   Gs2
 BYTE   W12
 BYTE   Ds2
 BYTE   W12
 BYTE   Cn3
 BYTE   W12
 BYTE   Ds2
 BYTE   W12
 BYTE   Gn2
 BYTE   W12
 BYTE   Ds2
 BYTE   W12
 BYTE   Gn1
 BYTE   W12
 BYTE   Gn2
 BYTE   W12
 BYTE   Bn2
 BYTE   W12
 BYTE   Gn2
 BYTE   W12
 BYTE   Dn3
 BYTE   W12
 BYTE   Cn3
 BYTE   W12
 BYTE   As2
 BYTE   W12
 BYTE   Gn2
 BYTE   W12
 BYTE   Cn2
 BYTE   W12
 BYTE   Fn2
 BYTE   W12
 BYTE   Dn2
 BYTE   W12
 BYTE   Cn2
 BYTE   W12
 BYTE   Ds2
 BYTE   W12
 BYTE   Cn3
 BYTE   W12
 BYTE   Gn2
 BYTE   W12
 BYTE   As2
 BYTE   W12
 BYTE   Dn3
 BYTE   W12
 BYTE   Ds3
 BYTE   W12
 BYTE   As2
 BYTE   W12
 BYTE   Gn2
 BYTE   W12
 BYTE   Fn2
 BYTE   W12
 BYTE   Ds2
 BYTE   W12
 BYTE   As1
 BYTE   W12
 BYTE   Gs1
 BYTE   W96
 BYTE   W96
 BYTE   W96
 BYTE   W96
 BYTE   W96
 BYTE   W96
 BYTE   W96
 BYTE   W96
 BYTE   W12
// 041   ----------------------------------------
 BYTE   VOICE   0
 BYTE   VOL   76*m_mvl/mxv
 BYTE   PAN   c_v+63
 BYTE   BEND   c_v+0
 BYTE   VOICE   0
 BYTE   VOICE   0
 BYTE   VOL   76*m_mvl/mxv
 BYTE   VOL   76*m_mvl/mxv
 BYTE   PAN   c_v+63
 BYTE   PAN   c_v+63
 BYTE   BEND   c_v+0
 BYTE   BEND   c_v+0
 BYTE   GoTo
  POIN2 Label_4_00
 BYTE   FINE

//**************** Track 6 (Midi-Chn.5) ****************//

m_006:
// 000   ----------------------------------------
Label_5_00:
 BYTE   KEYSH   m_key+0
 BYTE   VOICE   0
 BYTE   VOICE   0
 BYTE   VOICE   0
 BYTE   VOICE   0
 BYTE   VOL   105*m_mvl/mxv
 BYTE   VOL   105*m_mvl/mxv
 BYTE   VOL   105*m_mvl/mxv
 BYTE   VOL   105*m_mvl/mxv
 BYTE   VOL   105*m_mvl/mxv
 BYTE   PAN   c_v-64
 BYTE   PAN   c_v-64
 BYTE   PAN   c_v-64
 BYTE   BEND   c_v+0
 BYTE   BEND   c_v+0
 BYTE   BEND   c_v+0
 BYTE   BEND   c_v+0
 BYTE   BEND   c_v+0
 BYTE   N07  Fn3  v098
 BYTE   TEMPO   172*m_tbs/2
 BYTE   TEMPO   172*m_tbs/2
 BYTE   TEMPO   172*m_tbs/2
 BYTE   W12
 BYTE   N07  Gn3  v098
 BYTE   W12
 BYTE   Cn4
 BYTE   W12
 BYTE   Fn3
 BYTE   W12
 BYTE   Gn3
 BYTE   W12
 BYTE   Cn4
 BYTE   W12
 BYTE   Fn3
 BYTE   W12
 BYTE   Gn3
 BYTE   W12
// 001   ----------------------------------------
Label_5_0180:
 BYTE   N07  Cn4  v098
 BYTE   W12
 BYTE   Fn3
 BYTE   W12
 BYTE   Gn3
 BYTE   W12
 BYTE   Cn4
 BYTE   W12
 BYTE   Fn3
 BYTE   W12
 BYTE   Gn3
 BYTE   W12
 BYTE   Cn4
 BYTE   W12
 BYTE   Fn3
 BYTE   W12
 BYTE   PEND 
// 002   ----------------------------------------
Label_5_0300:
 BYTE   N07  Gn3  v098
 BYTE   W12
 BYTE   Cn4
 BYTE   W12
 BYTE   Fn3
 BYTE   W12
 BYTE   Gn3
 BYTE   W12
 BYTE   Cn4
 BYTE   W12
 BYTE   Fn3
 BYTE   W12
 BYTE   Gn3
 BYTE   W12
 BYTE   Cn4
 BYTE   W12
 BYTE   PEND 
// 003   ----------------------------------------
Label_5_0480:
 BYTE   N07  Fn3  v098
 BYTE   W12
 BYTE   Gn3
 BYTE   W12
 BYTE   Cn4
 BYTE   W12
 BYTE   Dn4
 BYTE   W12
 BYTE   Gn3
 BYTE   W12
 BYTE   Ds4
 BYTE   W12
 BYTE   Dn4
 BYTE   W12
 BYTE   As3
 BYTE   W12
 BYTE   PEND 
// 004   ----------------------------------------
Label_5_0600:
 BYTE   N07  Fn3  v098
 BYTE   W12
 BYTE   Gn3
 BYTE   W12
 BYTE   Cn4
 BYTE   W12
 BYTE   Fn3
 BYTE   W12
 BYTE   Gn3
 BYTE   W12
 BYTE   Cn4
 BYTE   W12
 BYTE   Fn3
 BYTE   W12
 BYTE   Gn3
 BYTE   W12
 BYTE   PEND 
 BYTE   PATT
  POIN2 Label_5_0180
 BYTE   PATT
  POIN2 Label_5_0300
 BYTE   PATT
  POIN2 Label_5_0480
 BYTE   PATT
  POIN2 Label_5_0600
 BYTE   PATT
  POIN2 Label_5_0180
 BYTE   PATT
  POIN2 Label_5_0300
 BYTE   PATT
  POIN2 Label_5_0480
 BYTE   PATT
  POIN2 Label_5_0600
 BYTE   PATT
  POIN2 Label_5_0180
 BYTE   PATT
  POIN2 Label_5_0300
 BYTE   PATT
  POIN2 Label_5_0480
 BYTE   PATT
  POIN2 Label_5_0600
 BYTE   PATT
  POIN2 Label_5_0180
 BYTE   PATT
  POIN2 Label_5_0300
 BYTE   PATT
  POIN2 Label_5_0480
 BYTE   PATT
  POIN2 Label_5_0600
 BYTE   PATT
  POIN2 Label_5_0180
 BYTE   PATT
  POIN2 Label_5_0300
// 005   ----------------------------------------
 BYTE   N07  Fn3  v098
 BYTE   W12
 BYTE   Gn3
 BYTE   W12
 BYTE   Cn4
 BYTE   W12
 BYTE   Dn4
 BYTE   W12
 BYTE   Gn3
 BYTE   W12
 BYTE   Ds4
 BYTE   W12
 BYTE   Dn4
 BYTE   W12
 BYTE   As3
 BYTE   W96
// 006   ----------------------------------------
 BYTE   W96
 BYTE   W96
 BYTE   W96
 BYTE   W96
// 007   ----------------------------------------
 BYTE   W96
 BYTE   W96
 BYTE   W96
 BYTE   W96
// 008   ----------------------------------------
 BYTE   W96
 BYTE   W96
 BYTE   W96
 BYTE   W96
// 009   ----------------------------------------
 BYTE   W96
 BYTE   W96
 BYTE   W96
 BYTE   W96
// 010   ----------------------------------------
 BYTE   W60
// 011   ----------------------------------------
 BYTE   N10
 BYTE   W24
 BYTE   As3
 BYTE   W24
 BYTE   Cn4
 BYTE   W12
 BYTE   Gs3
 BYTE   W12
 BYTE   Ds4
 BYTE   W12
 BYTE   Gs3
 BYTE   W12
// 012   ----------------------------------------
 BYTE   Fn4
 BYTE   W12
 BYTE   Gs3
 BYTE   W12
 BYTE   Dn4
 BYTE   W12
 BYTE   Ds4
 BYTE   W12
 BYTE   Dn4
 BYTE   W12
 BYTE   Fn4
 BYTE   W12
 BYTE   Cn4
 BYTE   W12
 BYTE   Gs3
 BYTE   W12
// 013   ----------------------------------------
 BYTE   As3
 BYTE   W12
 BYTE   Gs3
 BYTE   W12
 BYTE   As3
 BYTE   W12
 BYTE   Cn4
 BYTE   W12
 BYTE   Dn4
 BYTE   W12
 BYTE   As3
 BYTE   W12
 BYTE   Ds4
 BYTE   W12
 BYTE   As3
 BYTE   W12
// 014   ----------------------------------------
 BYTE   Fn4
 BYTE   W12
 BYTE   As3
 BYTE   W12
 BYTE   Dn4
 BYTE   W12
 BYTE   Ds4
 BYTE   W12
 BYTE   Dn4
 BYTE   W12
 BYTE   Cn4
 BYTE   W12
 BYTE   As3
 BYTE   W12
 BYTE   Gs3
 BYTE   W12
// 015   ----------------------------------------
 BYTE   Fn3
 BYTE   W12
 BYTE   Ds3
 BYTE   W12
 BYTE   Dn3
 BYTE   W12
 BYTE   As2
 BYTE   W96
 BYTE   W96
 BYTE   W96
// 016   ----------------------------------------
 BYTE   W96
 BYTE   W12
 BYTE   PATT
  POIN2 Label_5_0600
 BYTE   PATT
  POIN2 Label_5_0180
 BYTE   PATT
  POIN2 Label_5_0300
 BYTE   PATT
  POIN2 Label_5_0480
 BYTE   PATT
  POIN2 Label_5_0600
 BYTE   PATT
  POIN2 Label_5_0180
 BYTE   PATT
  POIN2 Label_5_0300
// 017   ----------------------------------------
 BYTE   N07  Fn3  v098
 BYTE   W12
 BYTE   Gn3
 BYTE   W12
 BYTE   Cn4
 BYTE   W12
 BYTE   Dn4
 BYTE   W12
 BYTE   Gn3
 BYTE   W12
 BYTE   Ds4
 BYTE   W12
 BYTE   Dn4
 BYTE   W12
 BYTE   N06  As3  v100
 BYTE   W96
// 018   ----------------------------------------
 BYTE   W96
 BYTE   W96
 BYTE   W96
 BYTE   W96
// 019   ----------------------------------------
 BYTE   W96
 BYTE   W96
 BYTE   W96
 BYTE   W12
 BYTE   PATT
  POIN2 Label_5_0600
 BYTE   PATT
  POIN2 Label_5_0180
 BYTE   PATT
  POIN2 Label_5_0300
 BYTE   PATT
  POIN2 Label_5_0480
 BYTE   PATT
  POIN2 Label_5_0600
 BYTE   PATT
  POIN2 Label_5_0180
 BYTE   PATT
  POIN2 Label_5_0300
// 020   ----------------------------------------
 BYTE   N07  Fn3  v098
 BYTE   W12
 BYTE   Gn3
 BYTE   W12
 BYTE   Cn4
 BYTE   W12
 BYTE   Dn4
 BYTE   W12
 BYTE   Gn3
 BYTE   W12
 BYTE   Fn3
 BYTE   W12
 BYTE   Ds3
 BYTE   W12
 BYTE   Dn3
 BYTE   W96
// 021   ----------------------------------------
 BYTE   W96
 BYTE   W96
 BYTE   W96
 BYTE   W96
// 022   ----------------------------------------
 BYTE   W96
 BYTE   W96
 BYTE   W96
 BYTE   W96
// 023   ----------------------------------------
 BYTE   W96
 BYTE   W96
 BYTE   W96
 BYTE   W96
// 024   ----------------------------------------
 BYTE   W96
 BYTE   W96
 BYTE   W60
// 025   ----------------------------------------
 BYTE   N10  As3
 BYTE   W24
 BYTE   As3
 BYTE   W24
 BYTE   Cn4  v099
 BYTE   W12
 BYTE   Gs3
 BYTE   W12
 BYTE   Ds4
 BYTE   W12
 BYTE   Gs3
 BYTE   W12
// 026   ----------------------------------------
 BYTE   Fn4
 BYTE   W12
 BYTE   Gs3
 BYTE   W12
 BYTE   Dn4
 BYTE   W12
 BYTE   Ds4
 BYTE   W12
 BYTE   Dn4
 BYTE   W12
 BYTE   Fn4
 BYTE   W12
 BYTE   Cn4
 BYTE   W12
 BYTE   Gs3
 BYTE   W12
// 027   ----------------------------------------
 BYTE   As3
 BYTE   W12
 BYTE   Gs3
 BYTE   W12
 BYTE   As3
 BYTE   W12
 BYTE   Cn4
 BYTE   W12
 BYTE   Dn4
 BYTE   W12
 BYTE   As3
 BYTE   W12
 BYTE   Ds4
 BYTE   W12
 BYTE   As3
 BYTE   W12
// 028   ----------------------------------------
 BYTE   Fn4
 BYTE   W12
 BYTE   As3
 BYTE   W12
 BYTE   Dn4
 BYTE   W12
 BYTE   Ds4
 BYTE   W12
 BYTE   Dn4
 BYTE   W12
 BYTE   Cn4
 BYTE   W12
 BYTE   As3
 BYTE   W12
 BYTE   Gs3
 BYTE   W12
// 029   ----------------------------------------
 BYTE   Fn3
 BYTE   W12
 BYTE   Ds3
 BYTE   W12
 BYTE   Dn3
 BYTE   W12
 BYTE   As2
 BYTE   W96
 BYTE   W96
 BYTE   W96
// 030   ----------------------------------------
 BYTE   W96
 BYTE   W96
 BYTE   W96
 BYTE   W96
// 031   ----------------------------------------
 BYTE   W96
 BYTE   W96
 BYTE   W96
 BYTE   W96
// 032   ----------------------------------------
 BYTE   W96
 BYTE   W12
// 033   ----------------------------------------
 BYTE   VOICE   0
 BYTE   VOL   105*m_mvl/mxv
 BYTE   BEND   c_v+0
 BYTE   VOICE   0
 BYTE   VOICE   0
 BYTE   VOL   105*m_mvl/mxv
 BYTE   VOL   105*m_mvl/mxv
 BYTE   BEND   c_v+0
 BYTE   BEND   c_v+0
 BYTE   GoTo
  POIN2 Label_5_00
 BYTE   FINE

//**************** Track 7 (Midi-Chn.6) ****************//

m_007:
// 000   ----------------------------------------
Label_6_00:
 BYTE   KEYSH   m_key+0
 BYTE   VOICE   0
 BYTE   VOICE   0
 BYTE   VOICE   0
 BYTE   VOICE   0
 BYTE   VOL   85*m_mvl/mxv
 BYTE   VOL   85*m_mvl/mxv
 BYTE   VOL   85*m_mvl/mxv
 BYTE   VOL   73*m_mvl/mxv
 BYTE   VOL   73*m_mvl/mxv
 BYTE   PAN   c_v+0
 BYTE   PAN   c_v+0
 BYTE   PAN   c_v+0
 BYTE   PAN   c_v+0
 BYTE   PAN   c_v+0
 BYTE   BEND   c_v+0
 BYTE   BEND   c_v+0
 BYTE   BEND   c_v+0
 BYTE   BEND   c_v+0
 BYTE   BEND   c_v+0
 BYTE   TEMPO   172*m_tbs/2
 BYTE   TEMPO   172*m_tbs/2
 BYTE   TEMPO   172*m_tbs/2
 BYTE   W12
 BYTE   VOL   73*m_mvl/mxv
 BYTE   W96
 BYTE   W96
 BYTE   W96
 BYTE   W96
// 001   ----------------------------------------
 BYTE   W96
 BYTE   W96
 BYTE   W96
 BYTE   W36
// 002   ----------------------------------------
Label_6_0B40:
 BYTE   N12  Dn3  v066
 BYTE   W12
 BYTE   Ds3
 BYTE   W12
 BYTE   Fn3
 BYTE   W12
 BYTE   As3
 BYTE   W12
 BYTE   N72  Dn4
 BYTE   W72
 BYTE   PEND 
// 003   ----------------------------------------
Label_6_0D20:
 BYTE   N12  Ds4  v066
 BYTE   W12
 BYTE   N96  Cn4
 BYTE   W24
 BYTE   N12
 BYTE   W96
 BYTE   W12
 BYTE   PEND 
// 004   ----------------------------------------
Label_6_0F60:
 BYTE   N24  Gn3  v066
 BYTE   W24
 BYTE   Gn4
 BYTE   W24
 BYTE   N12  Fn4
 BYTE   W12
 BYTE   Ds4
 BYTE   W12
 BYTE   N48  Dn4
 BYTE   W48
 BYTE   PEND 
// 005   ----------------------------------------
 BYTE   N48  As3  v066
 BYTE   W48
 BYTE   N24  Dn4
 BYTE   W24
 BYTE   N12  Ds4
 BYTE   W12
 BYTE   N96  Cn4
 BYTE   W24
// 006   ----------------------------------------
 BYTE   N72
 BYTE   W96
 BYTE   W96
 BYTE   W84
 BYTE   PATT
  POIN2 Label_6_0B40
 BYTE   PATT
  POIN2 Label_6_0D20
 BYTE   PATT
  POIN2 Label_6_0F60
// 007   ----------------------------------------
 BYTE   N48  As3  v066
 BYTE   W48
 BYTE   N24  Dn4
 BYTE   W24
 BYTE   N12  Ds4
 BYTE   W12
 BYTE   N96  As4
 BYTE   W24
// 008   ----------------------------------------
 BYTE   N72
 BYTE   W96
 BYTE   W96
 BYTE   W96
 BYTE   W96
// 009   ----------------------------------------
 BYTE   W96
 BYTE   W96
 BYTE   W96
 BYTE   W36
// 010   ----------------------------------------
Label_6_2A00:
 BYTE   N48  Cn4  v066
 BYTE   W60
 BYTE   N12
 BYTE   W12
 BYTE   Dn4
 BYTE   W12
 BYTE   Ds4
 BYTE   W12
 BYTE   PEND 
// 011   ----------------------------------------
Label_6_2B80:
 BYTE   N48  Fn4  v066
 BYTE   W48
 BYTE   N12  Ds4
 BYTE   W12
 BYTE   Fn4
 BYTE   W12
 BYTE   N96  Gn4
 BYTE   W24
 BYTE   PEND 
// 012   ----------------------------------------
 BYTE   N96  Gn4  v066
 BYTE   W24
 BYTE   Gn4
 BYTE   W24
 BYTE   N24
 BYTE   W96
 BYTE   W96
// 013   ----------------------------------------
 BYTE   W96
 BYTE   W96
 BYTE   W96
 BYTE   W96
// 014   ----------------------------------------
 BYTE   W96
 BYTE   W96
 BYTE   W96
 BYTE   W96
// 015   ----------------------------------------
 BYTE   W72
// 016   ----------------------------------------
Label_6_3DE0:
 BYTE   N24  As4  v066
 BYTE   W24
 BYTE   Ds4
 BYTE   W24
 BYTE   Gn4
 BYTE   W24
 BYTE   N96  Fn4
 BYTE   W96
// 017   ----------------------------------------
 BYTE   W24
 BYTE   PEND 
// 018   ----------------------------------------
Label_6_40E0:
 BYTE   N24  As4  v066
 BYTE   W24
 BYTE   Ds4
 BYTE   W24
 BYTE   Gn4
 BYTE   W24
 BYTE   N36  Fn4
 BYTE   W36
 BYTE   PEND 
// 019   ----------------------------------------
Label_6_4290:
 BYTE   N60  Gn4  v066
 BYTE   W84
 BYTE   N24  Ds4
 BYTE   W24
 BYTE   PEND 
// 020   ----------------------------------------
 BYTE   N24  Fn4  v066
 BYTE   W24
 BYTE   Dn4
 BYTE   W24
 BYTE   N96  Ds4
 BYTE   W96
 BYTE   W24
// 021   ----------------------------------------
Label_6_46E0:
 BYTE   N24  Ds4  v066
 BYTE   W24
 BYTE   Fn4
 BYTE   W24
 BYTE   Dn4
 BYTE   W24
 BYTE   N36
 BYTE   W36
 BYTE   PEND 
// 022   ----------------------------------------
 BYTE   N96  Cn4  v066
 BYTE   W24
 BYTE   N60
 BYTE   W96
 BYTE   W96
 BYTE   W96
// 023   ----------------------------------------
 BYTE   W96
 BYTE   W96
 BYTE   W96
 BYTE   W96
// 024   ----------------------------------------
 BYTE   W96
 BYTE   W96
 BYTE   W96
 BYTE   W96
// 025   ----------------------------------------
 BYTE   W96
 BYTE   W96
 BYTE   W96
 BYTE   W96
// 026   ----------------------------------------
 BYTE   W96
 BYTE   W96
 BYTE   W96
 BYTE   W96
// 027   ----------------------------------------
 BYTE   W96
 BYTE   W96
 BYTE   W96
 BYTE   W96
// 028   ----------------------------------------
 BYTE   W96
 BYTE   W96
 BYTE   W96
 BYTE   W96
// 029   ----------------------------------------
 BYTE   W96
 BYTE   W96
 BYTE   W36
 BYTE   PATT
  POIN2 Label_6_2A00
 BYTE   PATT
  POIN2 Label_6_2B80
// 030   ----------------------------------------
 BYTE   N24  Gn4  v066
 BYTE   W96
 BYTE   W24
 BYTE   PATT
  POIN2 Label_6_3DE0
 BYTE   PATT
  POIN2 Label_6_40E0
 BYTE   PATT
  POIN2 Label_6_4290
// 031   ----------------------------------------
 BYTE   N24  Fn4  v066
 BYTE   W24
 BYTE   Dn4
 BYTE   W24
 BYTE   N48  Ds4
 BYTE   W48
// 032   ----------------------------------------
 BYTE   N36  As4
 BYTE   W09
 BYTE   N03
 BYTE   W36
 BYTE   W03
 BYTE   N24
 BYTE   W24
 BYTE   Gs4
 BYTE   W24
// 033   ----------------------------------------
 BYTE   Gn4
 BYTE   W24
 BYTE   N12  Fn4
 BYTE   W12
 BYTE   N96  Gn4
 BYTE   W24
 BYTE   N12
 BYTE   W96
 BYTE   W96
// 034   ----------------------------------------
 BYTE   W96
 BYTE   W96
 BYTE   W96
 BYTE   W12
// 035   ----------------------------------------
 BYTE   N24  Ds4
 BYTE   W24
 BYTE   Fn4
 BYTE   W24
 BYTE   Dn4
 BYTE   W24
 BYTE   N96  Ds4
 BYTE   W96
// 036   ----------------------------------------
 BYTE   W24
 BYTE   PATT
  POIN2 Label_6_46E0
// 037   ----------------------------------------
 BYTE   N96  Cn4  v066
 BYTE   W24
 BYTE   N60
 BYTE   W96
 BYTE   W36
// 038   ----------------------------------------
 BYTE   N96  Gn4  v012
 BYTE   W24
 BYTE   N84
 BYTE   W96
 BYTE   W60
// 039   ----------------------------------------
 BYTE   N96  Fn4
 BYTE   W24
 BYTE   Fn4
 BYTE   W24
 BYTE   N12
 BYTE   W96
 BYTE   W60
// 040   ----------------------------------------
 BYTE   N96  Ds4  v013
 BYTE   W24
 BYTE   N84
 BYTE   W96
 BYTE   W60
// 041   ----------------------------------------
 BYTE   Dn4
 BYTE   W84
 BYTE   N96  Ds4
 BYTE   W24
// 042   ----------------------------------------
 BYTE   N24
 BYTE   W96
// 043   ----------------------------------------
 BYTE   VOICE   0
 BYTE   VOL   73*m_mvl/mxv
 BYTE   PAN   c_v+0
 BYTE   BEND   c_v+0
 BYTE   VOICE   0
 BYTE   VOICE   0
 BYTE   VOL   73*m_mvl/mxv
 BYTE   VOL   73*m_mvl/mxv
 BYTE   PAN   c_v+0
 BYTE   PAN   c_v+0
 BYTE   BEND   c_v+0
 BYTE   BEND   c_v+0
 BYTE   GoTo
  POIN2 Label_6_00
 BYTE   FINE

//**************** Track 8 (Midi-Chn.7) ****************//

m_008:
// 000   ----------------------------------------
Label_7_00:
 BYTE   KEYSH   m_key+0
 BYTE   VOICE   0
 BYTE   VOICE   0
 BYTE   VOICE   0
 BYTE   VOICE   0
 BYTE   VOL   76*m_mvl/mxv
 BYTE   VOL   76*m_mvl/mxv
 BYTE   VOL   76*m_mvl/mxv
 BYTE   VOL   76*m_mvl/mxv
 BYTE   VOL   76*m_mvl/mxv
 BYTE   PAN   c_v+0
 BYTE   PAN   c_v+0
 BYTE   PAN   c_v+0
 BYTE   PAN   c_v+0
 BYTE   PAN   c_v+0
 BYTE   BEND   c_v+0
 BYTE   BEND   c_v+0
 BYTE   BEND   c_v+0
 BYTE   BEND   c_v+0
 BYTE   BEND   c_v+0
 BYTE   TEMPO   172*m_tbs/2
 BYTE   TEMPO   172*m_tbs/2
 BYTE   TEMPO   172*m_tbs/2
 BYTE   W96
 BYTE   W96
 BYTE   W96
 BYTE   W96
// 001   ----------------------------------------
 BYTE   W96
 BYTE   W96
 BYTE   W96
 BYTE   W96
// 002   ----------------------------------------
 BYTE   W96
 BYTE   W96
 BYTE   W96
 BYTE   W96
// 003   ----------------------------------------
 BYTE   W96
 BYTE   W96
 BYTE   W96
 BYTE   W96
// 004   ----------------------------------------
 BYTE   W96
 BYTE   W96
 BYTE   W96
 BYTE   W96
// 005   ----------------------------------------
 BYTE   W96
 BYTE   W96
 BYTE   W96
 BYTE   W96
// 006   ----------------------------------------
 BYTE   N72  Gn3  v071
 BYTE   W72
 BYTE   N48  Fn3
 BYTE   W48
// 007   ----------------------------------------
 BYTE   N24  Dn3
 BYTE   W24
 BYTE   Ds3
 BYTE   W24
 BYTE   As3
 BYTE   W24
 BYTE   N36
 BYTE   W36
// 008   ----------------------------------------
 BYTE   Gs3
 BYTE   W36
 BYTE   N48  Gn3
 BYTE   W48
 BYTE   N72  Fn3
 BYTE   W72
// 009   ----------------------------------------
 BYTE   N48  Gn3
 BYTE   W48
 BYTE   Ds3
 BYTE   W48
// 010   ----------------------------------------
 BYTE   N72  Fn3
 BYTE   W72
 BYTE   N96  Cn3
 BYTE   W24
// 011   ----------------------------------------
 BYTE   Cn3
 BYTE   W24
 BYTE   Cn3
 BYTE   W24
 BYTE   N24
 BYTE   W96
 BYTE   W96
// 012   ----------------------------------------
 BYTE   W72
// 013   ----------------------------------------
 BYTE   As4
 BYTE   W24
 BYTE   Ds4
 BYTE   W24
 BYTE   Gn4
 BYTE   W24
 BYTE   N96  Fn4
 BYTE   W96
// 014   ----------------------------------------
 BYTE   W24
// 015   ----------------------------------------
 BYTE   N24  As4
 BYTE   W24
 BYTE   Ds4
 BYTE   W24
 BYTE   Gn4
 BYTE   W24
 BYTE   N36  Fn4
 BYTE   W36
// 016   ----------------------------------------
 BYTE   N60  Gn4
 BYTE   W84
 BYTE   N24  Ds4
 BYTE   W24
// 017   ----------------------------------------
 BYTE   Fn4
 BYTE   W24
 BYTE   Dn4
 BYTE   W24
 BYTE   N48  Ds4
 BYTE   W48
// 018   ----------------------------------------
 BYTE   As4
 BYTE   W48
 BYTE   N24
 BYTE   W24
 BYTE   Gs4
 BYTE   W24
// 019   ----------------------------------------
 BYTE   Gn4
 BYTE   W24
 BYTE   N12  Fn4
 BYTE   W12
 BYTE   N96  Gn4
 BYTE   W24
 BYTE   N12
 BYTE   W96
 BYTE   W96
// 020   ----------------------------------------
 BYTE   W96
 BYTE   W96
 BYTE   W96
 BYTE   W12
// 021   ----------------------------------------
 BYTE   N24  Ds5
 BYTE   W24
 BYTE   Fn5
 BYTE   W24
 BYTE   Dn5
 BYTE   W24
 BYTE   N96  Ds5
 BYTE   W96
// 022   ----------------------------------------
 BYTE   W24
// 023   ----------------------------------------
 BYTE   N24
 BYTE   W24
 BYTE   Fn5
 BYTE   W24
 BYTE   Dn5
 BYTE   W24
 BYTE   N36
 BYTE   W36
// 024   ----------------------------------------
 BYTE   N96  Cn5
 BYTE   W24
 BYTE   N60
 BYTE   W96
 BYTE   W96
 BYTE   W96
// 025   ----------------------------------------
 BYTE   W96
 BYTE   W96
 BYTE   W96
 BYTE   W96
// 026   ----------------------------------------
 BYTE   W96
 BYTE   W84
// 027   ----------------------------------------
Label_7_5640:
 BYTE   N12  Dn3  v072
 BYTE   W12
 BYTE   Ds3
 BYTE   W12
 BYTE   Fn3
 BYTE   W12
 BYTE   As3
 BYTE   W12
 BYTE   N72  Dn4
 BYTE   W72
 BYTE   PEND 
// 028   ----------------------------------------
Label_7_5820:
 BYTE   N12  Ds4  v072
 BYTE   W12
 BYTE   N96  Cn4
 BYTE   W24
 BYTE   N12
 BYTE   W96
 BYTE   W12
 BYTE   PEND 
// 029   ----------------------------------------
Label_7_5A60:
 BYTE   N24  Gn3  v072
 BYTE   W24
 BYTE   Gn4
 BYTE   W24
 BYTE   N12  Fn4
 BYTE   W12
 BYTE   Ds4
 BYTE   W12
 BYTE   N48  Dn4
 BYTE   W48
 BYTE   PEND 
// 030   ----------------------------------------
 BYTE   N48  As3  v072
 BYTE   W48
 BYTE   N24  Dn4
 BYTE   W24
 BYTE   N12  Ds4
 BYTE   W12
 BYTE   N96  Cn4
 BYTE   W24
// 031   ----------------------------------------
 BYTE   N72
 BYTE   W96
 BYTE   W96
 BYTE   W84
 BYTE   PATT
  POIN2 Label_7_5640
 BYTE   PATT
  POIN2 Label_7_5820
 BYTE   PATT
  POIN2 Label_7_5A60
// 032   ----------------------------------------
 BYTE   N48  As3  v072
 BYTE   W48
 BYTE   N24  Dn4
 BYTE   W24
 BYTE   N12  Ds4
 BYTE   W12
 BYTE   N96  As4
 BYTE   W24
// 033   ----------------------------------------
 BYTE   N72
 BYTE   W96
 BYTE   W96
 BYTE   W96
 BYTE   W36
// 034   ----------------------------------------
 BYTE   Gn3
 BYTE   W72
 BYTE   N48  Fn3
 BYTE   W48
// 035   ----------------------------------------
 BYTE   N24  Dn3
 BYTE   W24
 BYTE   Ds3
 BYTE   W24
 BYTE   As3
 BYTE   W24
 BYTE   N36
 BYTE   W36
// 036   ----------------------------------------
 BYTE   Gs3
 BYTE   W36
 BYTE   N48  Gn3
 BYTE   W48
 BYTE   N72  Fn3
 BYTE   W72
// 037   ----------------------------------------
 BYTE   N48  Gn3
 BYTE   W48
 BYTE   Ds3
 BYTE   W48
// 038   ----------------------------------------
 BYTE   N72  Fn3
 BYTE   W72
 BYTE   N96  Cn3
 BYTE   W24
// 039   ----------------------------------------
 BYTE   N24
 BYTE   W96
 BYTE   W24
// 040   ----------------------------------------
 BYTE   As3
 BYTE   W24
 BYTE   Ds3
 BYTE   W24
 BYTE   Gn3
 BYTE   W24
 BYTE   N96  Fn3
 BYTE   W96
// 041   ----------------------------------------
 BYTE   W24
// 042   ----------------------------------------
 BYTE   N24  As3
 BYTE   W24
 BYTE   Ds3
 BYTE   W24
 BYTE   Gn3
 BYTE   W24
 BYTE   N36  Fn3
 BYTE   W36
// 043   ----------------------------------------
 BYTE   N60  Gn3
 BYTE   W84
 BYTE   N24  Ds3
 BYTE   W24
// 044   ----------------------------------------
 BYTE   Fn3
 BYTE   W24
 BYTE   Dn3
 BYTE   W24
 BYTE   N48  Ds3
 BYTE   W48
// 045   ----------------------------------------
 BYTE   As3
 BYTE   W48
 BYTE   N24
 BYTE   W24
 BYTE   Gs3
 BYTE   W24
// 046   ----------------------------------------
 BYTE   Gn3
 BYTE   W24
 BYTE   N12  Fn3
 BYTE   W12
 BYTE   N96  Gn3
 BYTE   W24
 BYTE   N12
 BYTE   W96
 BYTE   W12
// 047   ----------------------------------------
 BYTE   N24  As4
 BYTE   W24
 BYTE   Ds4
 BYTE   W24
 BYTE   Gn4
 BYTE   W24
 BYTE   N96  Fn4
 BYTE   W96
// 048   ----------------------------------------
 BYTE   W24
// 049   ----------------------------------------
 BYTE   N24  As4
 BYTE   W24
 BYTE   Ds4
 BYTE   W24
 BYTE   Gn4
 BYTE   W24
 BYTE   N36  Fn4
 BYTE   W36
// 050   ----------------------------------------
 BYTE   N60  Gn4
 BYTE   W84
 BYTE   N24  Ds5
 BYTE   W24
// 051   ----------------------------------------
 BYTE   Fn5
 BYTE   W24
 BYTE   Dn5
 BYTE   W24
 BYTE   N96  Ds5
 BYTE   W96
 BYTE   W24
// 052   ----------------------------------------
 BYTE   N24
 BYTE   W24
 BYTE   Fn5
 BYTE   W24
 BYTE   Dn5
 BYTE   W24
 BYTE   N36
 BYTE   W36
// 053   ----------------------------------------
 BYTE   N96  Cn5  v071
 BYTE   W24
 BYTE   N60
 BYTE   W96
 BYTE   W96
 BYTE   W96
// 054   ----------------------------------------
 BYTE   W96
 BYTE   W96
 BYTE   W96
 BYTE   W96
// 055   ----------------------------------------
 BYTE   W96
 BYTE   W96
 BYTE   W36
// 056   ----------------------------------------
 BYTE   VOICE   0
 BYTE   VOL   76*m_mvl/mxv
 BYTE   PAN   c_v+0
 BYTE   BEND   c_v+0
 BYTE   VOICE   0
 BYTE   VOICE   0
 BYTE   VOL   76*m_mvl/mxv
 BYTE   VOL   76*m_mvl/mxv
 BYTE   PAN   c_v+0
 BYTE   PAN   c_v+0
 BYTE   BEND   c_v+0
 BYTE   BEND   c_v+0
 BYTE   GoTo
  POIN2 Label_7_00
 BYTE   FINE

//**************** Track 9 (Midi-Chn.8) ****************//

m_009:
// 000   ----------------------------------------
Label_8_00:
 BYTE   KEYSH   m_key+0
 BYTE   VOICE   0
 BYTE   VOICE   0
 BYTE   VOICE   0
 BYTE   VOICE   0
 BYTE   VOL   103*m_mvl/mxv
 BYTE   VOL   103*m_mvl/mxv
 BYTE   VOL   103*m_mvl/mxv
 BYTE   VOL   103*m_mvl/mxv
 BYTE   VOL   103*m_mvl/mxv
 BYTE   PAN   c_v+0
 BYTE   PAN   c_v+0
 BYTE   PAN   c_v+0
 BYTE   PAN   c_v+0
 BYTE   PAN   c_v+0
 BYTE   BEND   c_v+0
 BYTE   BEND   c_v+0
 BYTE   BEND   c_v+0
 BYTE   BEND   c_v+0
 BYTE   BEND   c_v+0
 BYTE   TEMPO   172*m_tbs/2
 BYTE   TEMPO   172*m_tbs/2
 BYTE   TEMPO   172*m_tbs/2
 BYTE   W96
 BYTE   W96
 BYTE   W96
 BYTE   W96
// 001   ----------------------------------------
 BYTE   W96
 BYTE   W96
 BYTE   W96
 BYTE   W96
// 002   ----------------------------------------
 BYTE   W96
 BYTE   W96
 BYTE   W96
 BYTE   W96
// 003   ----------------------------------------
 BYTE   W96
 BYTE   W96
 BYTE   W96
 BYTE   W96
// 004   ----------------------------------------
 BYTE   W96
 BYTE   W96
 BYTE   W96
 BYTE   W96
// 005   ----------------------------------------
 BYTE   W96
 BYTE   W96
 BYTE   W96
 BYTE   W48
// 006   ----------------------------------------
Label_8_2340:
 BYTE   N24  Ds3  v075
 BYTE   W24
 BYTE   Fn3
 BYTE   W24
 BYTE   N72  Cn3
 BYTE   W72
 BYTE   PEND 
// 007   ----------------------------------------
Label_8_2520:
 BYTE   N96  Dn3  v075
 BYTE   W24
 BYTE   N24
 BYTE   W96
 BYTE   PEND 
// 008   ----------------------------------------
Label_8_2700:
 BYTE   N96  Ds3  v075
 BYTE   W24
 BYTE   N48
 BYTE   W96
 BYTE   W24
 BYTE   PEND 
// 009   ----------------------------------------
Label_8_2940:
 BYTE   N48  Dn3  v075
 BYTE   W48
 BYTE   Ds3
 BYTE   W48
 BYTE   PEND 
// 010   ----------------------------------------
Label_8_2AC0:
 BYTE   N48  Cn3  v075
 BYTE   W48
 BYTE   N72  Dn3
 BYTE   W72
 BYTE   PEND 
// 011   ----------------------------------------
 BYTE   N96  Cn3  v076
 BYTE   W24
 BYTE   Cn3
 BYTE   W24
 BYTE   Cn3
 BYTE   W24
 BYTE   N24
 BYTE   W96
// 012   ----------------------------------------
 BYTE   W96
 BYTE   W72
// 013   ----------------------------------------
 BYTE   As3
 BYTE   W24
 BYTE   Ds3
 BYTE   W24
 BYTE   Gn3
 BYTE   W24
 BYTE   N96  Fn3
 BYTE   W96
// 014   ----------------------------------------
 BYTE   W24
// 015   ----------------------------------------
 BYTE   N24  As3
 BYTE   W24
 BYTE   Ds3
 BYTE   W24
 BYTE   Gn3
 BYTE   W24
 BYTE   N36  Fn3
 BYTE   W36
// 016   ----------------------------------------
 BYTE   N60  Gn3
 BYTE   W84
 BYTE   N24  Ds3
 BYTE   W24
// 017   ----------------------------------------
 BYTE   Fn3
 BYTE   W24
 BYTE   Dn3
 BYTE   W24
 BYTE   N48  Ds3
 BYTE   W48
// 018   ----------------------------------------
 BYTE   As3
 BYTE   W48
 BYTE   N24
 BYTE   W24
 BYTE   Gs3
 BYTE   W24
// 019   ----------------------------------------
 BYTE   Gn3
 BYTE   W24
 BYTE   N12  Fn3
 BYTE   W12
 BYTE   N96  Gn3
 BYTE   W24
 BYTE   N12
 BYTE   W96
 BYTE   W96
// 020   ----------------------------------------
 BYTE   W96
 BYTE   W96
 BYTE   W96
 BYTE   W12
// 021   ----------------------------------------
 BYTE   N24  Ds4
 BYTE   W24
 BYTE   Fn4
 BYTE   W24
 BYTE   Dn4
 BYTE   W24
 BYTE   N96  Ds4
 BYTE   W96
// 022   ----------------------------------------
 BYTE   W24
// 023   ----------------------------------------
 BYTE   N24
 BYTE   W24
 BYTE   Fn4
 BYTE   W24
 BYTE   Dn4
 BYTE   W24
 BYTE   N36
 BYTE   W36
// 024   ----------------------------------------
 BYTE   N96  Cn4
 BYTE   W24
 BYTE   N60
 BYTE   W96
 BYTE   W36
// 025   ----------------------------------------
Label_8_4B00:
 BYTE   N96  Gs2  v076
 BYTE   W24
 BYTE   N84
 BYTE   W96
 BYTE   W60
 BYTE   PEND 
// 026   ----------------------------------------
Label_8_4DD0:
 BYTE   N84  As2  v076
 BYTE   W84
 BYTE   N96  Fn2
 BYTE   W24
 BYTE   PEND 
// 027   ----------------------------------------
 BYTE   N24  Fn2  v076
 BYTE   W96
 BYTE   PATT
  POIN2 Label_8_4B00
 BYTE   PATT
  POIN2 Label_8_4DD0
// 028   ----------------------------------------
 BYTE   N24  Fn2  v076
 BYTE   W96
// 029   ----------------------------------------
 BYTE   N72  Fn3
 BYTE   W72
 BYTE   N12  Gn3
 BYTE   W12
 BYTE   N60  Ds3
 BYTE   W60
// 030   ----------------------------------------
 BYTE   N24  Gs3
 BYTE   W24
 BYTE   N12  Gn3
 BYTE   W12
 BYTE   N24  Fn3
 BYTE   W24
 BYTE   N60  Ds3
 BYTE   W60
// 031   ----------------------------------------
 BYTE   N12  Fn3
 BYTE   W12
 BYTE   Gn3  v075
 BYTE   W12
 BYTE   N48  As3
 BYTE   W48
 BYTE   Gn3
 BYTE   W48
// 032   ----------------------------------------
 BYTE   N24  Fn3
 BYTE   W24
 BYTE   N12  Gn3
 BYTE   W12
 BYTE   N60  Ds3
 BYTE   W60
// 033   ----------------------------------------
 BYTE   N24  Fn3
 BYTE   W24
 BYTE   N12  Gn3
 BYTE   W12
 BYTE   N24  Ds3
 BYTE   W24
 BYTE   Gn3
 BYTE   W24
 BYTE   N36  Fn3
 BYTE   W36
// 034   ----------------------------------------
 BYTE   N12  Gn3
 BYTE   W12
 BYTE   N24  Ds3
 BYTE   W24
 BYTE   N12  Dn3
 BYTE   W12
 BYTE   N96  As2
 BYTE   W24
 BYTE   N24
 BYTE   W96
// 035   ----------------------------------------
 BYTE   W96
 BYTE   W96
 BYTE   W96
 BYTE   W96
// 036   ----------------------------------------
 BYTE   W96
 BYTE   W96
 BYTE   W96
 BYTE   W48
 BYTE   PATT
  POIN2 Label_8_2340
 BYTE   PATT
  POIN2 Label_8_2520
 BYTE   PATT
  POIN2 Label_8_2700
 BYTE   PATT
  POIN2 Label_8_2940
 BYTE   PATT
  POIN2 Label_8_2AC0
// 037   ----------------------------------------
 BYTE   N96  Cn3  v075
 BYTE   W24
 BYTE   N24
 BYTE   W96
 BYTE   W96
 BYTE   W96
// 038   ----------------------------------------
 BYTE   W96
 BYTE   W96
 BYTE   W96
 BYTE   W96
// 039   ----------------------------------------
 BYTE   W96
 BYTE   W96
 BYTE   W24
// 040   ----------------------------------------
 BYTE   As3  v074
 BYTE   W24
 BYTE   Ds3
 BYTE   W24
 BYTE   Gn3
 BYTE   W24
 BYTE   N96  Fn3  v073
 BYTE   W96
// 041   ----------------------------------------
 BYTE   W24
// 042   ----------------------------------------
 BYTE   N24  As3
 BYTE   W24
 BYTE   Ds3
 BYTE   W24
 BYTE   Gn3
 BYTE   W24
 BYTE   N36  Fn3
 BYTE   W36
// 043   ----------------------------------------
 BYTE   N60  Gn3
 BYTE   W84
 BYTE   N24  Ds4
 BYTE   W24
// 044   ----------------------------------------
 BYTE   Fn4
 BYTE   W24
 BYTE   Dn4
 BYTE   W24
 BYTE   N96  Ds4
 BYTE   W96
 BYTE   W24
// 045   ----------------------------------------
 BYTE   N24
 BYTE   W24
 BYTE   Fn4
 BYTE   W24
 BYTE   Dn4
 BYTE   W24
 BYTE   N36
 BYTE   W36
// 046   ----------------------------------------
 BYTE   N96  Cn4
 BYTE   W24
 BYTE   N60
 BYTE   W96
 BYTE   W96
 BYTE   W96
// 047   ----------------------------------------
 BYTE   W96
 BYTE   W96
 BYTE   W96
 BYTE   W96
// 048   ----------------------------------------
 BYTE   W96
 BYTE   W96
 BYTE   W36
// 049   ----------------------------------------
 BYTE   VOICE   0
 BYTE   VOL   103*m_mvl/mxv
 BYTE   PAN   c_v+0
 BYTE   BEND   c_v+0
 BYTE   VOICE   0
 BYTE   VOICE   0
 BYTE   VOL   103*m_mvl/mxv
 BYTE   VOL   103*m_mvl/mxv
 BYTE   PAN   c_v+0
 BYTE   PAN   c_v+0
 BYTE   BEND   c_v+0
 BYTE   BEND   c_v+0
 BYTE   GoTo
  POIN2 Label_8_00
 BYTE   FINE

//**************** Track 10 (Midi-Chn.9) ****************//

m_010:
// 000   ----------------------------------------
Label_9_00:
 BYTE   KEYSH   m_key+0
 BYTE   VOICE   0
 BYTE   VOICE   0
 BYTE   VOICE   0
 BYTE   VOICE   0
 BYTE   VOL   85*m_mvl/mxv
 BYTE   VOL   85*m_mvl/mxv
 BYTE   VOL   85*m_mvl/mxv
 BYTE   VOL   85*m_mvl/mxv
 BYTE   VOL   85*m_mvl/mxv
 BYTE   PAN   c_v+0
 BYTE   PAN   c_v+0
 BYTE   PAN   c_v+0
 BYTE   PAN   c_v+0
 BYTE   PAN   c_v+0
 BYTE   BEND   c_v+0
 BYTE   BEND   c_v+0
 BYTE   BEND   c_v+0
 BYTE   BEND   c_v+0
 BYTE   BEND   c_v+0
 BYTE   TEMPO   172*m_tbs/2
 BYTE   TEMPO   172*m_tbs/2
 BYTE   TEMPO   172*m_tbs/2
 BYTE   W96
 BYTE   W96
 BYTE   W96
 BYTE   W96
// 001   ----------------------------------------
 BYTE   W96
 BYTE   W96
 BYTE   W96
 BYTE   W96
// 002   ----------------------------------------
 BYTE   W96
 BYTE   W96
 BYTE   W96
 BYTE   W96
// 003   ----------------------------------------
 BYTE   W96
 BYTE   W96
 BYTE   W96
 BYTE   W96
// 004   ----------------------------------------
 BYTE   W96
 BYTE   W96
 BYTE   W96
 BYTE   W96
// 005   ----------------------------------------
 BYTE   W96
 BYTE   W96
 BYTE   W96
 BYTE   W60
// 006   ----------------------------------------
Label_9_2370:
 BYTE   N12  Dn5  v060
 BYTE   W12
 BYTE   Ds5
 BYTE   W12
 BYTE   Fn5
 BYTE   W12
 BYTE   N36  Gn5
 BYTE   W36
 BYTE   Fn5
 BYTE   W36
 BYTE   PEND 
// 007   ----------------------------------------
Label_9_2520:
 BYTE   N48  Cn5  v060
 BYTE   W48
 BYTE   N24  Dn5
 BYTE   W24
 BYTE   Ds5
 BYTE   W24
 BYTE   PEND 
// 008   ----------------------------------------
Label_9_26A0:
 BYTE   N24  As5  v060
 BYTE   W24
 BYTE   N36
 BYTE   W36
 BYTE   Gs5
 BYTE   W36
 BYTE   PEND 
// 009   ----------------------------------------
Label_9_2820:
 BYTE   N48  Gn5  v060
 BYTE   W48
 BYTE   N24  Fn5
 BYTE   W24
 BYTE   Ds5
 BYTE   W24
 BYTE   PEND 
// 010   ----------------------------------------
Label_9_29A0:
 BYTE   N24  Dn5  v060
 BYTE   W24
 BYTE   N48  Cn5
 BYTE   W60
 BYTE   N12
 BYTE   W12
 BYTE   PEND 
// 011   ----------------------------------------
Label_9_2B20:
 BYTE   N12  Dn5  v060
 BYTE   W12
 BYTE   Ds5
 BYTE   W12
 BYTE   N48  Fn5
 BYTE   W48
 BYTE   N12  Ds5
 BYTE   W12
 BYTE   Fn5
 BYTE   W12
 BYTE   PEND 
// 012   ----------------------------------------
 BYTE   N96  Gn5  v060
 BYTE   W24
 BYTE   Gn5
 BYTE   W24
 BYTE   Gn5
 BYTE   W24
 BYTE   N24
 BYTE   W96
// 013   ----------------------------------------
 BYTE   W96
 BYTE   W96
 BYTE   W96
 BYTE   W96
// 014   ----------------------------------------
 BYTE   W96
 BYTE   W96
 BYTE   W96
 BYTE   W96
// 015   ----------------------------------------
 BYTE   W96
 BYTE   W96
 BYTE   W96
 BYTE   W96
// 016   ----------------------------------------
 BYTE   W96
 BYTE   W96
 BYTE   W96
 BYTE   W96
// 017   ----------------------------------------
 BYTE   W96
 BYTE   W96
 BYTE   W96
 BYTE   W96
// 018   ----------------------------------------
 BYTE   W96
 BYTE   W96
 BYTE   W96
 BYTE   W96
// 019   ----------------------------------------
 BYTE   W96
 BYTE   W96
 BYTE   W48
// 020   ----------------------------------------
 BYTE   N72  Dn5  v059
 BYTE   W72
 BYTE   N12  Ds5
 BYTE   W12
 BYTE   N96  Cn5
 BYTE   W24
// 021   ----------------------------------------
 BYTE   N12
 BYTE   W96
 BYTE   W12
// 022   ----------------------------------------
 BYTE   N24  Gn4
 BYTE   W24
 BYTE   Gn5
 BYTE   W24
 BYTE   N12  Fn5
 BYTE   W12
 BYTE   Ds5
 BYTE   W12
 BYTE   N48  Dn5
 BYTE   W48
// 023   ----------------------------------------
 BYTE   As4
 BYTE   W48
 BYTE   N24  Dn5
 BYTE   W24
 BYTE   N12  Ds5
 BYTE   W12
 BYTE   N96  Cn5
 BYTE   W24
// 024   ----------------------------------------
 BYTE   N72
 BYTE   W96
 BYTE   W96
 BYTE   W96
 BYTE   W96
// 025   ----------------------------------------
 BYTE   W96
 BYTE   W96
 BYTE   W96
 BYTE   W96
// 026   ----------------------------------------
 BYTE   W96
 BYTE   W96
 BYTE   W96
 BYTE   PATT
  POIN2 Label_9_2370
 BYTE   PATT
  POIN2 Label_9_2520
 BYTE   PATT
  POIN2 Label_9_26A0
 BYTE   PATT
  POIN2 Label_9_2820
 BYTE   PATT
  POIN2 Label_9_29A0
 BYTE   PATT
  POIN2 Label_9_2B20
// 027   ----------------------------------------
 BYTE   N96  Gn5  v060
 BYTE   W24
 BYTE   N24
 BYTE   W96
 BYTE   W96
 BYTE   W96
// 028   ----------------------------------------
 BYTE   W96
 BYTE   W96
 BYTE   W96
 BYTE   W96
// 029   ----------------------------------------
 BYTE   W96
 BYTE   W96
 BYTE   W96
 BYTE   W96
// 030   ----------------------------------------
 BYTE   W96
 BYTE   W96
 BYTE   W96
 BYTE   W96
// 031   ----------------------------------------
 BYTE   W96
 BYTE   W96
 BYTE   W96
 BYTE   W96
// 032   ----------------------------------------
 BYTE   W96
 BYTE   W96
 BYTE   W96
// 033   ----------------------------------------
 BYTE   N96  As5  v023
 BYTE   W24
 BYTE   N84
 BYTE   W96
 BYTE   W96
 BYTE   W96
// 034   ----------------------------------------
 BYTE   W72
// 035   ----------------------------------------
 BYTE   VOICE   0
 BYTE   VOL   85*m_mvl/mxv
 BYTE   PAN   c_v+0
 BYTE   BEND   c_v+0
 BYTE   VOICE   0
 BYTE   VOICE   0
 BYTE   VOL   85*m_mvl/mxv
 BYTE   VOL   85*m_mvl/mxv
 BYTE   PAN   c_v+0
 BYTE   PAN   c_v+0
 BYTE   BEND   c_v+0
 BYTE   BEND   c_v+0
 BYTE   GoTo
  POIN2 Label_9_00
 BYTE   FINE

//******************************************************//
	ALIGN 4

m:
	BYTE	10	// NumTrks
	BYTE	0	// NumBlks
	BYTE	m_pri	// Priority
	BYTE	m_rev	// Reverb.
    
	POIN2	m_grp
    
	POIN2	m_001
	POIN2	m_002
	POIN2	m_003
	POIN2	m_004
	POIN2	m_005
	POIN2	m_006
	POIN2	m_007
	POIN2	m_008
	POIN2	m_009
	POIN2	m_010

	
