//Event file generated from Sappy .s format.
	#include "MPlayDef.event"

	#define	FodlanWinds_grp  voicegroup000
	#define	FodlanWinds_pri  0
	#define	FodlanWinds_rev  0
	#define	FodlanWinds_mvl  75
	#define	FodlanWinds_key  0
	#define	FodlanWinds_tbs  1
	#define	FodlanWinds_exg  0
	#define	FodlanWinds_cmp  1

	// .rodata
	//	FodlanWinds
	ALIGN 4

//**************** Track 1 (Midi-Chn.1) ****************//

FodlanWinds_1:
	BYTE	KEYSH   FodlanWinds_key+0
FodlanWinds_1_B1:
// 000   ----------------------------------------
	BYTE	TEMPO   172*FodlanWinds_tbs/2
	BYTE		VOICE   123
	BYTE		PAN     c_v-1
	BYTE		VOL     70*FodlanWinds_mvl/mxv
	BYTE		BEND    c_v+0
	BYTE		N24     Dn1   v120
	BYTE		N36     Cs2   v104
	BYTE	W24
	BYTE		N03     Dn1   v096
	BYTE	W06
	BYTE		N03   
	BYTE	W06
	BYTE		N06     Dn1   v116
	BYTE		N36     Cs2   v104
	BYTE	W06
	BYTE		N03     Dn1   v116
	BYTE	W30
	BYTE		N06     Dn1   v104
	BYTE		N06     Cs2 
	BYTE	W24
// 001   ----------------------------------------
	BYTE	W12
	BYTE		        Dn1   v108
	BYTE		N06     Cs2 
	BYTE	W36
	BYTE		        Dn1   v100
	BYTE	W24
	BYTE		N03     Dn1   v092
	BYTE	W06
	BYTE		        Dn1   v096
	BYTE	W06
	BYTE		N24     Dn1   v120
	BYTE		N36     Cs2   v104
	BYTE	W12
// 002   ----------------------------------------
	BYTE	W60
	BYTE		N03     Dn1   v092
	BYTE	W06
	BYTE		        Dn1   v096
	BYTE	W06
	BYTE		N24     Dn1   v120
	BYTE		N36     Cs2   v104
	BYTE	W24
// 003   ----------------------------------------
	BYTE	W48
	BYTE		N06     Dn1   v112
	BYTE	W06
	BYTE		N06   
	BYTE	W06
	BYTE		        An1 
	BYTE	W06
	BYTE		N06   
	BYTE	W06
	BYTE		        Dn1 
	BYTE	W06
	BYTE		N06   
	BYTE	W06
	BYTE		N06   
	BYTE	W06
	BYTE		N03   
	BYTE	W03
	BYTE		N03   
	BYTE	W03
// 004   ----------------------------------------
FodlanWinds_1_004:
	BYTE		N24     Dn1   v120
	BYTE		N36     Cs2   v104
	BYTE	W24
	BYTE		N03     Dn1   v096
	BYTE	W06
	BYTE		N03   
	BYTE	W06
	BYTE		N06     Dn1   v116
	BYTE		N36     Cs2   v104
	BYTE	W06
	BYTE		N03     Dn1   v116
	BYTE	W30
	BYTE		N06     Dn1   v104
	BYTE		N06     Cs2 
	BYTE	W24
	BYTE	PEND
// 005   ----------------------------------------
	BYTE	W12
	BYTE		        Dn1 
	BYTE		N06     Cs2 
	BYTE	W36
	BYTE		        Dn1   v092
	BYTE	W24
	BYTE		N03   
	BYTE	W06
	BYTE		        Dn1   v096
	BYTE	W06
	BYTE		N24     Dn1   v120
	BYTE		N36     Cs2   v104
	BYTE	W12
// 006   ----------------------------------------
	BYTE	W60
	BYTE		N03     Dn1   v092
	BYTE	W06
	BYTE		        Dn1   v096
	BYTE	W06
	BYTE		N36     Cs2   v104
	BYTE	W24
// 007   ----------------------------------------
	BYTE	W48
	BYTE		N06     Dn1   v108
	BYTE	W06
	BYTE		N06   
	BYTE	W06
	BYTE		N06   
	BYTE	W06
	BYTE		N06   
	BYTE	W06
	BYTE		        An1 
	BYTE	W06
	BYTE		N06   
	BYTE	W06
	BYTE		        Dn1 
	BYTE	W06
	BYTE		N03   
	BYTE	W03
	BYTE		        Dn1   v096
	BYTE	W03
// 008   ----------------------------------------
	BYTE	PATT
	 POIN2	FodlanWinds_1_004
// 009   ----------------------------------------
	BYTE	W12
	BYTE		N06     Dn1   v104
	BYTE		N06     Cs2 
	BYTE	W36
	BYTE		        Dn1   v096
	BYTE	W24
	BYTE		N03     Dn1   v092
	BYTE	W06
	BYTE		        Dn1   v096
	BYTE	W06
	BYTE		N24     Dn1   v120
	BYTE		N36     Cs2   v104
	BYTE	W12
// 010   ----------------------------------------
FodlanWinds_1_010:
	BYTE	W60
	BYTE		N03     Dn1   v096
	BYTE	W06
	BYTE		        Dn1   v092
	BYTE	W06
	BYTE		N24     Dn1   v120
	BYTE		N36     Cs2   v104
	BYTE	W24
	BYTE	PEND
// 011   ----------------------------------------
FodlanWinds_1_011:
	BYTE	W48
	BYTE		N06     Dn1   v092
	BYTE	W24
	BYTE		N06   
	BYTE	W12
	BYTE		N03     Dn1   v096
	BYTE	W06
	BYTE		        Dn1   v092
	BYTE	W06
	BYTE	PEND
// 012   ----------------------------------------
	BYTE	PATT
	 POIN2	FodlanWinds_1_004
// 013   ----------------------------------------
FodlanWinds_1_013:
	BYTE	W12
	BYTE		N06     Dn1   v104
	BYTE		N06     Cs2 
	BYTE	W36
	BYTE		        Dn1   v092
	BYTE	W24
	BYTE		N03     Dn1   v096
	BYTE	W06
	BYTE		        Dn1   v092
	BYTE	W06
	BYTE		N24     Dn1   v120
	BYTE		N36     Cs2   v104
	BYTE	W12
	BYTE	PEND
// 014   ----------------------------------------
	BYTE	PATT
	 POIN2	FodlanWinds_1_010
// 015   ----------------------------------------
FodlanWinds_1_015:
	BYTE	W84
	BYTE		N03     Dn1   v096
	BYTE	W06
	BYTE		        Dn1   v092
	BYTE	W06
	BYTE	PEND
// 016   ----------------------------------------
	BYTE	PATT
	 POIN2	FodlanWinds_1_004
// 017   ----------------------------------------
	BYTE	W12
	BYTE		N06     Dn1   v104
	BYTE		N06     Cs2 
	BYTE	W36
	BYTE		        Dn1   v096
	BYTE	W24
	BYTE		N03   
	BYTE	W06
	BYTE		        Dn1   v092
	BYTE	W06
	BYTE		N24     Dn1   v120
	BYTE		N36     Cs2   v104
	BYTE	W12
// 018   ----------------------------------------
	BYTE	PATT
	 POIN2	FodlanWinds_1_010
// 019   ----------------------------------------
	BYTE	PATT
	 POIN2	FodlanWinds_1_011
// 020   ----------------------------------------
	BYTE	PATT
	 POIN2	FodlanWinds_1_004
// 021   ----------------------------------------
	BYTE	PATT
	 POIN2	FodlanWinds_1_013
// 022   ----------------------------------------
	BYTE	PATT
	 POIN2	FodlanWinds_1_010
// 023   ----------------------------------------
	BYTE	W96
// 024   ----------------------------------------
FodlanWinds_1_024:
	BYTE		N06     Fs1   v104
	BYTE	W06
	BYTE		N06   
	BYTE	W06
	BYTE		N06   
	BYTE	W06
	BYTE		N06   
	BYTE	W06
	BYTE		N06   
	BYTE	W06
	BYTE		N06   
	BYTE	W06
	BYTE		N06   
	BYTE	W48
	BYTE		N03   
	BYTE	W03
	BYTE		N03   
	BYTE	W03
	BYTE		N03   
	BYTE	W06
	BYTE	PEND
// 025   ----------------------------------------
FodlanWinds_1_025:
	BYTE		N06     Fs1   v104
	BYTE	W12
	BYTE		N03   
	BYTE	W06
	BYTE		N03   
	BYTE	W06
	BYTE		N03   
	BYTE	W03
	BYTE		N03   
	BYTE	W03
	BYTE		N03   
	BYTE	W03
	BYTE		N03   
	BYTE	W03
	BYTE		N06   
	BYTE	W48
	BYTE		N06   
	BYTE	W06
	BYTE		N06   
	BYTE	W06
	BYTE	PEND
// 026   ----------------------------------------
FodlanWinds_1_026:
	BYTE		N06     Fs1   v104
	BYTE	W12
	BYTE		N06   
	BYTE	W06
	BYTE		N06   
	BYTE	W06
	BYTE		N06   
	BYTE	W06
	BYTE		N06   
	BYTE	W06
	BYTE		N06   
	BYTE	W44
	BYTE	W01
	BYTE		N03   
	BYTE	W03
	BYTE		N06   
	BYTE	W06
	BYTE		N06   
	BYTE	W06
	BYTE	PEND
// 027   ----------------------------------------
FodlanWinds_1_027:
	BYTE		N06     Fs1   v104
	BYTE	W12
	BYTE		N03   
	BYTE	W06
	BYTE		N03   
	BYTE	W06
	BYTE		N03   
	BYTE	W03
	BYTE		N03   
	BYTE	W03
	BYTE		N03   
	BYTE	W03
	BYTE		N03   
	BYTE	W03
	BYTE		N03   
	BYTE	W48
	BYTE		N03   
	BYTE	W06
	BYTE		N03   
	BYTE	W06
	BYTE	PEND
// 028   ----------------------------------------
	BYTE		N06     Dn1   v112
	BYTE		N03     Fs1   v104
	BYTE	W12
	BYTE		BEND    c_v-2
	BYTE		N03   
	BYTE	W12
	BYTE		BEND    c_v-2
	BYTE		N06     Dn1   v112
	BYTE		N03     Fs1   v104
	BYTE	W06
	BYTE		BEND    c_v-2
	BYTE	W06
	BYTE		N03   
	BYTE	W06
	BYTE		BEND    c_v-2
	BYTE	W06
	BYTE		N06     Dn1   v112
	BYTE		N03     Fs1   v104
	BYTE	W06
	BYTE		BEND    c_v-2
	BYTE	W06
	BYTE		N03   
	BYTE	W06
	BYTE		BEND    c_v-2
	BYTE	W06
	BYTE		        c_v-1
	BYTE		N06     Dn1   v112
	BYTE		N03     Fs1   v104
	BYTE	W12
	BYTE		BEND    c_v-1
	BYTE		N03   
	BYTE	W12
// 029   ----------------------------------------
	BYTE		BEND    c_v-1
	BYTE		N06     Dn1   v112
	BYTE		N03     Fs1   v104
	BYTE	W12
	BYTE		N03   
	BYTE	W06
	BYTE		BEND    c_v-1
	BYTE	W06
	BYTE		N06     Dn1   v112
	BYTE		N03     Fs1   v104
	BYTE	W06
	BYTE		BEND    c_v-1
	BYTE	W06
	BYTE		N03   
	BYTE	W06
	BYTE		BEND    c_v-1
	BYTE	W06
	BYTE		N06     Dn1   v112
	BYTE		N03     Fs1   v104
	BYTE	W06
	BYTE		BEND    c_v-1
	BYTE	W06
	BYTE		N03   
	BYTE	W06
	BYTE		BEND    c_v-1
	BYTE	W06
	BYTE		N06     Dn1   v112
	BYTE		N03     Fs1   v104
	BYTE	W06
	BYTE		BEND    c_v-1
	BYTE	W06
	BYTE		N03   
	BYTE	W06
	BYTE		BEND    c_v-1
	BYTE	W06
// 030   ----------------------------------------
	BYTE		N06     Dn1   v112
	BYTE		N03     Fs1   v104
	BYTE	W06
	BYTE		BEND    c_v-1
	BYTE	W06
	BYTE		N03   
	BYTE	W12
	BYTE		BEND    c_v-1
	BYTE		N06     Dn1   v112
	BYTE		N03     Fs1   v104
	BYTE	W12
	BYTE		BEND    c_v-1
	BYTE	W06
	BYTE		N03   
	BYTE	W06
	BYTE		BEND    c_v-1
	BYTE	W06
	BYTE		N06     Dn1   v112
	BYTE		N03     Fs1   v104
	BYTE	W06
	BYTE		BEND    c_v-1
	BYTE	W06
	BYTE		N03   
	BYTE	W06
	BYTE		BEND    c_v-1
	BYTE	W06
	BYTE		N06     Dn1   v112
	BYTE		N03     Fs1   v104
	BYTE	W06
	BYTE		BEND    c_v-1
	BYTE	W06
	BYTE		N03   
	BYTE	W06
// 031   ----------------------------------------
	BYTE		BEND    c_v-1
	BYTE	W06
	BYTE		N06     Dn1   v112
	BYTE		N03     Fs1   v104
	BYTE	W06
	BYTE		BEND    c_v+0
	BYTE		N03   
	BYTE	W12
	BYTE		N06     Dn1   v112
	BYTE		N03     Fs1   v104
	BYTE	W12
	BYTE		BEND    c_v+0
	BYTE		N03   
	BYTE	W12
	BYTE		N06     Dn1   v112
	BYTE		N03     Fs1   v104
	BYTE	W06
	BYTE		BEND    c_v+0
	BYTE	W06
	BYTE		N03   
	BYTE	W06
	BYTE		BEND    c_v+0
	BYTE	W06
	BYTE		N06     Dn1   v112
	BYTE		N03     Fs1   v104
	BYTE	W06
	BYTE		BEND    c_v+0
	BYTE	W06
	BYTE		N03   
	BYTE	W06
	BYTE		BEND    c_v+0
	BYTE	W06
// 032   ----------------------------------------
	BYTE		N03     Dn1   v112
	BYTE		N03     Fs1   v104
	BYTE	W06
	BYTE		BEND    c_v+0
	BYTE		N03   
	BYTE	W06
	BYTE		        Dn1   v112
	BYTE		N03     Fs1   v104
	BYTE	W06
	BYTE		N03   
	BYTE	W06
	BYTE		BEND    c_v+0
	BYTE		N03     Dn1   v112
	BYTE		N03     Fs1   v104
	BYTE	W06
	BYTE		N03   
	BYTE	W06
	BYTE		BEND    c_v+0
	BYTE		N03     Dn1   v112
	BYTE		N03     Fs1   v104
	BYTE	W06
	BYTE		N03   
	BYTE	W06
	BYTE		BEND    c_v+0
	BYTE		N03     Dn1   v112
	BYTE		N03     Fs1   v104
	BYTE	W06
	BYTE		        Dn1   v112
	BYTE		N03     Fs1   v104
	BYTE	W06
	BYTE		        Dn1   v112
	BYTE		N03     Fs1   v104
	BYTE	W06
	BYTE		BEND    c_v+0
	BYTE		N03     Dn1   v112
	BYTE		N03     Fs1   v104
	BYTE	W06
	BYTE		        Dn1   v112
	BYTE		N03     Fs1   v104
	BYTE	W06
	BYTE		BEND    c_v+0
	BYTE		N03     Dn1   v112
	BYTE		N03     Fs1   v104
	BYTE	W06
	BYTE		        Dn1   v112
	BYTE		N03     Fs1   v104
	BYTE	W06
	BYTE		BEND    c_v+0
	BYTE		N03     Dn1   v112
	BYTE		N03     Fs1   v104
	BYTE	W06
// 033   ----------------------------------------
	BYTE	W12
	BYTE		BEND    c_v+0
	BYTE	W72
	BYTE		N03     Dn1   v100
	BYTE	W06
	BYTE		        Dn1   v096
	BYTE	W06
// 034   ----------------------------------------
FodlanWinds_1_034:
	BYTE		N24     Dn1   v120
	BYTE		N36     Cs2   v104
	BYTE	W24
	BYTE		N03     Dn1   v100
	BYTE	W06
	BYTE		N03   
	BYTE	W06
	BYTE		N06     Dn1   v120
	BYTE		N36     Cs2   v104
	BYTE	W06
	BYTE		N03     Dn1   v120
	BYTE	W24
	BYTE		        Dn1   v096
	BYTE	W06
	BYTE		N24     Dn1   v120
	BYTE		N36     Cs2   v104
	BYTE	W24
	BYTE	PEND
// 035   ----------------------------------------
FodlanWinds_1_035:
	BYTE		N03     Dn1   v100
	BYTE	W12
	BYTE		        Dn1   v096
	BYTE	W12
	BYTE		N36     Dn1   v120
	BYTE		N36     Cs2   v104
	BYTE	W36
	BYTE		N03     Dn1 
	BYTE	W12
	BYTE		        Dn1   v108
	BYTE	W12
	BYTE		N03   
	BYTE	W06
	BYTE		N03   
	BYTE	W03
	BYTE		        Dn1   v112
	BYTE	W03
	BYTE	PEND
// 036   ----------------------------------------
FodlanWinds_1_036:
	BYTE		N36     Dn1   v120
	BYTE		N36     Cs2   v104
	BYTE	W36
	BYTE		        Dn1   v120
	BYTE		N36     Cs2   v104
	BYTE	W36
	BYTE		        Dn1   v120
	BYTE		N36     Cs2   v104
	BYTE	W24
	BYTE	PEND
// 037   ----------------------------------------
FodlanWinds_1_037:
	BYTE	W12
	BYTE		N03     Dn1   v100
	BYTE	W06
	BYTE		N03   
	BYTE	W06
	BYTE		N03   
	BYTE	W12
	BYTE		N03   
	BYTE	W12
	BYTE		N03   
	BYTE	W24
	BYTE		N03   
	BYTE	W12
	BYTE		        Dn1   v108
	BYTE	W06
	BYTE		        Dn1   v100
	BYTE	W06
	BYTE	PEND
// 038   ----------------------------------------
FodlanWinds_1_038:
	BYTE		N36     Dn1   v120
	BYTE		N36     Cs2   v104
	BYTE	W36
	BYTE		N03     Dn1   v100
	BYTE	W12
	BYTE		N03   
	BYTE	W12
	BYTE		        Dn1   v096
	BYTE	W12
	BYTE		        Dn1   v100
	BYTE	W12
	BYTE		        Dn1   v112
	BYTE	W06
	BYTE		        Dn1   v108
	BYTE	W06
	BYTE	PEND
// 039   ----------------------------------------
FodlanWinds_1_039:
	BYTE		N36     Dn1   v120
	BYTE		N36     Cs2   v104
	BYTE	W48
	BYTE		N03     Dn1   v100
	BYTE	W12
	BYTE		N03   
	BYTE	W12
	BYTE		        Dn1   v096
	BYTE	W12
	BYTE		        Dn1   v100
	BYTE	W12
	BYTE	PEND
// 040   ----------------------------------------
	BYTE		N36     Cs2   v104
	BYTE	W96
// 041   ----------------------------------------
	BYTE		N06   
	BYTE	W48
	BYTE		        Dn1   v112
	BYTE	W06
	BYTE		N06   
	BYTE	W06
	BYTE		N06   
	BYTE	W06
	BYTE		N06   
	BYTE	W06
	BYTE		        An1 
	BYTE	W06
	BYTE		N06   
	BYTE	W06
	BYTE		        Dn1 
	BYTE	W06
	BYTE		N03     Dn1   v096
	BYTE	W03
	BYTE		        Dn1   v100
	BYTE	W03
// 042   ----------------------------------------
	BYTE	PATT
	 POIN2	FodlanWinds_1_034
// 043   ----------------------------------------
	BYTE	PATT
	 POIN2	FodlanWinds_1_035
// 044   ----------------------------------------
FodlanWinds_1_044:
	BYTE		N36     Dn1   v120
	BYTE		N36     Cs2   v104
	BYTE	W36
	BYTE		        Dn1   v120
	BYTE		N36     Cs2   v104
	BYTE	W36
	BYTE		N03     Dn1   v100
	BYTE	W12
	BYTE		N03   
	BYTE	W12
	BYTE	PEND
// 045   ----------------------------------------
FodlanWinds_1_045:
	BYTE		N03     Dn1   v100
	BYTE	W12
	BYTE		N03   
	BYTE	W06
	BYTE		N03   
	BYTE	W06
	BYTE		N03   
	BYTE	W12
	BYTE		N03   
	BYTE	W12
	BYTE		N03   
	BYTE	W24
	BYTE		N03   
	BYTE	W12
	BYTE		        Dn1   v108
	BYTE	W06
	BYTE		        Dn1   v100
	BYTE	W06
	BYTE	PEND
// 046   ----------------------------------------
FodlanWinds_1_046:
	BYTE		N36     Dn1   v120
	BYTE		N36     Cs2   v104
	BYTE	W84
	BYTE		N03     Dn1 
	BYTE	W06
	BYTE		N03   
	BYTE	W06
	BYTE	PEND
// 047   ----------------------------------------
FodlanWinds_1_047:
	BYTE		N36     Dn1   v120
	BYTE		N36     Cs2   v104
	BYTE	W96
	BYTE	PEND
// 048   ----------------------------------------
	BYTE		N36   
	BYTE	W96
// 049   ----------------------------------------
	BYTE		N06     Dn1   v112
	BYTE		N06     Cs2   v096
	BYTE	W06
	BYTE		        Dn1   v112
	BYTE	W06
	BYTE		N06   
	BYTE	W06
	BYTE		N06   
	BYTE	W06
	BYTE		        An1 
	BYTE	W06
	BYTE		N06   
	BYTE	W06
	BYTE		        Dn1 
	BYTE	W06
	BYTE		N06   
	BYTE	W06
	BYTE		N06   
	BYTE	W06
	BYTE		N06   
	BYTE	W06
	BYTE		        An1 
	BYTE	W06
	BYTE		N06   
	BYTE	W06
	BYTE		        Dn1 
	BYTE	W06
	BYTE		N06   
	BYTE	W06
	BYTE		N06   
	BYTE	W06
	BYTE		N03     Dn1   v092
	BYTE	W03
	BYTE		        Dn1   v096
	BYTE	W03
// 050   ----------------------------------------
FodlanWinds_1_050:
	BYTE		N24     Dn1   v120
	BYTE		N36     Cs2   v104
	BYTE	W24
	BYTE		N03     Dn1   v096
	BYTE	W06
	BYTE		N03   
	BYTE	W06
	BYTE		N06     Dn1   v116
	BYTE		N36     Cs2   v104
	BYTE	W06
	BYTE		N03     Dn1   v116
	BYTE	W54
	BYTE	PEND
// 051   ----------------------------------------
FodlanWinds_1_051:
	BYTE	W48
	BYTE		N06     Dn1   v096
	BYTE	W24
	BYTE		N03   
	BYTE	W06
	BYTE		        Dn1   v092
	BYTE	W06
	BYTE		N24     Dn1   v120
	BYTE		N36     Cs2   v104
	BYTE	W12
	BYTE	PEND
// 052   ----------------------------------------
	BYTE	PATT
	 POIN2	FodlanWinds_1_010
// 053   ----------------------------------------
	BYTE	PATT
	 POIN2	FodlanWinds_1_011
// 054   ----------------------------------------
	BYTE	PATT
	 POIN2	FodlanWinds_1_050
// 055   ----------------------------------------
FodlanWinds_1_055:
	BYTE	W48
	BYTE		N06     Dn1   v092
	BYTE	W24
	BYTE		N03     Dn1   v096
	BYTE	W06
	BYTE		        Dn1   v092
	BYTE	W06
	BYTE		N24     Dn1   v120
	BYTE		N36     Cs2   v104
	BYTE	W12
	BYTE	PEND
// 056   ----------------------------------------
	BYTE	PATT
	 POIN2	FodlanWinds_1_010
// 057   ----------------------------------------
	BYTE	PATT
	 POIN2	FodlanWinds_1_015
// 058   ----------------------------------------
	BYTE		N24     Dn1   v120
	BYTE		N36     Cs2   v104
	BYTE	W24
	BYTE		N03     Dn1   v096
	BYTE	W06
	BYTE		N03   
	BYTE	W06
	BYTE		N06     Dn1   v116
	BYTE	W06
	BYTE		N03   
	BYTE	W54
// 059   ----------------------------------------
	BYTE	W48
	BYTE		N06     Dn1   v096
	BYTE	W30
	BYTE		N03     Dn1   v092
	BYTE	W03
	BYTE		        Dn1   v096
	BYTE	W03
	BYTE		N24     Dn1   v120
	BYTE		N36     Cs2   v104
	BYTE	W12
// 060   ----------------------------------------
	BYTE	PATT
	 POIN2	FodlanWinds_1_010
// 061   ----------------------------------------
	BYTE	PATT
	 POIN2	FodlanWinds_1_011
// 062   ----------------------------------------
	BYTE	PATT
	 POIN2	FodlanWinds_1_050
// 063   ----------------------------------------
	BYTE	PATT
	 POIN2	FodlanWinds_1_055
// 064   ----------------------------------------
	BYTE	W24
	BYTE		N12     Dn1   v072
	BYTE	W36
	BYTE		N03     Dn1   v096
	BYTE	W06
	BYTE		        Dn1   v092
	BYTE	W06
	BYTE		N24     Dn1   v120
	BYTE		N36     Cs2   v104
	BYTE	W24
// 065   ----------------------------------------
	BYTE		N12     Dn1   v072
	BYTE	W84
	BYTE		N03     Dn1   v096
	BYTE	W06
	BYTE		        Dn1   v092
	BYTE	W06
// 066   ----------------------------------------
	BYTE	PATT
	 POIN2	FodlanWinds_1_050
// 067   ----------------------------------------
	BYTE	PATT
	 POIN2	FodlanWinds_1_051
// 068   ----------------------------------------
	BYTE	PATT
	 POIN2	FodlanWinds_1_010
// 069   ----------------------------------------
	BYTE	PATT
	 POIN2	FodlanWinds_1_011
// 070   ----------------------------------------
	BYTE	PATT
	 POIN2	FodlanWinds_1_050
// 071   ----------------------------------------
	BYTE	PATT
	 POIN2	FodlanWinds_1_055
// 072   ----------------------------------------
	BYTE	PATT
	 POIN2	FodlanWinds_1_010
// 073   ----------------------------------------
	BYTE	W96
// 074   ----------------------------------------
	BYTE	PATT
	 POIN2	FodlanWinds_1_024
// 075   ----------------------------------------
	BYTE	PATT
	 POIN2	FodlanWinds_1_025
// 076   ----------------------------------------
	BYTE	PATT
	 POIN2	FodlanWinds_1_026
// 077   ----------------------------------------
	BYTE	PATT
	 POIN2	FodlanWinds_1_027
// 078   ----------------------------------------
	BYTE		N06     Dn1   v108
	BYTE		N03     Fs1   v104
	BYTE	W12
	BYTE		BEND    c_v-2
	BYTE		N03   
	BYTE	W12
	BYTE		BEND    c_v-2
	BYTE		N06     Dn1   v108
	BYTE		N03     Fs1   v104
	BYTE	W06
	BYTE		BEND    c_v-2
	BYTE	W06
	BYTE		N03   
	BYTE	W06
	BYTE		BEND    c_v-2
	BYTE	W06
	BYTE		N06     Dn1   v108
	BYTE		N03     Fs1   v104
	BYTE	W06
	BYTE		BEND    c_v-2
	BYTE	W06
	BYTE		N03   
	BYTE	W06
	BYTE		BEND    c_v-2
	BYTE	W06
	BYTE		        c_v-1
	BYTE		N06     Dn1   v108
	BYTE		N03     Fs1   v104
	BYTE	W12
	BYTE		BEND    c_v-1
	BYTE		N03   
	BYTE	W12
// 079   ----------------------------------------
	BYTE		BEND    c_v-1
	BYTE		N06     Dn1   v108
	BYTE		N03     Fs1   v104
	BYTE	W12
	BYTE		N03   
	BYTE	W06
	BYTE		BEND    c_v-1
	BYTE	W06
	BYTE		N06     Dn1   v108
	BYTE		N03     Fs1   v104
	BYTE	W06
	BYTE		BEND    c_v-1
	BYTE	W06
	BYTE		N03   
	BYTE	W06
	BYTE		BEND    c_v-1
	BYTE	W06
	BYTE		N06     Dn1   v108
	BYTE		N03     Fs1   v104
	BYTE	W06
	BYTE		BEND    c_v-1
	BYTE	W06
	BYTE		N03   
	BYTE	W06
	BYTE		BEND    c_v-1
	BYTE	W06
	BYTE		N06     Dn1   v108
	BYTE		N03     Fs1   v104
	BYTE	W06
	BYTE		BEND    c_v-1
	BYTE	W06
	BYTE		N03   
	BYTE	W06
	BYTE		BEND    c_v-1
	BYTE	W06
// 080   ----------------------------------------
	BYTE		        c_v+0
	BYTE		N03     Dn1   v108
	BYTE		N03     Fs1   v104
	BYTE	W06
	BYTE		BEND    c_v+0
	BYTE		N03   
	BYTE	W06
	BYTE		        Dn1   v108
	BYTE		N03     Fs1   v104
	BYTE	W06
	BYTE		N03   
	BYTE	W06
	BYTE		BEND    c_v+0
	BYTE		N03     Dn1   v108
	BYTE		N03     Fs1   v104
	BYTE	W06
	BYTE		N03   
	BYTE	W06
	BYTE		BEND    c_v+0
	BYTE		N03     Dn1   v108
	BYTE		N03     Fs1   v104
	BYTE	W06
	BYTE		N03   
	BYTE	W06
	BYTE		BEND    c_v+0
	BYTE		N03     Dn1   v108
	BYTE		N03     Fs1   v104
	BYTE	W06
	BYTE		        Dn1   v108
	BYTE		N03     Fs1   v104
	BYTE	W06
	BYTE		        Dn1   v108
	BYTE		N03     Fs1   v104
	BYTE	W06
	BYTE		BEND    c_v+0
	BYTE		N03     Dn1   v108
	BYTE		N03     Fs1   v104
	BYTE	W06
	BYTE		        Dn1   v108
	BYTE		N03     Fs1   v104
	BYTE	W06
	BYTE		BEND    c_v+0
	BYTE		N03     Dn1   v108
	BYTE		N03     Fs1   v104
	BYTE	W06
	BYTE		        Dn1   v108
	BYTE		N03     Fs1   v104
	BYTE	W06
	BYTE		BEND    c_v+0
	BYTE		N03     Dn1   v108
	BYTE		N03     Fs1   v104
	BYTE	W06
// 081   ----------------------------------------
FodlanWinds_1_081:
	BYTE	W84
	BYTE		N03     Dn1   v100
	BYTE	W06
	BYTE		        Dn1   v096
	BYTE	W06
	BYTE	PEND
// 082   ----------------------------------------
	BYTE	PATT
	 POIN2	FodlanWinds_1_034
// 083   ----------------------------------------
	BYTE	PATT
	 POIN2	FodlanWinds_1_035
// 084   ----------------------------------------
	BYTE	PATT
	 POIN2	FodlanWinds_1_036
// 085   ----------------------------------------
	BYTE	PATT
	 POIN2	FodlanWinds_1_037
// 086   ----------------------------------------
	BYTE	PATT
	 POIN2	FodlanWinds_1_038
// 087   ----------------------------------------
	BYTE	PATT
	 POIN2	FodlanWinds_1_039
// 088   ----------------------------------------
	BYTE		N36     Cs2   v104
	BYTE	W96
// 089   ----------------------------------------
	BYTE	PATT
	 POIN2	FodlanWinds_1_081
// 090   ----------------------------------------
	BYTE	PATT
	 POIN2	FodlanWinds_1_034
// 091   ----------------------------------------
	BYTE	PATT
	 POIN2	FodlanWinds_1_035
// 092   ----------------------------------------
	BYTE	PATT
	 POIN2	FodlanWinds_1_044
// 093   ----------------------------------------
	BYTE	PATT
	 POIN2	FodlanWinds_1_045
// 094   ----------------------------------------
	BYTE	PATT
	 POIN2	FodlanWinds_1_046
// 095   ----------------------------------------
	BYTE	PATT
	 POIN2	FodlanWinds_1_047
// 096   ----------------------------------------
	BYTE		N06     Cn1   v112
	BYTE		N36     Cs2   v104
	BYTE	W96
// 097   ----------------------------------------
	BYTE		N06     Dn1   v112
	BYTE	W12
	BYTE		        Cn1 
	BYTE	W12
	BYTE		        Dn1 
	BYTE	W12
	BYTE		        Cn1 
	BYTE	W12
	BYTE		        Dn1 
	BYTE	W06
	BYTE		N06   
	BYTE	W06
	BYTE		N06   
	BYTE	W06
	BYTE		N06   
	BYTE	W06
	BYTE		        An1 
	BYTE	W06
	BYTE		N06   
	BYTE	W06
	BYTE		        Dn1 
	BYTE	W06
	BYTE		N06   
	BYTE	W06
// 098   ----------------------------------------
	BYTE		        Cn1 
	BYTE		N06     Cs2 
	BYTE	W96
// 099   ----------------------------------------
	BYTE	W96
// 100   ----------------------------------------
	BYTE	W96
// 101   ----------------------------------------
	BYTE	W96
// 102   ----------------------------------------
	BYTE	W96
// 103   ----------------------------------------
	BYTE	W96
// 104   ----------------------------------------
	BYTE	W96
// 105   ----------------------------------------
	BYTE	W96
	BYTE	GoTo
	 POIN2	FodlanWinds_1_B1
FodlanWinds_1_B2:
// 106   ----------------------------------------
	BYTE	TEMPO   172*FodlanWinds_tbs/2
	BYTE		BEND    c_v+0
	BYTE	FINE

//**************** Track 2 (Midi-Chn.2) ****************//

FodlanWinds_2:
	BYTE	KEYSH   FodlanWinds_key+0
FodlanWinds_2_B1:
// 000   ----------------------------------------
	BYTE		VOICE   47
	BYTE		PAN     c_v+13
	BYTE		VOL     103*FodlanWinds_mvl/mxv
	BYTE		BEND    c_v+0
	BYTE		N96     Cn2   v092
	BYTE	W96
// 001   ----------------------------------------
	BYTE	W84
	BYTE		N84     Gs1 
	BYTE	W12
// 002   ----------------------------------------
	BYTE	W72
	BYTE		N48     As1 
	BYTE	W24
// 003   ----------------------------------------
	BYTE	W96
// 004   ----------------------------------------
FodlanWinds_2_004:
	BYTE		N24     Cn2   v092
	BYTE	W24
	BYTE		N72   
	BYTE	W72
	BYTE	PEND
// 005   ----------------------------------------
	BYTE	W84
	BYTE		N84     Gs1 
	BYTE	W12
// 006   ----------------------------------------
	BYTE	W72
	BYTE		N48     As1 
	BYTE	W24
// 007   ----------------------------------------
	BYTE	W96
// 008   ----------------------------------------
	BYTE		N96     Cn2 
	BYTE	W96
// 009   ----------------------------------------
	BYTE	W84
	BYTE		N84     Gs1 
	BYTE	W12
// 010   ----------------------------------------
	BYTE	W72
	BYTE		N48     As1 
	BYTE	W24
// 011   ----------------------------------------
	BYTE	W96
// 012   ----------------------------------------
	BYTE	PATT
	 POIN2	FodlanWinds_2_004
// 013   ----------------------------------------
	BYTE	W84
	BYTE		N84     Gs1   v092
	BYTE	W12
// 014   ----------------------------------------
	BYTE	W72
	BYTE		N96     As1 
	BYTE	W24
// 015   ----------------------------------------
	BYTE	W96
// 016   ----------------------------------------
	BYTE		        Cn2 
	BYTE	W96
// 017   ----------------------------------------
	BYTE	W84
	BYTE		N84     Gs1 
	BYTE	W12
// 018   ----------------------------------------
	BYTE	W72
	BYTE		N48     As1 
	BYTE	W24
// 019   ----------------------------------------
	BYTE	W96
// 020   ----------------------------------------
	BYTE	PATT
	 POIN2	FodlanWinds_2_004
// 021   ----------------------------------------
	BYTE	W84
	BYTE		N84     Gs1   v092
	BYTE	W12
// 022   ----------------------------------------
	BYTE	W72
	BYTE		N48     As1 
	BYTE	W24
// 023   ----------------------------------------
	BYTE	W96
// 024   ----------------------------------------
FodlanWinds_2_024:
	BYTE		N72     Fn1   v092
	BYTE	W72
	BYTE		N48     Gn1 
	BYTE	W24
	BYTE	PEND
// 025   ----------------------------------------
	BYTE	W96
// 026   ----------------------------------------
	BYTE		N72     Gs1 
	BYTE	W72
	BYTE		N48     As1 
	BYTE	W24
// 027   ----------------------------------------
	BYTE	W96
// 028   ----------------------------------------
	BYTE		N96     Fn1 
	BYTE	W96
// 029   ----------------------------------------
	BYTE		N72     Gn1 
	BYTE	W72
	BYTE		N96     Cs2 
	BYTE	W24
// 030   ----------------------------------------
	BYTE	W96
// 031   ----------------------------------------
	BYTE	W96
// 032   ----------------------------------------
	BYTE	W96
// 033   ----------------------------------------
	BYTE	W96
// 034   ----------------------------------------
FodlanWinds_2_034:
	BYTE		N36     Gs1   v092
	BYTE	W36
	BYTE		N36   
	BYTE	W36
	BYTE		N36   
	BYTE	W24
	BYTE	PEND
// 035   ----------------------------------------
FodlanWinds_2_035:
	BYTE	W24
	BYTE		N36     Gs1   v092
	BYTE	W36
	BYTE		N36   
	BYTE	W36
	BYTE	PEND
// 036   ----------------------------------------
FodlanWinds_2_036:
	BYTE		N36     Gn1   v092
	BYTE	W36
	BYTE		N36   
	BYTE	W36
	BYTE		        Cn2 
	BYTE	W24
	BYTE	PEND
// 037   ----------------------------------------
FodlanWinds_2_037:
	BYTE	W24
	BYTE		N36     Cn2   v092
	BYTE	W36
	BYTE		N36   
	BYTE	W36
	BYTE	PEND
// 038   ----------------------------------------
	BYTE		N96     Fn1 
	BYTE	W96
// 039   ----------------------------------------
	BYTE		        Gn1 
	BYTE	W96
// 040   ----------------------------------------
FodlanWinds_2_040:
	BYTE		N72     Cn2   v092
	BYTE	W72
	BYTE		N48     Dn2 
	BYTE	W24
	BYTE	PEND
// 041   ----------------------------------------
FodlanWinds_2_041:
	BYTE	W24
	BYTE		N48     Ds2   v092
	BYTE	W48
	BYTE		N24     As1 
	BYTE	W24
	BYTE	PEND
// 042   ----------------------------------------
	BYTE	PATT
	 POIN2	FodlanWinds_2_034
// 043   ----------------------------------------
	BYTE	W12
	BYTE		N36     Gs1   v092
	BYTE	W48
	BYTE		N36   
	BYTE	W36
// 044   ----------------------------------------
	BYTE	PATT
	 POIN2	FodlanWinds_2_036
// 045   ----------------------------------------
	BYTE	PATT
	 POIN2	FodlanWinds_2_037
// 046   ----------------------------------------
	BYTE		N96     Fn1   v092
	BYTE	W96
// 047   ----------------------------------------
	BYTE		        Gn1 
	BYTE	W96
// 048   ----------------------------------------
	BYTE		        Cn2 
	BYTE	W96
// 049   ----------------------------------------
	BYTE	W96
// 050   ----------------------------------------
FodlanWinds_2_050:
	BYTE		N44     Gs1   v092
	BYTE	W48
	BYTE		N44   
	BYTE	W48
	BYTE	PEND
// 051   ----------------------------------------
FodlanWinds_2_051:
	BYTE		N44     Gs1   v092
	BYTE	W48
	BYTE		N36   
	BYTE	W36
	BYTE		N21     Cn2 
	BYTE	W12
	BYTE	PEND
// 052   ----------------------------------------
FodlanWinds_2_052:
	BYTE	W24
	BYTE		N44     Cn2   v092
	BYTE	W48
	BYTE		N68     Gn1 
	BYTE	W24
	BYTE	PEND
// 053   ----------------------------------------
	BYTE	W48
	BYTE		N44   
	BYTE	W48
// 054   ----------------------------------------
	BYTE	PATT
	 POIN2	FodlanWinds_2_050
// 055   ----------------------------------------
	BYTE	PATT
	 POIN2	FodlanWinds_2_051
// 056   ----------------------------------------
	BYTE	PATT
	 POIN2	FodlanWinds_2_052
// 057   ----------------------------------------
	BYTE	W48
	BYTE		N44     Gn1   v092
	BYTE	W48
// 058   ----------------------------------------
	BYTE	W96
// 059   ----------------------------------------
	BYTE	W96
// 060   ----------------------------------------
	BYTE	W96
// 061   ----------------------------------------
	BYTE	W96
// 062   ----------------------------------------
	BYTE	W96
// 063   ----------------------------------------
	BYTE	W96
// 064   ----------------------------------------
	BYTE	W96
// 065   ----------------------------------------
	BYTE	W96
// 066   ----------------------------------------
	BYTE		N96     Gs1 
	BYTE	W96
// 067   ----------------------------------------
	BYTE	W84
	BYTE		N84     Cn2 
	BYTE	W12
// 068   ----------------------------------------
	BYTE	W72
	BYTE		N48     Gn1 
	BYTE	W24
// 069   ----------------------------------------
	BYTE	W96
// 070   ----------------------------------------
	BYTE		N24     Gs1 
	BYTE	W24
	BYTE		N72   
	BYTE	W72
// 071   ----------------------------------------
	BYTE	W84
	BYTE		N84     Cn2 
	BYTE	W12
// 072   ----------------------------------------
	BYTE	W72
	BYTE		N48     Gn1 
	BYTE	W24
// 073   ----------------------------------------
	BYTE	W96
// 074   ----------------------------------------
	BYTE		N08     Cn2 
	BYTE	W08
	BYTE		N01   
	BYTE	W28
	BYTE		N08     Fn1 
	BYTE	W08
	BYTE		N01   
	BYTE	W28
	BYTE		N21     As1 
	BYTE	W24
// 075   ----------------------------------------
FodlanWinds_2_075:
	BYTE		N36     Cn2   v092
	BYTE	W24
	BYTE		        Fn1 
	BYTE	W36
	BYTE		N36   
	BYTE	W36
	BYTE	PEND
// 076   ----------------------------------------
	BYTE		        Cn2 
	BYTE	W36
	BYTE		        Fn1 
	BYTE	W36
	BYTE		N21     As1 
	BYTE	W24
// 077   ----------------------------------------
	BYTE	PATT
	 POIN2	FodlanWinds_2_075
// 078   ----------------------------------------
	BYTE		N96     Fn1   v092
	BYTE	W96
// 079   ----------------------------------------
	BYTE	PATT
	 POIN2	FodlanWinds_2_024
// 080   ----------------------------------------
	BYTE	W96
// 081   ----------------------------------------
	BYTE	W96
// 082   ----------------------------------------
	BYTE	PATT
	 POIN2	FodlanWinds_2_034
// 083   ----------------------------------------
	BYTE	PATT
	 POIN2	FodlanWinds_2_035
// 084   ----------------------------------------
	BYTE	PATT
	 POIN2	FodlanWinds_2_036
// 085   ----------------------------------------
	BYTE	PATT
	 POIN2	FodlanWinds_2_037
// 086   ----------------------------------------
	BYTE		N96     Fn1   v092
	BYTE	W96
// 087   ----------------------------------------
	BYTE		        Gn1 
	BYTE	W96
// 088   ----------------------------------------
	BYTE	PATT
	 POIN2	FodlanWinds_2_040
// 089   ----------------------------------------
	BYTE	PATT
	 POIN2	FodlanWinds_2_041
// 090   ----------------------------------------
	BYTE		N36     Gs1   v092
	BYTE	W96
// 091   ----------------------------------------
	BYTE	PATT
	 POIN2	FodlanWinds_2_035
// 092   ----------------------------------------
	BYTE	PATT
	 POIN2	FodlanWinds_2_036
// 093   ----------------------------------------
	BYTE	PATT
	 POIN2	FodlanWinds_2_037
// 094   ----------------------------------------
	BYTE		N96     Fn1   v092
	BYTE	W96
// 095   ----------------------------------------
	BYTE		        Gn1 
	BYTE	W96
// 096   ----------------------------------------
	BYTE		        Cn2 
	BYTE	W96
// 097   ----------------------------------------
	BYTE	W96
// 098   ----------------------------------------
	BYTE	W96
// 099   ----------------------------------------
	BYTE	W96
// 100   ----------------------------------------
	BYTE	W96
// 101   ----------------------------------------
	BYTE	W96
// 102   ----------------------------------------
	BYTE	W96
// 103   ----------------------------------------
	BYTE	W96
// 104   ----------------------------------------
	BYTE	W96
// 105   ----------------------------------------
	BYTE	W96
	BYTE	GoTo
	 POIN2	FodlanWinds_2_B1
FodlanWinds_2_B2:
// 106   ----------------------------------------
	BYTE		BEND    c_v+0
	BYTE	FINE

//**************** Track 3 (Midi-Chn.3) ****************//

FodlanWinds_3:
	BYTE	KEYSH   FodlanWinds_key+0
FodlanWinds_3_B1:
// 000   ----------------------------------------
	BYTE		VOICE   51
	BYTE		VOL     45*FodlanWinds_mvl/mxv
	BYTE		PAN     c_v-6
	BYTE		BEND    c_v+0
	BYTE		N24     Cn2   v127
	BYTE		N24     Gn2 
	BYTE		N24     As2 
	BYTE	W24
	BYTE		N72     Cn2 
	BYTE		N72     Gn2 
	BYTE		N72     As2 
	BYTE	W72
// 001   ----------------------------------------
FodlanWinds_3_001:
	BYTE	W84
	BYTE		N84     Gs1   v127
	BYTE		N84     Ds2 
	BYTE	W12
	BYTE	PEND
// 002   ----------------------------------------
FodlanWinds_3_002:
	BYTE	W72
	BYTE		N24     As1   v127
	BYTE		N24     Fn2 
	BYTE	W24
	BYTE	PEND
// 003   ----------------------------------------
	BYTE		        As1 
	BYTE		N24     Fn2 
	BYTE	W96
// 004   ----------------------------------------
FodlanWinds_3_004:
	BYTE		N24     Cn2   v127
	BYTE		N24     Gn2 
	BYTE	W24
	BYTE		N72     Cn2 
	BYTE		N72     Gn2 
	BYTE	W72
	BYTE	PEND
// 005   ----------------------------------------
	BYTE	PATT
	 POIN2	FodlanWinds_3_001
// 006   ----------------------------------------
	BYTE	W96
// 007   ----------------------------------------
	BYTE	W66
	BYTE		N06     As2   v127
	BYTE	W06
	BYTE		        Fn2 
	BYTE	W06
	BYTE		        Ds2 
	BYTE	W06
	BYTE		        Dn2 
	BYTE	W06
	BYTE		        As1 
	BYTE	W06
// 008   ----------------------------------------
	BYTE	PATT
	 POIN2	FodlanWinds_3_004
// 009   ----------------------------------------
	BYTE	PATT
	 POIN2	FodlanWinds_3_001
// 010   ----------------------------------------
	BYTE	PATT
	 POIN2	FodlanWinds_3_002
// 011   ----------------------------------------
	BYTE		N24     As1   v127
	BYTE		N24     Fn2 
	BYTE	W96
// 012   ----------------------------------------
	BYTE	PATT
	 POIN2	FodlanWinds_3_004
// 013   ----------------------------------------
	BYTE	PATT
	 POIN2	FodlanWinds_3_001
// 014   ----------------------------------------
	BYTE	W72
	BYTE		N96     As1   v127
	BYTE		N96     Fn2 
	BYTE	W24
// 015   ----------------------------------------
	BYTE	W96
// 016   ----------------------------------------
	BYTE	PATT
	 POIN2	FodlanWinds_3_004
// 017   ----------------------------------------
	BYTE	PATT
	 POIN2	FodlanWinds_3_001
// 018   ----------------------------------------
	BYTE	PATT
	 POIN2	FodlanWinds_3_002
// 019   ----------------------------------------
	BYTE		N24     As1   v127
	BYTE		N24     Fn2 
	BYTE	W96
// 020   ----------------------------------------
	BYTE	PATT
	 POIN2	FodlanWinds_3_004
// 021   ----------------------------------------
	BYTE	PATT
	 POIN2	FodlanWinds_3_001
// 022   ----------------------------------------
	BYTE	W72
	BYTE		N24     As1   v127
	BYTE	W24
// 023   ----------------------------------------
	BYTE		N24   
	BYTE	W48
	BYTE		N12     As2 
	BYTE	W12
	BYTE		        Fn2 
	BYTE	W12
	BYTE		        Ds2 
	BYTE	W12
	BYTE		        Dn2 
	BYTE	W12
// 024   ----------------------------------------
	BYTE		N72     Fn1 
	BYTE	W12
	BYTE		N60     Cn2 
	BYTE	W12
	BYTE		N12     Gn2 
	BYTE	W12
	BYTE		N36     Gs2 
	BYTE	W36
	BYTE		N96     Gn1 
	BYTE	W12
	BYTE		        Dn2 
	BYTE	W12
// 025   ----------------------------------------
	BYTE		N12     Gn2 
	BYTE	W12
	BYTE		N84     As2 
	BYTE	W84
// 026   ----------------------------------------
	BYTE		N72     Gs1 
	BYTE	W12
	BYTE		N60     Ds2 
	BYTE	W12
	BYTE		N12     As2 
	BYTE	W12
	BYTE		N36     Cn3 
	BYTE	W36
	BYTE		N96     As1 
	BYTE	W12
	BYTE		        Fn2 
	BYTE	W12
// 027   ----------------------------------------
	BYTE		N12     Cn3 
	BYTE	W96
// 028   ----------------------------------------
	BYTE	W96
// 029   ----------------------------------------
FodlanWinds_3_029:
	BYTE	W60
	BYTE		N12     As2   v127
	BYTE	W12
	BYTE		N24     Cn3 
	BYTE	W24
	BYTE	PEND
// 030   ----------------------------------------
	BYTE		N24   
	BYTE	W96
// 031   ----------------------------------------
	BYTE	W96
// 032   ----------------------------------------
	BYTE	W96
// 033   ----------------------------------------
	BYTE	W96
// 034   ----------------------------------------
FodlanWinds_3_034:
	BYTE		N96     Gs1   v127
	BYTE	W12
	BYTE		N24     Ds2 
	BYTE	W12
	BYTE		N12     As2 
	BYTE	W12
	BYTE		N24     Ds2 
	BYTE	W12
	BYTE		N12     Cn3 
	BYTE	W12
	BYTE		        Ds2 
	BYTE	W12
	BYTE		N48     Fn2 
	BYTE	W24
	BYTE	PEND
// 035   ----------------------------------------
FodlanWinds_3_035:
	BYTE	W24
	BYTE		N72     Gs1   v127
	BYTE		N12     Gn2 
	BYTE	W12
	BYTE		        Fn2 
	BYTE	W24
	BYTE		        As2 
	BYTE	W12
	BYTE		        Gn2 
	BYTE	W12
	BYTE		        Ds2 
	BYTE	W12
	BYTE	PEND
// 036   ----------------------------------------
FodlanWinds_3_036:
	BYTE		N72     Gn1   v127
	BYTE		N24     Dn2 
	BYTE	W24
	BYTE		        Fn2 
	BYTE	W12
	BYTE		N36     Dn2 
	BYTE	W12
	BYTE		N12     Gn2 
	BYTE	W12
	BYTE		        Fn2 
	BYTE	W12
	BYTE		N24     Cn2 
	BYTE		N12     Gn2 
	BYTE	W12
	BYTE		        Ds2 
	BYTE	W12
	BYTE	PEND
// 037   ----------------------------------------
FodlanWinds_3_037:
	BYTE		N12     Fn2   v127
	BYTE	W12
	BYTE		        Ds2 
	BYTE	W12
	BYTE		N72     Cn2 
	BYTE	W48
	BYTE		N24     As2 
	BYTE	W24
	BYTE	PEND
// 038   ----------------------------------------
FodlanWinds_3_038:
	BYTE		N96     Fn1   v127
	BYTE	W12
	BYTE		N12     Ds2 
	BYTE	W12
	BYTE		        Gs2 
	BYTE	W12
	BYTE		        Ds2 
	BYTE	W12
	BYTE		        Cn3 
	BYTE	W12
	BYTE		        Ds2 
	BYTE	W12
	BYTE		        Gn2 
	BYTE	W12
	BYTE		        Ds2 
	BYTE	W12
	BYTE	PEND
// 039   ----------------------------------------
FodlanWinds_3_039:
	BYTE		N96     Gn1   v127
	BYTE	W12
	BYTE		N12     Gn2 
	BYTE	W12
	BYTE		        Bn2 
	BYTE	W12
	BYTE		        Gn2 
	BYTE	W24
	BYTE		N12   
	BYTE	W12
	BYTE		        Bn2 
	BYTE	W12
	BYTE		        Gn2 
	BYTE	W12
	BYTE	PEND
// 040   ----------------------------------------
FodlanWinds_3_040:
	BYTE		N72     Cn2   v127
	BYTE		N24     Fn2 
	BYTE	W24
	BYTE		N48     Gn2 
	BYTE	W48
	BYTE		        Dn2 
	BYTE	W24
	BYTE	PEND
// 041   ----------------------------------------
FodlanWinds_3_041:
	BYTE	W24
	BYTE		N24     Ds2   v127
	BYTE	W12
	BYTE		N12     Gn2 
	BYTE	W12
	BYTE		        As2 
	BYTE	W12
	BYTE		        Ds2 
	BYTE	W12
	BYTE		N24     As1 
	BYTE	W24
	BYTE	PEND
// 042   ----------------------------------------
	BYTE		N96     Gs1 
	BYTE		N96     Ds2 
	BYTE	W96
// 043   ----------------------------------------
FodlanWinds_3_043:
	BYTE	W24
	BYTE		N72     Gs1   v127
	BYTE		N72     Ds2 
	BYTE	W72
	BYTE	PEND
// 044   ----------------------------------------
FodlanWinds_3_044:
	BYTE		N72     Gn1   v127
	BYTE		N36     Dn2 
	BYTE	W72
	BYTE		N24     Cn2 
	BYTE	W24
	BYTE	PEND
// 045   ----------------------------------------
	BYTE	W24
	BYTE		N72   
	BYTE	W72
// 046   ----------------------------------------
	BYTE		N96     Fn1 
	BYTE	W96
// 047   ----------------------------------------
	BYTE		        Gn1 
	BYTE	W96
// 048   ----------------------------------------
FodlanWinds_3_048:
	BYTE		N24     Cn2   v127
	BYTE	W24
	BYTE		N72   
	BYTE	W72
	BYTE	PEND
// 049   ----------------------------------------
	BYTE	W96
// 050   ----------------------------------------
	BYTE		N24     Gs1 
	BYTE	W24
	BYTE		N72   
	BYTE	W24
	BYTE		N48     Gs2 
	BYTE		N48     Cn3 
	BYTE	W48
// 051   ----------------------------------------
	BYTE	W84
	BYTE		N84     Cn2 
	BYTE	W12
// 052   ----------------------------------------
	BYTE	W72
	BYTE		N24     Gn1 
	BYTE	W24
// 053   ----------------------------------------
	BYTE		N24   
	BYTE	W66
	BYTE		N06     As2 
	BYTE	W06
	BYTE		        Fn2 
	BYTE	W06
	BYTE		        Ds2 
	BYTE	W06
	BYTE		        Dn2 
	BYTE	W06
	BYTE		        As1 
	BYTE	W06
// 054   ----------------------------------------
	BYTE		N24     Gs1 
	BYTE	W24
	BYTE		N72   
	BYTE	W72
// 055   ----------------------------------------
	BYTE	W84
	BYTE		N84     Cn2 
	BYTE	W12
// 056   ----------------------------------------
	BYTE	W72
	BYTE		N24     Gn1 
	BYTE	W24
// 057   ----------------------------------------
	BYTE		N24   
	BYTE	W96
// 058   ----------------------------------------
	BYTE	W96
// 059   ----------------------------------------
	BYTE	W96
// 060   ----------------------------------------
	BYTE	W96
// 061   ----------------------------------------
	BYTE	W96
// 062   ----------------------------------------
	BYTE	W96
// 063   ----------------------------------------
	BYTE	W96
// 064   ----------------------------------------
	BYTE	W96
// 065   ----------------------------------------
	BYTE	W96
// 066   ----------------------------------------
FodlanWinds_3_066:
	BYTE		N24     Gs1   v127
	BYTE		N24     Ds2 
	BYTE	W24
	BYTE		N72     Gs1 
	BYTE		N72     Ds2 
	BYTE	W72
	BYTE	PEND
// 067   ----------------------------------------
FodlanWinds_3_067:
	BYTE	W84
	BYTE		N84     Cn2   v127
	BYTE		N84     Gn2 
	BYTE	W12
	BYTE	PEND
// 068   ----------------------------------------
	BYTE	W72
	BYTE		N24     Gn1 
	BYTE		N24     Dn2 
	BYTE	W24
// 069   ----------------------------------------
	BYTE		        Gn1 
	BYTE		N24     Dn2 
	BYTE	W96
// 070   ----------------------------------------
	BYTE	PATT
	 POIN2	FodlanWinds_3_066
// 071   ----------------------------------------
	BYTE	PATT
	 POIN2	FodlanWinds_3_067
// 072   ----------------------------------------
	BYTE	W72
	BYTE		N96     Gn1   v127
	BYTE		N96     Dn2 
	BYTE	W24
// 073   ----------------------------------------
	BYTE	W48
	BYTE		N12     As2 
	BYTE	W12
	BYTE		        Fn2 
	BYTE	W12
	BYTE		        Ds2 
	BYTE	W12
	BYTE		N09     Dn2 
	BYTE	W12
// 074   ----------------------------------------
	BYTE	W96
// 075   ----------------------------------------
	BYTE	W96
// 076   ----------------------------------------
	BYTE	W96
// 077   ----------------------------------------
	BYTE	W96
// 078   ----------------------------------------
	BYTE	W96
// 079   ----------------------------------------
	BYTE	PATT
	 POIN2	FodlanWinds_3_029
// 080   ----------------------------------------
	BYTE		N24     Cn3   v127
	BYTE	W96
// 081   ----------------------------------------
	BYTE	W96
// 082   ----------------------------------------
	BYTE	PATT
	 POIN2	FodlanWinds_3_034
// 083   ----------------------------------------
	BYTE	PATT
	 POIN2	FodlanWinds_3_035
// 084   ----------------------------------------
	BYTE	PATT
	 POIN2	FodlanWinds_3_036
// 085   ----------------------------------------
	BYTE	PATT
	 POIN2	FodlanWinds_3_037
// 086   ----------------------------------------
	BYTE	PATT
	 POIN2	FodlanWinds_3_038
// 087   ----------------------------------------
	BYTE	PATT
	 POIN2	FodlanWinds_3_039
// 088   ----------------------------------------
	BYTE	PATT
	 POIN2	FodlanWinds_3_040
// 089   ----------------------------------------
	BYTE	PATT
	 POIN2	FodlanWinds_3_041
// 090   ----------------------------------------
	BYTE		N96     Gs1   v127
	BYTE		N96     Ds2 
	BYTE	W96
// 091   ----------------------------------------
	BYTE	PATT
	 POIN2	FodlanWinds_3_043
// 092   ----------------------------------------
	BYTE	PATT
	 POIN2	FodlanWinds_3_044
// 093   ----------------------------------------
	BYTE	W24
	BYTE		N72     Cn2   v127
	BYTE	W72
// 094   ----------------------------------------
	BYTE		N96     Fn1 
	BYTE	W96
// 095   ----------------------------------------
	BYTE		        Gn1 
	BYTE	W96
// 096   ----------------------------------------
	BYTE	PATT
	 POIN2	FodlanWinds_3_048
// 097   ----------------------------------------
	BYTE	W96
// 098   ----------------------------------------
	BYTE	W96
// 099   ----------------------------------------
	BYTE	W96
// 100   ----------------------------------------
	BYTE	W96
// 101   ----------------------------------------
	BYTE	W96
// 102   ----------------------------------------
	BYTE	W96
// 103   ----------------------------------------
	BYTE	W96
// 104   ----------------------------------------
	BYTE	W96
// 105   ----------------------------------------
	BYTE	W96
	BYTE	GoTo
	 POIN2	FodlanWinds_3_B1
FodlanWinds_3_B2:
// 106   ----------------------------------------
	BYTE		BEND    c_v+0
	BYTE	FINE

//**************** Track 4 (Midi-Chn.4) ****************//

FodlanWinds_4:
	BYTE	KEYSH   FodlanWinds_key+0
FodlanWinds_4_B1:
// 000   ----------------------------------------
	BYTE		VOICE   1
	BYTE		VOL     82*FodlanWinds_mvl/mxv
	BYTE		PAN     c_v+7
	BYTE		BEND    c_v+0
	BYTE	W96
// 001   ----------------------------------------
	BYTE	W96
// 002   ----------------------------------------
	BYTE	W96
// 003   ----------------------------------------
	BYTE	W72
	BYTE		N12     Gn4   v088
	BYTE	W12
	BYTE		        As4 
	BYTE	W12
// 004   ----------------------------------------
	BYTE		N72     Dn5 
	BYTE	W72
	BYTE		N12     Ds5 
	BYTE	W12
	BYTE		N36     Cn5 
	BYTE	W12
// 005   ----------------------------------------
	BYTE	W96
// 006   ----------------------------------------
	BYTE	W24
	BYTE		N09     Gn4 
	BYTE	W24
	BYTE		N06     Dn5 
	BYTE	W03
	BYTE		N21     Gn5 
	BYTE	W21
	BYTE		N12     Fn5 
	BYTE	W12
	BYTE		        Ds5 
	BYTE	W12
// 007   ----------------------------------------
FodlanWinds_4_007:
	BYTE		N06     Dn5   v088
	BYTE	W06
	BYTE		        Ds5 
	BYTE	W06
	BYTE		        Dn5 
	BYTE	W06
	BYTE		        As4 
	BYTE	W06
	BYTE		        Fn4 
	BYTE	W06
	BYTE		        Ds4 
	BYTE	W06
	BYTE		        Dn4 
	BYTE	W06
	BYTE		        As3 
	BYTE	W06
	BYTE		        Fn3 
	BYTE	W06
	BYTE		        Ds3 
	BYTE	W06
	BYTE		        Dn3 
	BYTE	W36
	BYTE	PEND
// 008   ----------------------------------------
	BYTE	W96
// 009   ----------------------------------------
	BYTE	W96
// 010   ----------------------------------------
	BYTE	W96
// 011   ----------------------------------------
	BYTE	W96
// 012   ----------------------------------------
	BYTE	W72
	BYTE		N12     Cn5 
	BYTE	W12
	BYTE		        Dn5 
	BYTE	W12
// 013   ----------------------------------------
	BYTE		N48     Ds5 
	BYTE	W60
	BYTE		N12   
	BYTE	W12
	BYTE		        Dn5 
	BYTE	W12
	BYTE		N48     Cn5 
	BYTE	W12
// 014   ----------------------------------------
	BYTE	W60
	BYTE		N12     As4 
	BYTE	W12
	BYTE		        Gs4 
	BYTE	W12
	BYTE		        Gn4 
	BYTE	W12
// 015   ----------------------------------------
	BYTE		        Fn4 
	BYTE	W12
	BYTE		N60     Gn4 
	BYTE	W84
// 016   ----------------------------------------
	BYTE	W96
// 017   ----------------------------------------
	BYTE	W96
// 018   ----------------------------------------
	BYTE	W96
// 019   ----------------------------------------
	BYTE	W96
// 020   ----------------------------------------
	BYTE	W96
// 021   ----------------------------------------
FodlanWinds_4_021:
	BYTE	W36
	BYTE		N12     Gs4   v088
	BYTE	W12
	BYTE		N24     Gn4 
	BYTE	W24
	BYTE		N12     Fn4 
	BYTE	W12
	BYTE		N48     Ds4 
	BYTE	W12
	BYTE	PEND
// 022   ----------------------------------------
FodlanWinds_4_022:
	BYTE	W36
	BYTE		N12     Dn4   v088
	BYTE	W12
	BYTE		        Cn4 
	BYTE	W12
	BYTE		        Ds3 
	BYTE	W12
	BYTE		        Fn3 
	BYTE	W12
	BYTE		N24     As3 
	BYTE	W12
	BYTE	PEND
// 023   ----------------------------------------
FodlanWinds_4_023:
	BYTE	W12
	BYTE		N12     Fn3   v088
	BYTE	W12
	BYTE		        Ds3 
	BYTE	W12
	BYTE		        Dn3 
	BYTE	W60
	BYTE	PEND
// 024   ----------------------------------------
	BYTE	W96
// 025   ----------------------------------------
	BYTE	W96
// 026   ----------------------------------------
	BYTE	W96
// 027   ----------------------------------------
	BYTE	W12
	BYTE		N84   
	BYTE	W72
	BYTE		N12     As4 
	BYTE	W12
// 028   ----------------------------------------
FodlanWinds_4_028:
	BYTE		N12     Gs4   v088
	BYTE	W12
	BYTE		        Gn4 
	BYTE	W12
	BYTE		        Ds4 
	BYTE	W12
	BYTE		        Cn4 
	BYTE	W12
	BYTE		        Gs3 
	BYTE	W12
	BYTE		        Gn3 
	BYTE	W12
	BYTE		        Ds3 
	BYTE	W12
	BYTE		        Gs3 
	BYTE	W12
	BYTE	PEND
// 029   ----------------------------------------
	BYTE		        Fn4 
	BYTE	W12
	BYTE		        Ds4 
	BYTE	W12
	BYTE		        As3 
	BYTE	W12
	BYTE		        Fn3 
	BYTE	W12
	BYTE		        Dn3 
	BYTE	W24
	BYTE		N96     Cn4 
	BYTE	W24
// 030   ----------------------------------------
	BYTE	W96
// 031   ----------------------------------------
	BYTE	W48
	BYTE		N12     Fn4 
	BYTE	W12
	BYTE		        Cn4 
	BYTE	W12
	BYTE		N24     Fn4 
	BYTE	W06
	BYTE		        Cn5 
	BYTE	W06
	BYTE		        Fn5 
	BYTE	W12
// 032   ----------------------------------------
	BYTE		        Fn4 
	BYTE	W06
	BYTE		N18     Cn5 
	BYTE	W06
	BYTE		N12     Fn5 
	BYTE	W84
// 033   ----------------------------------------
	BYTE	W96
// 034   ----------------------------------------
FodlanWinds_4_034:
	BYTE	W24
	BYTE		N12     As4   v088
	BYTE	W12
	BYTE		N48     Ds5 
	BYTE	W48
	BYTE		N12     Ds4 
	BYTE	W12
	BYTE	PEND
// 035   ----------------------------------------
FodlanWinds_4_035:
	BYTE		N12     As4   v088
	BYTE	W12
	BYTE		        Ds5 
	BYTE	W12
	BYTE		        Ds4 
	BYTE	W12
	BYTE		        As3 
	BYTE	W12
	BYTE		N48     Ds3 
	BYTE	W48
	BYTE	PEND
// 036   ----------------------------------------
	BYTE	PATT
	 POIN2	FodlanWinds_4_034
// 037   ----------------------------------------
FodlanWinds_4_037:
	BYTE		N12     As4   v088
	BYTE	W12
	BYTE		        Ds5 
	BYTE	W12
	BYTE		N24     Ds3 
	BYTE		N12     Ds4 
	BYTE	W12
	BYTE		        As3 
	BYTE	W12
	BYTE		N24     Dn3 
	BYTE		N24     Ds3 
	BYTE	W48
	BYTE	PEND
// 038   ----------------------------------------
FodlanWinds_4_038:
	BYTE		N48     Ds4   v088
	BYTE	W48
	BYTE		        As3 
	BYTE		N48     As4 
	BYTE	W48
	BYTE	PEND
// 039   ----------------------------------------
FodlanWinds_4_039:
	BYTE		N24     As3   v088
	BYTE		N24     As4 
	BYTE	W24
	BYTE		        Gs3 
	BYTE		N24     Gs4 
	BYTE	W24
	BYTE		N12     Dn3 
	BYTE		N24     Gn3 
	BYTE		N24     Gn4 
	BYTE	W24
	BYTE		N12     Fn3 
	BYTE		N12     Fn4 
	BYTE	W12
	BYTE		N36     Gn3 
	BYTE		N36     Gn4 
	BYTE	W12
	BYTE	PEND
// 040   ----------------------------------------
FodlanWinds_4_040:
	BYTE	W24
	BYTE		N12     As4   v088
	BYTE	W12
	BYTE		N60     Ds5 
	BYTE	W36
	BYTE		N12     Dn3 
	BYTE	W12
	BYTE		        Ds3 
	BYTE	W12
	BYTE	PEND
// 041   ----------------------------------------
FodlanWinds_4_041:
	BYTE		N12     Fn3   v088
	BYTE		N12     As4 
	BYTE	W12
	BYTE		        Gn3 
	BYTE		N12     Ds5 
	BYTE	W12
	BYTE		        Ds3 
	BYTE		N12     Ds4 
	BYTE	W12
	BYTE		        As4 
	BYTE	W12
	BYTE		N48     Ds4 
	BYTE	W48
	BYTE	PEND
// 042   ----------------------------------------
	BYTE	PATT
	 POIN2	FodlanWinds_4_034
// 043   ----------------------------------------
	BYTE	PATT
	 POIN2	FodlanWinds_4_035
// 044   ----------------------------------------
	BYTE	PATT
	 POIN2	FodlanWinds_4_034
// 045   ----------------------------------------
FodlanWinds_4_045:
	BYTE		N12     As4   v088
	BYTE	W12
	BYTE		N36     Ds5 
	BYTE	W12
	BYTE		N24     Ds4 
	BYTE	W24
	BYTE		        Fn4 
	BYTE		N24     Fn5 
	BYTE	W24
	BYTE		        Dn4 
	BYTE		N24     Dn5 
	BYTE	W24
	BYTE	PEND
// 046   ----------------------------------------
	BYTE		N96     Ds4 
	BYTE		N96     Ds5 
	BYTE	W96
// 047   ----------------------------------------
FodlanWinds_4_047:
	BYTE	W24
	BYTE		N24     Ds4   v088
	BYTE		N24     Ds5 
	BYTE	W24
	BYTE		        Fn4 
	BYTE		N24     Fn5 
	BYTE	W24
	BYTE		        Dn4 
	BYTE		N24     Dn5 
	BYTE	W24
	BYTE	PEND
// 048   ----------------------------------------
FodlanWinds_4_048:
	BYTE		N36     Dn4   v088
	BYTE		N36     Dn5 
	BYTE	W36
	BYTE		N84     Cn4 
	BYTE		N84     Cn5 
	BYTE	W60
	BYTE	PEND
// 049   ----------------------------------------
	BYTE	W96
// 050   ----------------------------------------
	BYTE		N48     Ds3 
	BYTE		N48     Gs3 
	BYTE	W96
// 051   ----------------------------------------
	BYTE		        Ds4 
	BYTE		N48     Gn4 
	BYTE	W48
	BYTE		N36     Cn4 
	BYTE		N36     Ds4 
	BYTE	W36
	BYTE		N60     As3 
	BYTE		N60     Dn4 
	BYTE	W12
// 052   ----------------------------------------
	BYTE	W60
	BYTE		N12     As3 
	BYTE		N12     Dn4 
	BYTE	W12
	BYTE		N24     Cn4 
	BYTE		N24     Ds4 
	BYTE	W24
// 053   ----------------------------------------
	BYTE	PATT
	 POIN2	FodlanWinds_4_007
// 054   ----------------------------------------
	BYTE	W96
// 055   ----------------------------------------
	BYTE		N48     Ds3   v088
	BYTE	W48
	BYTE		N36     Ds4 
	BYTE		N36     Gn4 
	BYTE	W36
	BYTE		N84     Cn4 
	BYTE		N84     Fn4 
	BYTE	W12
// 056   ----------------------------------------
	BYTE	W72
	BYTE		N48     Dn4 
	BYTE		N48     Fn4 
	BYTE	W24
// 057   ----------------------------------------
	BYTE	W96
// 058   ----------------------------------------
	BYTE		N72     Dn3 
	BYTE		N72     Fn3 
	BYTE		N72     Dn4 
	BYTE		N72     Dn5 
	BYTE	W72
	BYTE		N12     Ds4 
	BYTE		N12     Ds5 
	BYTE	W12
	BYTE		N36     Cn4 
	BYTE		N36     Cn5 
	BYTE	W12
// 059   ----------------------------------------
	BYTE	W48
	BYTE		N48     Ds3 
	BYTE	W48
// 060   ----------------------------------------
	BYTE	W96
// 061   ----------------------------------------
	BYTE	W48
	BYTE		N48   
	BYTE		N48     Gn3 
	BYTE	W48
// 062   ----------------------------------------
	BYTE		N24     Dn4 
	BYTE		N24     Dn5 
	BYTE	W24
	BYTE		N12     Ds4 
	BYTE		N12     Ds5 
	BYTE	W12
	BYTE		N60     Cn4 
	BYTE		N60     Cn5 
	BYTE	W60
// 063   ----------------------------------------
	BYTE		N24     Dn3 
	BYTE		N24     Dn4 
	BYTE	W24
	BYTE		N12     Ds3 
	BYTE		N12     Ds4 
	BYTE	W12
	BYTE		N60     Cn4 
	BYTE	W60
// 064   ----------------------------------------
	BYTE	W96
// 065   ----------------------------------------
	BYTE	W96
// 066   ----------------------------------------
	BYTE	W96
// 067   ----------------------------------------
	BYTE	W48
	BYTE		N24     As4 
	BYTE	W36
	BYTE		N84     Cn4 
	BYTE	W12
// 068   ----------------------------------------
	BYTE	W72
	BYTE		N48     Gn3 
	BYTE	W24
// 069   ----------------------------------------
	BYTE	W96
// 070   ----------------------------------------
	BYTE	W96
// 071   ----------------------------------------
	BYTE	PATT
	 POIN2	FodlanWinds_4_021
// 072   ----------------------------------------
	BYTE	PATT
	 POIN2	FodlanWinds_4_022
// 073   ----------------------------------------
	BYTE	PATT
	 POIN2	FodlanWinds_4_023
// 074   ----------------------------------------
	BYTE	W96
// 075   ----------------------------------------
	BYTE	W96
// 076   ----------------------------------------
	BYTE	W96
// 077   ----------------------------------------
	BYTE	W84
	BYTE		N12     As4   v088
	BYTE	W12
// 078   ----------------------------------------
	BYTE	PATT
	 POIN2	FodlanWinds_4_028
// 079   ----------------------------------------
	BYTE		N12     Fn4   v088
	BYTE	W12
	BYTE		        Ds4 
	BYTE	W12
	BYTE		        As3 
	BYTE	W12
	BYTE		        Fn3 
	BYTE	W12
	BYTE		        Dn3 
	BYTE	W24
	BYTE		N24     Cn4 
	BYTE	W24
// 080   ----------------------------------------
	BYTE		N12   
	BYTE	W96
// 081   ----------------------------------------
	BYTE	W24
	BYTE		N24     Ds4 
	BYTE		N24     As4 
	BYTE	W24
	BYTE		        As3 
	BYTE		N24     Ds4 
	BYTE	W24
	BYTE		N24   
	BYTE		N24     Gn4 
	BYTE	W24
// 082   ----------------------------------------
	BYTE	PATT
	 POIN2	FodlanWinds_4_034
// 083   ----------------------------------------
	BYTE	PATT
	 POIN2	FodlanWinds_4_035
// 084   ----------------------------------------
	BYTE	PATT
	 POIN2	FodlanWinds_4_034
// 085   ----------------------------------------
	BYTE	PATT
	 POIN2	FodlanWinds_4_037
// 086   ----------------------------------------
	BYTE	PATT
	 POIN2	FodlanWinds_4_038
// 087   ----------------------------------------
	BYTE	PATT
	 POIN2	FodlanWinds_4_039
// 088   ----------------------------------------
	BYTE	PATT
	 POIN2	FodlanWinds_4_040
// 089   ----------------------------------------
	BYTE	PATT
	 POIN2	FodlanWinds_4_041
// 090   ----------------------------------------
	BYTE	PATT
	 POIN2	FodlanWinds_4_034
// 091   ----------------------------------------
	BYTE	PATT
	 POIN2	FodlanWinds_4_035
// 092   ----------------------------------------
	BYTE	PATT
	 POIN2	FodlanWinds_4_034
// 093   ----------------------------------------
	BYTE	PATT
	 POIN2	FodlanWinds_4_045
// 094   ----------------------------------------
	BYTE		N96     Ds4   v088
	BYTE		N96     Ds5 
	BYTE	W96
// 095   ----------------------------------------
	BYTE	PATT
	 POIN2	FodlanWinds_4_047
// 096   ----------------------------------------
	BYTE	PATT
	 POIN2	FodlanWinds_4_048
// 097   ----------------------------------------
	BYTE	W96
// 098   ----------------------------------------
	BYTE		N96     Dn4   v088
	BYTE		N96     Ds4 
	BYTE		N06     Fn4 
	BYTE	W12
	BYTE		        Gn4 
	BYTE	W12
	BYTE		        Cn5   v127
	BYTE	W12
	BYTE		        Fn4   v088
	BYTE	W12
	BYTE		        Gn4 
	BYTE	W12
	BYTE		        Cn5   v127
	BYTE	W12
	BYTE		        Fn4   v088
	BYTE	W12
	BYTE		        Gn4 
	BYTE	W12
// 099   ----------------------------------------
	BYTE		N84     Gs3 
	BYTE		N84     Cn4 
	BYTE		N06     Cn5   v127
	BYTE	W12
	BYTE		        Fn4   v088
	BYTE	W12
	BYTE		        Gn4 
	BYTE	W12
	BYTE		        Cn5   v127
	BYTE	W12
	BYTE		        Fn4   v088
	BYTE	W12
	BYTE		        Gn4 
	BYTE	W12
	BYTE		        Cn5   v127
	BYTE	W12
	BYTE		N84     Ds3   v088
	BYTE		N84     As3 
	BYTE		N06     Fn4 
	BYTE	W12
// 100   ----------------------------------------
	BYTE		        Gn4 
	BYTE	W12
	BYTE		        Cn5   v127
	BYTE	W12
	BYTE		        Fn4   v088
	BYTE	W12
	BYTE		        Gn4 
	BYTE	W12
	BYTE		        Cn5   v127
	BYTE	W12
	BYTE		        Fn4   v088
	BYTE	W12
	BYTE		N24     As2 
	BYTE		N24     Ds3 
	BYTE		N06     Gn4 
	BYTE	W12
	BYTE		        Cn5   v127
	BYTE	W12
// 101   ----------------------------------------
	BYTE		N24     As2   v088
	BYTE		N24     Ds3 
	BYTE		N06     Fn4 
	BYTE	W12
	BYTE		        Gn4 
	BYTE	W12
	BYTE		N24     Gn3 
	BYTE		N06     Cn5   v127
	BYTE	W12
	BYTE		        Dn5 
	BYTE	W12
	BYTE		        Gn4   v088
	BYTE	W12
	BYTE		        Ds5   v127
	BYTE	W12
	BYTE		        Dn5 
	BYTE	W12
	BYTE		        As4   v088
	BYTE	W12
// 102   ----------------------------------------
	BYTE		N96     As3 
	BYTE		N96     Dn4 
	BYTE		N96     Ds4 
	BYTE		N06     Fn4 
	BYTE	W12
	BYTE		        Gn4 
	BYTE	W12
	BYTE		        Cn5   v127
	BYTE	W12
	BYTE		        Fn4   v088
	BYTE	W12
	BYTE		N48     Ds3 
	BYTE		N06     Gn4 
	BYTE	W12
	BYTE		        Cn5   v127
	BYTE	W12
	BYTE		        Fn4   v088
	BYTE	W12
	BYTE		        Gn4 
	BYTE	W12
// 103   ----------------------------------------
	BYTE		N48     As3 
	BYTE		N84     Cn4 
	BYTE		N06     Cn5   v127
	BYTE	W12
	BYTE		        Fn4   v088
	BYTE	W12
	BYTE		        Gn4 
	BYTE	W12
	BYTE		        Cn5   v127
	BYTE	W12
	BYTE		N36     Gs3   v088
	BYTE		N06     Fn4 
	BYTE	W12
	BYTE		        Gn4 
	BYTE	W12
	BYTE		        Cn5   v127
	BYTE	W12
	BYTE		N84     Ds3   v088
	BYTE		N84     Fn3 
	BYTE		N84     As3 
	BYTE		N06     Fn4 
	BYTE	W12
// 104   ----------------------------------------
	BYTE		        Gn4 
	BYTE	W12
	BYTE		        Cn5   v127
	BYTE	W12
	BYTE		        Fn4   v088
	BYTE	W12
	BYTE		        Gn4 
	BYTE	W12
	BYTE		        Cn5   v127
	BYTE	W12
	BYTE		        Fn4   v088
	BYTE	W12
	BYTE		N48     Ds3 
	BYTE		N06     Gn4 
	BYTE	W12
	BYTE		        Cn5   v127
	BYTE	W12
// 105   ----------------------------------------
	BYTE		        Fn4   v088
	BYTE	W12
	BYTE		        Gn4 
	BYTE	W12
	BYTE		N24     As2 
	BYTE		N06     Cn5   v127
	BYTE	W12
	BYTE		        Dn5 
	BYTE	W12
	BYTE		N48     Dn3   v088
	BYTE		N06     Gn4 
	BYTE	W12
	BYTE		        Ds5   v127
	BYTE	W12
	BYTE		        Dn5 
	BYTE	W12
	BYTE		        As4   v088
	BYTE	W12
	BYTE	GoTo
	 POIN2	FodlanWinds_4_B1
FodlanWinds_4_B2:
// 106   ----------------------------------------
	BYTE		BEND    c_v+0
	BYTE	FINE

//**************** Track 5 (Midi-Chn.5) ****************//

FodlanWinds_5:
	BYTE	KEYSH   FodlanWinds_key+0
FodlanWinds_5_B1:
// 000   ----------------------------------------
	BYTE		VOICE   40
	BYTE		VOL     54*FodlanWinds_mvl/mxv
	BYTE		PAN     c_v+19
	BYTE		BEND    c_v+0
	BYTE		N18     Cn2   v120
	BYTE	W36
	BYTE		        Gn2 
	BYTE	W36
	BYTE		        Dn3 
	BYTE	W24
// 001   ----------------------------------------
FodlanWinds_5_001:
	BYTE	W12
	BYTE		N18     Ds3   v120
	BYTE	W36
	BYTE		        Dn3 
	BYTE	W36
	BYTE		        Gs2 
	BYTE	W12
	BYTE	PEND
// 002   ----------------------------------------
FodlanWinds_5_002:
	BYTE	W36
	BYTE		N18     Cn3   v120
	BYTE	W12
	BYTE		        Gs2 
	BYTE	W12
	BYTE		        Ds2 
	BYTE	W12
	BYTE		        As2 
	BYTE	W24
	BYTE	PEND
// 003   ----------------------------------------
FodlanWinds_5_003:
	BYTE		N18     Fn2   v120
	BYTE	W36
	BYTE		        As2 
	BYTE	W24
	BYTE		        Fn2 
	BYTE	W36
	BYTE	PEND
// 004   ----------------------------------------
FodlanWinds_5_004:
	BYTE		N18     Cn2   v120
	BYTE	W36
	BYTE		        Gn2 
	BYTE	W36
	BYTE		        Dn3 
	BYTE	W24
	BYTE	PEND
// 005   ----------------------------------------
	BYTE	PATT
	 POIN2	FodlanWinds_5_001
// 006   ----------------------------------------
	BYTE	PATT
	 POIN2	FodlanWinds_5_002
// 007   ----------------------------------------
	BYTE	PATT
	 POIN2	FodlanWinds_5_003
// 008   ----------------------------------------
	BYTE	PATT
	 POIN2	FodlanWinds_5_004
// 009   ----------------------------------------
	BYTE	PATT
	 POIN2	FodlanWinds_5_001
// 010   ----------------------------------------
	BYTE	PATT
	 POIN2	FodlanWinds_5_002
// 011   ----------------------------------------
	BYTE	PATT
	 POIN2	FodlanWinds_5_003
// 012   ----------------------------------------
	BYTE	PATT
	 POIN2	FodlanWinds_5_004
// 013   ----------------------------------------
	BYTE	PATT
	 POIN2	FodlanWinds_5_001
// 014   ----------------------------------------
	BYTE	PATT
	 POIN2	FodlanWinds_5_002
// 015   ----------------------------------------
	BYTE	PATT
	 POIN2	FodlanWinds_5_003
// 016   ----------------------------------------
	BYTE	PATT
	 POIN2	FodlanWinds_5_004
// 017   ----------------------------------------
	BYTE	PATT
	 POIN2	FodlanWinds_5_001
// 018   ----------------------------------------
	BYTE	PATT
	 POIN2	FodlanWinds_5_002
// 019   ----------------------------------------
	BYTE	PATT
	 POIN2	FodlanWinds_5_003
// 020   ----------------------------------------
	BYTE	PATT
	 POIN2	FodlanWinds_5_004
// 021   ----------------------------------------
	BYTE	PATT
	 POIN2	FodlanWinds_5_001
// 022   ----------------------------------------
	BYTE	PATT
	 POIN2	FodlanWinds_5_002
// 023   ----------------------------------------
	BYTE	PATT
	 POIN2	FodlanWinds_5_003
// 024   ----------------------------------------
	BYTE	W96
// 025   ----------------------------------------
	BYTE	W96
// 026   ----------------------------------------
	BYTE	W96
// 027   ----------------------------------------
	BYTE	W96
// 028   ----------------------------------------
	BYTE	W96
// 029   ----------------------------------------
	BYTE	W96
// 030   ----------------------------------------
	BYTE	W96
// 031   ----------------------------------------
	BYTE	W96
// 032   ----------------------------------------
	BYTE	W96
// 033   ----------------------------------------
	BYTE	W96
// 034   ----------------------------------------
FodlanWinds_5_034:
	BYTE		N09     Gs1   v120
	BYTE	W12
	BYTE		        Ds2 
	BYTE	W12
	BYTE		        As2 
	BYTE	W12
	BYTE		        Ds2 
	BYTE	W12
	BYTE		        Cn3 
	BYTE	W12
	BYTE		        Ds2 
	BYTE	W12
	BYTE		N11     Fn2 
	BYTE	W11
	BYTE		N01   
	BYTE	W13
	BYTE	PEND
// 035   ----------------------------------------
FodlanWinds_5_035:
	BYTE	W24
	BYTE		N09     Gn2   v120
	BYTE	W12
	BYTE		        Fn2 
	BYTE	W12
	BYTE		        Ds3 
	BYTE	W12
	BYTE		        As2 
	BYTE	W12
	BYTE		        Gn2 
	BYTE	W12
	BYTE		        Ds2 
	BYTE	W12
	BYTE	PEND
// 036   ----------------------------------------
FodlanWinds_5_036:
	BYTE		N21     Dn2   v120
	BYTE	W24
	BYTE		N09     Fn2 
	BYTE	W12
	BYTE		        Dn2 
	BYTE	W12
	BYTE		        Gn2 
	BYTE	W12
	BYTE		        Fn2 
	BYTE	W12
	BYTE		        Cn2 
	BYTE		N09     Gn2 
	BYTE	W12
	BYTE		        Ds2 
	BYTE	W12
	BYTE	PEND
// 037   ----------------------------------------
FodlanWinds_5_037:
	BYTE		N09     Fn2   v120
	BYTE	W12
	BYTE		        Ds2 
	BYTE	W12
	BYTE		N21     Cn2 
	BYTE	W24
	BYTE		        Dn3 
	BYTE	W24
	BYTE		        As2 
	BYTE	W24
	BYTE	PEND
// 038   ----------------------------------------
FodlanWinds_5_038:
	BYTE		N09     Fn1   v120
	BYTE	W12
	BYTE		        Ds2 
	BYTE	W12
	BYTE		        Gs2 
	BYTE	W12
	BYTE		        Ds2 
	BYTE	W12
	BYTE		        Cn3 
	BYTE	W12
	BYTE		        Ds2 
	BYTE	W12
	BYTE		        Gn2 
	BYTE	W12
	BYTE		        Ds2 
	BYTE	W12
	BYTE	PEND
// 039   ----------------------------------------
FodlanWinds_5_039:
	BYTE		N09     Gn1   v120
	BYTE	W12
	BYTE		        Gn2 
	BYTE	W12
	BYTE		        Bn2 
	BYTE	W12
	BYTE		        Gn2 
	BYTE	W12
	BYTE		        Dn3 
	BYTE	W12
	BYTE		        Gn2 
	BYTE	W12
	BYTE		        Bn2 
	BYTE	W12
	BYTE		        Gn2 
	BYTE	W12
	BYTE	PEND
// 040   ----------------------------------------
FodlanWinds_5_040:
	BYTE		N21     Fn2   v120
	BYTE	W24
	BYTE		N11     Gn2 
	BYTE	W11
	BYTE		N01   
	BYTE	W36
	BYTE	W01
	BYTE		N09     Dn3 
	BYTE	W12
	BYTE		        Ds3 
	BYTE	W12
	BYTE	PEND
// 041   ----------------------------------------
FodlanWinds_5_041:
	BYTE		N09     Fn3   v120
	BYTE	W12
	BYTE		        Gn3 
	BYTE	W12
	BYTE		        Ds3 
	BYTE	W12
	BYTE		        Gn2 
	BYTE	W12
	BYTE		        As2 
	BYTE	W12
	BYTE		        Ds2 
	BYTE	W12
	BYTE		N21     As1 
	BYTE	W24
	BYTE	PEND
// 042   ----------------------------------------
	BYTE	PATT
	 POIN2	FodlanWinds_5_034
// 043   ----------------------------------------
	BYTE	PATT
	 POIN2	FodlanWinds_5_035
// 044   ----------------------------------------
	BYTE	PATT
	 POIN2	FodlanWinds_5_036
// 045   ----------------------------------------
	BYTE	PATT
	 POIN2	FodlanWinds_5_037
// 046   ----------------------------------------
	BYTE	PATT
	 POIN2	FodlanWinds_5_038
// 047   ----------------------------------------
FodlanWinds_5_047:
	BYTE		N09     Gn1   v120
	BYTE	W12
	BYTE		        Gn2 
	BYTE	W12
	BYTE		        Bn2 
	BYTE	W12
	BYTE		        Gn2 
	BYTE	W12
	BYTE		        Dn3 
	BYTE	W12
	BYTE		        Cn3 
	BYTE	W12
	BYTE		        As2 
	BYTE	W12
	BYTE		        Gn2 
	BYTE	W12
	BYTE	PEND
// 048   ----------------------------------------
FodlanWinds_5_048:
	BYTE		N09     Cn2   v120
	BYTE	W12
	BYTE		        Fn2 
	BYTE	W12
	BYTE		        Dn2 
	BYTE	W12
	BYTE		        Cn2 
	BYTE	W12
	BYTE		        Ds2 
	BYTE	W12
	BYTE		        Cn3 
	BYTE	W12
	BYTE		        Gn2 
	BYTE	W12
	BYTE		        As2 
	BYTE	W12
	BYTE	PEND
// 049   ----------------------------------------
FodlanWinds_5_049:
	BYTE		N09     Dn3   v120
	BYTE	W12
	BYTE		        Ds3 
	BYTE	W12
	BYTE		        As2 
	BYTE	W12
	BYTE		        Gn2 
	BYTE	W12
	BYTE		        Fn2 
	BYTE	W12
	BYTE		        Ds2 
	BYTE	W12
	BYTE		        As1 
	BYTE	W12
	BYTE		        Gs1 
	BYTE	W12
	BYTE	PEND
// 050   ----------------------------------------
	BYTE	W96
// 051   ----------------------------------------
	BYTE	W96
// 052   ----------------------------------------
	BYTE	W96
// 053   ----------------------------------------
	BYTE	W96
// 054   ----------------------------------------
	BYTE	W96
// 055   ----------------------------------------
	BYTE	W96
// 056   ----------------------------------------
	BYTE	W96
// 057   ----------------------------------------
	BYTE	W96
// 058   ----------------------------------------
	BYTE	W96
// 059   ----------------------------------------
	BYTE	W96
// 060   ----------------------------------------
	BYTE	W96
// 061   ----------------------------------------
	BYTE	W96
// 062   ----------------------------------------
	BYTE	W96
// 063   ----------------------------------------
	BYTE	W96
// 064   ----------------------------------------
	BYTE	W96
// 065   ----------------------------------------
	BYTE	W96
// 066   ----------------------------------------
FodlanWinds_5_066:
	BYTE		N12     Gs2   v120
	BYTE	W36
	BYTE		        Ds2 
	BYTE	W36
	BYTE		        As2 
	BYTE	W24
	BYTE	PEND
// 067   ----------------------------------------
FodlanWinds_5_067:
	BYTE	W12
	BYTE		N12     Cn3   v120
	BYTE	W36
	BYTE		        As2 
	BYTE	W36
	BYTE		        Cn3 
	BYTE	W12
	BYTE	PEND
// 068   ----------------------------------------
	BYTE	W36
	BYTE		        Fn2 
	BYTE	W36
	BYTE		        Gn2 
	BYTE	W24
// 069   ----------------------------------------
	BYTE	W96
// 070   ----------------------------------------
	BYTE	PATT
	 POIN2	FodlanWinds_5_066
// 071   ----------------------------------------
	BYTE	PATT
	 POIN2	FodlanWinds_5_067
// 072   ----------------------------------------
	BYTE	W36
	BYTE		N12     Fn2   v120
	BYTE	W36
	BYTE		        Dn2 
	BYTE	W24
// 073   ----------------------------------------
	BYTE	W96
// 074   ----------------------------------------
FodlanWinds_5_074:
	BYTE		N12     Cn3   v120
	BYTE	W36
	BYTE		        Fn2 
	BYTE	W36
	BYTE		        As2 
	BYTE	W24
	BYTE	PEND
// 075   ----------------------------------------
FodlanWinds_5_075:
	BYTE		N12     Cn3   v120
	BYTE	W24
	BYTE		        Fn2 
	BYTE	W36
	BYTE		N12   
	BYTE	W36
	BYTE	PEND
// 076   ----------------------------------------
	BYTE	PATT
	 POIN2	FodlanWinds_5_074
// 077   ----------------------------------------
	BYTE	PATT
	 POIN2	FodlanWinds_5_075
// 078   ----------------------------------------
	BYTE		N12     Cn3   v120
	BYTE	W96
// 079   ----------------------------------------
	BYTE		N12   
	BYTE	W72
	BYTE		N12   
	BYTE	W24
// 080   ----------------------------------------
	BYTE	W96
// 081   ----------------------------------------
	BYTE	W96
// 082   ----------------------------------------
	BYTE	PATT
	 POIN2	FodlanWinds_5_034
// 083   ----------------------------------------
	BYTE	PATT
	 POIN2	FodlanWinds_5_035
// 084   ----------------------------------------
	BYTE	PATT
	 POIN2	FodlanWinds_5_036
// 085   ----------------------------------------
	BYTE	PATT
	 POIN2	FodlanWinds_5_037
// 086   ----------------------------------------
	BYTE	PATT
	 POIN2	FodlanWinds_5_038
// 087   ----------------------------------------
	BYTE	PATT
	 POIN2	FodlanWinds_5_039
// 088   ----------------------------------------
	BYTE	PATT
	 POIN2	FodlanWinds_5_040
// 089   ----------------------------------------
	BYTE	PATT
	 POIN2	FodlanWinds_5_041
// 090   ----------------------------------------
	BYTE	PATT
	 POIN2	FodlanWinds_5_034
// 091   ----------------------------------------
	BYTE	PATT
	 POIN2	FodlanWinds_5_035
// 092   ----------------------------------------
	BYTE	PATT
	 POIN2	FodlanWinds_5_036
// 093   ----------------------------------------
	BYTE	PATT
	 POIN2	FodlanWinds_5_037
// 094   ----------------------------------------
	BYTE	PATT
	 POIN2	FodlanWinds_5_038
// 095   ----------------------------------------
	BYTE	PATT
	 POIN2	FodlanWinds_5_047
// 096   ----------------------------------------
	BYTE	PATT
	 POIN2	FodlanWinds_5_048
// 097   ----------------------------------------
	BYTE	PATT
	 POIN2	FodlanWinds_5_049
// 098   ----------------------------------------
	BYTE	W96
// 099   ----------------------------------------
	BYTE	W96
// 100   ----------------------------------------
	BYTE	W96
// 101   ----------------------------------------
	BYTE	W96
// 102   ----------------------------------------
	BYTE	W96
// 103   ----------------------------------------
	BYTE	W96
// 104   ----------------------------------------
	BYTE	W96
// 105   ----------------------------------------
	BYTE	W96
	BYTE	GoTo
	 POIN2	FodlanWinds_5_B1
FodlanWinds_5_B2:
// 106   ----------------------------------------
	BYTE		BEND    c_v+0
	BYTE	FINE

//**************** Track 6 (Midi-Chn.6) ****************//

FodlanWinds_6:
	BYTE	KEYSH   FodlanWinds_key+0
FodlanWinds_6_B1:
// 000   ----------------------------------------
	BYTE		VOICE   41
	BYTE		PAN     c_v-14
	BYTE		VOL     75*FodlanWinds_mvl/mxv
	BYTE		BEND    c_v+0
	BYTE		N07     Fn3   v112
	BYTE	W12
	BYTE		        Gn3 
	BYTE	W12
	BYTE		        Cn4 
	BYTE	W12
	BYTE		        Fn3 
	BYTE	W12
	BYTE		        Gn3 
	BYTE	W12
	BYTE		        Cn4 
	BYTE	W12
	BYTE		        Fn3 
	BYTE	W12
	BYTE		        Gn3 
	BYTE	W12
// 001   ----------------------------------------
FodlanWinds_6_001:
	BYTE		N07     Cn4   v112
	BYTE	W12
	BYTE		        Fn3 
	BYTE	W12
	BYTE		        Gn3 
	BYTE	W12
	BYTE		        Cn4 
	BYTE	W12
	BYTE		        Fn3 
	BYTE	W12
	BYTE		        Gn3 
	BYTE	W12
	BYTE		        Cn4 
	BYTE	W12
	BYTE		        Fn3 
	BYTE	W12
	BYTE	PEND
// 002   ----------------------------------------
FodlanWinds_6_002:
	BYTE		N07     Gn3   v112
	BYTE	W12
	BYTE		        Cn4 
	BYTE	W12
	BYTE		        Fn3 
	BYTE	W12
	BYTE		        Gn3 
	BYTE	W12
	BYTE		        Cn4 
	BYTE	W12
	BYTE		        Fn3 
	BYTE	W12
	BYTE		        Gn3 
	BYTE	W12
	BYTE		        Cn4 
	BYTE	W12
	BYTE	PEND
// 003   ----------------------------------------
FodlanWinds_6_003:
	BYTE		N07     Fn3   v112
	BYTE	W12
	BYTE		        Gn3 
	BYTE	W12
	BYTE		        Cn4 
	BYTE	W12
	BYTE		        Dn4 
	BYTE	W12
	BYTE		        Gn3 
	BYTE	W12
	BYTE		        Ds4 
	BYTE	W12
	BYTE		        Dn4 
	BYTE	W12
	BYTE		        As3 
	BYTE	W12
	BYTE	PEND
// 004   ----------------------------------------
FodlanWinds_6_004:
	BYTE		N07     Fn3   v112
	BYTE	W12
	BYTE		        Gn3 
	BYTE	W12
	BYTE		        Cn4 
	BYTE	W12
	BYTE		        Fn3 
	BYTE	W12
	BYTE		        Gn3 
	BYTE	W12
	BYTE		        Cn4 
	BYTE	W12
	BYTE		        Fn3 
	BYTE	W12
	BYTE		        Gn3 
	BYTE	W12
	BYTE	PEND
// 005   ----------------------------------------
	BYTE	PATT
	 POIN2	FodlanWinds_6_001
// 006   ----------------------------------------
	BYTE	PATT
	 POIN2	FodlanWinds_6_002
// 007   ----------------------------------------
	BYTE	PATT
	 POIN2	FodlanWinds_6_003
// 008   ----------------------------------------
	BYTE	PATT
	 POIN2	FodlanWinds_6_004
// 009   ----------------------------------------
	BYTE	PATT
	 POIN2	FodlanWinds_6_001
// 010   ----------------------------------------
	BYTE	PATT
	 POIN2	FodlanWinds_6_002
// 011   ----------------------------------------
	BYTE	PATT
	 POIN2	FodlanWinds_6_003
// 012   ----------------------------------------
	BYTE	PATT
	 POIN2	FodlanWinds_6_004
// 013   ----------------------------------------
	BYTE	PATT
	 POIN2	FodlanWinds_6_001
// 014   ----------------------------------------
	BYTE	PATT
	 POIN2	FodlanWinds_6_002
// 015   ----------------------------------------
	BYTE	PATT
	 POIN2	FodlanWinds_6_003
// 016   ----------------------------------------
	BYTE	PATT
	 POIN2	FodlanWinds_6_004
// 017   ----------------------------------------
	BYTE	PATT
	 POIN2	FodlanWinds_6_001
// 018   ----------------------------------------
	BYTE	PATT
	 POIN2	FodlanWinds_6_002
// 019   ----------------------------------------
	BYTE	PATT
	 POIN2	FodlanWinds_6_003
// 020   ----------------------------------------
	BYTE	PATT
	 POIN2	FodlanWinds_6_004
// 021   ----------------------------------------
	BYTE	PATT
	 POIN2	FodlanWinds_6_001
// 022   ----------------------------------------
	BYTE	PATT
	 POIN2	FodlanWinds_6_002
// 023   ----------------------------------------
	BYTE	PATT
	 POIN2	FodlanWinds_6_003
// 024   ----------------------------------------
	BYTE	W96
// 025   ----------------------------------------
	BYTE	W96
// 026   ----------------------------------------
	BYTE	W96
// 027   ----------------------------------------
	BYTE	W96
// 028   ----------------------------------------
	BYTE	W96
// 029   ----------------------------------------
	BYTE	W96
// 030   ----------------------------------------
	BYTE	W96
// 031   ----------------------------------------
	BYTE	W96
// 032   ----------------------------------------
	BYTE	W96
// 033   ----------------------------------------
	BYTE	W96
// 034   ----------------------------------------
	BYTE	W96
// 035   ----------------------------------------
	BYTE	W96
// 036   ----------------------------------------
	BYTE	W96
// 037   ----------------------------------------
	BYTE	W96
// 038   ----------------------------------------
	BYTE	W96
// 039   ----------------------------------------
	BYTE	W96
// 040   ----------------------------------------
	BYTE	W96
// 041   ----------------------------------------
FodlanWinds_6_041:
	BYTE	W48
	BYTE		N10     As3   v112
	BYTE	W24
	BYTE		N10   
	BYTE	W24
	BYTE	PEND
// 042   ----------------------------------------
FodlanWinds_6_042:
	BYTE		N10     Cn4   v112
	BYTE	W12
	BYTE		        Gs3 
	BYTE	W12
	BYTE		        Ds4 
	BYTE	W12
	BYTE		        Gs3 
	BYTE	W12
	BYTE		        Fn4 
	BYTE	W12
	BYTE		        Gs3 
	BYTE	W12
	BYTE		        Dn4 
	BYTE	W12
	BYTE		        Ds4 
	BYTE	W12
	BYTE	PEND
// 043   ----------------------------------------
FodlanWinds_6_043:
	BYTE		N10     Dn4   v112
	BYTE	W12
	BYTE		        Fn4 
	BYTE	W12
	BYTE		        Cn4 
	BYTE	W12
	BYTE		        Gs3 
	BYTE	W12
	BYTE		        As3 
	BYTE	W12
	BYTE		        Gs3 
	BYTE	W12
	BYTE		        As3 
	BYTE	W12
	BYTE		        Cn4 
	BYTE	W12
	BYTE	PEND
// 044   ----------------------------------------
FodlanWinds_6_044:
	BYTE		N10     Dn4   v112
	BYTE	W12
	BYTE		        As3 
	BYTE	W12
	BYTE		        Ds4 
	BYTE	W12
	BYTE		        As3 
	BYTE	W12
	BYTE		        Fn4 
	BYTE	W12
	BYTE		        As3 
	BYTE	W12
	BYTE		        Dn4 
	BYTE	W12
	BYTE		        Ds4 
	BYTE	W12
	BYTE	PEND
// 045   ----------------------------------------
FodlanWinds_6_045:
	BYTE		N10     Dn4   v112
	BYTE	W12
	BYTE		        Cn4 
	BYTE	W12
	BYTE		        As3 
	BYTE	W12
	BYTE		        Gs3 
	BYTE	W12
	BYTE		        Fn3 
	BYTE	W12
	BYTE		        Ds3 
	BYTE	W12
	BYTE		        Dn3 
	BYTE	W12
	BYTE		        As2 
	BYTE	W12
	BYTE	PEND
// 046   ----------------------------------------
	BYTE	W96
// 047   ----------------------------------------
	BYTE	W96
// 048   ----------------------------------------
	BYTE	W96
// 049   ----------------------------------------
	BYTE	W96
// 050   ----------------------------------------
	BYTE	PATT
	 POIN2	FodlanWinds_6_004
// 051   ----------------------------------------
	BYTE	PATT
	 POIN2	FodlanWinds_6_001
// 052   ----------------------------------------
	BYTE	PATT
	 POIN2	FodlanWinds_6_002
// 053   ----------------------------------------
	BYTE	PATT
	 POIN2	FodlanWinds_6_003
// 054   ----------------------------------------
	BYTE	PATT
	 POIN2	FodlanWinds_6_004
// 055   ----------------------------------------
	BYTE	PATT
	 POIN2	FodlanWinds_6_001
// 056   ----------------------------------------
	BYTE	PATT
	 POIN2	FodlanWinds_6_002
// 057   ----------------------------------------
	BYTE		N07     Fn3   v112
	BYTE	W12
	BYTE		        Gn3 
	BYTE	W12
	BYTE		        Cn4 
	BYTE	W12
	BYTE		        Dn4 
	BYTE	W12
	BYTE		        Gn3 
	BYTE	W12
	BYTE		        Ds4 
	BYTE	W12
	BYTE		        Dn4 
	BYTE	W12
	BYTE		N06     As3 
	BYTE	W12
// 058   ----------------------------------------
	BYTE	W96
// 059   ----------------------------------------
	BYTE	W96
// 060   ----------------------------------------
	BYTE	W96
// 061   ----------------------------------------
	BYTE	W96
// 062   ----------------------------------------
	BYTE	W96
// 063   ----------------------------------------
	BYTE	W96
// 064   ----------------------------------------
	BYTE	W96
// 065   ----------------------------------------
	BYTE	W96
// 066   ----------------------------------------
	BYTE	PATT
	 POIN2	FodlanWinds_6_004
// 067   ----------------------------------------
	BYTE	PATT
	 POIN2	FodlanWinds_6_001
// 068   ----------------------------------------
	BYTE	PATT
	 POIN2	FodlanWinds_6_002
// 069   ----------------------------------------
	BYTE	PATT
	 POIN2	FodlanWinds_6_003
// 070   ----------------------------------------
	BYTE	PATT
	 POIN2	FodlanWinds_6_004
// 071   ----------------------------------------
	BYTE	PATT
	 POIN2	FodlanWinds_6_001
// 072   ----------------------------------------
	BYTE	PATT
	 POIN2	FodlanWinds_6_002
// 073   ----------------------------------------
	BYTE		N07     Fn3   v112
	BYTE	W12
	BYTE		        Gn3 
	BYTE	W12
	BYTE		        Cn4 
	BYTE	W12
	BYTE		        Dn4 
	BYTE	W12
	BYTE		        Gn3 
	BYTE	W12
	BYTE		        Fn3 
	BYTE	W12
	BYTE		        Ds3 
	BYTE	W12
	BYTE		        Dn3 
	BYTE	W12
// 074   ----------------------------------------
	BYTE	W96
// 075   ----------------------------------------
	BYTE	W96
// 076   ----------------------------------------
	BYTE	W96
// 077   ----------------------------------------
	BYTE	W96
// 078   ----------------------------------------
	BYTE	W96
// 079   ----------------------------------------
	BYTE	W96
// 080   ----------------------------------------
	BYTE	W96
// 081   ----------------------------------------
	BYTE	W96
// 082   ----------------------------------------
	BYTE	W96
// 083   ----------------------------------------
	BYTE	W96
// 084   ----------------------------------------
	BYTE	W96
// 085   ----------------------------------------
	BYTE	W96
// 086   ----------------------------------------
	BYTE	W96
// 087   ----------------------------------------
	BYTE	W96
// 088   ----------------------------------------
	BYTE	W96
// 089   ----------------------------------------
	BYTE	PATT
	 POIN2	FodlanWinds_6_041
// 090   ----------------------------------------
	BYTE	PATT
	 POIN2	FodlanWinds_6_042
// 091   ----------------------------------------
	BYTE	PATT
	 POIN2	FodlanWinds_6_043
// 092   ----------------------------------------
	BYTE	PATT
	 POIN2	FodlanWinds_6_044
// 093   ----------------------------------------
	BYTE	PATT
	 POIN2	FodlanWinds_6_045
// 094   ----------------------------------------
	BYTE	W96
// 095   ----------------------------------------
	BYTE	W96
// 096   ----------------------------------------
	BYTE	W96
// 097   ----------------------------------------
	BYTE	W96
// 098   ----------------------------------------
	BYTE	W96
// 099   ----------------------------------------
	BYTE	W96
// 100   ----------------------------------------
	BYTE	W96
// 101   ----------------------------------------
	BYTE	W96
// 102   ----------------------------------------
	BYTE	W96
// 103   ----------------------------------------
	BYTE	W96
// 104   ----------------------------------------
	BYTE	W96
// 105   ----------------------------------------
	BYTE	W96
	BYTE	GoTo
	 POIN2	FodlanWinds_6_B1
FodlanWinds_6_B2:
// 106   ----------------------------------------
	BYTE		BEND    c_v+0
	BYTE	FINE

//**************** Track 7 (Midi-Chn.7) ****************//

FodlanWinds_7:
	BYTE	KEYSH   FodlanWinds_key+0
FodlanWinds_7_B1:
// 000   ----------------------------------------
	BYTE		VOICE   57
	BYTE		PAN     c_v+10
	BYTE		VOL     98*FodlanWinds_mvl/mxv
	BYTE		BEND    c_v+0
	BYTE	W96
// 001   ----------------------------------------
	BYTE	W96
// 002   ----------------------------------------
	BYTE	W96
// 003   ----------------------------------------
	BYTE	W96
// 004   ----------------------------------------
	BYTE	W96
// 005   ----------------------------------------
	BYTE	W96
// 006   ----------------------------------------
	BYTE	W96
// 007   ----------------------------------------
FodlanWinds_7_007:
	BYTE	W48
	BYTE		N12     Dn3   v092
	BYTE	W12
	BYTE		        Ds3 
	BYTE	W12
	BYTE		        Fn3 
	BYTE	W12
	BYTE		        As3 
	BYTE	W12
	BYTE	PEND
// 008   ----------------------------------------
FodlanWinds_7_008:
	BYTE		N72     Dn4   v092
	BYTE	W72
	BYTE		N12     Ds4 
	BYTE	W12
	BYTE		N36     Cn4 
	BYTE	W12
	BYTE	PEND
// 009   ----------------------------------------
	BYTE	W96
// 010   ----------------------------------------
FodlanWinds_7_010:
	BYTE	W24
	BYTE		N24     Gn3   v092
	BYTE	W24
	BYTE		        Gn4 
	BYTE	W24
	BYTE		N12     Fn4 
	BYTE	W12
	BYTE		        Ds4 
	BYTE	W12
	BYTE	PEND
// 011   ----------------------------------------
FodlanWinds_7_011:
	BYTE		N48     Dn4   v092
	BYTE	W48
	BYTE		        As3 
	BYTE	W48
	BYTE	PEND
// 012   ----------------------------------------
	BYTE		N24     Dn4 
	BYTE	W24
	BYTE		N12     Ds4 
	BYTE	W12
	BYTE		N96     Cn4 
	BYTE	W60
// 013   ----------------------------------------
	BYTE	W96
// 014   ----------------------------------------
	BYTE	W96
// 015   ----------------------------------------
	BYTE	PATT
	 POIN2	FodlanWinds_7_007
// 016   ----------------------------------------
	BYTE	PATT
	 POIN2	FodlanWinds_7_008
// 017   ----------------------------------------
	BYTE	W96
// 018   ----------------------------------------
	BYTE	PATT
	 POIN2	FodlanWinds_7_010
// 019   ----------------------------------------
	BYTE	PATT
	 POIN2	FodlanWinds_7_011
// 020   ----------------------------------------
	BYTE		N24     Dn4   v092
	BYTE	W24
	BYTE		N12     Ds4 
	BYTE	W12
	BYTE		N96     As4 
	BYTE	W60
// 021   ----------------------------------------
	BYTE	W96
// 022   ----------------------------------------
	BYTE	W96
// 023   ----------------------------------------
	BYTE	W96
// 024   ----------------------------------------
	BYTE	W96
// 025   ----------------------------------------
	BYTE	W96
// 026   ----------------------------------------
	BYTE	W96
// 027   ----------------------------------------
	BYTE	W96
// 028   ----------------------------------------
FodlanWinds_7_028:
	BYTE		N48     Cn4   v092
	BYTE	W60
	BYTE		N12   
	BYTE	W12
	BYTE		        Dn4 
	BYTE	W12
	BYTE		        Ds4 
	BYTE	W12
	BYTE	PEND
// 029   ----------------------------------------
	BYTE		N48     Fn4 
	BYTE	W48
	BYTE		N12     Ds4 
	BYTE	W12
	BYTE		        Fn4 
	BYTE	W12
	BYTE		N96     Gn4 
	BYTE	W24
// 030   ----------------------------------------
	BYTE	W96
// 031   ----------------------------------------
	BYTE	W96
// 032   ----------------------------------------
	BYTE	W96
// 033   ----------------------------------------
	BYTE	W96
// 034   ----------------------------------------
	BYTE	W96
// 035   ----------------------------------------
	BYTE	W96
// 036   ----------------------------------------
	BYTE	W96
// 037   ----------------------------------------
	BYTE	W96
// 038   ----------------------------------------
	BYTE	W96
// 039   ----------------------------------------
	BYTE	W96
// 040   ----------------------------------------
	BYTE	W96
// 041   ----------------------------------------
FodlanWinds_7_041:
	BYTE	W24
	BYTE		N24     As4   v092
	BYTE	W24
	BYTE		        Ds4 
	BYTE	W24
	BYTE		        Gn4 
	BYTE	W24
	BYTE	PEND
// 042   ----------------------------------------
	BYTE		N96     Fn4 
	BYTE	W96
// 043   ----------------------------------------
	BYTE	PATT
	 POIN2	FodlanWinds_7_041
// 044   ----------------------------------------
FodlanWinds_7_044:
	BYTE		N36     Fn4   v092
	BYTE	W36
	BYTE		N60     Gn4 
	BYTE	W60
	BYTE	PEND
// 045   ----------------------------------------
FodlanWinds_7_045:
	BYTE	W24
	BYTE		N24     Ds4   v092
	BYTE	W24
	BYTE		        Fn4 
	BYTE	W24
	BYTE		        Dn4 
	BYTE	W24
	BYTE	PEND
// 046   ----------------------------------------
	BYTE		N96     Ds4 
	BYTE	W96
// 047   ----------------------------------------
	BYTE	PATT
	 POIN2	FodlanWinds_7_045
// 048   ----------------------------------------
FodlanWinds_7_048:
	BYTE		N36     Dn4   v092
	BYTE	W36
	BYTE		N84     Cn4 
	BYTE	W60
	BYTE	PEND
// 049   ----------------------------------------
	BYTE	W96
// 050   ----------------------------------------
	BYTE	W96
// 051   ----------------------------------------
	BYTE	W96
// 052   ----------------------------------------
	BYTE	W96
// 053   ----------------------------------------
	BYTE	W96
// 054   ----------------------------------------
	BYTE	W96
// 055   ----------------------------------------
	BYTE	W96
// 056   ----------------------------------------
	BYTE	W96
// 057   ----------------------------------------
	BYTE	W96
// 058   ----------------------------------------
	BYTE	W96
// 059   ----------------------------------------
	BYTE	W96
// 060   ----------------------------------------
	BYTE	W96
// 061   ----------------------------------------
	BYTE	W96
// 062   ----------------------------------------
	BYTE	W96
// 063   ----------------------------------------
	BYTE	W96
// 064   ----------------------------------------
	BYTE	W96
// 065   ----------------------------------------
	BYTE	W96
// 066   ----------------------------------------
	BYTE	W96
// 067   ----------------------------------------
	BYTE	W96
// 068   ----------------------------------------
	BYTE	W96
// 069   ----------------------------------------
	BYTE	W96
// 070   ----------------------------------------
	BYTE	W96
// 071   ----------------------------------------
	BYTE	W96
// 072   ----------------------------------------
	BYTE	W96
// 073   ----------------------------------------
	BYTE	W96
// 074   ----------------------------------------
	BYTE	W96
// 075   ----------------------------------------
	BYTE	W96
// 076   ----------------------------------------
	BYTE	W96
// 077   ----------------------------------------
	BYTE	W96
// 078   ----------------------------------------
	BYTE	PATT
	 POIN2	FodlanWinds_7_028
// 079   ----------------------------------------
	BYTE		N48     Fn4   v092
	BYTE	W48
	BYTE		N12     Ds4 
	BYTE	W12
	BYTE		        Fn4 
	BYTE	W12
	BYTE		N48     Gn4 
	BYTE	W24
// 080   ----------------------------------------
	BYTE	W96
// 081   ----------------------------------------
	BYTE	PATT
	 POIN2	FodlanWinds_7_041
// 082   ----------------------------------------
	BYTE		N96     Fn4   v092
	BYTE	W96
// 083   ----------------------------------------
	BYTE	PATT
	 POIN2	FodlanWinds_7_041
// 084   ----------------------------------------
	BYTE	PATT
	 POIN2	FodlanWinds_7_044
// 085   ----------------------------------------
	BYTE	PATT
	 POIN2	FodlanWinds_7_045
// 086   ----------------------------------------
	BYTE		N48     Ds4   v092
	BYTE	W48
	BYTE		N09     As4 
	BYTE	W09
	BYTE		N03   
	BYTE	W36
	BYTE	W03
// 087   ----------------------------------------
	BYTE		N24   
	BYTE	W24
	BYTE		        Gs4 
	BYTE	W24
	BYTE		        Gn4 
	BYTE	W24
	BYTE		N12     Fn4 
	BYTE	W12
	BYTE		N36     Gn4 
	BYTE	W12
// 088   ----------------------------------------
	BYTE	W96
// 089   ----------------------------------------
	BYTE	W96
// 090   ----------------------------------------
	BYTE	W96
// 091   ----------------------------------------
	BYTE	W96
// 092   ----------------------------------------
	BYTE	W96
// 093   ----------------------------------------
	BYTE	PATT
	 POIN2	FodlanWinds_7_045
// 094   ----------------------------------------
	BYTE		N96     Ds4   v092
	BYTE	W96
// 095   ----------------------------------------
	BYTE	PATT
	 POIN2	FodlanWinds_7_045
// 096   ----------------------------------------
	BYTE	PATT
	 POIN2	FodlanWinds_7_048
// 097   ----------------------------------------
	BYTE	W96
// 098   ----------------------------------------
	BYTE		N96     Gn4   v040
	BYTE	W96
// 099   ----------------------------------------
	BYTE	W84
	BYTE		N60     Fn4 
	BYTE	W12
// 100   ----------------------------------------
	BYTE	W96
// 101   ----------------------------------------
	BYTE	W96
// 102   ----------------------------------------
	BYTE		N96     Ds4 
	BYTE	W96
// 103   ----------------------------------------
	BYTE	W84
	BYTE		N84     Dn4 
	BYTE	W12
// 104   ----------------------------------------
	BYTE	W72
	BYTE		N48     Ds4 
	BYTE	W24
// 105   ----------------------------------------
	BYTE	W96
	BYTE	GoTo
	 POIN2	FodlanWinds_7_B1
FodlanWinds_7_B2:
// 106   ----------------------------------------
	BYTE		BEND    c_v+0
	BYTE	FINE

//**************** Track 8 (Midi-Chn.8) ****************//

FodlanWinds_8:
	BYTE	KEYSH   FodlanWinds_key+0
FodlanWinds_8_B1:
// 000   ----------------------------------------
	BYTE		VOICE   49
	BYTE		VOL     86*FodlanWinds_mvl/mxv
	BYTE		PAN     c_v+0
	BYTE		BEND    c_v+0
	BYTE	W96
// 001   ----------------------------------------
	BYTE	W96
// 002   ----------------------------------------
	BYTE	W96
// 003   ----------------------------------------
	BYTE	W96
// 004   ----------------------------------------
	BYTE	W96
// 005   ----------------------------------------
	BYTE	W96
// 006   ----------------------------------------
	BYTE	W96
// 007   ----------------------------------------
	BYTE	W96
// 008   ----------------------------------------
	BYTE	W96
// 009   ----------------------------------------
	BYTE	W96
// 010   ----------------------------------------
	BYTE	W96
// 011   ----------------------------------------
	BYTE	W96
// 012   ----------------------------------------
	BYTE	W96
// 013   ----------------------------------------
	BYTE	W96
// 014   ----------------------------------------
	BYTE	W96
// 015   ----------------------------------------
	BYTE	W96
// 016   ----------------------------------------
	BYTE	W96
// 017   ----------------------------------------
	BYTE	W96
// 018   ----------------------------------------
	BYTE	W96
// 019   ----------------------------------------
	BYTE	W96
// 020   ----------------------------------------
	BYTE	W96
// 021   ----------------------------------------
	BYTE	W96
// 022   ----------------------------------------
	BYTE	W96
// 023   ----------------------------------------
	BYTE	W96
// 024   ----------------------------------------
FodlanWinds_8_024:
	BYTE		N72     Gn3   v096
	BYTE	W72
	BYTE		N48     Fn3 
	BYTE	W24
	BYTE	PEND
// 025   ----------------------------------------
FodlanWinds_8_025:
	BYTE	W24
	BYTE		N24     Dn3   v096
	BYTE	W24
	BYTE		        Ds3 
	BYTE	W24
	BYTE		        As3 
	BYTE	W24
	BYTE	PEND
// 026   ----------------------------------------
FodlanWinds_8_026:
	BYTE		N36     As3   v096
	BYTE	W36
	BYTE		        Gs3 
	BYTE	W36
	BYTE		N48     Gn3 
	BYTE	W24
	BYTE	PEND
// 027   ----------------------------------------
	BYTE	W24
	BYTE		N72     Fn3 
	BYTE	W72
// 028   ----------------------------------------
FodlanWinds_8_028:
	BYTE		N48     Gn3   v096
	BYTE	W48
	BYTE		        Ds3 
	BYTE	W48
	BYTE	PEND
// 029   ----------------------------------------
	BYTE		N72     Fn3 
	BYTE	W72
	BYTE		N96     Cn3 
	BYTE	W24
// 030   ----------------------------------------
	BYTE	W96
// 031   ----------------------------------------
	BYTE	W96
// 032   ----------------------------------------
	BYTE	W96
// 033   ----------------------------------------
FodlanWinds_8_033:
	BYTE	W24
	BYTE		N24     As4   v096
	BYTE	W24
	BYTE		        Ds4 
	BYTE	W24
	BYTE		        Gn4 
	BYTE	W24
	BYTE	PEND
// 034   ----------------------------------------
	BYTE		N96     Fn4 
	BYTE	W96
// 035   ----------------------------------------
	BYTE	PATT
	 POIN2	FodlanWinds_8_033
// 036   ----------------------------------------
FodlanWinds_8_036:
	BYTE		N36     Fn4   v096
	BYTE	W36
	BYTE		N60     Gn4 
	BYTE	W60
	BYTE	PEND
// 037   ----------------------------------------
	BYTE	W24
	BYTE		N24     Ds4 
	BYTE	W24
	BYTE		        Fn4 
	BYTE	W24
	BYTE		        Dn4 
	BYTE	W24
// 038   ----------------------------------------
	BYTE		N48     Ds4 
	BYTE	W48
	BYTE		        As4 
	BYTE	W48
// 039   ----------------------------------------
	BYTE		N24   
	BYTE	W24
	BYTE		        Gs4 
	BYTE	W24
	BYTE		        Gn4 
	BYTE	W24
	BYTE		N12     Fn4 
	BYTE	W12
	BYTE		N36     Gn4 
	BYTE	W12
// 040   ----------------------------------------
	BYTE	W96
// 041   ----------------------------------------
	BYTE	W96
// 042   ----------------------------------------
	BYTE	W96
// 043   ----------------------------------------
	BYTE	W96
// 044   ----------------------------------------
	BYTE	W96
// 045   ----------------------------------------
FodlanWinds_8_045:
	BYTE	W24
	BYTE		N24     Ds5   v096
	BYTE	W24
	BYTE		        Fn5 
	BYTE	W24
	BYTE		        Dn5 
	BYTE	W24
	BYTE	PEND
// 046   ----------------------------------------
	BYTE		N96     Ds5 
	BYTE	W96
// 047   ----------------------------------------
	BYTE	PATT
	 POIN2	FodlanWinds_8_045
// 048   ----------------------------------------
FodlanWinds_8_048:
	BYTE		N36     Dn5   v096
	BYTE	W36
	BYTE		N84     Cn5 
	BYTE	W60
	BYTE	PEND
// 049   ----------------------------------------
	BYTE	W96
// 050   ----------------------------------------
	BYTE	W96
// 051   ----------------------------------------
	BYTE	W96
// 052   ----------------------------------------
	BYTE	W96
// 053   ----------------------------------------
	BYTE	W96
// 054   ----------------------------------------
	BYTE	W96
// 055   ----------------------------------------
	BYTE	W96
// 056   ----------------------------------------
	BYTE	W96
// 057   ----------------------------------------
FodlanWinds_8_057:
	BYTE	W48
	BYTE		N12     Dn3   v096
	BYTE	W12
	BYTE		        Ds3 
	BYTE	W12
	BYTE		        Fn3 
	BYTE	W12
	BYTE		        As3 
	BYTE	W12
	BYTE	PEND
// 058   ----------------------------------------
FodlanWinds_8_058:
	BYTE		N72     Dn4   v096
	BYTE	W72
	BYTE		N12     Ds4 
	BYTE	W12
	BYTE		N36     Cn4 
	BYTE	W12
	BYTE	PEND
// 059   ----------------------------------------
	BYTE	W96
// 060   ----------------------------------------
FodlanWinds_8_060:
	BYTE	W24
	BYTE		N24     Gn3   v096
	BYTE	W24
	BYTE		        Gn4 
	BYTE	W24
	BYTE		N12     Fn4 
	BYTE	W12
	BYTE		        Ds4 
	BYTE	W12
	BYTE	PEND
// 061   ----------------------------------------
FodlanWinds_8_061:
	BYTE		N48     Dn4   v096
	BYTE	W48
	BYTE		        As3 
	BYTE	W48
	BYTE	PEND
// 062   ----------------------------------------
	BYTE		N24     Dn4 
	BYTE	W24
	BYTE		N12     Ds4 
	BYTE	W12
	BYTE		N96     Cn4 
	BYTE	W60
// 063   ----------------------------------------
	BYTE	W96
// 064   ----------------------------------------
	BYTE	W96
// 065   ----------------------------------------
	BYTE	PATT
	 POIN2	FodlanWinds_8_057
// 066   ----------------------------------------
	BYTE	PATT
	 POIN2	FodlanWinds_8_058
// 067   ----------------------------------------
	BYTE	W96
// 068   ----------------------------------------
	BYTE	PATT
	 POIN2	FodlanWinds_8_060
// 069   ----------------------------------------
	BYTE	PATT
	 POIN2	FodlanWinds_8_061
// 070   ----------------------------------------
	BYTE		N24     Dn4   v096
	BYTE	W24
	BYTE		N12     Ds4 
	BYTE	W12
	BYTE		N96     As4 
	BYTE	W60
// 071   ----------------------------------------
	BYTE	W96
// 072   ----------------------------------------
	BYTE	W96
// 073   ----------------------------------------
	BYTE	W96
// 074   ----------------------------------------
	BYTE	PATT
	 POIN2	FodlanWinds_8_024
// 075   ----------------------------------------
	BYTE	PATT
	 POIN2	FodlanWinds_8_025
// 076   ----------------------------------------
	BYTE	PATT
	 POIN2	FodlanWinds_8_026
// 077   ----------------------------------------
	BYTE	W24
	BYTE		N72     Fn3   v096
	BYTE	W72
// 078   ----------------------------------------
	BYTE	PATT
	 POIN2	FodlanWinds_8_028
// 079   ----------------------------------------
	BYTE		N72     Fn3   v096
	BYTE	W72
	BYTE		N48     Cn3 
	BYTE	W24
// 080   ----------------------------------------
	BYTE	W96
// 081   ----------------------------------------
FodlanWinds_8_081:
	BYTE	W24
	BYTE		N24     As3   v096
	BYTE	W24
	BYTE		        Ds3 
	BYTE	W24
	BYTE		        Gn3 
	BYTE	W24
	BYTE	PEND
// 082   ----------------------------------------
	BYTE		N96     Fn3 
	BYTE	W96
// 083   ----------------------------------------
	BYTE	PATT
	 POIN2	FodlanWinds_8_081
// 084   ----------------------------------------
	BYTE		N36     Fn3   v096
	BYTE	W36
	BYTE		N60     Gn3 
	BYTE	W60
// 085   ----------------------------------------
	BYTE	W24
	BYTE		N24     Ds3 
	BYTE	W24
	BYTE		        Fn3 
	BYTE	W24
	BYTE		        Dn3 
	BYTE	W24
// 086   ----------------------------------------
	BYTE		N48     Ds3 
	BYTE	W48
	BYTE		        As3 
	BYTE	W48
// 087   ----------------------------------------
	BYTE		N24   
	BYTE	W24
	BYTE		        Gs3 
	BYTE	W24
	BYTE		        Gn3 
	BYTE	W24
	BYTE		N12     Fn3 
	BYTE	W12
	BYTE		N36     Gn3 
	BYTE	W12
// 088   ----------------------------------------
	BYTE	W96
// 089   ----------------------------------------
	BYTE	PATT
	 POIN2	FodlanWinds_8_033
// 090   ----------------------------------------
	BYTE		N96     Fn4   v096
	BYTE	W96
// 091   ----------------------------------------
	BYTE	PATT
	 POIN2	FodlanWinds_8_033
// 092   ----------------------------------------
	BYTE	PATT
	 POIN2	FodlanWinds_8_036
// 093   ----------------------------------------
	BYTE	PATT
	 POIN2	FodlanWinds_8_045
// 094   ----------------------------------------
	BYTE		N96     Ds5   v096
	BYTE	W96
// 095   ----------------------------------------
	BYTE	PATT
	 POIN2	FodlanWinds_8_045
// 096   ----------------------------------------
	BYTE	PATT
	 POIN2	FodlanWinds_8_048
// 097   ----------------------------------------
	BYTE	W96
// 098   ----------------------------------------
	BYTE	W96
// 099   ----------------------------------------
	BYTE	W96
// 100   ----------------------------------------
	BYTE	W96
// 101   ----------------------------------------
	BYTE	W96
// 102   ----------------------------------------
	BYTE	W96
// 103   ----------------------------------------
	BYTE	W96
// 104   ----------------------------------------
	BYTE	W96
// 105   ----------------------------------------
	BYTE	W96
	BYTE	GoTo
	 POIN2	FodlanWinds_8_B1
FodlanWinds_8_B2:
// 106   ----------------------------------------
	BYTE		BEND    c_v+0
	BYTE	FINE

//**************** Track 9 (Midi-Chn.9) ****************//

FodlanWinds_9:
	BYTE	KEYSH   FodlanWinds_key+0
FodlanWinds_9_B1:
// 000   ----------------------------------------
	BYTE		VOICE   42
	BYTE		VOL     74*FodlanWinds_mvl/mxv
	BYTE		PAN     c_v+0
	BYTE		BEND    c_v+0
	BYTE	W96
// 001   ----------------------------------------
	BYTE	W96
// 002   ----------------------------------------
	BYTE	W96
// 003   ----------------------------------------
	BYTE	W96
// 004   ----------------------------------------
	BYTE	W96
// 005   ----------------------------------------
	BYTE	W96
// 006   ----------------------------------------
	BYTE	W96
// 007   ----------------------------------------
	BYTE	W96
// 008   ----------------------------------------
	BYTE	W96
// 009   ----------------------------------------
	BYTE	W96
// 010   ----------------------------------------
	BYTE	W96
// 011   ----------------------------------------
	BYTE	W96
// 012   ----------------------------------------
	BYTE	W96
// 013   ----------------------------------------
	BYTE	W96
// 014   ----------------------------------------
	BYTE	W96
// 015   ----------------------------------------
	BYTE	W96
// 016   ----------------------------------------
	BYTE	W96
// 017   ----------------------------------------
	BYTE	W96
// 018   ----------------------------------------
	BYTE	W96
// 019   ----------------------------------------
	BYTE	W96
// 020   ----------------------------------------
	BYTE	W96
// 021   ----------------------------------------
	BYTE	W96
// 022   ----------------------------------------
	BYTE	W96
// 023   ----------------------------------------
FodlanWinds_9_023:
	BYTE	W48
	BYTE		N24     Ds3   v100
	BYTE	W24
	BYTE		        Fn3 
	BYTE	W24
	BYTE	PEND
// 024   ----------------------------------------
FodlanWinds_9_024:
	BYTE		N72     Cn3   v100
	BYTE	W72
	BYTE		N24     Dn3 
	BYTE	W24
	BYTE	PEND
// 025   ----------------------------------------
	BYTE		N24   
	BYTE	W96
// 026   ----------------------------------------
FodlanWinds_9_026:
	BYTE		N24     Ds3   v100
	BYTE	W24
	BYTE		N48   
	BYTE	W72
	BYTE	PEND
// 027   ----------------------------------------
	BYTE	W48
	BYTE		        Dn3 
	BYTE	W48
// 028   ----------------------------------------
FodlanWinds_9_028:
	BYTE		N48     Ds3   v100
	BYTE	W48
	BYTE		        Cn3 
	BYTE	W48
	BYTE	PEND
// 029   ----------------------------------------
	BYTE		N72     Dn3 
	BYTE	W72
	BYTE		N96     Cn3 
	BYTE	W24
// 030   ----------------------------------------
	BYTE	W96
// 031   ----------------------------------------
	BYTE	W96
// 032   ----------------------------------------
	BYTE	W96
// 033   ----------------------------------------
FodlanWinds_9_033:
	BYTE	W24
	BYTE		N24     As3   v100
	BYTE	W24
	BYTE		        Ds3 
	BYTE	W24
	BYTE		        Gn3 
	BYTE	W24
	BYTE	PEND
// 034   ----------------------------------------
	BYTE		N96     Fn3 
	BYTE	W96
// 035   ----------------------------------------
	BYTE	PATT
	 POIN2	FodlanWinds_9_033
// 036   ----------------------------------------
	BYTE		N36     Fn3   v100
	BYTE	W36
	BYTE		N60     Gn3 
	BYTE	W60
// 037   ----------------------------------------
	BYTE	W24
	BYTE		N24     Ds3 
	BYTE	W24
	BYTE		        Fn3 
	BYTE	W24
	BYTE		        Dn3 
	BYTE	W24
// 038   ----------------------------------------
	BYTE		N48     Ds3 
	BYTE	W48
	BYTE		        As3 
	BYTE	W48
// 039   ----------------------------------------
	BYTE		N24   
	BYTE	W24
	BYTE		        Gs3 
	BYTE	W24
	BYTE		        Gn3 
	BYTE	W24
	BYTE		N12     Fn3 
	BYTE	W12
	BYTE		N36     Gn3 
	BYTE	W12
// 040   ----------------------------------------
	BYTE	W96
// 041   ----------------------------------------
	BYTE	W96
// 042   ----------------------------------------
	BYTE	W96
// 043   ----------------------------------------
	BYTE	W96
// 044   ----------------------------------------
	BYTE	W96
// 045   ----------------------------------------
FodlanWinds_9_045:
	BYTE	W24
	BYTE		N24     Ds4   v100
	BYTE	W24
	BYTE		        Fn4 
	BYTE	W24
	BYTE		        Dn4 
	BYTE	W24
	BYTE	PEND
// 046   ----------------------------------------
	BYTE		N96     Ds4 
	BYTE	W96
// 047   ----------------------------------------
	BYTE	PATT
	 POIN2	FodlanWinds_9_045
// 048   ----------------------------------------
	BYTE		N36     Dn4   v100
	BYTE	W36
	BYTE		N84     Cn4 
	BYTE	W60
// 049   ----------------------------------------
	BYTE	W96
// 050   ----------------------------------------
FodlanWinds_9_050:
	BYTE		N24     Gs2   v100
	BYTE	W24
	BYTE		N72   
	BYTE	W72
	BYTE	PEND
// 051   ----------------------------------------
	BYTE	W84
	BYTE		N84     As2 
	BYTE	W12
// 052   ----------------------------------------
	BYTE	W72
	BYTE		N24     Fn2 
	BYTE	W24
// 053   ----------------------------------------
	BYTE		N24   
	BYTE	W96
// 054   ----------------------------------------
	BYTE	PATT
	 POIN2	FodlanWinds_9_050
// 055   ----------------------------------------
	BYTE	W84
	BYTE		N84     As2   v100
	BYTE	W12
// 056   ----------------------------------------
	BYTE	W72
	BYTE		N24     Fn2 
	BYTE	W24
// 057   ----------------------------------------
	BYTE		N24   
	BYTE	W96
// 058   ----------------------------------------
	BYTE		N72     Fn3 
	BYTE	W72
	BYTE		N12     Gn3 
	BYTE	W12
	BYTE		N60     Ds3 
	BYTE	W12
// 059   ----------------------------------------
	BYTE	W48
	BYTE		N24     Gs3 
	BYTE	W24
	BYTE		N12     Gn3 
	BYTE	W12
	BYTE		N24     Fn3 
	BYTE	W12
// 060   ----------------------------------------
	BYTE	W12
	BYTE		N60     Ds3 
	BYTE	W60
	BYTE		N12     Fn3 
	BYTE	W12
	BYTE		        Gn3 
	BYTE	W12
// 061   ----------------------------------------
	BYTE		N48     As3 
	BYTE	W48
	BYTE		        Gn3 
	BYTE	W48
// 062   ----------------------------------------
	BYTE		N24     Fn3 
	BYTE	W24
	BYTE		N12     Gn3 
	BYTE	W12
	BYTE		N60     Ds3 
	BYTE	W60
// 063   ----------------------------------------
	BYTE		N24     Fn3 
	BYTE	W24
	BYTE		N12     Gn3 
	BYTE	W12
	BYTE		N24     Ds3 
	BYTE	W24
	BYTE		        Gn3 
	BYTE	W24
	BYTE		N36     Fn3 
	BYTE	W12
// 064   ----------------------------------------
	BYTE	W24
	BYTE		N12     Gn3 
	BYTE	W12
	BYTE		N24     Ds3 
	BYTE	W24
	BYTE		N12     Dn3 
	BYTE	W12
	BYTE		N48     As2 
	BYTE	W24
// 065   ----------------------------------------
	BYTE	W96
// 066   ----------------------------------------
	BYTE	W96
// 067   ----------------------------------------
	BYTE	W96
// 068   ----------------------------------------
	BYTE	W96
// 069   ----------------------------------------
	BYTE	W96
// 070   ----------------------------------------
	BYTE	W96
// 071   ----------------------------------------
	BYTE	W96
// 072   ----------------------------------------
	BYTE	W96
// 073   ----------------------------------------
	BYTE	PATT
	 POIN2	FodlanWinds_9_023
// 074   ----------------------------------------
	BYTE	PATT
	 POIN2	FodlanWinds_9_024
// 075   ----------------------------------------
	BYTE		N24     Dn3   v100
	BYTE	W96
// 076   ----------------------------------------
	BYTE	PATT
	 POIN2	FodlanWinds_9_026
// 077   ----------------------------------------
	BYTE	W48
	BYTE		N48     Dn3   v100
	BYTE	W48
// 078   ----------------------------------------
	BYTE	PATT
	 POIN2	FodlanWinds_9_028
// 079   ----------------------------------------
	BYTE		N72     Dn3   v100
	BYTE	W72
	BYTE		N48     Cn3 
	BYTE	W24
// 080   ----------------------------------------
	BYTE	W96
// 081   ----------------------------------------
	BYTE	W96
// 082   ----------------------------------------
	BYTE	W96
// 083   ----------------------------------------
	BYTE	W96
// 084   ----------------------------------------
	BYTE	W96
// 085   ----------------------------------------
	BYTE	W96
// 086   ----------------------------------------
	BYTE	W96
// 087   ----------------------------------------
	BYTE	W96
// 088   ----------------------------------------
	BYTE	W96
// 089   ----------------------------------------
FodlanWinds_9_089:
	BYTE	W24
	BYTE		N24     As3   v096
	BYTE	W24
	BYTE		        Ds3 
	BYTE	W24
	BYTE		        Gn3 
	BYTE	W24
	BYTE	PEND
// 090   ----------------------------------------
	BYTE		N96     Fn3 
	BYTE	W96
// 091   ----------------------------------------
	BYTE	PATT
	 POIN2	FodlanWinds_9_089
// 092   ----------------------------------------
	BYTE		N36     Fn3   v096
	BYTE	W36
	BYTE		N60     Gn3 
	BYTE	W60
// 093   ----------------------------------------
FodlanWinds_9_093:
	BYTE	W24
	BYTE		N24     Ds4   v096
	BYTE	W24
	BYTE		        Fn4 
	BYTE	W24
	BYTE		        Dn4 
	BYTE	W24
	BYTE	PEND
// 094   ----------------------------------------
	BYTE		N96     Ds4 
	BYTE	W96
// 095   ----------------------------------------
	BYTE	PATT
	 POIN2	FodlanWinds_9_093
// 096   ----------------------------------------
	BYTE		N36     Dn4   v096
	BYTE	W36
	BYTE		N84     Cn4 
	BYTE	W60
// 097   ----------------------------------------
	BYTE	W96
// 098   ----------------------------------------
	BYTE	W96
// 099   ----------------------------------------
	BYTE	W96
// 100   ----------------------------------------
	BYTE	W96
// 101   ----------------------------------------
	BYTE	W96
// 102   ----------------------------------------
	BYTE	W96
// 103   ----------------------------------------
	BYTE	W96
// 104   ----------------------------------------
	BYTE	W96
// 105   ----------------------------------------
	BYTE	W96
	BYTE	GoTo
	 POIN2	FodlanWinds_9_B1
FodlanWinds_9_B2:
// 106   ----------------------------------------
	BYTE		BEND    c_v+0
	BYTE	FINE

//**************** Track 10 (Midi-Chn.11) ****************//

FodlanWinds_10:
	BYTE	KEYSH   FodlanWinds_key+0
FodlanWinds_10_B1:
// 000   ----------------------------------------
	BYTE		VOICE   73
	BYTE		PAN     c_v-4
	BYTE		VOL     103*FodlanWinds_mvl/mxv
	BYTE		BEND    c_v+0
	BYTE	W96
// 001   ----------------------------------------
	BYTE	W96
// 002   ----------------------------------------
	BYTE	W96
// 003   ----------------------------------------
	BYTE	W96
// 004   ----------------------------------------
	BYTE	W96
// 005   ----------------------------------------
	BYTE	W96
// 006   ----------------------------------------
	BYTE	W96
// 007   ----------------------------------------
	BYTE	W96
// 008   ----------------------------------------
	BYTE	W96
// 009   ----------------------------------------
	BYTE	W96
// 010   ----------------------------------------
	BYTE	W96
// 011   ----------------------------------------
	BYTE	W96
// 012   ----------------------------------------
	BYTE	W96
// 013   ----------------------------------------
	BYTE	W96
// 014   ----------------------------------------
	BYTE	W96
// 015   ----------------------------------------
	BYTE	W96
// 016   ----------------------------------------
	BYTE	W96
// 017   ----------------------------------------
	BYTE	W96
// 018   ----------------------------------------
	BYTE	W96
// 019   ----------------------------------------
	BYTE	W96
// 020   ----------------------------------------
	BYTE	W96
// 021   ----------------------------------------
	BYTE	W96
// 022   ----------------------------------------
	BYTE	W96
// 023   ----------------------------------------
FodlanWinds_10_023:
	BYTE	W60
	BYTE		N12     Dn5   v088
	BYTE	W12
	BYTE		        Ds5 
	BYTE	W12
	BYTE		        Fn5 
	BYTE	W12
	BYTE	PEND
// 024   ----------------------------------------
FodlanWinds_10_024:
	BYTE		N36     Gn5   v088
	BYTE	W36
	BYTE		        Fn5 
	BYTE	W36
	BYTE		N48     Cn5 
	BYTE	W24
	BYTE	PEND
// 025   ----------------------------------------
FodlanWinds_10_025:
	BYTE	W24
	BYTE		N24     Dn5   v088
	BYTE	W24
	BYTE		        Ds5 
	BYTE	W24
	BYTE		        As5 
	BYTE	W24
	BYTE	PEND
// 026   ----------------------------------------
FodlanWinds_10_026:
	BYTE		N36     As5   v088
	BYTE	W36
	BYTE		        Gs5 
	BYTE	W36
	BYTE		N48     Gn5 
	BYTE	W24
	BYTE	PEND
// 027   ----------------------------------------
FodlanWinds_10_027:
	BYTE	W24
	BYTE		N24     Fn5   v088
	BYTE	W24
	BYTE		        Ds5 
	BYTE	W24
	BYTE		        Dn5 
	BYTE	W24
	BYTE	PEND
// 028   ----------------------------------------
FodlanWinds_10_028:
	BYTE		N48     Cn5   v088
	BYTE	W60
	BYTE		N12   
	BYTE	W12
	BYTE		        Dn5 
	BYTE	W12
	BYTE		        Ds5 
	BYTE	W12
	BYTE	PEND
// 029   ----------------------------------------
	BYTE		N48     Fn5 
	BYTE	W48
	BYTE		N12     Ds5 
	BYTE	W12
	BYTE		        Fn5 
	BYTE	W12
	BYTE		N96     Gn5 
	BYTE	W24
// 030   ----------------------------------------
	BYTE	W96
// 031   ----------------------------------------
	BYTE	W96
// 032   ----------------------------------------
	BYTE	W96
// 033   ----------------------------------------
	BYTE	W96
// 034   ----------------------------------------
	BYTE	W96
// 035   ----------------------------------------
	BYTE	W96
// 036   ----------------------------------------
	BYTE	W96
// 037   ----------------------------------------
	BYTE	W96
// 038   ----------------------------------------
	BYTE	W96
// 039   ----------------------------------------
	BYTE	W96
// 040   ----------------------------------------
	BYTE	W96
// 041   ----------------------------------------
	BYTE	W96
// 042   ----------------------------------------
	BYTE	W96
// 043   ----------------------------------------
	BYTE	W96
// 044   ----------------------------------------
	BYTE	W96
// 045   ----------------------------------------
	BYTE	W96
// 046   ----------------------------------------
	BYTE	W96
// 047   ----------------------------------------
	BYTE	W96
// 048   ----------------------------------------
	BYTE	W96
// 049   ----------------------------------------
	BYTE	W96
// 050   ----------------------------------------
	BYTE	W96
// 051   ----------------------------------------
	BYTE	W96
// 052   ----------------------------------------
	BYTE	W96
// 053   ----------------------------------------
	BYTE	W96
// 054   ----------------------------------------
	BYTE	W96
// 055   ----------------------------------------
	BYTE	W96
// 056   ----------------------------------------
	BYTE	W96
// 057   ----------------------------------------
	BYTE	W96
// 058   ----------------------------------------
	BYTE		N72     Dn5 
	BYTE	W72
	BYTE		N12     Ds5 
	BYTE	W12
	BYTE		N36     Cn5 
	BYTE	W12
// 059   ----------------------------------------
	BYTE	W96
// 060   ----------------------------------------
	BYTE	W24
	BYTE		N24     Gn4 
	BYTE	W24
	BYTE		        Gn5 
	BYTE	W24
	BYTE		N12     Fn5 
	BYTE	W12
	BYTE		        Ds5 
	BYTE	W12
// 061   ----------------------------------------
	BYTE		N48     Dn5 
	BYTE	W48
	BYTE		        As4 
	BYTE	W48
// 062   ----------------------------------------
	BYTE		N24     Dn5 
	BYTE	W24
	BYTE		N12     Ds5 
	BYTE	W12
	BYTE		N96     Cn5 
	BYTE	W60
// 063   ----------------------------------------
	BYTE	W96
// 064   ----------------------------------------
	BYTE	W96
// 065   ----------------------------------------
	BYTE	W96
// 066   ----------------------------------------
	BYTE	W96
// 067   ----------------------------------------
	BYTE	W96
// 068   ----------------------------------------
	BYTE	W96
// 069   ----------------------------------------
	BYTE	W96
// 070   ----------------------------------------
	BYTE	W96
// 071   ----------------------------------------
	BYTE	W96
// 072   ----------------------------------------
	BYTE	W96
// 073   ----------------------------------------
	BYTE	PATT
	 POIN2	FodlanWinds_10_023
// 074   ----------------------------------------
	BYTE	PATT
	 POIN2	FodlanWinds_10_024
// 075   ----------------------------------------
	BYTE	PATT
	 POIN2	FodlanWinds_10_025
// 076   ----------------------------------------
	BYTE	PATT
	 POIN2	FodlanWinds_10_026
// 077   ----------------------------------------
	BYTE	PATT
	 POIN2	FodlanWinds_10_027
// 078   ----------------------------------------
	BYTE	PATT
	 POIN2	FodlanWinds_10_028
// 079   ----------------------------------------
	BYTE		N48     Fn5   v088
	BYTE	W48
	BYTE		N12     Ds5 
	BYTE	W12
	BYTE		        Fn5 
	BYTE	W12
	BYTE		N48     Gn5 
	BYTE	W24
// 080   ----------------------------------------
	BYTE	W96
// 081   ----------------------------------------
	BYTE	W96
// 082   ----------------------------------------
	BYTE	W96
// 083   ----------------------------------------
	BYTE	W96
// 084   ----------------------------------------
	BYTE	W96
// 085   ----------------------------------------
	BYTE	W96
// 086   ----------------------------------------
	BYTE	W96
// 087   ----------------------------------------
	BYTE	W96
// 088   ----------------------------------------
	BYTE	W96
// 089   ----------------------------------------
	BYTE	W96
// 090   ----------------------------------------
	BYTE	W96
// 091   ----------------------------------------
	BYTE	W96
// 092   ----------------------------------------
	BYTE	W96
// 093   ----------------------------------------
	BYTE	W96
// 094   ----------------------------------------
	BYTE	W96
// 095   ----------------------------------------
	BYTE	W96
// 096   ----------------------------------------
	BYTE	W96
// 097   ----------------------------------------
	BYTE	W96
// 098   ----------------------------------------
	BYTE	W96
// 099   ----------------------------------------
	BYTE	W96
// 100   ----------------------------------------
	BYTE	W96
// 101   ----------------------------------------
	BYTE	W96
// 102   ----------------------------------------
	BYTE		N96     As5   v056
	BYTE	W96
// 103   ----------------------------------------
	BYTE	W96
// 104   ----------------------------------------
	BYTE	W96
// 105   ----------------------------------------
	BYTE	W96
	BYTE	GoTo
	 POIN2	FodlanWinds_10_B1
FodlanWinds_10_B2:
// 106   ----------------------------------------
	BYTE		BEND    c_v+0
	BYTE	FINE

//******************************************************//
	ALIGN 4

FodlanWinds:
	BYTE	10	// NumTrks
	BYTE	0	// NumBlks
	BYTE	FodlanWinds_pri	// Priority
	BYTE	FodlanWinds_rev	// Reverb.

	POIN2	FodlanWinds_grp

	POIN2	FodlanWinds_1
	POIN2	FodlanWinds_2
	POIN2	FodlanWinds_3
	POIN2	FodlanWinds_4
	POIN2	FodlanWinds_5
	POIN2	FodlanWinds_6
	POIN2	FodlanWinds_7
	POIN2	FodlanWinds_8
	POIN2	FodlanWinds_9
	POIN2	FodlanWinds_10

	
