//Event file generated from Sappy .s format.
	#include "MPlayDef.event"

	#define	MountHorn_grp  voicegroup000
	#define	MountHorn_pri  0
	#define	MountHorn_rev  0
	#define	MountHorn_mvl  127
	#define	MountHorn_key  0
	#define	MountHorn_tbs  1
	#define	MountHorn_exg  0
	#define	MountHorn_cmp  1

	// .rodata
	//	MountHorn
	ALIGN 4


//**************** Track 1 (Midi-Chn.0) ****************//

MountHorn_001:
// 000   ----------------------------------------
 BYTE   KEYSH   MountHorn_key+0
 BYTE   W24
 BYTE   TEMPO   120*MountHorn_tbs/2
 BYTE   VOICE   39
 BYTE   VOL   50*MountHorn_mvl/mxv
 BYTE   PAN   c_v+0
 BYTE   BEND   c_v+0
 BYTE   N06  Cn1  v127
 BYTE   W16
 BYTE   N06
 BYTE   W08
 BYTE   N06
 BYTE   W16
 BYTE   N06
 BYTE   W08
 BYTE   N06
 BYTE   W16
 BYTE   N06
 BYTE   W08
// 001   ----------------------------------------
 BYTE   N06
 BYTE   W16
 BYTE   N06
 BYTE   W08
Label_0_01003A43:
 BYTE   N06  Cn1  v127
 BYTE   W16
 BYTE   N06
 BYTE   W08
 BYTE   N06
 BYTE   W16
 BYTE   N06
 BYTE   W08
 BYTE   N06
 BYTE   W16
 BYTE   N06
 BYTE   W08
// 002   ----------------------------------------
 BYTE   N06
 BYTE   W16
 BYTE   N06
 BYTE   W08
 BYTE   PEND 
 BYTE   PATT
  POIN2 Label_0_01003A43
 BYTE   PATT
  POIN2 Label_0_01003A43
 BYTE   PATT
  POIN2 Label_0_01003A43
 BYTE   PATT
  POIN2 Label_0_01003A43
 BYTE   PATT
  POIN2 Label_0_01003A43
 BYTE   PATT
  POIN2 Label_0_01003A43
 BYTE   PATT
  POIN2 Label_0_01003A43
 BYTE   PATT
  POIN2 Label_0_01003A43
 BYTE   PATT
  POIN2 Label_0_01003A43
 BYTE   PATT
  POIN2 Label_0_01003A43
 BYTE   PATT
  POIN2 Label_0_01003A43
 BYTE   PATT
  POIN2 Label_0_01003A43
 BYTE   PATT
  POIN2 Label_0_01003A43
 BYTE   PATT
  POIN2 Label_0_01003A43
// 003   ----------------------------------------
Label_0_01003A9C:
 BYTE   N06  Fs1  v127
 BYTE   W16
 BYTE   N06
 BYTE   W08
 BYTE   N06
 BYTE   W16
 BYTE   N06
 BYTE   W08
 BYTE   N06
 BYTE   W16
 BYTE   N06
 BYTE   W08
 BYTE   N06
 BYTE   W16
 BYTE   N06
 BYTE   W08
 BYTE   PEND 
 BYTE   PATT
  POIN2 Label_0_01003A9C
 BYTE   PATT
  POIN2 Label_0_01003A43
 BYTE   PATT
  POIN2 Label_0_01003A43
 BYTE   PATT
  POIN2 Label_0_01003A9C
 BYTE   PATT
  POIN2 Label_0_01003A9C
// 004   ----------------------------------------
 BYTE   N84  Cn1  v127
 BYTE   W96
// 005   ----------------------------------------
Label_0_01003ACC:
 BYTE   N72  Cn1  v127
 BYTE   W72
 BYTE   N24  Gn0
 BYTE   W24
 BYTE   PEND 
// 006   ----------------------------------------
 BYTE   N72  Cn1
 BYTE   W96
 BYTE   PATT
  POIN2 Label_0_01003ACC
 BYTE   PATT
  POIN2 Label_0_01003A43
 BYTE   PATT
  POIN2 Label_0_01003A43
 BYTE   PATT
  POIN2 Label_0_01003A43
 BYTE   PATT
  POIN2 Label_0_01003A43
// 007   ----------------------------------------
Label_0_01003AF0:
 BYTE   N06  Bn0  v127
 BYTE   W16
 BYTE   N06
 BYTE   W08
 BYTE   N06
 BYTE   W16
 BYTE   N06
 BYTE   W08
 BYTE   N06
 BYTE   W16
 BYTE   N06
 BYTE   W08
 BYTE   N06
 BYTE   W16
 BYTE   N06
 BYTE   W08
 BYTE   PEND 
 BYTE   PATT
  POIN2 Label_0_01003AF0
// 008   ----------------------------------------
Label_0_01003B08:
 BYTE   N06  An0  v127
 BYTE   W16
 BYTE   N06
 BYTE   W08
 BYTE   N06
 BYTE   W16
 BYTE   N06
 BYTE   W08
 BYTE   N06
 BYTE   W16
 BYTE   N06
 BYTE   W08
 BYTE   N06
 BYTE   W16
 BYTE   N06
 BYTE   W08
 BYTE   PEND 
 BYTE   PATT
  POIN2 Label_0_01003B08
 BYTE   PATT
  POIN2 Label_0_01003AF0
 BYTE   PATT
  POIN2 Label_0_01003AF0
// 009   ----------------------------------------
Label_0_01003B2A:
 BYTE   N06  En1  v127
 BYTE   W16
 BYTE   N06
 BYTE   W08
 BYTE   N06
 BYTE   W16
 BYTE   N06
 BYTE   W08
 BYTE   N06
 BYTE   W16
 BYTE   N06
 BYTE   W08
 BYTE   N06
 BYTE   W16
 BYTE   N06
 BYTE   W08
 BYTE   PEND 
// 010   ----------------------------------------
Label_0_01003B3D:
 BYTE   N06  Dn1  v127
 BYTE   W16
 BYTE   N06
 BYTE   W08
 BYTE   N06
 BYTE   W16
 BYTE   N06
 BYTE   W08
 BYTE   N06
 BYTE   W16
 BYTE   N06
 BYTE   W08
 BYTE   Cn1
 BYTE   W16
 BYTE   N06
 BYTE   W08
 BYTE   PEND 
 BYTE   PATT
  POIN2 Label_0_01003AF0
 BYTE   PATT
  POIN2 Label_0_01003AF0
 BYTE   PATT
  POIN2 Label_0_01003B08
 BYTE   PATT
  POIN2 Label_0_01003B08
 BYTE   PATT
  POIN2 Label_0_01003AF0
 BYTE   PATT
  POIN2 Label_0_01003AF0
 BYTE   PATT
  POIN2 Label_0_01003B2A
// 011   ----------------------------------------
Label_0_01003B73:
 BYTE   N06  Dn1  v127
 BYTE   W16
 BYTE   N06
 BYTE   W08
 BYTE   N06
 BYTE   W16
 BYTE   N06
 BYTE   W08
 BYTE   N06
 BYTE   W16
 BYTE   N06
 BYTE   W08
 BYTE   N06
 BYTE   W16
 BYTE   N06
 BYTE   W08
 BYTE   PEND 
// 012   ----------------------------------------
Label_0_01003B86:
 BYTE   W24
 BYTE   N24  Dn1  v127
 BYTE   W48
 BYTE   N24
 BYTE   W24
 BYTE   PEND 
// 013   ----------------------------------------
Label_0_01003B8E:
 BYTE   W24
 BYTE   N24  Cn1  v127
 BYTE   W48
 BYTE   N24
 BYTE   W24
 BYTE   PEND 
// 014   ----------------------------------------
Label_0_01003B96:
 BYTE   W24
 BYTE   N24  As0  v127
 BYTE   W48
 BYTE   N24
 BYTE   W24
 BYTE   PEND 
// 015   ----------------------------------------
Label_0_01003B9E:
 BYTE   W24
 BYTE   N24  An0  v127
 BYTE   W48
 BYTE   N24
 BYTE   W24
 BYTE   PEND 
// 016   ----------------------------------------
Label_0_01003BA6:
 BYTE   W24
 BYTE   N24  Gs0  v127
 BYTE   W48
 BYTE   N24
 BYTE   W24
 BYTE   PEND 
// 017   ----------------------------------------
Label_0_01003BAE:
 BYTE   W24
 BYTE   N24  Gn0  v127
 BYTE   W48
 BYTE   N24
 BYTE   W24
 BYTE   PEND 
// 018   ----------------------------------------
 BYTE   N72  Fn0
 BYTE   W96
// 019   ----------------------------------------
Label_0_01003BB9:
 BYTE   N12  Fn0  v127
 BYTE   W24
 BYTE   N12
 BYTE   W24
 BYTE   N12
 BYTE   W24
 BYTE   N12
 BYTE   W24
 BYTE   PEND 
 BYTE   PATT
  POIN2 Label_0_01003A43
 BYTE   PATT
  POIN2 Label_0_01003A43
 BYTE   PATT
  POIN2 Label_0_01003A43
 BYTE   PATT
  POIN2 Label_0_01003A43
 BYTE   PATT
  POIN2 Label_0_01003A43
 BYTE   PATT
  POIN2 Label_0_01003A43
 BYTE   PATT
  POIN2 Label_0_01003A43
 BYTE   PATT
  POIN2 Label_0_01003A43
 BYTE   PATT
  POIN2 Label_0_01003A43
 BYTE   PATT
  POIN2 Label_0_01003A43
 BYTE   PATT
  POIN2 Label_0_01003A43
 BYTE   PATT
  POIN2 Label_0_01003A43
 BYTE   PATT
  POIN2 Label_0_01003A43
 BYTE   PATT
  POIN2 Label_0_01003A43
 BYTE   PATT
  POIN2 Label_0_01003A43
 BYTE   PATT
  POIN2 Label_0_01003A43
 BYTE   PATT
  POIN2 Label_0_01003A43
 BYTE   PATT
  POIN2 Label_0_01003A43
 BYTE   PATT
  POIN2 Label_0_01003A9C
 BYTE   PATT
  POIN2 Label_0_01003A9C
 BYTE   PATT
  POIN2 Label_0_01003A43
 BYTE   PATT
  POIN2 Label_0_01003A43
 BYTE   PATT
  POIN2 Label_0_01003A9C
 BYTE   PATT
  POIN2 Label_0_01003A9C
// 020   ----------------------------------------
 BYTE   N84  Cn1  v127
 BYTE   W96
 BYTE   PATT
  POIN2 Label_0_01003ACC
// 021   ----------------------------------------
 BYTE   N72  Cn1  v127
 BYTE   W96
 BYTE   PATT
  POIN2 Label_0_01003ACC
 BYTE   PATT
  POIN2 Label_0_01003A43
 BYTE   PATT
  POIN2 Label_0_01003A43
 BYTE   PATT
  POIN2 Label_0_01003A43
 BYTE   PATT
  POIN2 Label_0_01003A43
 BYTE   PATT
  POIN2 Label_0_01003AF0
 BYTE   PATT
  POIN2 Label_0_01003AF0
 BYTE   PATT
  POIN2 Label_0_01003B08
 BYTE   PATT
  POIN2 Label_0_01003B08
 BYTE   PATT
  POIN2 Label_0_01003AF0
 BYTE   PATT
  POIN2 Label_0_01003AF0
 BYTE   PATT
  POIN2 Label_0_01003B2A
 BYTE   PATT
  POIN2 Label_0_01003B3D
 BYTE   PATT
  POIN2 Label_0_01003AF0
 BYTE   PATT
  POIN2 Label_0_01003AF0
 BYTE   PATT
  POIN2 Label_0_01003B08
 BYTE   PATT
  POIN2 Label_0_01003B08
 BYTE   PATT
  POIN2 Label_0_01003AF0
 BYTE   PATT
  POIN2 Label_0_01003AF0
 BYTE   PATT
  POIN2 Label_0_01003B2A
 BYTE   PATT
  POIN2 Label_0_01003B73
 BYTE   PATT
  POIN2 Label_0_01003B86
 BYTE   PATT
  POIN2 Label_0_01003B8E
 BYTE   PATT
  POIN2 Label_0_01003B96
 BYTE   PATT
  POIN2 Label_0_01003B9E
 BYTE   PATT
  POIN2 Label_0_01003BA6
 BYTE   PATT
  POIN2 Label_0_01003BAE
// 022   ----------------------------------------
 BYTE   N72  Fn0  v127
 BYTE   W96
 BYTE   PATT
  POIN2 Label_0_01003BB9
 BYTE   PATT
  POIN2 Label_0_01003A43
 BYTE   PATT
  POIN2 Label_0_01003A43
 BYTE   PATT
  POIN2 Label_0_01003A43
 BYTE   PATT
  POIN2 Label_0_01003A43
 BYTE   PATT
  POIN2 Label_0_01003A43
 BYTE   PATT
  POIN2 Label_0_01003A43
 BYTE   PATT
  POIN2 Label_0_01003A43
 BYTE   PATT
  POIN2 Label_0_01003A43
 BYTE   PATT
  POIN2 Label_0_01003A43
 BYTE   PATT
  POIN2 Label_0_01003A43
 BYTE   PATT
  POIN2 Label_0_01003A43
 BYTE   PATT
  POIN2 Label_0_01003A43
 BYTE   PATT
  POIN2 Label_0_01003A43
 BYTE   PATT
  POIN2 Label_0_01003A43
 BYTE   PATT
  POIN2 Label_0_01003A43
 BYTE   PATT
  POIN2 Label_0_01003A43
 BYTE   PATT
  POIN2 Label_0_01003A43
 BYTE   PATT
  POIN2 Label_0_01003A43
 BYTE   PATT
  POIN2 Label_0_01003A9C
 BYTE   PATT
  POIN2 Label_0_01003A9C
 BYTE   PATT
  POIN2 Label_0_01003A43
 BYTE   PATT
  POIN2 Label_0_01003A43
 BYTE   PATT
  POIN2 Label_0_01003A9C
 BYTE   PATT
  POIN2 Label_0_01003A9C
// 023   ----------------------------------------
 BYTE   N84  Cn1  v127
 BYTE   W96
 BYTE   PATT
  POIN2 Label_0_01003ACC
// 024   ----------------------------------------
 BYTE   N72  Cn1  v127
 BYTE   W96
 BYTE   PATT
  POIN2 Label_0_01003ACC
 BYTE   PATT
  POIN2 Label_0_01003A43
 BYTE   PATT
  POIN2 Label_0_01003A43
 BYTE   PATT
  POIN2 Label_0_01003A43
 BYTE   PATT
  POIN2 Label_0_01003A43
 BYTE   PATT
  POIN2 Label_0_01003AF0
 BYTE   PATT
  POIN2 Label_0_01003AF0
 BYTE   PATT
  POIN2 Label_0_01003B08
 BYTE   PATT
  POIN2 Label_0_01003B08
 BYTE   PATT
  POIN2 Label_0_01003AF0
 BYTE   PATT
  POIN2 Label_0_01003AF0
 BYTE   PATT
  POIN2 Label_0_01003B2A
 BYTE   PATT
  POIN2 Label_0_01003B3D
 BYTE   PATT
  POIN2 Label_0_01003AF0
 BYTE   PATT
  POIN2 Label_0_01003AF0
 BYTE   PATT
  POIN2 Label_0_01003B08
 BYTE   PATT
  POIN2 Label_0_01003B08
 BYTE   PATT
  POIN2 Label_0_01003AF0
 BYTE   PATT
  POIN2 Label_0_01003AF0
 BYTE   PATT
  POIN2 Label_0_01003B2A
 BYTE   PATT
  POIN2 Label_0_01003B73
 BYTE   PATT
  POIN2 Label_0_01003B86
 BYTE   PATT
  POIN2 Label_0_01003B8E
 BYTE   PATT
  POIN2 Label_0_01003B96
 BYTE   PATT
  POIN2 Label_0_01003B9E
 BYTE   PATT
  POIN2 Label_0_01003BA6
 BYTE   PATT
  POIN2 Label_0_01003BAE
// 025   ----------------------------------------
 BYTE   N72  Fn0  v127
 BYTE   W96
 BYTE   PATT
  POIN2 Label_0_01003BB9
 BYTE   PATT
  POIN2 Label_0_01003A43
 BYTE   PATT
  POIN2 Label_0_01003A43
 BYTE   PATT
  POIN2 Label_0_01003A43
 BYTE   PATT
  POIN2 Label_0_01003A43
 BYTE   PATT
  POIN2 Label_0_01003A43
 BYTE   PATT
  POIN2 Label_0_01003A43
 BYTE   PATT
  POIN2 Label_0_01003A43
 BYTE   PATT
  POIN2 Label_0_01003A43
 BYTE   PATT
  POIN2 Label_0_01003A43
 BYTE   PATT
  POIN2 Label_0_01003A43
 BYTE   PATT
  POIN2 Label_0_01003A43
 BYTE   PATT
  POIN2 Label_0_01003A43
 BYTE   PATT
  POIN2 Label_0_01003A43
 BYTE   PATT
  POIN2 Label_0_01003A43
 BYTE   PATT
  POIN2 Label_0_01003A43
 BYTE   PATT
  POIN2 Label_0_01003A43
 BYTE   PATT
  POIN2 Label_0_01003A43
 BYTE   PATT
  POIN2 Label_0_01003A43
 BYTE   PATT
  POIN2 Label_0_01003A9C
 BYTE   PATT
  POIN2 Label_0_01003A9C
 BYTE   PATT
  POIN2 Label_0_01003A43
 BYTE   PATT
  POIN2 Label_0_01003A43
 BYTE   PATT
  POIN2 Label_0_01003A9C
 BYTE   PATT
  POIN2 Label_0_01003A9C
// 026   ----------------------------------------
 BYTE   N84  Cn1  v127
 BYTE   W96
 BYTE   PATT
  POIN2 Label_0_01003ACC
// 027   ----------------------------------------
 BYTE   N72  Cn1  v127
 BYTE   W96
 BYTE   PATT
  POIN2 Label_0_01003ACC
 BYTE   PATT
  POIN2 Label_0_01003A43
 BYTE   PATT
  POIN2 Label_0_01003A43
 BYTE   PATT
  POIN2 Label_0_01003A43
 BYTE   PATT
  POIN2 Label_0_01003A43
 BYTE   PATT
  POIN2 Label_0_01003AF0
 BYTE   PATT
  POIN2 Label_0_01003AF0
 BYTE   PATT
  POIN2 Label_0_01003B08
 BYTE   PATT
  POIN2 Label_0_01003B08
 BYTE   PATT
  POIN2 Label_0_01003AF0
 BYTE   PATT
  POIN2 Label_0_01003AF0
 BYTE   PATT
  POIN2 Label_0_01003B2A
 BYTE   PATT
  POIN2 Label_0_01003B3D
 BYTE   PATT
  POIN2 Label_0_01003AF0
 BYTE   PATT
  POIN2 Label_0_01003AF0
 BYTE   PATT
  POIN2 Label_0_01003B08
 BYTE   PATT
  POIN2 Label_0_01003B08
 BYTE   PATT
  POIN2 Label_0_01003AF0
 BYTE   PATT
  POIN2 Label_0_01003AF0
 BYTE   PATT
  POIN2 Label_0_01003B2A
 BYTE   PATT
  POIN2 Label_0_01003B73
 BYTE   PATT
  POIN2 Label_0_01003B86
 BYTE   PATT
  POIN2 Label_0_01003B8E
 BYTE   PATT
  POIN2 Label_0_01003B96
 BYTE   PATT
  POIN2 Label_0_01003B9E
 BYTE   PATT
  POIN2 Label_0_01003BA6
 BYTE   PATT
  POIN2 Label_0_01003BAE
// 028   ----------------------------------------
 BYTE   N72  Fn0  v127
 BYTE   W96
 BYTE   PATT
  POIN2 Label_0_01003BB9
 BYTE   PATT
  POIN2 Label_0_01003A43
 BYTE   PATT
  POIN2 Label_0_01003A43
 BYTE   FINE

//**************** Track 2 (Midi-Chn.1) ****************//

MountHorn_002:
// 000   ----------------------------------------
 BYTE   KEYSH   MountHorn_key+0
 BYTE   W24
 BYTE   VOICE   81
 BYTE   VOL   35*MountHorn_mvl/mxv
 BYTE   PAN   c_v-14
 BYTE   BEND   c_v+0
 BYTE   W96
// 001   ----------------------------------------
 BYTE   W96
// 002   ----------------------------------------
Label_1_01003F1D:
 BYTE   N13  Cn3  v112
 BYTE   N13  En3  v127
 BYTE   W24
 BYTE   Dn3  v112
 BYTE   N13  Fs3  v127
 BYTE   W24
 BYTE   N60  En3  v112
 BYTE   N60  Gn3  v127
 BYTE   W48
 BYTE   PEND 
// 003   ----------------------------------------
Label_1_01003F32:
 BYTE   W24
 BYTE   N05  Dn3  v112
 BYTE   N05  Fs3  v127
 BYTE   W08
 BYTE   En3  v112
 BYTE   N05  Gn3  v127
 BYTE   W08
 BYTE   Fs3  v112
 BYTE   N05  An3  v127
 BYTE   W08
 BYTE   En3  v112
 BYTE   N05  Gn3  v127
 BYTE   W08
 BYTE   Dn3  v112
 BYTE   N05  Fs3  v127
 BYTE   W08
 BYTE   N21  Cn3  v112
 BYTE   N21  En3  v127
 BYTE   W24
 BYTE   N05  Bn2  v112
 BYTE   N05  Dn3  v127
 BYTE   W08
 BYTE   PEND 
// 004   ----------------------------------------
Label_1_01003F61:
 BYTE   N28  Cn3  v112
 BYTE   N28  En3  v127
 BYTE   W40
 BYTE   N05  Bn2  v112
 BYTE   N05  Dn3  v127
 BYTE   W08
 BYTE   N28  An2  v112
 BYTE   N28  Cn3  v127
 BYTE   W40
 BYTE   N05  Gn2  v112
 BYTE   N05  Bn2  v127
 BYTE   W08
 BYTE   PEND 
// 005   ----------------------------------------
Label_1_01003F7E:
 BYTE   N44  Fs2  v112
 BYTE   N44  As2  v127
 BYTE   W48
 BYTE   Fn2  v112
 BYTE   N44  An2  v127
 BYTE   W48
 BYTE   PEND 
 BYTE   PATT
  POIN2 Label_1_01003F1D
 BYTE   PATT
  POIN2 Label_1_01003F32
 BYTE   PATT
  POIN2 Label_1_01003F61
// 006   ----------------------------------------
Label_1_01003F9B:
 BYTE   N28  An2  v112
 BYTE   N28  Cn3  v127
 BYTE   W40
 BYTE   N05  Gn2  v112
 BYTE   N05  Bn2  v127
 BYTE   W08
 BYTE   N28  Fn2  v112
 BYTE   N28  An2  v127
 BYTE   W40
 BYTE   N05  Gn2  v112
 BYTE   N05  Bn2  v127
 BYTE   W08
 BYTE   PEND 
// 007   ----------------------------------------
Label_1_01003FB8:
 BYTE   N68  Fs2  v112
 BYTE   N68  As2  v127
 BYTE   W88
 BYTE   N05  Fn2  v112
 BYTE   N05  An2  v127
 BYTE   W08
 BYTE   PEND 
// 008   ----------------------------------------
Label_1_01003FC7:
 BYTE   N28  Fs2  v112
 BYTE   N28  As2  v127
 BYTE   W40
 BYTE   N05  Gn2  v112
 BYTE   N05  Bn2  v127
 BYTE   W08
 BYTE   N28  Fs2  v112
 BYTE   N28  As2  v127
 BYTE   W40
 BYTE   N05  Fn2  v112
 BYTE   N05  An2  v127
 BYTE   W08
 BYTE   PEND 
// 009   ----------------------------------------
Label_1_01003FE4:
 BYTE   N92  Fs2  v112
 BYTE   N92  As2  v127
 BYTE   W96
 BYTE   PEND 
// 010   ----------------------------------------
Label_1_01003FEC:
 BYTE   N92  Fn2  v112
 BYTE   N92  An2  v127
 BYTE   W96
 BYTE   PEND 
// 011   ----------------------------------------
 BYTE   W96
// 012   ----------------------------------------
 BYTE   W96
// 013   ----------------------------------------
 BYTE   W96
// 014   ----------------------------------------
 BYTE   W96
// 015   ----------------------------------------
Label_1_01003FF8:
 BYTE   N44  Cn2  v092
 BYTE   N44  En2
 BYTE   W48
 BYTE   Dn2
 BYTE   N44  Fs2
 BYTE   W48
 BYTE   PEND 
// 016   ----------------------------------------
Label_1_01004003:
 BYTE   N44  Ds2  v092
 BYTE   N44  Gn2
 BYTE   W48
 BYTE   Fn2
 BYTE   N44  An2
 BYTE   W48
 BYTE   PEND 
// 017   ----------------------------------------
Label_1_0100400E:
 BYTE   N44  Fs2  v092
 BYTE   N44  As2
 BYTE   W48
 BYTE   Gs2
 BYTE   N44  Cn3
 BYTE   W48
 BYTE   PEND 
// 018   ----------------------------------------
Label_1_01004019:
 BYTE   N44  An2  v092
 BYTE   N44  Cs3
 BYTE   W48
 BYTE   Bn2
 BYTE   N44  Ds3
 BYTE   W48
 BYTE   PEND 
// 019   ----------------------------------------
Label_1_01004024:
 BYTE   N13  Dn3  v112
 BYTE   N13  Fs3  v127
 BYTE   W24
 BYTE   Cn3  v112
 BYTE   N13  En3  v127
 BYTE   W24
 BYTE   Dn3  v112
 BYTE   N13  Fs3  v127
 BYTE   W24
 BYTE   As2  v112
 BYTE   N13  Dn3  v127
 BYTE   W24
 BYTE   PEND 
// 020   ----------------------------------------
Label_1_0100403E:
 BYTE   N05  Cn3  v112
 BYTE   N05  En3  v127
 BYTE   W08
 BYTE   Dn3  v112
 BYTE   N05  Fs3  v127
 BYTE   W08
 BYTE   Ds3  v112
 BYTE   N05  Gn3  v127
 BYTE   W08
 BYTE   N36  Dn3  v112
 BYTE   N36  Fs3  v127
 BYTE   W48
 BYTE   N13  As2  v112
 BYTE   N13  Dn3  v127
 BYTE   W24
 BYTE   PEND 
// 021   ----------------------------------------
Label_1_01004060:
 BYTE   N05  Cn3  v112
 BYTE   N05  En3  v127
 BYTE   W08
 BYTE   Dn3  v112
 BYTE   N05  Fs3  v127
 BYTE   W08
 BYTE   Ds3  v112
 BYTE   N05  Gn3  v127
 BYTE   W08
 BYTE   N52  Fn3  v112
 BYTE   N52  An3  v127
 BYTE   W64
 BYTE   N05  Ds3  v112
 BYTE   N05  Gn3  v127
 BYTE   W08
 BYTE   PEND 
// 022   ----------------------------------------
Label_1_01004082:
 BYTE   N28  Dn3  v112
 BYTE   N28  Fs3  v127
 BYTE   W40
 BYTE   N05  Cn3  v112
 BYTE   N05  En3  v127
 BYTE   W08
 BYTE   N36  As2  v112
 BYTE   N36  Dn3  v127
 BYTE   W48
 BYTE   PEND 
// 023   ----------------------------------------
Label_1_01004098:
 BYTE   N13  Dn4  v112
 BYTE   N13  Fs4  v127
 BYTE   W24
 BYTE   Cn4  v112
 BYTE   N13  En4  v127
 BYTE   W24
 BYTE   Dn4  v112
 BYTE   N13  Fs4  v127
 BYTE   W24
 BYTE   As3  v112
 BYTE   N13  Dn4  v127
 BYTE   W24
 BYTE   PEND 
// 024   ----------------------------------------
Label_1_010040B2:
 BYTE   N05  Cn4  v112
 BYTE   N05  En4  v127
 BYTE   W08
 BYTE   Dn4  v112
 BYTE   N05  Fs4  v127
 BYTE   W08
 BYTE   Ds4  v112
 BYTE   N05  Gn4  v127
 BYTE   W08
 BYTE   N36  Dn4  v112
 BYTE   N36  Fs4  v127
 BYTE   W48
 BYTE   N13  As3  v112
 BYTE   N13  Dn4  v127
 BYTE   W24
 BYTE   PEND 
// 025   ----------------------------------------
Label_1_010040D4:
 BYTE   N05  Cn4  v112
 BYTE   N05  En4  v127
 BYTE   W08
 BYTE   Dn4  v112
 BYTE   N05  Fs4  v127
 BYTE   W08
 BYTE   Ds4  v112
 BYTE   N05  Gn4  v127
 BYTE   W08
 BYTE   N52  Fn4  v112
 BYTE   N52  An4  v127
 BYTE   W64
 BYTE   N05  Ds4  v112
 BYTE   N05  Gn4  v127
 BYTE   W08
 BYTE   PEND 
// 026   ----------------------------------------
Label_1_010040F6:
 BYTE   N28  Dn4  v112
 BYTE   N28  Fs4  v127
 BYTE   W40
 BYTE   N05  Cn4  v112
 BYTE   N05  En4  v127
 BYTE   W08
 BYTE   N36  As3  v112
 BYTE   N36  Dn4  v127
 BYTE   W48
 BYTE   PEND 
// 027   ----------------------------------------
 BYTE   W96
// 028   ----------------------------------------
 BYTE   W96
// 029   ----------------------------------------
 BYTE   W96
// 030   ----------------------------------------
 BYTE   W96
// 031   ----------------------------------------
 BYTE   W96
// 032   ----------------------------------------
 BYTE   W96
// 033   ----------------------------------------
 BYTE   W96
// 034   ----------------------------------------
 BYTE   W96
// 035   ----------------------------------------
Label_1_01004114:
 BYTE   N13  Cs4  v127
 BYTE   W24
 BYTE   En4
 BYTE   W24
 BYTE   N28  Ds4
 BYTE   W40
 BYTE   N05  Bn3
 BYTE   W08
 BYTE   PEND 
// 036   ----------------------------------------
Label_1_01004121:
 BYTE   N13  Cs4  v127
 BYTE   W24
 BYTE   En4
 BYTE   W24
 BYTE   Ds4
 BYTE   W24
 BYTE   Fs4
 BYTE   W24
 BYTE   PEND 
// 037   ----------------------------------------
Label_1_0100412C:
 BYTE   N13  Bn3  v127
 BYTE   W24
 BYTE   Dn4
 BYTE   W24
 BYTE   Cs4
 BYTE   W24
 BYTE   An3
 BYTE   W24
 BYTE   PEND 
// 038   ----------------------------------------
Label_1_01004137:
 BYTE   N05  Bn3  v127
 BYTE   W16
 BYTE   Fs4
 BYTE   W08
 BYTE   N60
 BYTE   W72
 BYTE   PEND 
 BYTE   PATT
  POIN2 Label_1_01004114
// 039   ----------------------------------------
Label_1_01004145:
 BYTE   N13  Cs4  v127
 BYTE   W24
 BYTE   Gs4
 BYTE   W24
 BYTE   Fs4
 BYTE   W24
 BYTE   Ds4
 BYTE   W24
 BYTE   PEND 
// 040   ----------------------------------------
Label_1_01004150:
 BYTE   N05  Dn4  v127
 BYTE   W08
 BYTE   En4
 BYTE   W08
 BYTE   Fs4
 BYTE   W08
 BYTE   N28  Dn4
 BYTE   W48
 BYTE   N05  Bn3
 BYTE   W16
 BYTE   Dn4
 BYTE   W08
 BYTE   PEND 
// 041   ----------------------------------------
Label_1_01004161:
 BYTE   N36  En4  v127
 BYTE   W48
 BYTE   N13  Dn4
 BYTE   W24
 BYTE   N21  Cn4
 BYTE   W24
 BYTE   PEND 
// 042   ----------------------------------------
Label_1_0100416C:
 BYTE   N04  Fn3  v127
 BYTE   N03  An3
 BYTE   W08
 BYTE   N04  Fn3
 BYTE   N04  An3
 BYTE   W08
 BYTE   Fn3
 BYTE   N04  An3
 BYTE   W08
 BYTE   Dn3
 BYTE   N04  Fn3
 BYTE   W08
 BYTE   Dn3
 BYTE   N04  Fn3
 BYTE   W08
 BYTE   Dn3
 BYTE   N04  Fn3
 BYTE   W08
 BYTE   An3
 BYTE   N04  Cn4
 BYTE   W08
 BYTE   An3
 BYTE   N04  Cn4
 BYTE   W08
 BYTE   An3
 BYTE   N04  Cn4
 BYTE   W08
 BYTE   Fn3
 BYTE   N04  An3
 BYTE   W08
 BYTE   Fn3
 BYTE   N04  An3
 BYTE   W08
 BYTE   Fn3
 BYTE   N04  An3
 BYTE   W08
 BYTE   PEND 
// 043   ----------------------------------------
Label_1_010041A0:
 BYTE   N04  Gn3  v127
 BYTE   N04  Bn3
 BYTE   W08
 BYTE   Gn3
 BYTE   N04  Bn3
 BYTE   W08
 BYTE   Gn3
 BYTE   N04  Bn3
 BYTE   W08
 BYTE   Dn3
 BYTE   N04  Gn3
 BYTE   W08
 BYTE   Dn3
 BYTE   N04  Gn3
 BYTE   W08
 BYTE   Dn3
 BYTE   N04  Gn3
 BYTE   W08
 BYTE   Bn3
 BYTE   N04  Dn4
 BYTE   W08
 BYTE   Bn3
 BYTE   N04  Dn4
 BYTE   W08
 BYTE   Bn3
 BYTE   N04  Dn4
 BYTE   W08
 BYTE   Gn3
 BYTE   N04  Bn3
 BYTE   W08
 BYTE   Gn3
 BYTE   N04  Bn3
 BYTE   W08
 BYTE   Gn3
 BYTE   N04  Bn3
 BYTE   W08
 BYTE   PEND 
// 044   ----------------------------------------
Label_1_010041D3:
 BYTE   N04  An3  v127
 BYTE   N04  Cn4
 BYTE   W08
 BYTE   An3
 BYTE   N04  Cn4
 BYTE   W08
 BYTE   An3
 BYTE   N04  Cn4
 BYTE   W08
 BYTE   Fn3
 BYTE   N04  An3
 BYTE   W08
 BYTE   Fn3
 BYTE   N04  An3
 BYTE   W08
 BYTE   Fn3
 BYTE   N04  An3
 BYTE   W08
 BYTE   Cn4
 BYTE   N04  En4
 BYTE   W08
 BYTE   Cn4
 BYTE   N04  En4
 BYTE   W08
 BYTE   Cn4
 BYTE   N04  En4
 BYTE   W08
 BYTE   An3
 BYTE   N04  Cn4
 BYTE   W08
 BYTE   An3
 BYTE   N04  Cn4
 BYTE   W08
 BYTE   An3
 BYTE   N04  Cn4
 BYTE   W08
 BYTE   PEND 
// 045   ----------------------------------------
Label_1_01004206:
 BYTE   N04  Dn4  v127
 BYTE   N04  Fs4
 BYTE   W08
 BYTE   Dn4
 BYTE   N04  Fs4
 BYTE   W08
 BYTE   Dn4
 BYTE   N04  Fs4
 BYTE   W08
 BYTE   Bn3
 BYTE   N04  Dn4
 BYTE   W08
 BYTE   Bn3
 BYTE   N04  Dn4
 BYTE   W08
 BYTE   Bn3
 BYTE   N04  Dn4
 BYTE   W08
 BYTE   Fs3
 BYTE   N04  Bn3
 BYTE   W08
 BYTE   Fs3
 BYTE   N04  Bn3
 BYTE   W08
 BYTE   Fs3
 BYTE   N04  Bn3
 BYTE   W08
 BYTE   Dn3
 BYTE   N04  Fs3
 BYTE   W08
 BYTE   Dn3
 BYTE   N04  Fs3
 BYTE   W08
 BYTE   Dn3
 BYTE   N04  Fs3
 BYTE   W08
 BYTE   PEND 
// 046   ----------------------------------------
Label_1_01004239:
 BYTE   N04  Ds4  v127
 BYTE   N04  Gn4
 BYTE   W08
 BYTE   Ds4
 BYTE   N04  Gn4
 BYTE   W08
 BYTE   Ds4
 BYTE   N04  Gn4
 BYTE   W08
 BYTE   Cn4
 BYTE   N04  Ds4
 BYTE   W08
 BYTE   Cn4
 BYTE   N04  Ds4
 BYTE   W08
 BYTE   Cn4
 BYTE   N04  Ds4
 BYTE   W08
 BYTE   Gs3
 BYTE   N04  Cn4
 BYTE   W08
 BYTE   Gs3
 BYTE   N04  Cn4
 BYTE   W08
 BYTE   Gs3
 BYTE   N04  Cn4
 BYTE   W08
 BYTE   Ds4
 BYTE   N04  Gn4
 BYTE   W08
 BYTE   Ds4
 BYTE   N04  Gn4
 BYTE   W08
 BYTE   Ds4
 BYTE   N04  Gn4
 BYTE   W08
 BYTE   PEND 
// 047   ----------------------------------------
Label_1_0100426C:
 BYTE   N04  Fn4  v127
 BYTE   N04  An4
 BYTE   W08
 BYTE   Fn4
 BYTE   N04  An4
 BYTE   W08
 BYTE   Fn4
 BYTE   N04  An4
 BYTE   W08
 BYTE   Cn4
 BYTE   N04  Fn4
 BYTE   W08
 BYTE   Cn4
 BYTE   N04  Fn4
 BYTE   W08
 BYTE   Cn4
 BYTE   N04  Fn4
 BYTE   W08
 BYTE   An3
 BYTE   N04  Cn4
 BYTE   W08
 BYTE   An3
 BYTE   N04  Cn4
 BYTE   W08
 BYTE   An3
 BYTE   N04  Cn4
 BYTE   W08
 BYTE   Fn4
 BYTE   N04  An4
 BYTE   W08
 BYTE   Fn4
 BYTE   N04  An4
 BYTE   W08
 BYTE   Fn4
 BYTE   N04  An4
 BYTE   W08
 BYTE   PEND 
// 048   ----------------------------------------
Label_1_0100429F:
 BYTE   N28  Gn4  v127
 BYTE   N28  Bn4
 BYTE   W48
 BYTE   N21  Dn4
 BYTE   N21  Gn4
 BYTE   W40
 BYTE   N04  Bn3
 BYTE   N04  Dn4
 BYTE   W08
 BYTE   PEND 
// 049   ----------------------------------------
 BYTE   N72  Bn3
 BYTE   N72  Dn4
 BYTE   W96
// 050   ----------------------------------------
 BYTE   W96
// 051   ----------------------------------------
 BYTE   W96
// 052   ----------------------------------------
 BYTE   W96
// 053   ----------------------------------------
 BYTE   W96
 BYTE   PATT
  POIN2 Label_1_01003F1D
 BYTE   PATT
  POIN2 Label_1_01003F32
 BYTE   PATT
  POIN2 Label_1_01003F61
 BYTE   PATT
  POIN2 Label_1_01003F7E
 BYTE   PATT
  POIN2 Label_1_01003F1D
 BYTE   PATT
  POIN2 Label_1_01003F32
 BYTE   PATT
  POIN2 Label_1_01003F61
 BYTE   PATT
  POIN2 Label_1_01003F9B
 BYTE   PATT
  POIN2 Label_1_01003FB8
 BYTE   PATT
  POIN2 Label_1_01003FC7
 BYTE   PATT
  POIN2 Label_1_01003FE4
 BYTE   PATT
  POIN2 Label_1_01003FEC
// 054   ----------------------------------------
 BYTE   W96
// 055   ----------------------------------------
 BYTE   W96
// 056   ----------------------------------------
 BYTE   W96
// 057   ----------------------------------------
 BYTE   W96
 BYTE   PATT
  POIN2 Label_1_01003FF8
 BYTE   PATT
  POIN2 Label_1_01004003
 BYTE   PATT
  POIN2 Label_1_0100400E
 BYTE   PATT
  POIN2 Label_1_01004019
 BYTE   PATT
  POIN2 Label_1_01004024
 BYTE   PATT
  POIN2 Label_1_0100403E
 BYTE   PATT
  POIN2 Label_1_01004060
 BYTE   PATT
  POIN2 Label_1_01004082
 BYTE   PATT
  POIN2 Label_1_01004098
 BYTE   PATT
  POIN2 Label_1_010040B2
 BYTE   PATT
  POIN2 Label_1_010040D4
 BYTE   PATT
  POIN2 Label_1_010040F6
// 058   ----------------------------------------
 BYTE   W96
// 059   ----------------------------------------
 BYTE   W96
// 060   ----------------------------------------
 BYTE   W96
// 061   ----------------------------------------
 BYTE   W96
// 062   ----------------------------------------
 BYTE   W96
// 063   ----------------------------------------
 BYTE   W96
// 064   ----------------------------------------
 BYTE   W96
// 065   ----------------------------------------
 BYTE   W96
 BYTE   PATT
  POIN2 Label_1_01004114
 BYTE   PATT
  POIN2 Label_1_01004121
 BYTE   PATT
  POIN2 Label_1_0100412C
 BYTE   PATT
  POIN2 Label_1_01004137
 BYTE   PATT
  POIN2 Label_1_01004114
 BYTE   PATT
  POIN2 Label_1_01004145
 BYTE   PATT
  POIN2 Label_1_01004150
 BYTE   PATT
  POIN2 Label_1_01004161
 BYTE   PATT
  POIN2 Label_1_0100416C
 BYTE   PATT
  POIN2 Label_1_010041A0
 BYTE   PATT
  POIN2 Label_1_010041D3
 BYTE   PATT
  POIN2 Label_1_01004206
 BYTE   PATT
  POIN2 Label_1_01004239
 BYTE   PATT
  POIN2 Label_1_0100426C
 BYTE   PATT
  POIN2 Label_1_0100429F
// 066   ----------------------------------------
 BYTE   N72  Bn3  v127
 BYTE   N72  Dn4
 BYTE   W96
// 067   ----------------------------------------
 BYTE   W96
// 068   ----------------------------------------
 BYTE   W96
// 069   ----------------------------------------
 BYTE   W96
// 070   ----------------------------------------
 BYTE   W96
 BYTE   PATT
  POIN2 Label_1_01003F1D
 BYTE   PATT
  POIN2 Label_1_01003F32
 BYTE   PATT
  POIN2 Label_1_01003F61
 BYTE   PATT
  POIN2 Label_1_01003F7E
 BYTE   PATT
  POIN2 Label_1_01003F1D
 BYTE   PATT
  POIN2 Label_1_01003F32
 BYTE   PATT
  POIN2 Label_1_01003F61
 BYTE   PATT
  POIN2 Label_1_01003F9B
 BYTE   PATT
  POIN2 Label_1_01003FB8
 BYTE   PATT
  POIN2 Label_1_01003FC7
 BYTE   PATT
  POIN2 Label_1_01003FE4
 BYTE   PATT
  POIN2 Label_1_01003FEC
// 071   ----------------------------------------
 BYTE   W96
// 072   ----------------------------------------
 BYTE   W96
// 073   ----------------------------------------
 BYTE   W96
// 074   ----------------------------------------
 BYTE   W96
 BYTE   PATT
  POIN2 Label_1_01003FF8
 BYTE   PATT
  POIN2 Label_1_01004003
 BYTE   PATT
  POIN2 Label_1_0100400E
 BYTE   PATT
  POIN2 Label_1_01004019
 BYTE   PATT
  POIN2 Label_1_01004024
 BYTE   PATT
  POIN2 Label_1_0100403E
 BYTE   PATT
  POIN2 Label_1_01004060
 BYTE   PATT
  POIN2 Label_1_01004082
 BYTE   PATT
  POIN2 Label_1_01004098
 BYTE   PATT
  POIN2 Label_1_010040B2
 BYTE   PATT
  POIN2 Label_1_010040D4
 BYTE   PATT
  POIN2 Label_1_010040F6
// 075   ----------------------------------------
 BYTE   W96
// 076   ----------------------------------------
 BYTE   W96
// 077   ----------------------------------------
 BYTE   W96
// 078   ----------------------------------------
 BYTE   W96
// 079   ----------------------------------------
 BYTE   W96
// 080   ----------------------------------------
 BYTE   W96
// 081   ----------------------------------------
 BYTE   W96
// 082   ----------------------------------------
 BYTE   W96
 BYTE   PATT
  POIN2 Label_1_01004114
 BYTE   PATT
  POIN2 Label_1_01004121
 BYTE   PATT
  POIN2 Label_1_0100412C
 BYTE   PATT
  POIN2 Label_1_01004137
 BYTE   PATT
  POIN2 Label_1_01004114
 BYTE   PATT
  POIN2 Label_1_01004145
 BYTE   PATT
  POIN2 Label_1_01004150
 BYTE   PATT
  POIN2 Label_1_01004161
 BYTE   PATT
  POIN2 Label_1_0100416C
 BYTE   PATT
  POIN2 Label_1_010041A0
 BYTE   PATT
  POIN2 Label_1_010041D3
 BYTE   PATT
  POIN2 Label_1_01004206
 BYTE   PATT
  POIN2 Label_1_01004239
 BYTE   PATT
  POIN2 Label_1_0100426C
 BYTE   PATT
  POIN2 Label_1_0100429F
// 083   ----------------------------------------
 BYTE   N72  Bn3  v127
 BYTE   N72  Dn4
 BYTE   W96
// 084   ----------------------------------------
 BYTE   W96
// 085   ----------------------------------------
 BYTE   W96
// 086   ----------------------------------------
 BYTE   W96
// 087   ----------------------------------------
 BYTE   W96
 BYTE   PATT
  POIN2 Label_1_01003F1D
 BYTE   PATT
  POIN2 Label_1_01003F32
 BYTE   PATT
  POIN2 Label_1_01003F61
 BYTE   PATT
  POIN2 Label_1_01003F7E
 BYTE   PATT
  POIN2 Label_1_01003F1D
 BYTE   PATT
  POIN2 Label_1_01003F32
 BYTE   PATT
  POIN2 Label_1_01003F61
 BYTE   PATT
  POIN2 Label_1_01003F9B
 BYTE   PATT
  POIN2 Label_1_01003FB8
 BYTE   PATT
  POIN2 Label_1_01003FC7
 BYTE   PATT
  POIN2 Label_1_01003FE4
 BYTE   PATT
  POIN2 Label_1_01003FEC
// 088   ----------------------------------------
 BYTE   W96
// 089   ----------------------------------------
 BYTE   W96
// 090   ----------------------------------------
 BYTE   W96
// 091   ----------------------------------------
 BYTE   W96
 BYTE   PATT
  POIN2 Label_1_01003FF8
 BYTE   PATT
  POIN2 Label_1_01004003
 BYTE   PATT
  POIN2 Label_1_0100400E
 BYTE   PATT
  POIN2 Label_1_01004019
 BYTE   PATT
  POIN2 Label_1_01004024
 BYTE   PATT
  POIN2 Label_1_0100403E
 BYTE   PATT
  POIN2 Label_1_01004060
 BYTE   PATT
  POIN2 Label_1_01004082
 BYTE   PATT
  POIN2 Label_1_01004098
 BYTE   PATT
  POIN2 Label_1_010040B2
 BYTE   PATT
  POIN2 Label_1_010040D4
 BYTE   PATT
  POIN2 Label_1_010040F6
// 092   ----------------------------------------
 BYTE   W96
// 093   ----------------------------------------
 BYTE   W96
// 094   ----------------------------------------
 BYTE   W96
// 095   ----------------------------------------
 BYTE   W96
// 096   ----------------------------------------
 BYTE   W96
// 097   ----------------------------------------
 BYTE   W96
// 098   ----------------------------------------
 BYTE   W96
// 099   ----------------------------------------
 BYTE   W96
 BYTE   PATT
  POIN2 Label_1_01004114
 BYTE   PATT
  POIN2 Label_1_01004121
 BYTE   PATT
  POIN2 Label_1_0100412C
 BYTE   PATT
  POIN2 Label_1_01004137
 BYTE   PATT
  POIN2 Label_1_01004114
 BYTE   PATT
  POIN2 Label_1_01004145
 BYTE   PATT
  POIN2 Label_1_01004150
 BYTE   PATT
  POIN2 Label_1_01004161
 BYTE   PATT
  POIN2 Label_1_0100416C
 BYTE   PATT
  POIN2 Label_1_010041A0
 BYTE   PATT
  POIN2 Label_1_010041D3
 BYTE   PATT
  POIN2 Label_1_01004206
 BYTE   PATT
  POIN2 Label_1_01004239
 BYTE   PATT
  POIN2 Label_1_0100426C
 BYTE   PATT
  POIN2 Label_1_0100429F
// 100   ----------------------------------------
 BYTE   N72  Bn3  v127
 BYTE   N72  Dn4
 BYTE   W96
// 101   ----------------------------------------
 BYTE   W96
// 102   ----------------------------------------
 BYTE   W96
 BYTE   FINE

//**************** Track 3 (Midi-Chn.2) ****************//

MountHorn_003:
// 000   ----------------------------------------
 BYTE   KEYSH   MountHorn_key+0
 BYTE   W24
 BYTE   VOICE   62
 BYTE   VOL   45*MountHorn_mvl/mxv
 BYTE   PAN   c_v+16
 BYTE   BEND   c_v+0
 BYTE   W96
// 001   ----------------------------------------
 BYTE   W96
// 002   ----------------------------------------
Label_2_01004551:
 BYTE   N13  En4  v127
 BYTE   W24
 BYTE   Fs4
 BYTE   W24
 BYTE   N60  Gn4
 BYTE   W28
 BYTE   W05
 BYTE   W01
 BYTE   W02
 BYTE   W01
 BYTE   W02
 BYTE   W01
 BYTE   W02
 BYTE   W01
 BYTE   W02
 BYTE   W01
 BYTE   W02
 BYTE   PEND 
// 003   ----------------------------------------
Label_2_01004566:
 BYTE   W01
 BYTE   W02
 BYTE   W01
 BYTE   W02
 BYTE   W01
 BYTE   W02
 BYTE   W01
 BYTE   W02
 BYTE   W01
 BYTE   W11
 BYTE   N05  Fs4  v127
 BYTE   W08
 BYTE   Gn4
 BYTE   W08
 BYTE   An4
 BYTE   W08
 BYTE   Gn4
 BYTE   W08
 BYTE   Fs4
 BYTE   W08
 BYTE   N21  En4
 BYTE   W24
 BYTE   N05  Dn4
 BYTE   W08
 BYTE   PEND 
// 004   ----------------------------------------
Label_2_01004583:
 BYTE   N28  En4  v127
 BYTE   W12
 BYTE   W03
 BYTE   W01
 BYTE   W02
 BYTE   W01
 BYTE   W02
 BYTE   W01
 BYTE   W02
 BYTE   W01
 BYTE   W02
 BYTE   W13
 BYTE   N05  Dn4
 BYTE   W08
 BYTE   N28  Cn4
 BYTE   W15
 BYTE   W04
 BYTE   W02
 BYTE   W01
 BYTE   W02
 BYTE   W01
 BYTE   W02
 BYTE   W01
 BYTE   W02
 BYTE   W01
 BYTE   W09
 BYTE   N05  Bn3
 BYTE   W08
 BYTE   PEND 
// 005   ----------------------------------------
Label_2_010045A5:
 BYTE   N44  As3  v127
 BYTE   W13
 BYTE   W08
 BYTE   W03
 BYTE   W01
 BYTE   W02
 BYTE   W01
 BYTE   W02
 BYTE   W01
 BYTE   W01
 BYTE   W01
 BYTE   W01
 BYTE   W02
 BYTE   W01
 BYTE   W01
 BYTE   W01
 BYTE   W01
 BYTE   W02
 BYTE   W01
 BYTE   W01
 BYTE   W01
 BYTE   W01
 BYTE   W02
 BYTE   An3
 BYTE   W13
 BYTE   W06
 BYTE   W02
 BYTE   W01
 BYTE   W02
 BYTE   W01
 BYTE   W01
 BYTE   W01
 BYTE   W01
 BYTE   W02
 BYTE   W01
 BYTE   W01
 BYTE   W01
 BYTE   W01
 BYTE   W02
 BYTE   W01
 BYTE   W01
 BYTE   W01
 BYTE   W01
 BYTE   W02
 BYTE   W01
 BYTE   W01
 BYTE   W04
 BYTE   PEND 
// 006   ----------------------------------------
Label_2_010045D7:
 BYTE   N13  En4  v127
 BYTE   W24
 BYTE   Fs4
 BYTE   W24
 BYTE   N60  Gn4
 BYTE   W24
 BYTE   W03
 BYTE   W03
 BYTE   W01
 BYTE   W02
 BYTE   W01
 BYTE   W02
 BYTE   W01
 BYTE   W02
 BYTE   W01
 BYTE   W02
 BYTE   W01
 BYTE   W02
 BYTE   W01
 BYTE   W02
 BYTE   PEND 
// 007   ----------------------------------------
Label_2_010045EF:
 BYTE   W01
 BYTE   W02
 BYTE   W01
 BYTE   W02
 BYTE   W01
 BYTE   W02
 BYTE   W01
 BYTE   W14
 BYTE   N05  Fs4  v127
 BYTE   W08
 BYTE   Gn4
 BYTE   W08
 BYTE   An4
 BYTE   W08
 BYTE   Gn4
 BYTE   W08
 BYTE   Fs4
 BYTE   W08
 BYTE   N21  En4
 BYTE   W24
 BYTE   N05  Dn4
 BYTE   W08
 BYTE   PEND 
// 008   ----------------------------------------
Label_2_0100460A:
 BYTE   N28  En4  v127
 BYTE   W18
 BYTE   W03
 BYTE   W01
 BYTE   W02
 BYTE   W01
 BYTE   W02
 BYTE   W01
 BYTE   W02
 BYTE   W01
 BYTE   W02
 BYTE   W07
 BYTE   N05  Dn4
 BYTE   W02
 BYTE   W06
 BYTE   N28  Cn4
 BYTE   W08
 BYTE   W02
 BYTE   W02
 BYTE   W02
 BYTE   W02
 BYTE   W02
 BYTE   W02
 BYTE   W02
 BYTE   W02
 BYTE   W02
 BYTE   W12
 BYTE   W02
 BYTE   N05  Bn3
 BYTE   W08
 BYTE   PEND 
// 009   ----------------------------------------
Label_2_0100462E:
 BYTE   N28  Cn4  v127
 BYTE   W10
 BYTE   W02
 BYTE   W02
 BYTE   W02
 BYTE   W02
 BYTE   W02
 BYTE   W02
 BYTE   W02
 BYTE   W02
 BYTE   W02
 BYTE   W02
 BYTE   W08
 BYTE   W02
 BYTE   N05  Bn3
 BYTE   W08
 BYTE   N28  An3
 BYTE   W08
 BYTE   W04
 BYTE   W02
 BYTE   W02
 BYTE   W02
 BYTE   W02
 BYTE   W02
 BYTE   W02
 BYTE   W02
 BYTE   W12
 BYTE   W02
 BYTE   N05  Bn3
 BYTE   W08
 BYTE   PEND 
// 010   ----------------------------------------
Label_2_01004652:
 BYTE   N68  As3  v127
 BYTE   W20
 BYTE   W04
 BYTE   W02
 BYTE   W04
 BYTE   W02
 BYTE   W02
 BYTE   W02
 BYTE   W02
 BYTE   W02
 BYTE   W02
 BYTE   W02
 BYTE   W02
 BYTE   W02
 BYTE   W02
 BYTE   W02
 BYTE   W02
 BYTE   W02
 BYTE   W02
 BYTE   W02
 BYTE   W02
 BYTE   W02
 BYTE   W02
 BYTE   W02
 BYTE   W18
 BYTE   W02
 BYTE   N05  An3
 BYTE   W08
 BYTE   PEND 
// 011   ----------------------------------------
Label_2_01004672:
 BYTE   N28  As3  v127
 BYTE   W12
 BYTE   W02
 BYTE   W02
 BYTE   W02
 BYTE   W02
 BYTE   W02
 BYTE   W02
 BYTE   W02
 BYTE   W02
 BYTE   W10
 BYTE   W02
 BYTE   N05  Bn3
 BYTE   W08
 BYTE   N28  As3
 BYTE   W12
 BYTE   W04
 BYTE   W02
 BYTE   W02
 BYTE   W02
 BYTE   W02
 BYTE   W02
 BYTE   W02
 BYTE   W12
 BYTE   N05  An3
 BYTE   W08
 BYTE   PEND 
// 012   ----------------------------------------
Label_2_01004692:
 BYTE   N92  As3  v127
 BYTE   W28
 BYTE   W06
 BYTE   W04
 BYTE   W02
 BYTE   W04
 BYTE   W02
 BYTE   W02
 BYTE   W02
 BYTE   W02
 BYTE   W02
 BYTE   W02
 BYTE   W02
 BYTE   W02
 BYTE   W02
 BYTE   W02
 BYTE   W02
 BYTE   W02
 BYTE   W02
 BYTE   W02
 BYTE   W02
 BYTE   W02
 BYTE   W02
 BYTE   W02
 BYTE   W02
 BYTE   W02
 BYTE   W02
 BYTE   W10
 BYTE   PEND 
// 013   ----------------------------------------
Label_2_010046B1:
 BYTE   N92  An3  v127
 BYTE   W40
 BYTE   W06
 BYTE   W04
 BYTE   W02
 BYTE   W02
 BYTE   W02
 BYTE   W02
 BYTE   W02
 BYTE   W02
 BYTE   W02
 BYTE   W02
 BYTE   W02
 BYTE   W02
 BYTE   W02
 BYTE   W02
 BYTE   W02
 BYTE   W02
 BYTE   W02
 BYTE   W02
 BYTE   W02
 BYTE   W02
 BYTE   W02
 BYTE   W02
 BYTE   W06
 BYTE   PEND 
// 014   ----------------------------------------
 BYTE   W96
// 015   ----------------------------------------
 BYTE   W96
// 016   ----------------------------------------
 BYTE   W96
// 017   ----------------------------------------
 BYTE   W72
 BYTE   W24
// 018   ----------------------------------------
 BYTE   N44  En3  v092
 BYTE   W48
 BYTE   Fs3
 BYTE   W48
// 019   ----------------------------------------
Label_2_010046D8:
 BYTE   N44  Gn3  v092
 BYTE   W48
 BYTE   An3
 BYTE   W48
 BYTE   PEND 
// 020   ----------------------------------------
Label_2_010046DF:
 BYTE   N44  As3  v092
 BYTE   W48
 BYTE   Cn4
 BYTE   W48
 BYTE   PEND 
// 021   ----------------------------------------
Label_2_010046E6:
 BYTE   N44  Cs4  v092
 BYTE   W48
 BYTE   Ds4
 BYTE   W48
 BYTE   PEND 
// 022   ----------------------------------------
Label_2_010046ED:
 BYTE   N13  Fs4  v127
 BYTE   W24
 BYTE   En4
 BYTE   W24
 BYTE   Fs4
 BYTE   W24
 BYTE   Dn4
 BYTE   W24
 BYTE   PEND 
// 023   ----------------------------------------
Label_2_010046F8:
 BYTE   N05  En4  v127
 BYTE   W08
 BYTE   Fs4
 BYTE   W08
 BYTE   Gn4
 BYTE   W08
 BYTE   N36  Fs4
 BYTE   W12
 BYTE   W04
 BYTE   W02
 BYTE   W02
 BYTE   W02
 BYTE   W02
 BYTE   W02
 BYTE   W02
 BYTE   W02
 BYTE   W02
 BYTE   W02
 BYTE   W02
 BYTE   W02
 BYTE   W02
 BYTE   W02
 BYTE   W06
 BYTE   N13  Dn4
 BYTE   W24
 BYTE   PEND 
// 024   ----------------------------------------
Label_2_01004716:
 BYTE   N05  En4  v127
 BYTE   W08
 BYTE   Fs4
 BYTE   W08
 BYTE   Gn4
 BYTE   W08
 BYTE   N52  An4
 BYTE   W14
 BYTE   W06
 BYTE   W02
 BYTE   W02
 BYTE   W02
 BYTE   W02
 BYTE   W02
 BYTE   W02
 BYTE   W02
 BYTE   W02
 BYTE   W02
 BYTE   W02
 BYTE   W02
 BYTE   W02
 BYTE   W02
 BYTE   W02
 BYTE   W02
 BYTE   W02
 BYTE   W02
 BYTE   W02
 BYTE   W02
 BYTE   W02
 BYTE   W02
 BYTE   W02
 BYTE   N05  Gn4
 BYTE   W08
 BYTE   PEND 
// 025   ----------------------------------------
Label_2_0100473C:
 BYTE   N28  Fs4  v127
 BYTE   W14
 BYTE   W04
 BYTE   W02
 BYTE   W02
 BYTE   W02
 BYTE   W02
 BYTE   W02
 BYTE   W02
 BYTE   W02
 BYTE   W02
 BYTE   W02
 BYTE   W04
 BYTE   N05  En4
 BYTE   W08
 BYTE   N36  Dn4
 BYTE   W14
 BYTE   W04
 BYTE   W02
 BYTE   W02
 BYTE   W02
 BYTE   W02
 BYTE   W02
 BYTE   W02
 BYTE   W02
 BYTE   W02
 BYTE   W02
 BYTE   W02
 BYTE   W02
 BYTE   W08
 BYTE   PEND 
// 026   ----------------------------------------
Label_2_0100475F:
 BYTE   N13  Fs5  v127
 BYTE   W24
 BYTE   En5
 BYTE   W24
 BYTE   Fs5
 BYTE   W24
 BYTE   Dn5
 BYTE   W24
 BYTE   PEND 
// 027   ----------------------------------------
Label_2_0100476A:
 BYTE   N05  En5  v127
 BYTE   W08
 BYTE   Fs5
 BYTE   W08
 BYTE   Gn5
 BYTE   W08
 BYTE   N36  Fs5
 BYTE   W10
 BYTE   W04
 BYTE   W02
 BYTE   W02
 BYTE   W02
 BYTE   W02
 BYTE   W02
 BYTE   W02
 BYTE   W02
 BYTE   W02
 BYTE   W02
 BYTE   W02
 BYTE   W02
 BYTE   W02
 BYTE   W02
 BYTE   W08
 BYTE   N13  Dn5
 BYTE   W24
 BYTE   PEND 
// 028   ----------------------------------------
Label_2_01004788:
 BYTE   N05  En5  v127
 BYTE   W08
 BYTE   Fs5
 BYTE   W08
 BYTE   Gn5
 BYTE   W08
 BYTE   N52  An5
 BYTE   W16
 BYTE   W04
 BYTE   W04
 BYTE   W02
 BYTE   W02
 BYTE   W02
 BYTE   W02
 BYTE   W02
 BYTE   W02
 BYTE   W02
 BYTE   W02
 BYTE   W02
 BYTE   W02
 BYTE   W02
 BYTE   W02
 BYTE   W02
 BYTE   W02
 BYTE   W02
 BYTE   W02
 BYTE   W08
 BYTE   N05  Gn5
 BYTE   W08
 BYTE   PEND 
// 029   ----------------------------------------
Label_2_010047AA:
 BYTE   N28  Fs5  v127
 BYTE   W10
 BYTE   W02
 BYTE   W02
 BYTE   W02
 BYTE   W02
 BYTE   W02
 BYTE   W02
 BYTE   W02
 BYTE   W02
 BYTE   W12
 BYTE   W02
 BYTE   N05  En5
 BYTE   W08
 BYTE   N36  Dn5
 BYTE   W12
 BYTE   W04
 BYTE   W02
 BYTE   W02
 BYTE   W02
 BYTE   W02
 BYTE   W02
 BYTE   W02
 BYTE   W02
 BYTE   W02
 BYTE   W16
 BYTE   PEND 
// 030   ----------------------------------------
 BYTE   W96
// 031   ----------------------------------------
 BYTE   W96
// 032   ----------------------------------------
 BYTE   W96
// 033   ----------------------------------------
 BYTE   W96
// 034   ----------------------------------------
 BYTE   W96
// 035   ----------------------------------------
 BYTE   W96
// 036   ----------------------------------------
 BYTE   W96
// 037   ----------------------------------------
Label_2_010047D0:
 BYTE   W92
 BYTE   W02
 BYTE   W02
 BYTE   PEND 
// 038   ----------------------------------------
Label_2_010047D4:
 BYTE   N13  Cs5  v127
 BYTE   W24
 BYTE   En5
 BYTE   W24
 BYTE   N28  Ds5
 BYTE   W10
 BYTE   W06
 BYTE   W02
 BYTE   W02
 BYTE   W02
 BYTE   W02
 BYTE   W02
 BYTE   W02
 BYTE   W02
 BYTE   W02
 BYTE   W02
 BYTE   W02
 BYTE   W02
 BYTE   W02
 BYTE   N05  Bn4
 BYTE   W08
 BYTE   PEND 
// 039   ----------------------------------------
Label_2_010047EE:
 BYTE   N13  Cs5  v127
 BYTE   W24
 BYTE   En5
 BYTE   W24
 BYTE   Ds5
 BYTE   W24
 BYTE   Fs5
 BYTE   W24
 BYTE   PEND 
// 040   ----------------------------------------
Label_2_010047F9:
 BYTE   N13  Bn4  v127
 BYTE   W24
 BYTE   Dn5
 BYTE   W24
 BYTE   Cs5
 BYTE   W24
 BYTE   An4
 BYTE   W24
 BYTE   PEND 
// 041   ----------------------------------------
Label_2_01004804:
 BYTE   N05  Bn4  v127
 BYTE   W16
 BYTE   Fs5
 BYTE   W08
 BYTE   N60
 BYTE   W14
 BYTE   W08
 BYTE   W02
 BYTE   W02
 BYTE   W02
 BYTE   W02
 BYTE   W02
 BYTE   W02
 BYTE   W02
 BYTE   W02
 BYTE   W02
 BYTE   W02
 BYTE   W02
 BYTE   W02
 BYTE   W02
 BYTE   W02
 BYTE   W02
 BYTE   W02
 BYTE   W02
 BYTE   W02
 BYTE   W12
 BYTE   W02
 BYTE   PEND 
// 042   ----------------------------------------
Label_2_01004822:
 BYTE   N13  Cs5  v127
 BYTE   W24
 BYTE   En5
 BYTE   W24
 BYTE   N28  Ds5
 BYTE   W40
 BYTE   N05  Bn4
 BYTE   W08
 BYTE   PEND 
// 043   ----------------------------------------
Label_2_0100482F:
 BYTE   N13  Cs5  v127
 BYTE   W24
 BYTE   Gs5
 BYTE   W24
 BYTE   Fs5
 BYTE   W24
 BYTE   Ds5
 BYTE   W24
 BYTE   PEND 
// 044   ----------------------------------------
Label_2_0100483A:
 BYTE   N05  Dn5  v127
 BYTE   W08
 BYTE   En5
 BYTE   W08
 BYTE   Fs5
 BYTE   W08
 BYTE   N28  Dn5
 BYTE   W10
 BYTE   W04
 BYTE   W02
 BYTE   W02
 BYTE   W02
 BYTE   W02
 BYTE   W02
 BYTE   W02
 BYTE   W02
 BYTE   W12
 BYTE   W08
 BYTE   N05  Bn4
 BYTE   W16
 BYTE   Dn5
 BYTE   W08
 BYTE   PEND 
// 045   ----------------------------------------
Label_2_01004855:
 BYTE   N36  En5  v127
 BYTE   W12
 BYTE   W04
 BYTE   W02
 BYTE   W02
 BYTE   W02
 BYTE   W02
 BYTE   W02
 BYTE   W02
 BYTE   W02
 BYTE   W02
 BYTE   W02
 BYTE   W02
 BYTE   W02
 BYTE   W08
 BYTE   W02
 BYTE   N13  Dn5
 BYTE   W24
 BYTE   N20  Cn5
 BYTE   W24
 BYTE   PEND 
// 046   ----------------------------------------
Label_2_0100486E:
 BYTE   N03  An4  v127
 BYTE   W08
 BYTE   N04
 BYTE   W08
 BYTE   N04
 BYTE   W08
 BYTE   Fn4
 BYTE   W08
 BYTE   N04
 BYTE   W08
 BYTE   N04
 BYTE   W08
 BYTE   Cn5
 BYTE   W08
 BYTE   N04
 BYTE   W08
 BYTE   N04
 BYTE   W08
 BYTE   An4
 BYTE   W08
 BYTE   N04
 BYTE   W08
 BYTE   N04
 BYTE   W08
 BYTE   PEND 
// 047   ----------------------------------------
Label_2_01004889:
 BYTE   N04  Bn4  v127
 BYTE   W08
 BYTE   N04
 BYTE   W08
 BYTE   N04
 BYTE   W08
 BYTE   Gn4
 BYTE   W08
 BYTE   N04
 BYTE   W08
 BYTE   N04
 BYTE   W08
 BYTE   Dn5
 BYTE   W08
 BYTE   N04
 BYTE   W08
 BYTE   N04
 BYTE   W08
 BYTE   Bn4
 BYTE   W08
 BYTE   N04
 BYTE   W08
 BYTE   N04
 BYTE   W08
 BYTE   PEND 
// 048   ----------------------------------------
Label_2_010048A4:
 BYTE   N04  Cn5  v127
 BYTE   W08
 BYTE   N04
 BYTE   W08
 BYTE   N04
 BYTE   W08
 BYTE   An4
 BYTE   W08
 BYTE   N04
 BYTE   W08
 BYTE   N04
 BYTE   W08
 BYTE   En5
 BYTE   W08
 BYTE   N04
 BYTE   W08
 BYTE   N04
 BYTE   W08
 BYTE   Cn5
 BYTE   W08
 BYTE   N04
 BYTE   W08
 BYTE   N04
 BYTE   W08
 BYTE   PEND 
// 049   ----------------------------------------
Label_2_010048BF:
 BYTE   N04  Fs5  v127
 BYTE   W08
 BYTE   N04
 BYTE   W08
 BYTE   N04
 BYTE   W08
 BYTE   Dn5
 BYTE   W08
 BYTE   N04
 BYTE   W08
 BYTE   N04
 BYTE   W08
 BYTE   Bn4
 BYTE   W08
 BYTE   N04
 BYTE   W08
 BYTE   N04
 BYTE   W08
 BYTE   Fs4
 BYTE   W08
 BYTE   N04
 BYTE   W08
 BYTE   N04
 BYTE   W08
 BYTE   PEND 
// 050   ----------------------------------------
Label_2_010048DA:
 BYTE   N04  Gn5  v127
 BYTE   W08
 BYTE   N04
 BYTE   W08
 BYTE   N04
 BYTE   W08
 BYTE   Ds5
 BYTE   W08
 BYTE   N04
 BYTE   W08
 BYTE   N04
 BYTE   W08
 BYTE   Cn5
 BYTE   W08
 BYTE   N04
 BYTE   W08
 BYTE   N04
 BYTE   W08
 BYTE   Gn5
 BYTE   W08
 BYTE   N04
 BYTE   W08
 BYTE   N04
 BYTE   W08
 BYTE   PEND 
// 051   ----------------------------------------
Label_2_010048F5:
 BYTE   N04  An5  v127
 BYTE   W08
 BYTE   N04
 BYTE   W08
 BYTE   N04
 BYTE   W08
 BYTE   Fn5
 BYTE   W08
 BYTE   N04
 BYTE   W08
 BYTE   N04
 BYTE   W08
 BYTE   Cn5
 BYTE   W08
 BYTE   N04
 BYTE   W08
 BYTE   N04
 BYTE   W08
 BYTE   An5
 BYTE   W08
 BYTE   N04
 BYTE   W08
 BYTE   N04
 BYTE   W08
 BYTE   PEND 
// 052   ----------------------------------------
Label_2_01004910:
 BYTE   N32  Bn5  v127
 BYTE   W12
 BYTE   W06
 BYTE   W02
 BYTE   W02
 BYTE   W02
 BYTE   W02
 BYTE   W02
 BYTE   W02
 BYTE   W02
 BYTE   W02
 BYTE   W02
 BYTE   W02
 BYTE   W02
 BYTE   W02
 BYTE   W02
 BYTE   W02
 BYTE   W02
 BYTE   N24  Gn5
 BYTE   W40
 BYTE   N04  Dn5
 BYTE   W08
 BYTE   PEND 
// 053   ----------------------------------------
Label_2_0100492B:
 BYTE   N72  Dn5  v127
 BYTE   W18
 BYTE   W06
 BYTE   W04
 BYTE   W02
 BYTE   W02
 BYTE   W02
 BYTE   W02
 BYTE   W02
 BYTE   W02
 BYTE   W02
 BYTE   W02
 BYTE   W02
 BYTE   W02
 BYTE   W02
 BYTE   W02
 BYTE   W02
 BYTE   W02
 BYTE   W02
 BYTE   W02
 BYTE   W02
 BYTE   W02
 BYTE   W02
 BYTE   W02
 BYTE   W02
 BYTE   W02
 BYTE   W02
 BYTE   W22
 BYTE   PEND 
// 054   ----------------------------------------
 BYTE   W96
// 055   ----------------------------------------
 BYTE   W96
// 056   ----------------------------------------
 BYTE   W96
// 057   ----------------------------------------
 BYTE   W96
 BYTE   PATT
  POIN2 Label_2_01004551
 BYTE   PATT
  POIN2 Label_2_01004566
 BYTE   PATT
  POIN2 Label_2_01004583
 BYTE   PATT
  POIN2 Label_2_010045A5
 BYTE   PATT
  POIN2 Label_2_010045D7
 BYTE   PATT
  POIN2 Label_2_010045EF
 BYTE   PATT
  POIN2 Label_2_0100460A
 BYTE   PATT
  POIN2 Label_2_0100462E
 BYTE   PATT
  POIN2 Label_2_01004652
 BYTE   PATT
  POIN2 Label_2_01004672
 BYTE   PATT
  POIN2 Label_2_01004692
 BYTE   PATT
  POIN2 Label_2_010046B1
// 058   ----------------------------------------
 BYTE   W96
// 059   ----------------------------------------
 BYTE   W96
// 060   ----------------------------------------
 BYTE   W96
// 061   ----------------------------------------
 BYTE   W72
 BYTE   W24
// 062   ----------------------------------------
 BYTE   N44  En3  v092
 BYTE   W48
 BYTE   Fs3
 BYTE   W48
 BYTE   PATT
  POIN2 Label_2_010046D8
 BYTE   PATT
  POIN2 Label_2_010046DF
 BYTE   PATT
  POIN2 Label_2_010046E6
 BYTE   PATT
  POIN2 Label_2_010046ED
 BYTE   PATT
  POIN2 Label_2_010046F8
 BYTE   PATT
  POIN2 Label_2_01004716
 BYTE   PATT
  POIN2 Label_2_0100473C
 BYTE   PATT
  POIN2 Label_2_0100475F
 BYTE   PATT
  POIN2 Label_2_0100476A
 BYTE   PATT
  POIN2 Label_2_01004788
 BYTE   PATT
  POIN2 Label_2_010047AA
// 063   ----------------------------------------
 BYTE   W96
// 064   ----------------------------------------
 BYTE   W96
// 065   ----------------------------------------
 BYTE   W96
// 066   ----------------------------------------
 BYTE   W96
// 067   ----------------------------------------
 BYTE   W96
// 068   ----------------------------------------
 BYTE   W96
// 069   ----------------------------------------
 BYTE   W96
 BYTE   PATT
  POIN2 Label_2_010047D0
 BYTE   PATT
  POIN2 Label_2_010047D4
 BYTE   PATT
  POIN2 Label_2_010047EE
 BYTE   PATT
  POIN2 Label_2_010047F9
 BYTE   PATT
  POIN2 Label_2_01004804
 BYTE   PATT
  POIN2 Label_2_01004822
 BYTE   PATT
  POIN2 Label_2_0100482F
 BYTE   PATT
  POIN2 Label_2_0100483A
 BYTE   PATT
  POIN2 Label_2_01004855
 BYTE   PATT
  POIN2 Label_2_0100486E
 BYTE   PATT
  POIN2 Label_2_01004889
 BYTE   PATT
  POIN2 Label_2_010048A4
 BYTE   PATT
  POIN2 Label_2_010048BF
 BYTE   PATT
  POIN2 Label_2_010048DA
 BYTE   PATT
  POIN2 Label_2_010048F5
 BYTE   PATT
  POIN2 Label_2_01004910
 BYTE   PATT
  POIN2 Label_2_0100492B
// 070   ----------------------------------------
 BYTE   W96
// 071   ----------------------------------------
 BYTE   W96
// 072   ----------------------------------------
 BYTE   W96
// 073   ----------------------------------------
 BYTE   W96
 BYTE   PATT
  POIN2 Label_2_01004551
 BYTE   PATT
  POIN2 Label_2_01004566
 BYTE   PATT
  POIN2 Label_2_01004583
 BYTE   PATT
  POIN2 Label_2_010045A5
 BYTE   PATT
  POIN2 Label_2_010045D7
 BYTE   PATT
  POIN2 Label_2_010045EF
 BYTE   PATT
  POIN2 Label_2_0100460A
 BYTE   PATT
  POIN2 Label_2_0100462E
 BYTE   PATT
  POIN2 Label_2_01004652
 BYTE   PATT
  POIN2 Label_2_01004672
 BYTE   PATT
  POIN2 Label_2_01004692
 BYTE   PATT
  POIN2 Label_2_010046B1
// 074   ----------------------------------------
 BYTE   W96
// 075   ----------------------------------------
 BYTE   W96
// 076   ----------------------------------------
 BYTE   W96
// 077   ----------------------------------------
 BYTE   W72
 BYTE   W24
// 078   ----------------------------------------
 BYTE   N44  En3  v092
 BYTE   W48
 BYTE   Fs3
 BYTE   W48
 BYTE   PATT
  POIN2 Label_2_010046D8
 BYTE   PATT
  POIN2 Label_2_010046DF
 BYTE   PATT
  POIN2 Label_2_010046E6
 BYTE   PATT
  POIN2 Label_2_010046ED
 BYTE   PATT
  POIN2 Label_2_010046F8
 BYTE   PATT
  POIN2 Label_2_01004716
 BYTE   PATT
  POIN2 Label_2_0100473C
 BYTE   PATT
  POIN2 Label_2_0100475F
 BYTE   PATT
  POIN2 Label_2_0100476A
 BYTE   PATT
  POIN2 Label_2_01004788
 BYTE   PATT
  POIN2 Label_2_010047AA
// 079   ----------------------------------------
 BYTE   W96
// 080   ----------------------------------------
 BYTE   W96
// 081   ----------------------------------------
 BYTE   W96
// 082   ----------------------------------------
 BYTE   W96
// 083   ----------------------------------------
 BYTE   W96
// 084   ----------------------------------------
 BYTE   W96
// 085   ----------------------------------------
 BYTE   W96
 BYTE   PATT
  POIN2 Label_2_010047D0
 BYTE   PATT
  POIN2 Label_2_010047D4
 BYTE   PATT
  POIN2 Label_2_010047EE
 BYTE   PATT
  POIN2 Label_2_010047F9
 BYTE   PATT
  POIN2 Label_2_01004804
 BYTE   PATT
  POIN2 Label_2_01004822
 BYTE   PATT
  POIN2 Label_2_0100482F
 BYTE   PATT
  POIN2 Label_2_0100483A
 BYTE   PATT
  POIN2 Label_2_01004855
 BYTE   PATT
  POIN2 Label_2_0100486E
 BYTE   PATT
  POIN2 Label_2_01004889
 BYTE   PATT
  POIN2 Label_2_010048A4
 BYTE   PATT
  POIN2 Label_2_010048BF
 BYTE   PATT
  POIN2 Label_2_010048DA
 BYTE   PATT
  POIN2 Label_2_010048F5
 BYTE   PATT
  POIN2 Label_2_01004910
 BYTE   PATT
  POIN2 Label_2_0100492B
// 086   ----------------------------------------
 BYTE   W96
// 087   ----------------------------------------
 BYTE   W96
// 088   ----------------------------------------
 BYTE   W96
// 089   ----------------------------------------
 BYTE   W96
 BYTE   PATT
  POIN2 Label_2_01004551
 BYTE   PATT
  POIN2 Label_2_01004566
 BYTE   PATT
  POIN2 Label_2_01004583
 BYTE   PATT
  POIN2 Label_2_010045A5
 BYTE   PATT
  POIN2 Label_2_010045D7
 BYTE   PATT
  POIN2 Label_2_010045EF
 BYTE   PATT
  POIN2 Label_2_0100460A
 BYTE   PATT
  POIN2 Label_2_0100462E
 BYTE   PATT
  POIN2 Label_2_01004652
 BYTE   PATT
  POIN2 Label_2_01004672
 BYTE   PATT
  POIN2 Label_2_01004692
 BYTE   PATT
  POIN2 Label_2_010046B1
// 090   ----------------------------------------
 BYTE   W96
// 091   ----------------------------------------
 BYTE   W96
// 092   ----------------------------------------
 BYTE   W96
// 093   ----------------------------------------
 BYTE   W72
 BYTE   W24
// 094   ----------------------------------------
 BYTE   N44  En3  v092
 BYTE   W48
 BYTE   Fs3
 BYTE   W48
 BYTE   PATT
  POIN2 Label_2_010046D8
 BYTE   PATT
  POIN2 Label_2_010046DF
 BYTE   PATT
  POIN2 Label_2_010046E6
 BYTE   PATT
  POIN2 Label_2_010046ED
 BYTE   PATT
  POIN2 Label_2_010046F8
 BYTE   PATT
  POIN2 Label_2_01004716
 BYTE   PATT
  POIN2 Label_2_0100473C
 BYTE   PATT
  POIN2 Label_2_0100475F
 BYTE   PATT
  POIN2 Label_2_0100476A
 BYTE   PATT
  POIN2 Label_2_01004788
 BYTE   PATT
  POIN2 Label_2_010047AA
// 095   ----------------------------------------
 BYTE   W96
// 096   ----------------------------------------
 BYTE   W96
// 097   ----------------------------------------
 BYTE   W96
// 098   ----------------------------------------
 BYTE   W96
// 099   ----------------------------------------
 BYTE   W96
// 100   ----------------------------------------
 BYTE   W96
// 101   ----------------------------------------
 BYTE   W96
 BYTE   PATT
  POIN2 Label_2_010047D0
 BYTE   PATT
  POIN2 Label_2_010047D4
 BYTE   PATT
  POIN2 Label_2_010047EE
 BYTE   PATT
  POIN2 Label_2_010047F9
 BYTE   PATT
  POIN2 Label_2_01004804
 BYTE   PATT
  POIN2 Label_2_01004822
 BYTE   PATT
  POIN2 Label_2_0100482F
 BYTE   PATT
  POIN2 Label_2_0100483A
 BYTE   PATT
  POIN2 Label_2_01004855
 BYTE   PATT
  POIN2 Label_2_0100486E
 BYTE   PATT
  POIN2 Label_2_01004889
 BYTE   PATT
  POIN2 Label_2_010048A4
 BYTE   PATT
  POIN2 Label_2_010048BF
 BYTE   PATT
  POIN2 Label_2_010048DA
 BYTE   PATT
  POIN2 Label_2_010048F5
 BYTE   PATT
  POIN2 Label_2_01004910
 BYTE   PATT
  POIN2 Label_2_0100492B
// 102   ----------------------------------------
 BYTE   W96
// 103   ----------------------------------------
 BYTE   W96
 BYTE   FINE

//**************** Track 4 (Midi-Chn.3) ****************//

MountHorn_004:
// 000   ----------------------------------------
 BYTE   KEYSH   MountHorn_key+0
 BYTE   W24
 BYTE   VOICE   62
 BYTE   VOL   25*MountHorn_mvl/mxv
 BYTE   PAN   c_v-64
 BYTE   BEND   c_v+0
 BYTE   W96
// 001   ----------------------------------------
 BYTE   W96
// 002   ----------------------------------------
Label_3_01004BF5:
 BYTE   W12
 BYTE   N13  En3  v127
 BYTE   W24
 BYTE   Fs3
 BYTE   W24
 BYTE   N60  Gn3
 BYTE   W28
 BYTE   W05
 BYTE   W01
 BYTE   W02
 BYTE   PEND 
// 003   ----------------------------------------
Label_3_01004C03:
 BYTE   W01
 BYTE   W02
 BYTE   W01
 BYTE   W02
 BYTE   W01
 BYTE   W02
 BYTE   W01
 BYTE   W02
 BYTE   W01
 BYTE   W02
 BYTE   W01
 BYTE   W02
 BYTE   W01
 BYTE   W02
 BYTE   W01
 BYTE   W02
 BYTE   W01
 BYTE   W11
 BYTE   N05  Fs3  v127
 BYTE   W08
 BYTE   Gn3
 BYTE   W08
 BYTE   An3
 BYTE   W08
 BYTE   Gn3
 BYTE   W08
 BYTE   Fs3
 BYTE   W08
 BYTE   N21  En3
 BYTE   W20
 BYTE   PEND 
// 004   ----------------------------------------
Label_3_01004C25:
 BYTE   W04
 BYTE   N05  Dn3  v127
 BYTE   W08
 BYTE   N28  En3
 BYTE   W12
 BYTE   W03
 BYTE   W01
 BYTE   W02
 BYTE   W01
 BYTE   W02
 BYTE   W01
 BYTE   W02
 BYTE   W01
 BYTE   W02
 BYTE   W13
 BYTE   N05  Dn3
 BYTE   W08
 BYTE   N28  Cn3
 BYTE   W15
 BYTE   W04
 BYTE   W02
 BYTE   W01
 BYTE   W02
 BYTE   W01
 BYTE   W02
 BYTE   W01
 BYTE   W02
 BYTE   W01
 BYTE   W05
 BYTE   PEND 
// 005   ----------------------------------------
Label_3_01004C48:
 BYTE   W04
 BYTE   N05  Bn2  v127
 BYTE   W08
 BYTE   N44  As2
 BYTE   W13
 BYTE   W08
 BYTE   W03
 BYTE   W01
 BYTE   W02
 BYTE   W01
 BYTE   W02
 BYTE   W01
 BYTE   W01
 BYTE   W01
 BYTE   W01
 BYTE   W02
 BYTE   W01
 BYTE   W01
 BYTE   W01
 BYTE   W01
 BYTE   W02
 BYTE   W01
 BYTE   W01
 BYTE   W01
 BYTE   W01
 BYTE   W02
 BYTE   An2
 BYTE   W13
 BYTE   W06
 BYTE   W02
 BYTE   W01
 BYTE   W02
 BYTE   W01
 BYTE   W01
 BYTE   W01
 BYTE   W01
 BYTE   W02
 BYTE   W01
 BYTE   W01
 BYTE   W01
 BYTE   W01
 BYTE   W02
 BYTE   PEND 
// 006   ----------------------------------------
Label_3_01004C76:
 BYTE   W01
 BYTE   W01
 BYTE   W01
 BYTE   W01
 BYTE   W02
 BYTE   W01
 BYTE   W01
 BYTE   W04
 BYTE   N13  En3  v127
 BYTE   W24
 BYTE   Fs3
 BYTE   W24
 BYTE   N60  Gn3
 BYTE   W24
 BYTE   W03
 BYTE   W03
 BYTE   W01
 BYTE   W02
 BYTE   W01
 BYTE   W02
 BYTE   PEND 
// 007   ----------------------------------------
Label_3_01004C8E:
 BYTE   W01
 BYTE   W02
 BYTE   W01
 BYTE   W02
 BYTE   W01
 BYTE   W02
 BYTE   W01
 BYTE   W02
 BYTE   W01
 BYTE   W02
 BYTE   W01
 BYTE   W02
 BYTE   W01
 BYTE   W02
 BYTE   W01
 BYTE   W14
 BYTE   N05  Fs3  v127
 BYTE   W08
 BYTE   Gn3
 BYTE   W08
 BYTE   An3
 BYTE   W08
 BYTE   Gn3
 BYTE   W08
 BYTE   Fs3
 BYTE   W08
 BYTE   N21  En3
 BYTE   W20
 BYTE   PEND 
// 008   ----------------------------------------
Label_3_01004CAE:
 BYTE   W04
 BYTE   N05  Dn3  v127
 BYTE   W08
 BYTE   N28  En3
 BYTE   W18
 BYTE   W03
 BYTE   W01
 BYTE   W02
 BYTE   W01
 BYTE   W02
 BYTE   W01
 BYTE   W02
 BYTE   W01
 BYTE   W02
 BYTE   W07
 BYTE   N05  Dn3
 BYTE   W02
 BYTE   W06
 BYTE   N28  Cn3
 BYTE   W08
 BYTE   W02
 BYTE   W02
 BYTE   W02
 BYTE   W02
 BYTE   W02
 BYTE   W02
 BYTE   W02
 BYTE   W02
 BYTE   W02
 BYTE   W10
 BYTE   PEND 
// 009   ----------------------------------------
Label_3_01004CD2:
 BYTE   W02
 BYTE   W02
 BYTE   N05  Bn2  v127
 BYTE   W08
 BYTE   N28  Cn3
 BYTE   W10
 BYTE   W02
 BYTE   W02
 BYTE   W02
 BYTE   W02
 BYTE   W02
 BYTE   W02
 BYTE   W02
 BYTE   W02
 BYTE   W02
 BYTE   W02
 BYTE   W08
 BYTE   W02
 BYTE   N05  Bn2
 BYTE   W08
 BYTE   N28  An2
 BYTE   W08
 BYTE   W04
 BYTE   W02
 BYTE   W02
 BYTE   W02
 BYTE   W02
 BYTE   W02
 BYTE   W02
 BYTE   W02
 BYTE   W10
 BYTE   PEND 
// 010   ----------------------------------------
Label_3_01004CF7:
 BYTE   W02
 BYTE   W02
 BYTE   N05  Bn2  v127
 BYTE   W08
 BYTE   N68  As2
 BYTE   W20
 BYTE   W04
 BYTE   W02
 BYTE   W04
 BYTE   W02
 BYTE   W02
 BYTE   W02
 BYTE   W02
 BYTE   W02
 BYTE   W02
 BYTE   W02
 BYTE   W02
 BYTE   W02
 BYTE   W02
 BYTE   W02
 BYTE   W02
 BYTE   W02
 BYTE   W02
 BYTE   W02
 BYTE   W02
 BYTE   W02
 BYTE   W02
 BYTE   W02
 BYTE   W16
 BYTE   PEND 
// 011   ----------------------------------------
Label_3_01004D18:
 BYTE   W02
 BYTE   W02
 BYTE   N05  An2  v127
 BYTE   W08
 BYTE   N28  As2
 BYTE   W12
 BYTE   W02
 BYTE   W02
 BYTE   W02
 BYTE   W02
 BYTE   W02
 BYTE   W02
 BYTE   W02
 BYTE   W02
 BYTE   W10
 BYTE   W02
 BYTE   N05  Bn2
 BYTE   W08
 BYTE   N28  As2
 BYTE   W12
 BYTE   W04
 BYTE   W02
 BYTE   W02
 BYTE   W02
 BYTE   W02
 BYTE   W02
 BYTE   W02
 BYTE   W08
 BYTE   PEND 
// 012   ----------------------------------------
Label_3_01004D3A:
 BYTE   W04
 BYTE   N05  An2  v127
 BYTE   W08
 BYTE   N92  As2
 BYTE   W28
 BYTE   W06
 BYTE   W04
 BYTE   W02
 BYTE   W04
 BYTE   W02
 BYTE   W02
 BYTE   W02
 BYTE   W02
 BYTE   W02
 BYTE   W02
 BYTE   W02
 BYTE   W02
 BYTE   W02
 BYTE   W02
 BYTE   W02
 BYTE   W02
 BYTE   W02
 BYTE   W02
 BYTE   W02
 BYTE   W02
 BYTE   W02
 BYTE   W02
 BYTE   W02
 BYTE   W02
 BYTE   PEND 
// 013   ----------------------------------------
Label_3_01004D5B:
 BYTE   W02
 BYTE   W10
 BYTE   N92  An2  v127
 BYTE   W40
 BYTE   W06
 BYTE   W04
 BYTE   W02
 BYTE   W02
 BYTE   W02
 BYTE   W02
 BYTE   W02
 BYTE   W02
 BYTE   W02
 BYTE   W02
 BYTE   W02
 BYTE   W02
 BYTE   W02
 BYTE   W02
 BYTE   W02
 BYTE   W02
 BYTE   W02
 BYTE   W02
 BYTE   W02
 BYTE   PEND 
// 014   ----------------------------------------
Label_3_01004D75:
 BYTE   W02
 BYTE   W02
 BYTE   W02
 BYTE   W90
 BYTE   PEND 
// 015   ----------------------------------------
 BYTE   W96
// 016   ----------------------------------------
 BYTE   W96
// 017   ----------------------------------------
 BYTE   W84
 BYTE   W12
// 018   ----------------------------------------
Label_3_01004D7E:
 BYTE   W12
 BYTE   N44  En2  v092
 BYTE   W48
 BYTE   Fs2
 BYTE   W36
 BYTE   PEND 
// 019   ----------------------------------------
Label_3_01004D86:
 BYTE   W12
 BYTE   N44  Gn2  v092
 BYTE   W48
 BYTE   An2
 BYTE   W36
 BYTE   PEND 
// 020   ----------------------------------------
Label_3_01004D8E:
 BYTE   W12
 BYTE   N44  As2  v092
 BYTE   W48
 BYTE   Cn3
 BYTE   W36
 BYTE   PEND 
// 021   ----------------------------------------
Label_3_01004D96:
 BYTE   W12
 BYTE   N44  Cs3  v092
 BYTE   W48
 BYTE   Ds3
 BYTE   W36
 BYTE   PEND 
// 022   ----------------------------------------
Label_3_01004D9E:
 BYTE   W12
 BYTE   N13  Fs3  v127
 BYTE   W24
 BYTE   En3
 BYTE   W24
 BYTE   Fs3
 BYTE   W24
 BYTE   Dn3
 BYTE   W12
 BYTE   PEND 
// 023   ----------------------------------------
Label_3_01004DAA:
 BYTE   W12
 BYTE   N05  En3  v127
 BYTE   W08
 BYTE   Fs3
 BYTE   W08
 BYTE   Gn3
 BYTE   W08
 BYTE   N36  Fs3
 BYTE   W12
 BYTE   W04
 BYTE   W02
 BYTE   W02
 BYTE   W02
 BYTE   W02
 BYTE   W02
 BYTE   W02
 BYTE   W02
 BYTE   W02
 BYTE   W02
 BYTE   W02
 BYTE   W02
 BYTE   W02
 BYTE   W02
 BYTE   W06
 BYTE   N13  Dn3
 BYTE   W12
 BYTE   PEND 
// 024   ----------------------------------------
Label_3_01004DC9:
 BYTE   W12
 BYTE   N05  En3  v127
 BYTE   W08
 BYTE   Fs3
 BYTE   W08
 BYTE   Gn3
 BYTE   W08
 BYTE   N52  An3
 BYTE   W14
 BYTE   W06
 BYTE   W02
 BYTE   W02
 BYTE   W02
 BYTE   W02
 BYTE   W02
 BYTE   W02
 BYTE   W02
 BYTE   W02
 BYTE   W02
 BYTE   W02
 BYTE   W02
 BYTE   W02
 BYTE   W02
 BYTE   W02
 BYTE   W02
 BYTE   W02
 BYTE   W02
 BYTE   W02
 BYTE   W02
 BYTE   W02
 BYTE   PEND 
// 025   ----------------------------------------
Label_3_01004DEB:
 BYTE   W02
 BYTE   W02
 BYTE   N05  Gn3  v127
 BYTE   W08
 BYTE   N28  Fs3
 BYTE   W14
 BYTE   W04
 BYTE   W02
 BYTE   W02
 BYTE   W02
 BYTE   W02
 BYTE   W02
 BYTE   W02
 BYTE   W02
 BYTE   W02
 BYTE   W02
 BYTE   W04
 BYTE   N05  En3
 BYTE   W08
 BYTE   N36  Dn3
 BYTE   W14
 BYTE   W04
 BYTE   W02
 BYTE   W02
 BYTE   W02
 BYTE   W02
 BYTE   W02
 BYTE   W02
 BYTE   W02
 BYTE   W02
 BYTE   W02
 BYTE   PEND 
// 026   ----------------------------------------
Label_3_01004E10:
 BYTE   W02
 BYTE   W02
 BYTE   W08
 BYTE   N13  Fs4  v127
 BYTE   W24
 BYTE   En4
 BYTE   W24
 BYTE   Fs4
 BYTE   W24
 BYTE   Dn4
 BYTE   W12
 BYTE   PEND 
// 027   ----------------------------------------
Label_3_01004E1E:
 BYTE   W12
 BYTE   N05  En4  v127
 BYTE   W08
 BYTE   Fs4
 BYTE   W08
 BYTE   Gn4
 BYTE   W08
 BYTE   N36  Fs4
 BYTE   W10
 BYTE   W04
 BYTE   W02
 BYTE   W02
 BYTE   W02
 BYTE   W02
 BYTE   W02
 BYTE   W02
 BYTE   W02
 BYTE   W02
 BYTE   W02
 BYTE   W02
 BYTE   W02
 BYTE   W02
 BYTE   W02
 BYTE   W08
 BYTE   N13  Dn4
 BYTE   W12
 BYTE   PEND 
// 028   ----------------------------------------
Label_3_01004E3D:
 BYTE   W12
 BYTE   N05  En4  v127
 BYTE   W08
 BYTE   Fs4
 BYTE   W08
 BYTE   Gn4
 BYTE   W08
 BYTE   N52  An4
 BYTE   W16
 BYTE   W04
 BYTE   W04
 BYTE   W02
 BYTE   W02
 BYTE   W02
 BYTE   W02
 BYTE   W02
 BYTE   W02
 BYTE   W02
 BYTE   W02
 BYTE   W02
 BYTE   W02
 BYTE   W02
 BYTE   W02
 BYTE   W02
 BYTE   W02
 BYTE   W02
 BYTE   W02
 BYTE   W04
 BYTE   PEND 
// 029   ----------------------------------------
Label_3_01004E5D:
 BYTE   W04
 BYTE   N05  Gn4  v127
 BYTE   W08
 BYTE   N28  Fs4
 BYTE   W10
 BYTE   W02
 BYTE   W02
 BYTE   W02
 BYTE   W02
 BYTE   W02
 BYTE   W02
 BYTE   W02
 BYTE   W02
 BYTE   W12
 BYTE   W02
 BYTE   N05  En4
 BYTE   W08
 BYTE   N36  Dn4
 BYTE   W12
 BYTE   W04
 BYTE   W02
 BYTE   W02
 BYTE   W02
 BYTE   W02
 BYTE   W02
 BYTE   W02
 BYTE   W02
 BYTE   W02
 BYTE   W04
 BYTE   PEND 
// 030   ----------------------------------------
 BYTE   W96
// 031   ----------------------------------------
 BYTE   W96
// 032   ----------------------------------------
 BYTE   W96
// 033   ----------------------------------------
 BYTE   W96
// 034   ----------------------------------------
 BYTE   W96
// 035   ----------------------------------------
 BYTE   W96
// 036   ----------------------------------------
 BYTE   W96
// 037   ----------------------------------------
 BYTE   W96
// 038   ----------------------------------------
Label_3_01004E88:
 BYTE   W10
 BYTE   W02
 BYTE   N13  Cs4  v127
 BYTE   W24
 BYTE   En4
 BYTE   W24
 BYTE   N28  Ds4
 BYTE   W10
 BYTE   W06
 BYTE   W02
 BYTE   W02
 BYTE   W02
 BYTE   W02
 BYTE   W02
 BYTE   W02
 BYTE   W02
 BYTE   W02
 BYTE   W02
 BYTE   W02
 BYTE   PEND 
// 039   ----------------------------------------
Label_3_01004E9F:
 BYTE   W02
 BYTE   W02
 BYTE   N05  Bn3  v127
 BYTE   W08
 BYTE   N13  Cs4
 BYTE   W24
 BYTE   En4
 BYTE   W24
 BYTE   Ds4
 BYTE   W24
 BYTE   Fs4
 BYTE   W12
 BYTE   PEND 
// 040   ----------------------------------------
Label_3_01004EAF:
 BYTE   W12
 BYTE   N13  Bn3  v127
 BYTE   W24
 BYTE   Dn4
 BYTE   W24
 BYTE   Cs4
 BYTE   W24
 BYTE   An3
 BYTE   W12
 BYTE   PEND 
// 041   ----------------------------------------
Label_3_01004EBB:
 BYTE   W12
 BYTE   N05  Bn3  v127
 BYTE   W16
 BYTE   Fs4
 BYTE   W08
 BYTE   N60
 BYTE   W14
 BYTE   W08
 BYTE   W02
 BYTE   W02
 BYTE   W02
 BYTE   W02
 BYTE   W02
 BYTE   W02
 BYTE   W02
 BYTE   W02
 BYTE   W02
 BYTE   W02
 BYTE   W02
 BYTE   W02
 BYTE   W02
 BYTE   W02
 BYTE   W02
 BYTE   W02
 BYTE   W02
 BYTE   W02
 BYTE   W02
 BYTE   PEND 
// 042   ----------------------------------------
Label_3_01004ED9:
 BYTE   W10
 BYTE   W02
 BYTE   N13  Cs4  v127
 BYTE   W24
 BYTE   En4
 BYTE   W24
 BYTE   N28  Ds4
 BYTE   W36
 BYTE   PEND 
// 043   ----------------------------------------
Label_3_01004EE5:
 BYTE   W04
 BYTE   N05  Bn3  v127
 BYTE   W08
 BYTE   N13  Cs4
 BYTE   W24
 BYTE   Gs4
 BYTE   W24
 BYTE   Fs4
 BYTE   W24
 BYTE   Ds4
 BYTE   W12
 BYTE   PEND 
// 044   ----------------------------------------
Label_3_01004EF4:
 BYTE   W12
 BYTE   N05  Dn4  v127
 BYTE   W08
 BYTE   En4
 BYTE   W08
 BYTE   Fs4
 BYTE   W08
 BYTE   N28  Dn4
 BYTE   W10
 BYTE   W04
 BYTE   W02
 BYTE   W02
 BYTE   W02
 BYTE   W02
 BYTE   W02
 BYTE   W02
 BYTE   W02
 BYTE   W12
 BYTE   W08
 BYTE   N05  Bn3
 BYTE   W12
 BYTE   PEND 
// 045   ----------------------------------------
Label_3_01004F0E:
 BYTE   W04
 BYTE   N05  Dn4  v127
 BYTE   W08
 BYTE   N36  En4
 BYTE   W12
 BYTE   W04
 BYTE   W02
 BYTE   W02
 BYTE   W02
 BYTE   W02
 BYTE   W02
 BYTE   W02
 BYTE   W02
 BYTE   W02
 BYTE   W02
 BYTE   W02
 BYTE   W02
 BYTE   W08
 BYTE   W02
 BYTE   N13  Dn4
 BYTE   W24
 BYTE   N20  Cn4
 BYTE   W12
 BYTE   PEND 
// 046   ----------------------------------------
Label_3_01004F2B:
 BYTE   W12
 BYTE   N03  An3  v127
 BYTE   W08
 BYTE   N04
 BYTE   W08
 BYTE   N04
 BYTE   W08
 BYTE   Fn3
 BYTE   W08
 BYTE   N04
 BYTE   W08
 BYTE   N04
 BYTE   W08
 BYTE   Cn4
 BYTE   W08
 BYTE   N04
 BYTE   W08
 BYTE   N04
 BYTE   W08
 BYTE   An3
 BYTE   W08
 BYTE   N04
 BYTE   W04
 BYTE   PEND 
// 047   ----------------------------------------
Label_3_01004F45:
 BYTE   W04
 BYTE   N04  An3  v127
 BYTE   W08
 BYTE   Bn3
 BYTE   W08
 BYTE   N04
 BYTE   W08
 BYTE   N04
 BYTE   W08
 BYTE   Gn3
 BYTE   W08
 BYTE   N04
 BYTE   W08
 BYTE   N04
 BYTE   W08
 BYTE   Dn4
 BYTE   W08
 BYTE   N04
 BYTE   W08
 BYTE   N04
 BYTE   W08
 BYTE   Bn3
 BYTE   W08
 BYTE   N04
 BYTE   W04
 BYTE   PEND 
// 048   ----------------------------------------
Label_3_01004F61:
 BYTE   W04
 BYTE   N04  Bn3  v127
 BYTE   W08
 BYTE   Cn4
 BYTE   W08
 BYTE   N04
 BYTE   W08
 BYTE   N04
 BYTE   W08
 BYTE   An3
 BYTE   W08
 BYTE   N04
 BYTE   W08
 BYTE   N04
 BYTE   W08
 BYTE   En4
 BYTE   W08
 BYTE   N04
 BYTE   W08
 BYTE   N04
 BYTE   W08
 BYTE   Cn4
 BYTE   W08
 BYTE   N04
 BYTE   W04
 BYTE   PEND 
// 049   ----------------------------------------
Label_3_01004F7D:
 BYTE   W04
 BYTE   N04  Cn4  v127
 BYTE   W08
 BYTE   Fs4
 BYTE   W08
 BYTE   N04
 BYTE   W08
 BYTE   N04
 BYTE   W08
 BYTE   Dn4
 BYTE   W08
 BYTE   N04
 BYTE   W08
 BYTE   N04
 BYTE   W08
 BYTE   Bn3
 BYTE   W08
 BYTE   N04
 BYTE   W08
 BYTE   N04
 BYTE   W08
 BYTE   Fs3
 BYTE   W08
 BYTE   N04
 BYTE   W04
 BYTE   PEND 
// 050   ----------------------------------------
Label_3_01004F99:
 BYTE   W04
 BYTE   N04  Fs3  v127
 BYTE   W08
 BYTE   Gn4
 BYTE   W08
 BYTE   N04
 BYTE   W08
 BYTE   N04
 BYTE   W08
 BYTE   Ds4
 BYTE   W08
 BYTE   N04
 BYTE   W08
 BYTE   N04
 BYTE   W08
 BYTE   Cn4
 BYTE   W08
 BYTE   N04
 BYTE   W08
 BYTE   N04
 BYTE   W08
 BYTE   Gn4
 BYTE   W08
 BYTE   N04
 BYTE   W04
 BYTE   PEND 
// 051   ----------------------------------------
Label_3_01004FB5:
 BYTE   W04
 BYTE   N04  Gn4  v127
 BYTE   W08
 BYTE   An4
 BYTE   W08
 BYTE   N04
 BYTE   W08
 BYTE   N04
 BYTE   W08
 BYTE   Fn4
 BYTE   W08
 BYTE   N04
 BYTE   W08
 BYTE   N04
 BYTE   W08
 BYTE   Cn4
 BYTE   W08
 BYTE   N04
 BYTE   W08
 BYTE   N04
 BYTE   W08
 BYTE   An4
 BYTE   W08
 BYTE   N04
 BYTE   W04
 BYTE   PEND 
// 052   ----------------------------------------
Label_3_01004FD1:
 BYTE   W04
 BYTE   N04  An4  v127
 BYTE   W08
 BYTE   N32  Bn4
 BYTE   W12
 BYTE   W06
 BYTE   W02
 BYTE   W02
 BYTE   W02
 BYTE   W02
 BYTE   W02
 BYTE   W02
 BYTE   W02
 BYTE   W02
 BYTE   W02
 BYTE   W02
 BYTE   W02
 BYTE   W02
 BYTE   W02
 BYTE   W02
 BYTE   W02
 BYTE   N24  Gn4
 BYTE   W36
 BYTE   PEND 
// 053   ----------------------------------------
Label_3_01004FED:
 BYTE   W04
 BYTE   N04  Dn4  v127
 BYTE   W08
 BYTE   N72
 BYTE   W18
 BYTE   W06
 BYTE   W04
 BYTE   W02
 BYTE   W02
 BYTE   W02
 BYTE   W02
 BYTE   W02
 BYTE   W02
 BYTE   W02
 BYTE   W02
 BYTE   W02
 BYTE   W02
 BYTE   W02
 BYTE   W02
 BYTE   W02
 BYTE   W02
 BYTE   W02
 BYTE   W02
 BYTE   W02
 BYTE   W02
 BYTE   W02
 BYTE   W02
 BYTE   W02
 BYTE   W02
 BYTE   W02
 BYTE   W10
 BYTE   PEND 
// 054   ----------------------------------------
 BYTE   W96
// 055   ----------------------------------------
 BYTE   W96
// 056   ----------------------------------------
 BYTE   W96
// 057   ----------------------------------------
 BYTE   W96
 BYTE   PATT
  POIN2 Label_3_01004BF5
 BYTE   PATT
  POIN2 Label_3_01004C03
 BYTE   PATT
  POIN2 Label_3_01004C25
 BYTE   PATT
  POIN2 Label_3_01004C48
 BYTE   PATT
  POIN2 Label_3_01004C76
 BYTE   PATT
  POIN2 Label_3_01004C8E
 BYTE   PATT
  POIN2 Label_3_01004CAE
 BYTE   PATT
  POIN2 Label_3_01004CD2
 BYTE   PATT
  POIN2 Label_3_01004CF7
 BYTE   PATT
  POIN2 Label_3_01004D18
 BYTE   PATT
  POIN2 Label_3_01004D3A
 BYTE   PATT
  POIN2 Label_3_01004D5B
 BYTE   PATT
  POIN2 Label_3_01004D75
// 058   ----------------------------------------
 BYTE   W96
// 059   ----------------------------------------
 BYTE   W96
// 060   ----------------------------------------
 BYTE   W84
 BYTE   W12
 BYTE   PATT
  POIN2 Label_3_01004D7E
 BYTE   PATT
  POIN2 Label_3_01004D86
 BYTE   PATT
  POIN2 Label_3_01004D8E
 BYTE   PATT
  POIN2 Label_3_01004D96
 BYTE   PATT
  POIN2 Label_3_01004D9E
 BYTE   PATT
  POIN2 Label_3_01004DAA
 BYTE   PATT
  POIN2 Label_3_01004DC9
 BYTE   PATT
  POIN2 Label_3_01004DEB
 BYTE   PATT
  POIN2 Label_3_01004E10
 BYTE   PATT
  POIN2 Label_3_01004E1E
 BYTE   PATT
  POIN2 Label_3_01004E3D
 BYTE   PATT
  POIN2 Label_3_01004E5D
// 061   ----------------------------------------
 BYTE   W96
// 062   ----------------------------------------
 BYTE   W96
// 063   ----------------------------------------
 BYTE   W96
// 064   ----------------------------------------
 BYTE   W96
// 065   ----------------------------------------
 BYTE   W96
// 066   ----------------------------------------
 BYTE   W96
// 067   ----------------------------------------
 BYTE   W96
// 068   ----------------------------------------
 BYTE   W96
 BYTE   PATT
  POIN2 Label_3_01004E88
 BYTE   PATT
  POIN2 Label_3_01004E9F
 BYTE   PATT
  POIN2 Label_3_01004EAF
 BYTE   PATT
  POIN2 Label_3_01004EBB
 BYTE   PATT
  POIN2 Label_3_01004ED9
 BYTE   PATT
  POIN2 Label_3_01004EE5
 BYTE   PATT
  POIN2 Label_3_01004EF4
 BYTE   PATT
  POIN2 Label_3_01004F0E
 BYTE   PATT
  POIN2 Label_3_01004F2B
 BYTE   PATT
  POIN2 Label_3_01004F45
 BYTE   PATT
  POIN2 Label_3_01004F61
 BYTE   PATT
  POIN2 Label_3_01004F7D
 BYTE   PATT
  POIN2 Label_3_01004F99
 BYTE   PATT
  POIN2 Label_3_01004FB5
 BYTE   PATT
  POIN2 Label_3_01004FD1
 BYTE   PATT
  POIN2 Label_3_01004FED
// 069   ----------------------------------------
 BYTE   W96
// 070   ----------------------------------------
 BYTE   W96
// 071   ----------------------------------------
 BYTE   W96
// 072   ----------------------------------------
 BYTE   W96
 BYTE   PATT
  POIN2 Label_3_01004BF5
 BYTE   PATT
  POIN2 Label_3_01004C03
 BYTE   PATT
  POIN2 Label_3_01004C25
 BYTE   PATT
  POIN2 Label_3_01004C48
 BYTE   PATT
  POIN2 Label_3_01004C76
 BYTE   PATT
  POIN2 Label_3_01004C8E
 BYTE   PATT
  POIN2 Label_3_01004CAE
 BYTE   PATT
  POIN2 Label_3_01004CD2
 BYTE   PATT
  POIN2 Label_3_01004CF7
 BYTE   PATT
  POIN2 Label_3_01004D18
 BYTE   PATT
  POIN2 Label_3_01004D3A
 BYTE   PATT
  POIN2 Label_3_01004D5B
 BYTE   PATT
  POIN2 Label_3_01004D75
// 073   ----------------------------------------
 BYTE   W96
// 074   ----------------------------------------
 BYTE   W96
// 075   ----------------------------------------
 BYTE   W84
 BYTE   W12
 BYTE   PATT
  POIN2 Label_3_01004D7E
 BYTE   PATT
  POIN2 Label_3_01004D86
 BYTE   PATT
  POIN2 Label_3_01004D8E
 BYTE   PATT
  POIN2 Label_3_01004D96
 BYTE   PATT
  POIN2 Label_3_01004D9E
 BYTE   PATT
  POIN2 Label_3_01004DAA
 BYTE   PATT
  POIN2 Label_3_01004DC9
 BYTE   PATT
  POIN2 Label_3_01004DEB
 BYTE   PATT
  POIN2 Label_3_01004E10
 BYTE   PATT
  POIN2 Label_3_01004E1E
 BYTE   PATT
  POIN2 Label_3_01004E3D
 BYTE   PATT
  POIN2 Label_3_01004E5D
// 076   ----------------------------------------
 BYTE   W96
// 077   ----------------------------------------
 BYTE   W96
// 078   ----------------------------------------
 BYTE   W96
// 079   ----------------------------------------
 BYTE   W96
// 080   ----------------------------------------
 BYTE   W96
// 081   ----------------------------------------
 BYTE   W96
// 082   ----------------------------------------
 BYTE   W96
// 083   ----------------------------------------
 BYTE   W96
 BYTE   PATT
  POIN2 Label_3_01004E88
 BYTE   PATT
  POIN2 Label_3_01004E9F
 BYTE   PATT
  POIN2 Label_3_01004EAF
 BYTE   PATT
  POIN2 Label_3_01004EBB
 BYTE   PATT
  POIN2 Label_3_01004ED9
 BYTE   PATT
  POIN2 Label_3_01004EE5
 BYTE   PATT
  POIN2 Label_3_01004EF4
 BYTE   PATT
  POIN2 Label_3_01004F0E
 BYTE   PATT
  POIN2 Label_3_01004F2B
 BYTE   PATT
  POIN2 Label_3_01004F45
 BYTE   PATT
  POIN2 Label_3_01004F61
 BYTE   PATT
  POIN2 Label_3_01004F7D
 BYTE   PATT
  POIN2 Label_3_01004F99
 BYTE   PATT
  POIN2 Label_3_01004FB5
 BYTE   PATT
  POIN2 Label_3_01004FD1
 BYTE   PATT
  POIN2 Label_3_01004FED
// 084   ----------------------------------------
 BYTE   W96
// 085   ----------------------------------------
 BYTE   W96
// 086   ----------------------------------------
 BYTE   W96
// 087   ----------------------------------------
 BYTE   W96
 BYTE   PATT
  POIN2 Label_3_01004BF5
 BYTE   PATT
  POIN2 Label_3_01004C03
 BYTE   PATT
  POIN2 Label_3_01004C25
 BYTE   PATT
  POIN2 Label_3_01004C48
 BYTE   PATT
  POIN2 Label_3_01004C76
 BYTE   PATT
  POIN2 Label_3_01004C8E
 BYTE   PATT
  POIN2 Label_3_01004CAE
 BYTE   PATT
  POIN2 Label_3_01004CD2
 BYTE   PATT
  POIN2 Label_3_01004CF7
 BYTE   PATT
  POIN2 Label_3_01004D18
 BYTE   PATT
  POIN2 Label_3_01004D3A
 BYTE   PATT
  POIN2 Label_3_01004D5B
 BYTE   PATT
  POIN2 Label_3_01004D75
// 088   ----------------------------------------
 BYTE   W96
// 089   ----------------------------------------
 BYTE   W96
// 090   ----------------------------------------
 BYTE   W84
 BYTE   W12
 BYTE   PATT
  POIN2 Label_3_01004D7E
 BYTE   PATT
  POIN2 Label_3_01004D86
 BYTE   PATT
  POIN2 Label_3_01004D8E
 BYTE   PATT
  POIN2 Label_3_01004D96
 BYTE   PATT
  POIN2 Label_3_01004D9E
 BYTE   PATT
  POIN2 Label_3_01004DAA
 BYTE   PATT
  POIN2 Label_3_01004DC9
 BYTE   PATT
  POIN2 Label_3_01004DEB
 BYTE   PATT
  POIN2 Label_3_01004E10
 BYTE   PATT
  POIN2 Label_3_01004E1E
 BYTE   PATT
  POIN2 Label_3_01004E3D
 BYTE   PATT
  POIN2 Label_3_01004E5D
// 091   ----------------------------------------
 BYTE   W96
// 092   ----------------------------------------
 BYTE   W96
// 093   ----------------------------------------
 BYTE   W96
// 094   ----------------------------------------
 BYTE   W96
// 095   ----------------------------------------
 BYTE   W96
// 096   ----------------------------------------
 BYTE   W96
// 097   ----------------------------------------
 BYTE   W96
// 098   ----------------------------------------
 BYTE   W96
 BYTE   PATT
  POIN2 Label_3_01004E88
 BYTE   PATT
  POIN2 Label_3_01004E9F
 BYTE   PATT
  POIN2 Label_3_01004EAF
 BYTE   PATT
  POIN2 Label_3_01004EBB
 BYTE   PATT
  POIN2 Label_3_01004ED9
 BYTE   PATT
  POIN2 Label_3_01004EE5
 BYTE   PATT
  POIN2 Label_3_01004EF4
 BYTE   PATT
  POIN2 Label_3_01004F0E
 BYTE   PATT
  POIN2 Label_3_01004F2B
 BYTE   PATT
  POIN2 Label_3_01004F45
 BYTE   PATT
  POIN2 Label_3_01004F61
 BYTE   PATT
  POIN2 Label_3_01004F7D
 BYTE   PATT
  POIN2 Label_3_01004F99
 BYTE   PATT
  POIN2 Label_3_01004FB5
 BYTE   PATT
  POIN2 Label_3_01004FD1
 BYTE   PATT
  POIN2 Label_3_01004FED
// 099   ----------------------------------------
 BYTE   W96
// 100   ----------------------------------------
 BYTE   W96
 BYTE   FINE

//**************** Track 5 (Midi-Chn.4) ****************//

MountHorn_005:
// 000   ----------------------------------------
 BYTE   KEYSH   MountHorn_key+0
 BYTE   W24
 BYTE   VOICE   62
 BYTE   VOL   22*MountHorn_mvl/mxv
 BYTE   PAN   c_v+63
 BYTE   BEND   c_v+0
 BYTE   W96
// 001   ----------------------------------------
 BYTE   W96
// 002   ----------------------------------------
Label_4_010052B9:
 BYTE   W24
 BYTE   N06  En3  v127
 BYTE   W24
 BYTE   Fs3
 BYTE   W24
 BYTE   Gn3
 BYTE   W24
 BYTE   PEND 
// 003   ----------------------------------------
Label_4_010052C3:
 BYTE   W04
 BYTE   W05
 BYTE   W01
 BYTE   W02
 BYTE   W01
 BYTE   W02
 BYTE   W01
 BYTE   W02
 BYTE   W01
 BYTE   W02
 BYTE   W01
 BYTE   W02
 BYTE   W01
 BYTE   W02
 BYTE   W01
 BYTE   W02
 BYTE   W01
 BYTE   W02
 BYTE   W01
 BYTE   W02
 BYTE   W01
 BYTE   W11
 BYTE   N06  Fs3  v127
 BYTE   W08
 BYTE   Gn3
 BYTE   W08
 BYTE   An3
 BYTE   W08
 BYTE   Gn3
 BYTE   W08
 BYTE   Fs3
 BYTE   W08
 BYTE   En3
 BYTE   W08
 BYTE   PEND 
// 004   ----------------------------------------
Label_4_010052E8:
 BYTE   W16
 BYTE   N06  Dn3  v127
 BYTE   W08
 BYTE   En3
 BYTE   W12
 BYTE   W03
 BYTE   W01
 BYTE   W02
 BYTE   W01
 BYTE   W02
 BYTE   W01
 BYTE   W02
 BYTE   W01
 BYTE   W02
 BYTE   W13
 BYTE   Dn3
 BYTE   W08
 BYTE   Cn3
 BYTE   W15
 BYTE   W04
 BYTE   W02
 BYTE   W01
 BYTE   W02
 BYTE   PEND 
// 005   ----------------------------------------
Label_4_01005302:
 BYTE   W01
 BYTE   W02
 BYTE   W01
 BYTE   W02
 BYTE   W01
 BYTE   W09
 BYTE   N06  Bn2  v127
 BYTE   W08
 BYTE   As2
 BYTE   W13
 BYTE   W08
 BYTE   W03
 BYTE   W01
 BYTE   W02
 BYTE   W01
 BYTE   W02
 BYTE   W01
 BYTE   W01
 BYTE   W01
 BYTE   W01
 BYTE   W02
 BYTE   W01
 BYTE   W01
 BYTE   W01
 BYTE   W01
 BYTE   W02
 BYTE   W01
 BYTE   W01
 BYTE   W01
 BYTE   W01
 BYTE   W02
 BYTE   An2
 BYTE   W13
 BYTE   W06
 BYTE   W02
 BYTE   W01
 BYTE   W02
 BYTE   PEND 
// 006   ----------------------------------------
Label_4_0100532A:
 BYTE   W01
 BYTE   W01
 BYTE   W01
 BYTE   W01
 BYTE   W02
 BYTE   W01
 BYTE   W01
 BYTE   W01
 BYTE   W01
 BYTE   W02
 BYTE   W01
 BYTE   W01
 BYTE   W01
 BYTE   W01
 BYTE   W02
 BYTE   W01
 BYTE   W01
 BYTE   W04
 BYTE   N06  En3  v127
 BYTE   W24
 BYTE   Fs3
 BYTE   W24
 BYTE   Gn3
 BYTE   W24
 BYTE   PEND 
// 007   ----------------------------------------
Label_4_01005345:
 BYTE   W03
 BYTE   W03
 BYTE   W01
 BYTE   W02
 BYTE   W01
 BYTE   W02
 BYTE   W01
 BYTE   W02
 BYTE   W01
 BYTE   W02
 BYTE   W01
 BYTE   W02
 BYTE   W01
 BYTE   W02
 BYTE   W01
 BYTE   W02
 BYTE   W01
 BYTE   W02
 BYTE   W01
 BYTE   W02
 BYTE   W01
 BYTE   W14
 BYTE   N06  Fs3  v127
 BYTE   W08
 BYTE   Gn3
 BYTE   W08
 BYTE   An3
 BYTE   W08
 BYTE   Gn3
 BYTE   W08
 BYTE   Fs3
 BYTE   W08
 BYTE   En3
 BYTE   W08
 BYTE   PEND 
// 008   ----------------------------------------
Label_4_0100536A:
 BYTE   W16
 BYTE   N06  Dn3  v127
 BYTE   W08
 BYTE   En3
 BYTE   W18
 BYTE   W03
 BYTE   W01
 BYTE   W02
 BYTE   W01
 BYTE   W02
 BYTE   W01
 BYTE   W02
 BYTE   W01
 BYTE   W02
 BYTE   W07
 BYTE   Dn3
 BYTE   W02
 BYTE   W06
 BYTE   Cn3
 BYTE   W08
 BYTE   W02
 BYTE   W02
 BYTE   W02
 BYTE   W02
 BYTE   W02
 BYTE   W02
 BYTE   W02
 BYTE   W02
 BYTE   PEND 
// 009   ----------------------------------------
Label_4_01005389:
 BYTE   W02
 BYTE   W12
 BYTE   W02
 BYTE   N06  Bn2  v127
 BYTE   W08
 BYTE   Cn3
 BYTE   W10
 BYTE   W02
 BYTE   W02
 BYTE   W02
 BYTE   W02
 BYTE   W02
 BYTE   W02
 BYTE   W02
 BYTE   W02
 BYTE   W02
 BYTE   W02
 BYTE   W08
 BYTE   W02
 BYTE   Bn2
 BYTE   W08
 BYTE   An2
 BYTE   W08
 BYTE   W04
 BYTE   W02
 BYTE   W02
 BYTE   W02
 BYTE   W02
 BYTE   W02
 BYTE   W02
 BYTE   PEND 
// 010   ----------------------------------------
Label_4_010053AA:
 BYTE   W02
 BYTE   W12
 BYTE   W02
 BYTE   N06  Bn2  v127
 BYTE   W08
 BYTE   As2
 BYTE   W20
 BYTE   W04
 BYTE   W02
 BYTE   W04
 BYTE   W02
 BYTE   W02
 BYTE   W02
 BYTE   W02
 BYTE   W02
 BYTE   W02
 BYTE   W02
 BYTE   W02
 BYTE   W02
 BYTE   W02
 BYTE   W02
 BYTE   W02
 BYTE   W02
 BYTE   W02
 BYTE   W02
 BYTE   W02
 BYTE   W02
 BYTE   W02
 BYTE   W02
 BYTE   W04
 BYTE   PEND 
// 011   ----------------------------------------
Label_4_010053CB:
 BYTE   W14
 BYTE   W02
 BYTE   N06  An2  v127
 BYTE   W08
 BYTE   As2
 BYTE   W12
 BYTE   W02
 BYTE   W02
 BYTE   W02
 BYTE   W02
 BYTE   W02
 BYTE   W02
 BYTE   W02
 BYTE   W02
 BYTE   W10
 BYTE   W02
 BYTE   Bn2
 BYTE   W08
 BYTE   As2
 BYTE   W12
 BYTE   W04
 BYTE   W02
 BYTE   W02
 BYTE   W02
 BYTE   W02
 BYTE   PEND 
// 012   ----------------------------------------
Label_4_010053E7:
 BYTE   W02
 BYTE   W02
 BYTE   W12
 BYTE   N06  An2  v127
 BYTE   W08
 BYTE   As2
 BYTE   W28
 BYTE   W06
 BYTE   W04
 BYTE   W02
 BYTE   W04
 BYTE   W02
 BYTE   W02
 BYTE   W02
 BYTE   W02
 BYTE   W02
 BYTE   W02
 BYTE   W02
 BYTE   W02
 BYTE   W02
 BYTE   W02
 BYTE   W02
 BYTE   W02
 BYTE   W02
 BYTE   W02
 BYTE   PEND 
// 013   ----------------------------------------
Label_4_01005403:
 BYTE   W02
 BYTE   W02
 BYTE   W02
 BYTE   W02
 BYTE   W02
 BYTE   W02
 BYTE   W02
 BYTE   W10
 BYTE   N06  An2  v127
 BYTE   W40
 BYTE   W06
 BYTE   W04
 BYTE   W02
 BYTE   W02
 BYTE   W02
 BYTE   W02
 BYTE   W02
 BYTE   W02
 BYTE   W02
 BYTE   W02
 BYTE   W02
 BYTE   W02
 BYTE   W02
 BYTE   PEND 
// 014   ----------------------------------------
Label_4_0100541D:
 BYTE   W02
 BYTE   W02
 BYTE   W02
 BYTE   W02
 BYTE   W02
 BYTE   W02
 BYTE   W02
 BYTE   W02
 BYTE   W02
 BYTE   W78
 BYTE   PEND 
// 015   ----------------------------------------
 BYTE   W96
// 016   ----------------------------------------
 BYTE   W96
// 017   ----------------------------------------
 BYTE   W96
// 018   ----------------------------------------
 BYTE   W96
// 019   ----------------------------------------
 BYTE   W96
// 020   ----------------------------------------
 BYTE   W96
// 021   ----------------------------------------
 BYTE   W96
// 022   ----------------------------------------
Label_4_0100542F:
 BYTE   W24
 BYTE   N13  Fs3  v127
 BYTE   W24
 BYTE   En3
 BYTE   W24
 BYTE   Fs3
 BYTE   W24
 BYTE   PEND 
// 023   ----------------------------------------
Label_4_01005439:
 BYTE   N13  Dn3  v127
 BYTE   W24
 BYTE   N05  En3
 BYTE   W08
 BYTE   Fs3
 BYTE   W08
 BYTE   Gn3
 BYTE   W08
 BYTE   N36  Fs3
 BYTE   W12
 BYTE   W04
 BYTE   W02
 BYTE   W02
 BYTE   W02
 BYTE   W02
 BYTE   W02
 BYTE   W02
 BYTE   W02
 BYTE   W02
 BYTE   W02
 BYTE   W02
 BYTE   W02
 BYTE   W02
 BYTE   W02
 BYTE   W06
 BYTE   PEND 
// 024   ----------------------------------------
Label_4_01005457:
 BYTE   N13  Dn3  v127
 BYTE   W24
 BYTE   N05  En3
 BYTE   W08
 BYTE   Fs3
 BYTE   W08
 BYTE   Gn3
 BYTE   W08
 BYTE   N52  An3
 BYTE   W14
 BYTE   W06
 BYTE   W02
 BYTE   W02
 BYTE   W02
 BYTE   W02
 BYTE   W02
 BYTE   W02
 BYTE   W02
 BYTE   W02
 BYTE   W02
 BYTE   W02
 BYTE   W02
 BYTE   W02
 BYTE   W02
 BYTE   W02
 BYTE   PEND 
// 025   ----------------------------------------
Label_4_01005475:
 BYTE   W02
 BYTE   W02
 BYTE   W02
 BYTE   W02
 BYTE   W02
 BYTE   W02
 BYTE   W02
 BYTE   W02
 BYTE   N05  Gn3  v127
 BYTE   W08
 BYTE   N28  Fs3
 BYTE   W14
 BYTE   W04
 BYTE   W02
 BYTE   W02
 BYTE   W02
 BYTE   W02
 BYTE   W02
 BYTE   W02
 BYTE   W02
 BYTE   W02
 BYTE   W02
 BYTE   W04
 BYTE   N05  En3
 BYTE   W08
 BYTE   N36  Dn3
 BYTE   W14
 BYTE   W04
 BYTE   W02
 BYTE   W02
 BYTE   W02
 BYTE   PEND 
// 026   ----------------------------------------
Label_4_0100549A:
 BYTE   W02
 BYTE   W02
 BYTE   W02
 BYTE   W02
 BYTE   W02
 BYTE   W02
 BYTE   W02
 BYTE   W02
 BYTE   W08
 BYTE   N13  Fs4  v127
 BYTE   W24
 BYTE   En4
 BYTE   W24
 BYTE   Fs4
 BYTE   W24
 BYTE   PEND 
// 027   ----------------------------------------
Label_4_010054AC:
 BYTE   N13  Dn4  v127
 BYTE   W24
 BYTE   N05  En4
 BYTE   W08
 BYTE   Fs4
 BYTE   W08
 BYTE   Gn4
 BYTE   W08
 BYTE   N36  Fs4
 BYTE   W10
 BYTE   W04
 BYTE   W02
 BYTE   W02
 BYTE   W02
 BYTE   W02
 BYTE   W02
 BYTE   W02
 BYTE   W02
 BYTE   W02
 BYTE   W02
 BYTE   W02
 BYTE   W02
 BYTE   W02
 BYTE   W02
 BYTE   W08
 BYTE   PEND 
// 028   ----------------------------------------
Label_4_010054CA:
 BYTE   N13  Dn4  v127
 BYTE   W24
 BYTE   N05  En4
 BYTE   W08
 BYTE   Fs4
 BYTE   W08
 BYTE   Gn4
 BYTE   W08
 BYTE   N52  An4
 BYTE   W16
 BYTE   W04
 BYTE   W04
 BYTE   W02
 BYTE   W02
 BYTE   W02
 BYTE   W02
 BYTE   W02
 BYTE   W02
 BYTE   W02
 BYTE   W02
 BYTE   W02
 BYTE   W02
 BYTE   W02
 BYTE   W02
 BYTE   PEND 
// 029   ----------------------------------------
Label_4_010054E7:
 BYTE   W02
 BYTE   W02
 BYTE   W02
 BYTE   W02
 BYTE   W08
 BYTE   N05  Gn4  v127
 BYTE   W08
 BYTE   N28  Fs4
 BYTE   W10
 BYTE   W02
 BYTE   W02
 BYTE   W02
 BYTE   W02
 BYTE   W02
 BYTE   W02
 BYTE   W02
 BYTE   W02
 BYTE   W12
 BYTE   W02
 BYTE   N05  En4
 BYTE   W08
 BYTE   N36  Dn4
 BYTE   W12
 BYTE   W04
 BYTE   W02
 BYTE   W02
 BYTE   W02
 BYTE   W02
 BYTE   PEND 
// 030   ----------------------------------------
Label_4_01005509:
 BYTE   W02
 BYTE   W02
 BYTE   W02
 BYTE   W02
 BYTE   W88
 BYTE   PEND 
// 031   ----------------------------------------
 BYTE   W96
// 032   ----------------------------------------
 BYTE   W96
// 033   ----------------------------------------
 BYTE   W96
// 034   ----------------------------------------
 BYTE   W96
// 035   ----------------------------------------
 BYTE   W96
// 036   ----------------------------------------
 BYTE   W96
// 037   ----------------------------------------
 BYTE   W96
// 038   ----------------------------------------
 BYTE   W96
// 039   ----------------------------------------
 BYTE   W96
// 040   ----------------------------------------
 BYTE   W96
// 041   ----------------------------------------
 BYTE   W96
// 042   ----------------------------------------
 BYTE   W96
// 043   ----------------------------------------
 BYTE   W96
// 044   ----------------------------------------
 BYTE   W96
// 045   ----------------------------------------
 BYTE   W96
// 046   ----------------------------------------
Label_4_0100551E:
 BYTE   W24
 BYTE   N03  An3  v127
 BYTE   W08
 BYTE   N04
 BYTE   W08
 BYTE   N04
 BYTE   W08
 BYTE   Fn3
 BYTE   W08
 BYTE   N04
 BYTE   W08
 BYTE   N04
 BYTE   W08
 BYTE   Cn4
 BYTE   W08
 BYTE   N04
 BYTE   W08
 BYTE   N04
 BYTE   W08
 BYTE   PEND 
// 047   ----------------------------------------
Label_4_01005534:
 BYTE   N04  An3  v127
 BYTE   W08
 BYTE   N04
 BYTE   W08
 BYTE   N04
 BYTE   W08
 BYTE   Bn3
 BYTE   W08
 BYTE   N04
 BYTE   W08
 BYTE   N04
 BYTE   W08
 BYTE   Gn3
 BYTE   W08
 BYTE   N04
 BYTE   W08
 BYTE   N04
 BYTE   W08
 BYTE   Dn4
 BYTE   W08
 BYTE   N04
 BYTE   W08
 BYTE   N04
 BYTE   W08
 BYTE   PEND 
// 048   ----------------------------------------
Label_4_0100554F:
 BYTE   N04  Bn3  v127
 BYTE   W08
 BYTE   N04
 BYTE   W08
 BYTE   N04
 BYTE   W08
 BYTE   Cn4
 BYTE   W08
 BYTE   N04
 BYTE   W08
 BYTE   N04
 BYTE   W08
 BYTE   An3
 BYTE   W08
 BYTE   N04
 BYTE   W08
 BYTE   N04
 BYTE   W08
 BYTE   En4
 BYTE   W08
 BYTE   N04
 BYTE   W08
 BYTE   N04
 BYTE   W08
 BYTE   PEND 
// 049   ----------------------------------------
Label_4_0100556A:
 BYTE   N04  Cn4  v127
 BYTE   W08
 BYTE   N04
 BYTE   W08
 BYTE   N04
 BYTE   W08
 BYTE   Fs4
 BYTE   W08
 BYTE   N04
 BYTE   W08
 BYTE   N04
 BYTE   W08
 BYTE   Dn4
 BYTE   W08
 BYTE   N04
 BYTE   W08
 BYTE   N04
 BYTE   W08
 BYTE   Bn3
 BYTE   W08
 BYTE   N04
 BYTE   W08
 BYTE   N04
 BYTE   W08
 BYTE   PEND 
// 050   ----------------------------------------
Label_4_01005585:
 BYTE   N04  Fs3  v127
 BYTE   W08
 BYTE   N04
 BYTE   W08
 BYTE   N04
 BYTE   W08
 BYTE   Gn4
 BYTE   W08
 BYTE   N04
 BYTE   W08
 BYTE   N04
 BYTE   W08
 BYTE   Ds4
 BYTE   W08
 BYTE   N04
 BYTE   W08
 BYTE   N04
 BYTE   W08
 BYTE   Cn4
 BYTE   W08
 BYTE   N04
 BYTE   W08
 BYTE   N04
 BYTE   W08
 BYTE   PEND 
// 051   ----------------------------------------
Label_4_010055A0:
 BYTE   N04  Gn4  v127
 BYTE   W08
 BYTE   N04
 BYTE   W08
 BYTE   N04
 BYTE   W08
 BYTE   An4
 BYTE   W08
 BYTE   N04
 BYTE   W08
 BYTE   N04
 BYTE   W08
 BYTE   Fn4
 BYTE   W08
 BYTE   N04
 BYTE   W08
 BYTE   N04
 BYTE   W08
 BYTE   Cn4
 BYTE   W08
 BYTE   N04
 BYTE   W08
 BYTE   N04
 BYTE   W08
 BYTE   PEND 
// 052   ----------------------------------------
Label_4_010055BB:
 BYTE   N04  An4  v127
 BYTE   W08
 BYTE   N04
 BYTE   W08
 BYTE   N04
 BYTE   W08
 BYTE   N32  Bn4
 BYTE   W12
 BYTE   W06
 BYTE   W02
 BYTE   W02
 BYTE   W02
 BYTE   W02
 BYTE   W02
 BYTE   W02
 BYTE   W02
 BYTE   W02
 BYTE   W02
 BYTE   W02
 BYTE   W02
 BYTE   W02
 BYTE   W02
 BYTE   W02
 BYTE   W02
 BYTE   N24  Gn4
 BYTE   W24
 BYTE   PEND 
// 053   ----------------------------------------
Label_4_010055DA:
 BYTE   W16
 BYTE   N04  Dn4  v127
 BYTE   W08
 BYTE   N72
 BYTE   W18
 BYTE   W06
 BYTE   W04
 BYTE   W02
 BYTE   W02
 BYTE   W02
 BYTE   W02
 BYTE   W02
 BYTE   W02
 BYTE   W02
 BYTE   W02
 BYTE   W02
 BYTE   W02
 BYTE   W02
 BYTE   W02
 BYTE   W02
 BYTE   W02
 BYTE   W02
 BYTE   W02
 BYTE   W02
 BYTE   W02
 BYTE   W02
 BYTE   W02
 BYTE   W02
 BYTE   W02
 BYTE   PEND 
// 054   ----------------------------------------
Label_4_010055FA:
 BYTE   W02
 BYTE   W92
 BYTE   W02
 BYTE   PEND 
// 055   ----------------------------------------
 BYTE   W96
// 056   ----------------------------------------
 BYTE   W96
// 057   ----------------------------------------
 BYTE   W96
 BYTE   PATT
  POIN2 Label_4_010052B9
 BYTE   PATT
  POIN2 Label_4_010052C3
 BYTE   PATT
  POIN2 Label_4_010052E8
 BYTE   PATT
  POIN2 Label_4_01005302
 BYTE   PATT
  POIN2 Label_4_0100532A
 BYTE   PATT
  POIN2 Label_4_01005345
 BYTE   PATT
  POIN2 Label_4_0100536A
 BYTE   PATT
  POIN2 Label_4_01005389
 BYTE   PATT
  POIN2 Label_4_010053AA
 BYTE   PATT
  POIN2 Label_4_010053CB
 BYTE   PATT
  POIN2 Label_4_010053E7
 BYTE   PATT
  POIN2 Label_4_01005403
 BYTE   PATT
  POIN2 Label_4_0100541D
// 058   ----------------------------------------
 BYTE   W96
// 059   ----------------------------------------
 BYTE   W96
// 060   ----------------------------------------
 BYTE   W96
// 061   ----------------------------------------
 BYTE   W96
// 062   ----------------------------------------
 BYTE   W96
// 063   ----------------------------------------
 BYTE   W96
// 064   ----------------------------------------
 BYTE   W96
 BYTE   PATT
  POIN2 Label_4_0100542F
 BYTE   PATT
  POIN2 Label_4_01005439
 BYTE   PATT
  POIN2 Label_4_01005457
 BYTE   PATT
  POIN2 Label_4_01005475
 BYTE   PATT
  POIN2 Label_4_0100549A
 BYTE   PATT
  POIN2 Label_4_010054AC
 BYTE   PATT
  POIN2 Label_4_010054CA
 BYTE   PATT
  POIN2 Label_4_010054E7
 BYTE   PATT
  POIN2 Label_4_01005509
// 065   ----------------------------------------
 BYTE   W96
// 066   ----------------------------------------
 BYTE   W96
// 067   ----------------------------------------
 BYTE   W96
// 068   ----------------------------------------
 BYTE   W96
// 069   ----------------------------------------
 BYTE   W96
// 070   ----------------------------------------
 BYTE   W96
// 071   ----------------------------------------
 BYTE   W96
// 072   ----------------------------------------
 BYTE   W96
// 073   ----------------------------------------
 BYTE   W96
// 074   ----------------------------------------
 BYTE   W96
// 075   ----------------------------------------
 BYTE   W96
// 076   ----------------------------------------
 BYTE   W96
// 077   ----------------------------------------
 BYTE   W96
// 078   ----------------------------------------
 BYTE   W96
// 079   ----------------------------------------
 BYTE   W96
 BYTE   PATT
  POIN2 Label_4_0100551E
 BYTE   PATT
  POIN2 Label_4_01005534
 BYTE   PATT
  POIN2 Label_4_0100554F
 BYTE   PATT
  POIN2 Label_4_0100556A
 BYTE   PATT
  POIN2 Label_4_01005585
 BYTE   PATT
  POIN2 Label_4_010055A0
 BYTE   PATT
  POIN2 Label_4_010055BB
 BYTE   PATT
  POIN2 Label_4_010055DA
 BYTE   PATT
  POIN2 Label_4_010055FA
// 080   ----------------------------------------
 BYTE   W96
// 081   ----------------------------------------
 BYTE   W96
// 082   ----------------------------------------
 BYTE   W96
 BYTE   PATT
  POIN2 Label_4_010052B9
 BYTE   PATT
  POIN2 Label_4_010052C3
 BYTE   PATT
  POIN2 Label_4_010052E8
 BYTE   PATT
  POIN2 Label_4_01005302
 BYTE   PATT
  POIN2 Label_4_0100532A
 BYTE   PATT
  POIN2 Label_4_01005345
 BYTE   PATT
  POIN2 Label_4_0100536A
 BYTE   PATT
  POIN2 Label_4_01005389
 BYTE   PATT
  POIN2 Label_4_010053AA
 BYTE   PATT
  POIN2 Label_4_010053CB
 BYTE   PATT
  POIN2 Label_4_010053E7
 BYTE   PATT
  POIN2 Label_4_01005403
 BYTE   PATT
  POIN2 Label_4_0100541D
// 083   ----------------------------------------
 BYTE   W96
// 084   ----------------------------------------
 BYTE   W96
// 085   ----------------------------------------
 BYTE   W96
// 086   ----------------------------------------
 BYTE   W96
// 087   ----------------------------------------
 BYTE   W96
// 088   ----------------------------------------
 BYTE   W96
// 089   ----------------------------------------
 BYTE   W96
 BYTE   PATT
  POIN2 Label_4_0100542F
 BYTE   PATT
  POIN2 Label_4_01005439
 BYTE   PATT
  POIN2 Label_4_01005457
 BYTE   PATT
  POIN2 Label_4_01005475
 BYTE   PATT
  POIN2 Label_4_0100549A
 BYTE   PATT
  POIN2 Label_4_010054AC
 BYTE   PATT
  POIN2 Label_4_010054CA
 BYTE   PATT
  POIN2 Label_4_010054E7
 BYTE   PATT
  POIN2 Label_4_01005509
// 090   ----------------------------------------
 BYTE   W96
// 091   ----------------------------------------
 BYTE   W96
// 092   ----------------------------------------
 BYTE   W96
// 093   ----------------------------------------
 BYTE   W96
// 094   ----------------------------------------
 BYTE   W96
// 095   ----------------------------------------
 BYTE   W96
// 096   ----------------------------------------
 BYTE   W96
// 097   ----------------------------------------
 BYTE   W96
// 098   ----------------------------------------
 BYTE   W96
// 099   ----------------------------------------
 BYTE   W96
// 100   ----------------------------------------
 BYTE   W96
// 101   ----------------------------------------
 BYTE   W96
// 102   ----------------------------------------
 BYTE   W96
// 103   ----------------------------------------
 BYTE   W96
// 104   ----------------------------------------
 BYTE   W96
 BYTE   PATT
  POIN2 Label_4_0100551E
 BYTE   PATT
  POIN2 Label_4_01005534
 BYTE   PATT
  POIN2 Label_4_0100554F
 BYTE   PATT
  POIN2 Label_4_0100556A
 BYTE   PATT
  POIN2 Label_4_01005585
 BYTE   PATT
  POIN2 Label_4_010055A0
 BYTE   PATT
  POIN2 Label_4_010055BB
 BYTE   PATT
  POIN2 Label_4_010055DA
 BYTE   PATT
  POIN2 Label_4_010055FA
// 105   ----------------------------------------
 BYTE   W96
// 106   ----------------------------------------
 BYTE   W96
// 107   ----------------------------------------
 BYTE   W96
 BYTE   PATT
  POIN2 Label_4_010052B9
 BYTE   PATT
  POIN2 Label_4_010052C3
 BYTE   PATT
  POIN2 Label_4_010052E8
 BYTE   PATT
  POIN2 Label_4_01005302
 BYTE   PATT
  POIN2 Label_4_0100532A
 BYTE   PATT
  POIN2 Label_4_01005345
 BYTE   PATT
  POIN2 Label_4_0100536A
 BYTE   PATT
  POIN2 Label_4_01005389
 BYTE   PATT
  POIN2 Label_4_010053AA
 BYTE   PATT
  POIN2 Label_4_010053CB
 BYTE   PATT
  POIN2 Label_4_010053E7
 BYTE   PATT
  POIN2 Label_4_01005403
 BYTE   PATT
  POIN2 Label_4_0100541D
// 108   ----------------------------------------
 BYTE   W96
// 109   ----------------------------------------
 BYTE   W96
// 110   ----------------------------------------
 BYTE   W96
// 111   ----------------------------------------
 BYTE   W96
// 112   ----------------------------------------
 BYTE   W96
// 113   ----------------------------------------
 BYTE   W96
// 114   ----------------------------------------
 BYTE   W96
 BYTE   PATT
  POIN2 Label_4_0100542F
 BYTE   PATT
  POIN2 Label_4_01005439
 BYTE   PATT
  POIN2 Label_4_01005457
 BYTE   PATT
  POIN2 Label_4_01005475
 BYTE   PATT
  POIN2 Label_4_0100549A
 BYTE   PATT
  POIN2 Label_4_010054AC
 BYTE   PATT
  POIN2 Label_4_010054CA
 BYTE   PATT
  POIN2 Label_4_010054E7
 BYTE   PATT
  POIN2 Label_4_01005509
// 115   ----------------------------------------
 BYTE   W96
// 116   ----------------------------------------
 BYTE   W96
// 117   ----------------------------------------
 BYTE   W96
// 118   ----------------------------------------
 BYTE   W96
// 119   ----------------------------------------
 BYTE   W96
// 120   ----------------------------------------
 BYTE   W96
// 121   ----------------------------------------
 BYTE   W96
// 122   ----------------------------------------
 BYTE   W96
// 123   ----------------------------------------
 BYTE   W96
// 124   ----------------------------------------
 BYTE   W96
// 125   ----------------------------------------
 BYTE   W96
// 126   ----------------------------------------
 BYTE   W96
// 127   ----------------------------------------
 BYTE   W96
// 128   ----------------------------------------
 BYTE   W96
// 129   ----------------------------------------
 BYTE   W96
 BYTE   PATT
  POIN2 Label_4_0100551E
 BYTE   PATT
  POIN2 Label_4_01005534
 BYTE   PATT
  POIN2 Label_4_0100554F
 BYTE   PATT
  POIN2 Label_4_0100556A
 BYTE   PATT
  POIN2 Label_4_01005585
 BYTE   PATT
  POIN2 Label_4_010055A0
 BYTE   PATT
  POIN2 Label_4_010055BB
 BYTE   PATT
  POIN2 Label_4_010055DA
 BYTE   PATT
  POIN2 Label_4_010055FA
// 130   ----------------------------------------
 BYTE   W96
 BYTE   FINE

//**************** Track 6 (Midi-Chn.5) ****************//

MountHorn_006:
// 000   ----------------------------------------
 BYTE   KEYSH   MountHorn_key+0
 BYTE   W24
 BYTE   VOICE   108
 BYTE   VOL   64*MountHorn_mvl/mxv
 BYTE   PAN   c_v+26
 BYTE   BEND   c_v+0
 BYTE   N08  Cn3  v127
 BYTE   W16
 BYTE   Gn2
 BYTE   W08
 BYTE   As2
 BYTE   W08
 BYTE   Gn2
 BYTE   W08
 BYTE   Cn3
 BYTE   W08
 BYTE   Gn2
 BYTE   W08
 BYTE   As2
 BYTE   W08
 BYTE   Gn2
 BYTE   W08
// 001   ----------------------------------------
 BYTE   Fn2
 BYTE   W08
 BYTE   Gn2
 BYTE   W08
 BYTE   As2
 BYTE   W08
Label_5_0100583F:
 BYTE   N08  Cn3  v127
 BYTE   W16
 BYTE   Gn2
 BYTE   W08
 BYTE   As2
 BYTE   W08
 BYTE   Gn2
 BYTE   W08
 BYTE   Cn3
 BYTE   W08
 BYTE   Gn2
 BYTE   W08
 BYTE   As2
 BYTE   W08
 BYTE   Gn2
 BYTE   W08
// 002   ----------------------------------------
 BYTE   Fn2
 BYTE   W08
 BYTE   Gn2
 BYTE   W08
 BYTE   As2
 BYTE   W08
 BYTE   PEND 
 BYTE   PATT
  POIN2 Label_5_0100583F
 BYTE   PATT
  POIN2 Label_5_0100583F
 BYTE   PATT
  POIN2 Label_5_0100583F
 BYTE   PATT
  POIN2 Label_5_0100583F
 BYTE   PATT
  POIN2 Label_5_0100583F
 BYTE   PATT
  POIN2 Label_5_0100583F
 BYTE   PATT
  POIN2 Label_5_0100583F
 BYTE   PATT
  POIN2 Label_5_0100583F
 BYTE   PATT
  POIN2 Label_5_0100583F
 BYTE   PATT
  POIN2 Label_5_0100583F
 BYTE   PATT
  POIN2 Label_5_0100583F
 BYTE   PATT
  POIN2 Label_5_0100583F
// 003   ----------------------------------------
Label_5_01005894:
 BYTE   W08
 BYTE   N08  Cn3  v127
 BYTE   N08  En3
 BYTE   W08
 BYTE   Cn3
 BYTE   N08  En3
 BYTE   W08
 BYTE   Cn3  v124
 BYTE   N08  En3
 BYTE   W16
 BYTE   Cn3
 BYTE   N08  En3
 BYTE   W16
 BYTE   Dn3
 BYTE   N08  Fs3
 BYTE   W08
 BYTE   Dn3
 BYTE   N08  Fs3
 BYTE   W08
 BYTE   Dn3  v120
 BYTE   N08  Fs3
 BYTE   W16
 BYTE   Dn3
 BYTE   N08  Fs3
 BYTE   W08
 BYTE   PEND 
// 004   ----------------------------------------
Label_5_010058BA:
 BYTE   W08
 BYTE   N08  Ds3  v120
 BYTE   N08  Gn3
 BYTE   W08
 BYTE   Ds3
 BYTE   N08  Gn3
 BYTE   W08
 BYTE   Ds3  v116
 BYTE   N08  Gn3
 BYTE   W16
 BYTE   Ds3
 BYTE   N08  Gn3
 BYTE   W16
 BYTE   Fn3
 BYTE   N08  An3
 BYTE   W08
 BYTE   Fn3
 BYTE   N08  An3
 BYTE   W08
 BYTE   Fn3
 BYTE   N08  An3
 BYTE   W16
 BYTE   Fn3  v112
 BYTE   N08  An3
 BYTE   W08
 BYTE   PEND 
// 005   ----------------------------------------
Label_5_010058E0:
 BYTE   W08
 BYTE   N08  Fs3  v112
 BYTE   N08  As3
 BYTE   W08
 BYTE   Fs3
 BYTE   N08  As3
 BYTE   W08
 BYTE   Fs3
 BYTE   N08  As3
 BYTE   W16
 BYTE   Fs3  v108
 BYTE   N08  As3
 BYTE   W16
 BYTE   Gs3
 BYTE   N08  Cn4
 BYTE   W08
 BYTE   Gs3
 BYTE   N08  Cn4
 BYTE   W08
 BYTE   Gs3
 BYTE   N08  Cn4
 BYTE   W16
 BYTE   Gs3  v104
 BYTE   N08  Cn4
 BYTE   W08
 BYTE   PEND 
// 006   ----------------------------------------
Label_5_01005906:
 BYTE   W08
 BYTE   N08  An3  v104
 BYTE   N08  Cs4
 BYTE   W08
 BYTE   An3
 BYTE   N08  Cs4
 BYTE   W08
 BYTE   An3
 BYTE   N08  Cs4
 BYTE   W16
 BYTE   An3  v100
 BYTE   N08  Cs4
 BYTE   W16
 BYTE   Bn3
 BYTE   N08  Ds4
 BYTE   W08
 BYTE   Bn3
 BYTE   N08  Ds4
 BYTE   W08
 BYTE   Bn3
 BYTE   N08  Ds4
 BYTE   W16
 BYTE   Bn3  v096
 BYTE   N08  Ds4
 BYTE   W08
 BYTE   PEND 
// 007   ----------------------------------------
Label_5_0100592C:
 BYTE   W08
 BYTE   N08  Cn4  v096
 BYTE   N08  En4
 BYTE   W08
 BYTE   Cn4
 BYTE   N08  En4
 BYTE   W08
 BYTE   Cn4
 BYTE   N08  En4
 BYTE   W16
 BYTE   Cn4  v092
 BYTE   N08  En4
 BYTE   W16
 BYTE   Dn4
 BYTE   N08  Fs4
 BYTE   W08
 BYTE   Dn4
 BYTE   N08  Fs4
 BYTE   W08
 BYTE   Dn4
 BYTE   N08  Fs4
 BYTE   W16
 BYTE   Dn4  v088
 BYTE   N08  Fs4
 BYTE   W08
 BYTE   PEND 
// 008   ----------------------------------------
Label_5_01005952:
 BYTE   W08
 BYTE   N08  Ds4  v088
 BYTE   N08  Gn4
 BYTE   W08
 BYTE   Ds4
 BYTE   N08  Gn4
 BYTE   W08
 BYTE   Ds4
 BYTE   N08  Gn4
 BYTE   W16
 BYTE   Ds4  v084
 BYTE   N08  Gn4
 BYTE   W16
 BYTE   Fn4
 BYTE   N08  An4
 BYTE   W08
 BYTE   Fn4
 BYTE   N08  An4
 BYTE   W08
 BYTE   Fn4
 BYTE   N08  An4
 BYTE   W16
 BYTE   Fn4  v080
 BYTE   N08  An4
 BYTE   W08
 BYTE   PEND 
// 009   ----------------------------------------
Label_5_01005978:
 BYTE   W08
 BYTE   N08  Fs4  v080
 BYTE   N08  As4
 BYTE   W08
 BYTE   Fs4
 BYTE   N08  As4
 BYTE   W08
 BYTE   Fs4
 BYTE   N08  As4
 BYTE   W16
 BYTE   Fs4  v076
 BYTE   N08  As4
 BYTE   W16
 BYTE   Gs4
 BYTE   N08  Cn5
 BYTE   W08
 BYTE   Gs4
 BYTE   N08  Cn5
 BYTE   W08
 BYTE   Gs4
 BYTE   N08  Cn5
 BYTE   W16
 BYTE   Gs4  v072
 BYTE   N08  Cn5
 BYTE   W08
 BYTE   PEND 
// 010   ----------------------------------------
Label_5_0100599E:
 BYTE   W08
 BYTE   N08  An4  v072
 BYTE   N08  Cs5
 BYTE   W08
 BYTE   An4
 BYTE   N08  Cs5
 BYTE   W08
 BYTE   An4
 BYTE   N08  Cs5
 BYTE   W16
 BYTE   An4  v068
 BYTE   N08  Cs5
 BYTE   W16
 BYTE   Bn4
 BYTE   N08  Ds5
 BYTE   W08
 BYTE   Bn4
 BYTE   N08  Ds5
 BYTE   W08
 BYTE   Bn4
 BYTE   N08  Ds5
 BYTE   W16
 BYTE   Bn4  v064
 BYTE   N08  Ds5
 BYTE   W08
 BYTE   PEND 
// 011   ----------------------------------------
 BYTE   W96
// 012   ----------------------------------------
 BYTE   W96
// 013   ----------------------------------------
 BYTE   W96
// 014   ----------------------------------------
 BYTE   W96
// 015   ----------------------------------------
 BYTE   W96
// 016   ----------------------------------------
 BYTE   W96
// 017   ----------------------------------------
 BYTE   W96
// 018   ----------------------------------------
 BYTE   W96
// 019   ----------------------------------------
 BYTE   W96
// 020   ----------------------------------------
 BYTE   W96
// 021   ----------------------------------------
 BYTE   W96
// 022   ----------------------------------------
 BYTE   W96
// 023   ----------------------------------------
 BYTE   W96
// 024   ----------------------------------------
 BYTE   W96
// 025   ----------------------------------------
 BYTE   W96
// 026   ----------------------------------------
 BYTE   W96
// 027   ----------------------------------------
Label_5_010059D4:
 BYTE   N08  Bn3  v100
 BYTE   W16
 BYTE   Fs3
 BYTE   W08
 BYTE   An3
 BYTE   W08
 BYTE   Fs3
 BYTE   W08
 BYTE   Bn3
 BYTE   W08
 BYTE   Fs3
 BYTE   W08
 BYTE   An3
 BYTE   W08
 BYTE   Fs3
 BYTE   W08
 BYTE   En3
 BYTE   W08
 BYTE   Fs3
 BYTE   W08
 BYTE   An3
 BYTE   W08
 BYTE   PEND 
 BYTE   PATT
  POIN2 Label_5_010059D4
// 028   ----------------------------------------
Label_5_010059F2:
 BYTE   N08  An3  v100
 BYTE   W16
 BYTE   En3
 BYTE   W08
 BYTE   Gn3
 BYTE   W08
 BYTE   En3
 BYTE   W08
 BYTE   An3
 BYTE   W08
 BYTE   En3
 BYTE   W08
 BYTE   Gn3
 BYTE   W08
 BYTE   En3
 BYTE   W08
 BYTE   Dn3
 BYTE   W08
 BYTE   En3
 BYTE   W08
 BYTE   Gn3
 BYTE   W08
 BYTE   PEND 
 BYTE   PATT
  POIN2 Label_5_010059F2
 BYTE   PATT
  POIN2 Label_5_010059D4
 BYTE   PATT
  POIN2 Label_5_010059D4
// 029   ----------------------------------------
Label_5_01005A1A:
 BYTE   N08  En4  v100
 BYTE   W16
 BYTE   Bn3
 BYTE   W08
 BYTE   Dn4
 BYTE   W08
 BYTE   Bn3
 BYTE   W08
 BYTE   En4
 BYTE   W08
 BYTE   Bn3
 BYTE   W08
 BYTE   Dn4
 BYTE   W08
 BYTE   Bn3
 BYTE   W08
 BYTE   An3
 BYTE   W08
 BYTE   Bn3
 BYTE   W08
 BYTE   Dn4
 BYTE   W08
 BYTE   PEND 
// 030   ----------------------------------------
Label_5_01005A33:
 BYTE   N08  Dn4  v100
 BYTE   W16
 BYTE   An3
 BYTE   W08
 BYTE   Cn4
 BYTE   W08
 BYTE   An3
 BYTE   W08
 BYTE   Dn4
 BYTE   W08
 BYTE   An3
 BYTE   W08
 BYTE   Cn4
 BYTE   W08
 BYTE   An3
 BYTE   W08
 BYTE   Gn3
 BYTE   W08
 BYTE   An3
 BYTE   W08
 BYTE   Cn4
 BYTE   W08
 BYTE   PEND 
// 031   ----------------------------------------
 BYTE   W96
// 032   ----------------------------------------
 BYTE   W96
// 033   ----------------------------------------
 BYTE   W96
// 034   ----------------------------------------
 BYTE   W96
// 035   ----------------------------------------
 BYTE   W96
// 036   ----------------------------------------
 BYTE   W96
// 037   ----------------------------------------
 BYTE   W96
// 038   ----------------------------------------
 BYTE   W96
// 039   ----------------------------------------
 BYTE   W96
// 040   ----------------------------------------
 BYTE   W96
 BYTE   PATT
  POIN2 Label_5_0100583F
 BYTE   PATT
  POIN2 Label_5_0100583F
 BYTE   PATT
  POIN2 Label_5_0100583F
 BYTE   PATT
  POIN2 Label_5_0100583F
 BYTE   PATT
  POIN2 Label_5_0100583F
 BYTE   PATT
  POIN2 Label_5_0100583F
 BYTE   PATT
  POIN2 Label_5_0100583F
 BYTE   PATT
  POIN2 Label_5_0100583F
 BYTE   PATT
  POIN2 Label_5_0100583F
 BYTE   PATT
  POIN2 Label_5_0100583F
 BYTE   PATT
  POIN2 Label_5_0100583F
 BYTE   PATT
  POIN2 Label_5_0100583F
 BYTE   PATT
  POIN2 Label_5_0100583F
 BYTE   PATT
  POIN2 Label_5_0100583F
 BYTE   PATT
  POIN2 Label_5_01005894
 BYTE   PATT
  POIN2 Label_5_010058BA
 BYTE   PATT
  POIN2 Label_5_010058E0
 BYTE   PATT
  POIN2 Label_5_01005906
 BYTE   PATT
  POIN2 Label_5_0100592C
 BYTE   PATT
  POIN2 Label_5_01005952
 BYTE   PATT
  POIN2 Label_5_01005978
 BYTE   PATT
  POIN2 Label_5_0100599E
// 041   ----------------------------------------
 BYTE   W96
// 042   ----------------------------------------
 BYTE   W96
// 043   ----------------------------------------
 BYTE   W96
// 044   ----------------------------------------
 BYTE   W96
// 045   ----------------------------------------
 BYTE   W96
// 046   ----------------------------------------
 BYTE   W96
// 047   ----------------------------------------
 BYTE   W96
// 048   ----------------------------------------
 BYTE   W96
// 049   ----------------------------------------
 BYTE   W96
// 050   ----------------------------------------
 BYTE   W96
// 051   ----------------------------------------
 BYTE   W96
// 052   ----------------------------------------
 BYTE   W96
// 053   ----------------------------------------
 BYTE   W96
// 054   ----------------------------------------
 BYTE   W96
// 055   ----------------------------------------
 BYTE   W96
// 056   ----------------------------------------
 BYTE   W96
 BYTE   PATT
  POIN2 Label_5_010059D4
 BYTE   PATT
  POIN2 Label_5_010059D4
 BYTE   PATT
  POIN2 Label_5_010059F2
 BYTE   PATT
  POIN2 Label_5_010059F2
 BYTE   PATT
  POIN2 Label_5_010059D4
 BYTE   PATT
  POIN2 Label_5_010059D4
 BYTE   PATT
  POIN2 Label_5_01005A1A
 BYTE   PATT
  POIN2 Label_5_01005A33
// 057   ----------------------------------------
 BYTE   W96
// 058   ----------------------------------------
 BYTE   W96
// 059   ----------------------------------------
 BYTE   W96
// 060   ----------------------------------------
 BYTE   W96
// 061   ----------------------------------------
 BYTE   W96
// 062   ----------------------------------------
 BYTE   W96
// 063   ----------------------------------------
 BYTE   W96
// 064   ----------------------------------------
 BYTE   W96
// 065   ----------------------------------------
 BYTE   W96
// 066   ----------------------------------------
 BYTE   W96
 BYTE   PATT
  POIN2 Label_5_0100583F
 BYTE   PATT
  POIN2 Label_5_0100583F
 BYTE   PATT
  POIN2 Label_5_0100583F
 BYTE   PATT
  POIN2 Label_5_0100583F
 BYTE   PATT
  POIN2 Label_5_0100583F
 BYTE   PATT
  POIN2 Label_5_0100583F
 BYTE   PATT
  POIN2 Label_5_0100583F
 BYTE   PATT
  POIN2 Label_5_0100583F
 BYTE   PATT
  POIN2 Label_5_0100583F
 BYTE   PATT
  POIN2 Label_5_0100583F
 BYTE   PATT
  POIN2 Label_5_0100583F
 BYTE   PATT
  POIN2 Label_5_0100583F
 BYTE   PATT
  POIN2 Label_5_0100583F
 BYTE   PATT
  POIN2 Label_5_0100583F
 BYTE   PATT
  POIN2 Label_5_01005894
 BYTE   PATT
  POIN2 Label_5_010058BA
 BYTE   PATT
  POIN2 Label_5_010058E0
 BYTE   PATT
  POIN2 Label_5_01005906
 BYTE   PATT
  POIN2 Label_5_0100592C
 BYTE   PATT
  POIN2 Label_5_01005952
 BYTE   PATT
  POIN2 Label_5_01005978
 BYTE   PATT
  POIN2 Label_5_0100599E
// 067   ----------------------------------------
 BYTE   W96
// 068   ----------------------------------------
 BYTE   W96
// 069   ----------------------------------------
 BYTE   W96
// 070   ----------------------------------------
 BYTE   W96
// 071   ----------------------------------------
 BYTE   W96
// 072   ----------------------------------------
 BYTE   W96
// 073   ----------------------------------------
 BYTE   W96
// 074   ----------------------------------------
 BYTE   W96
// 075   ----------------------------------------
 BYTE   W96
// 076   ----------------------------------------
 BYTE   W96
// 077   ----------------------------------------
 BYTE   W96
// 078   ----------------------------------------
 BYTE   W96
// 079   ----------------------------------------
 BYTE   W96
// 080   ----------------------------------------
 BYTE   W96
// 081   ----------------------------------------
 BYTE   W96
// 082   ----------------------------------------
 BYTE   W96
 BYTE   PATT
  POIN2 Label_5_010059D4
 BYTE   PATT
  POIN2 Label_5_010059D4
 BYTE   PATT
  POIN2 Label_5_010059F2
 BYTE   PATT
  POIN2 Label_5_010059F2
 BYTE   PATT
  POIN2 Label_5_010059D4
 BYTE   PATT
  POIN2 Label_5_010059D4
 BYTE   PATT
  POIN2 Label_5_01005A1A
 BYTE   PATT
  POIN2 Label_5_01005A33
// 083   ----------------------------------------
 BYTE   W96
// 084   ----------------------------------------
 BYTE   W96
// 085   ----------------------------------------
 BYTE   W96
// 086   ----------------------------------------
 BYTE   W96
// 087   ----------------------------------------
 BYTE   W96
// 088   ----------------------------------------
 BYTE   W96
// 089   ----------------------------------------
 BYTE   W96
// 090   ----------------------------------------
 BYTE   W96
// 091   ----------------------------------------
 BYTE   W96
// 092   ----------------------------------------
 BYTE   W96
 BYTE   PATT
  POIN2 Label_5_0100583F
 BYTE   PATT
  POIN2 Label_5_0100583F
 BYTE   PATT
  POIN2 Label_5_0100583F
 BYTE   PATT
  POIN2 Label_5_0100583F
 BYTE   PATT
  POIN2 Label_5_0100583F
 BYTE   PATT
  POIN2 Label_5_0100583F
 BYTE   PATT
  POIN2 Label_5_0100583F
 BYTE   PATT
  POIN2 Label_5_0100583F
 BYTE   PATT
  POIN2 Label_5_0100583F
 BYTE   PATT
  POIN2 Label_5_0100583F
 BYTE   PATT
  POIN2 Label_5_0100583F
 BYTE   PATT
  POIN2 Label_5_0100583F
 BYTE   PATT
  POIN2 Label_5_0100583F
 BYTE   PATT
  POIN2 Label_5_0100583F
 BYTE   PATT
  POIN2 Label_5_01005894
 BYTE   PATT
  POIN2 Label_5_010058BA
 BYTE   PATT
  POIN2 Label_5_010058E0
 BYTE   PATT
  POIN2 Label_5_01005906
 BYTE   PATT
  POIN2 Label_5_0100592C
 BYTE   PATT
  POIN2 Label_5_01005952
 BYTE   PATT
  POIN2 Label_5_01005978
 BYTE   PATT
  POIN2 Label_5_0100599E
// 093   ----------------------------------------
 BYTE   W96
// 094   ----------------------------------------
 BYTE   W96
// 095   ----------------------------------------
 BYTE   W96
// 096   ----------------------------------------
 BYTE   W96
// 097   ----------------------------------------
 BYTE   W96
// 098   ----------------------------------------
 BYTE   W96
// 099   ----------------------------------------
 BYTE   W96
// 100   ----------------------------------------
 BYTE   W96
// 101   ----------------------------------------
 BYTE   W96
// 102   ----------------------------------------
 BYTE   W96
// 103   ----------------------------------------
 BYTE   W96
// 104   ----------------------------------------
 BYTE   W96
// 105   ----------------------------------------
 BYTE   W96
// 106   ----------------------------------------
 BYTE   W96
// 107   ----------------------------------------
 BYTE   W96
// 108   ----------------------------------------
 BYTE   W96
 BYTE   PATT
  POIN2 Label_5_010059D4
 BYTE   PATT
  POIN2 Label_5_010059D4
 BYTE   PATT
  POIN2 Label_5_010059F2
 BYTE   PATT
  POIN2 Label_5_010059F2
 BYTE   PATT
  POIN2 Label_5_010059D4
 BYTE   PATT
  POIN2 Label_5_010059D4
 BYTE   PATT
  POIN2 Label_5_01005A1A
 BYTE   PATT
  POIN2 Label_5_01005A33
// 109   ----------------------------------------
 BYTE   W96
// 110   ----------------------------------------
 BYTE   W96
// 111   ----------------------------------------
 BYTE   W96
// 112   ----------------------------------------
 BYTE   W96
// 113   ----------------------------------------
 BYTE   W96
// 114   ----------------------------------------
 BYTE   W96
// 115   ----------------------------------------
 BYTE   W96
// 116   ----------------------------------------
 BYTE   W96
// 117   ----------------------------------------
 BYTE   W96
// 118   ----------------------------------------
 BYTE   W96
 BYTE   FINE

//**************** Track 7 (Midi-Chn.6) ****************//

MountHorn_007:
// 000   ----------------------------------------
 BYTE   KEYSH   MountHorn_key+0
 BYTE   W24
 BYTE   VOICE   11
 BYTE   VOL   30*MountHorn_mvl/mxv
 BYTE   PAN   c_v-34
 BYTE   BEND   c_v+0
 BYTE   N08  Cn6  v096
 BYTE   W16
 BYTE   Gn5
 BYTE   W08
 BYTE   As5
 BYTE   W08
 BYTE   Gn5
 BYTE   W08
 BYTE   Cn6
 BYTE   W08
 BYTE   Gn5
 BYTE   W08
 BYTE   As5
 BYTE   W08
 BYTE   Gn5
 BYTE   W08
// 001   ----------------------------------------
 BYTE   Fn5
 BYTE   W08
 BYTE   Gn5
 BYTE   W08
 BYTE   As5
 BYTE   W08
Label_6_01005C8B:
 BYTE   N08  Cn6  v096
 BYTE   W16
 BYTE   Gn5
 BYTE   W08
 BYTE   As5
 BYTE   W08
 BYTE   Gn5
 BYTE   W08
 BYTE   Cn6
 BYTE   W08
 BYTE   Gn5
 BYTE   W08
 BYTE   As5
 BYTE   W08
 BYTE   Gn5
 BYTE   W08
// 002   ----------------------------------------
 BYTE   Fn5
 BYTE   W08
 BYTE   Gn5
 BYTE   W08
 BYTE   As5
 BYTE   W08
 BYTE   PEND 
 BYTE   PATT
  POIN2 Label_6_01005C8B
 BYTE   PATT
  POIN2 Label_6_01005C8B
 BYTE   PATT
  POIN2 Label_6_01005C8B
 BYTE   PATT
  POIN2 Label_6_01005C8B
 BYTE   PATT
  POIN2 Label_6_01005C8B
 BYTE   PATT
  POIN2 Label_6_01005C8B
 BYTE   PATT
  POIN2 Label_6_01005C8B
 BYTE   PATT
  POIN2 Label_6_01005C8B
 BYTE   PATT
  POIN2 Label_6_01005C8B
 BYTE   PATT
  POIN2 Label_6_01005C8B
 BYTE   PATT
  POIN2 Label_6_01005C8B
 BYTE   PATT
  POIN2 Label_6_01005C8B
// 003   ----------------------------------------
 BYTE   W96
// 004   ----------------------------------------
 BYTE   W96
// 005   ----------------------------------------
 BYTE   W96
// 006   ----------------------------------------
 BYTE   W96
// 007   ----------------------------------------
 BYTE   W96
// 008   ----------------------------------------
 BYTE   W96
// 009   ----------------------------------------
 BYTE   W96
// 010   ----------------------------------------
 BYTE   W96
// 011   ----------------------------------------
 BYTE   W96
// 012   ----------------------------------------
 BYTE   W96
// 013   ----------------------------------------
 BYTE   W96
// 014   ----------------------------------------
 BYTE   W96
// 015   ----------------------------------------
Label_6_01005CEC:
 BYTE   N08  Fs5  v127
 BYTE   W24
 BYTE   En5
 BYTE   W24
 BYTE   Fs5
 BYTE   W24
 BYTE   Dn5
 BYTE   W24
 BYTE   PEND 
// 016   ----------------------------------------
Label_6_01005CF7:
 BYTE   N08  En5  v127
 BYTE   W08
 BYTE   Fs5
 BYTE   W08
 BYTE   Gn5
 BYTE   W08
 BYTE   Fs5
 BYTE   W48
 BYTE   Dn5
 BYTE   W24
 BYTE   PEND 
// 017   ----------------------------------------
Label_6_01005D04:
 BYTE   N08  En5  v127
 BYTE   W08
 BYTE   Fs5
 BYTE   W08
 BYTE   Gn5
 BYTE   W08
 BYTE   An5
 BYTE   W64
 BYTE   Gn5
 BYTE   W08
 BYTE   PEND 
// 018   ----------------------------------------
Label_6_01005D11:
 BYTE   N08  Fs5  v127
 BYTE   W40
 BYTE   En5
 BYTE   W08
 BYTE   Dn5
 BYTE   W48
 BYTE   PEND 
// 019   ----------------------------------------
 BYTE   W96
// 020   ----------------------------------------
 BYTE   W96
// 021   ----------------------------------------
 BYTE   W96
// 022   ----------------------------------------
 BYTE   W96
// 023   ----------------------------------------
 BYTE   W96
// 024   ----------------------------------------
 BYTE   W96
// 025   ----------------------------------------
 BYTE   W96
// 026   ----------------------------------------
 BYTE   W96
// 027   ----------------------------------------
Label_6_01005D22:
 BYTE   N03  Bn5  v096
 BYTE   W16
 BYTE   Fs5
 BYTE   W08
 BYTE   An5
 BYTE   W08
 BYTE   Fs5
 BYTE   W08
 BYTE   Bn5
 BYTE   W08
 BYTE   Fs5
 BYTE   W08
 BYTE   An5
 BYTE   W08
 BYTE   Fs5
 BYTE   W08
 BYTE   En5
 BYTE   W08
 BYTE   Fs5
 BYTE   W08
 BYTE   An5
 BYTE   W08
 BYTE   PEND 
 BYTE   PATT
  POIN2 Label_6_01005D22
// 028   ----------------------------------------
Label_6_01005D40:
 BYTE   N03  An5  v096
 BYTE   W16
 BYTE   En5
 BYTE   W08
 BYTE   Gn5
 BYTE   W08
 BYTE   En5
 BYTE   W08
 BYTE   An5
 BYTE   W08
 BYTE   En5
 BYTE   W08
 BYTE   Gn5
 BYTE   W08
 BYTE   En5
 BYTE   W08
 BYTE   Dn5
 BYTE   N03  En6
 BYTE   W08
 BYTE   En5
 BYTE   W08
 BYTE   Gn5
 BYTE   W08
 BYTE   PEND 
// 029   ----------------------------------------
Label_6_01005D5B:
 BYTE   N03  An5  v096
 BYTE   W16
 BYTE   En5
 BYTE   W08
 BYTE   Gn5
 BYTE   W08
 BYTE   En5
 BYTE   W08
 BYTE   An5
 BYTE   W08
 BYTE   En5
 BYTE   W08
 BYTE   Gn5
 BYTE   W08
 BYTE   En5
 BYTE   W08
 BYTE   Dn5
 BYTE   W08
 BYTE   En5
 BYTE   W08
 BYTE   Gn5
 BYTE   W08
 BYTE   PEND 
 BYTE   PATT
  POIN2 Label_6_01005D22
 BYTE   PATT
  POIN2 Label_6_01005D22
// 030   ----------------------------------------
Label_6_01005D7E:
 BYTE   N03  En6  v096
 BYTE   W16
 BYTE   Bn5
 BYTE   W08
 BYTE   Dn6
 BYTE   W08
 BYTE   Bn5
 BYTE   W08
 BYTE   En6
 BYTE   W08
 BYTE   Bn5
 BYTE   W08
 BYTE   Dn6
 BYTE   W08
 BYTE   Bn5
 BYTE   W08
 BYTE   An5
 BYTE   W08
 BYTE   Bn5
 BYTE   W08
 BYTE   Dn6
 BYTE   W08
 BYTE   PEND 
// 031   ----------------------------------------
Label_6_01005D97:
 BYTE   N03  Dn6  v096
 BYTE   W16
 BYTE   An5
 BYTE   W08
 BYTE   Cn6
 BYTE   W08
 BYTE   An5
 BYTE   W08
 BYTE   Dn6
 BYTE   W08
 BYTE   An5
 BYTE   W08
 BYTE   Cn6
 BYTE   W08
 BYTE   An5
 BYTE   W08
 BYTE   Gn5
 BYTE   W08
 BYTE   An5
 BYTE   W08
 BYTE   Cn6
 BYTE   W08
 BYTE   PEND 
// 032   ----------------------------------------
 BYTE   W96
// 033   ----------------------------------------
 BYTE   W96
// 034   ----------------------------------------
 BYTE   W96
// 035   ----------------------------------------
 BYTE   W96
// 036   ----------------------------------------
 BYTE   W96
// 037   ----------------------------------------
 BYTE   W96
// 038   ----------------------------------------
 BYTE   W96
// 039   ----------------------------------------
 BYTE   W96
// 040   ----------------------------------------
 BYTE   W96
// 041   ----------------------------------------
 BYTE   W96
 BYTE   PATT
  POIN2 Label_6_01005C8B
 BYTE   PATT
  POIN2 Label_6_01005C8B
 BYTE   PATT
  POIN2 Label_6_01005C8B
 BYTE   PATT
  POIN2 Label_6_01005C8B
 BYTE   PATT
  POIN2 Label_6_01005C8B
 BYTE   PATT
  POIN2 Label_6_01005C8B
 BYTE   PATT
  POIN2 Label_6_01005C8B
 BYTE   PATT
  POIN2 Label_6_01005C8B
 BYTE   PATT
  POIN2 Label_6_01005C8B
 BYTE   PATT
  POIN2 Label_6_01005C8B
 BYTE   PATT
  POIN2 Label_6_01005C8B
 BYTE   PATT
  POIN2 Label_6_01005C8B
 BYTE   PATT
  POIN2 Label_6_01005C8B
 BYTE   PATT
  POIN2 Label_6_01005C8B
// 042   ----------------------------------------
 BYTE   W96
// 043   ----------------------------------------
 BYTE   W96
// 044   ----------------------------------------
 BYTE   W96
// 045   ----------------------------------------
 BYTE   W96
// 046   ----------------------------------------
 BYTE   W96
// 047   ----------------------------------------
 BYTE   W96
// 048   ----------------------------------------
 BYTE   W96
// 049   ----------------------------------------
 BYTE   W96
// 050   ----------------------------------------
 BYTE   W96
// 051   ----------------------------------------
 BYTE   W96
// 052   ----------------------------------------
 BYTE   W96
// 053   ----------------------------------------
 BYTE   W96
 BYTE   PATT
  POIN2 Label_6_01005CEC
 BYTE   PATT
  POIN2 Label_6_01005CF7
 BYTE   PATT
  POIN2 Label_6_01005D04
 BYTE   PATT
  POIN2 Label_6_01005D11
// 054   ----------------------------------------
 BYTE   W96
// 055   ----------------------------------------
 BYTE   W96
// 056   ----------------------------------------
 BYTE   W96
// 057   ----------------------------------------
 BYTE   W96
// 058   ----------------------------------------
 BYTE   W96
// 059   ----------------------------------------
 BYTE   W96
// 060   ----------------------------------------
 BYTE   W96
// 061   ----------------------------------------
 BYTE   W96
 BYTE   PATT
  POIN2 Label_6_01005D22
 BYTE   PATT
  POIN2 Label_6_01005D22
 BYTE   PATT
  POIN2 Label_6_01005D40
 BYTE   PATT
  POIN2 Label_6_01005D5B
 BYTE   PATT
  POIN2 Label_6_01005D22
 BYTE   PATT
  POIN2 Label_6_01005D22
 BYTE   PATT
  POIN2 Label_6_01005D7E
 BYTE   PATT
  POIN2 Label_6_01005D97
// 062   ----------------------------------------
 BYTE   W96
// 063   ----------------------------------------
 BYTE   W96
// 064   ----------------------------------------
 BYTE   W96
// 065   ----------------------------------------
 BYTE   W96
// 066   ----------------------------------------
 BYTE   W96
// 067   ----------------------------------------
 BYTE   W96
// 068   ----------------------------------------
 BYTE   W96
// 069   ----------------------------------------
 BYTE   W96
// 070   ----------------------------------------
 BYTE   W96
// 071   ----------------------------------------
 BYTE   W96
 BYTE   PATT
  POIN2 Label_6_01005C8B
 BYTE   PATT
  POIN2 Label_6_01005C8B
 BYTE   PATT
  POIN2 Label_6_01005C8B
 BYTE   PATT
  POIN2 Label_6_01005C8B
 BYTE   PATT
  POIN2 Label_6_01005C8B
 BYTE   PATT
  POIN2 Label_6_01005C8B
 BYTE   PATT
  POIN2 Label_6_01005C8B
 BYTE   PATT
  POIN2 Label_6_01005C8B
 BYTE   PATT
  POIN2 Label_6_01005C8B
 BYTE   PATT
  POIN2 Label_6_01005C8B
 BYTE   PATT
  POIN2 Label_6_01005C8B
 BYTE   PATT
  POIN2 Label_6_01005C8B
 BYTE   PATT
  POIN2 Label_6_01005C8B
 BYTE   PATT
  POIN2 Label_6_01005C8B
// 072   ----------------------------------------
 BYTE   W96
// 073   ----------------------------------------
 BYTE   W96
// 074   ----------------------------------------
 BYTE   W96
// 075   ----------------------------------------
 BYTE   W96
// 076   ----------------------------------------
 BYTE   W96
// 077   ----------------------------------------
 BYTE   W96
// 078   ----------------------------------------
 BYTE   W96
// 079   ----------------------------------------
 BYTE   W96
// 080   ----------------------------------------
 BYTE   W96
// 081   ----------------------------------------
 BYTE   W96
// 082   ----------------------------------------
 BYTE   W96
// 083   ----------------------------------------
 BYTE   W96
 BYTE   PATT
  POIN2 Label_6_01005CEC
 BYTE   PATT
  POIN2 Label_6_01005CF7
 BYTE   PATT
  POIN2 Label_6_01005D04
 BYTE   PATT
  POIN2 Label_6_01005D11
// 084   ----------------------------------------
 BYTE   W96
// 085   ----------------------------------------
 BYTE   W96
// 086   ----------------------------------------
 BYTE   W96
// 087   ----------------------------------------
 BYTE   W96
// 088   ----------------------------------------
 BYTE   W96
// 089   ----------------------------------------
 BYTE   W96
// 090   ----------------------------------------
 BYTE   W96
// 091   ----------------------------------------
 BYTE   W96
 BYTE   PATT
  POIN2 Label_6_01005D22
 BYTE   PATT
  POIN2 Label_6_01005D22
 BYTE   PATT
  POIN2 Label_6_01005D40
 BYTE   PATT
  POIN2 Label_6_01005D5B
 BYTE   PATT
  POIN2 Label_6_01005D22
 BYTE   PATT
  POIN2 Label_6_01005D22
 BYTE   PATT
  POIN2 Label_6_01005D7E
 BYTE   PATT
  POIN2 Label_6_01005D97
// 092   ----------------------------------------
 BYTE   W96
// 093   ----------------------------------------
 BYTE   W96
// 094   ----------------------------------------
 BYTE   W96
// 095   ----------------------------------------
 BYTE   W96
// 096   ----------------------------------------
 BYTE   W96
// 097   ----------------------------------------
 BYTE   W96
// 098   ----------------------------------------
 BYTE   W96
// 099   ----------------------------------------
 BYTE   W96
// 100   ----------------------------------------
 BYTE   W96
// 101   ----------------------------------------
 BYTE   W96
 BYTE   PATT
  POIN2 Label_6_01005C8B
 BYTE   PATT
  POIN2 Label_6_01005C8B
 BYTE   PATT
  POIN2 Label_6_01005C8B
 BYTE   PATT
  POIN2 Label_6_01005C8B
 BYTE   PATT
  POIN2 Label_6_01005C8B
 BYTE   PATT
  POIN2 Label_6_01005C8B
 BYTE   PATT
  POIN2 Label_6_01005C8B
 BYTE   PATT
  POIN2 Label_6_01005C8B
 BYTE   PATT
  POIN2 Label_6_01005C8B
 BYTE   PATT
  POIN2 Label_6_01005C8B
 BYTE   PATT
  POIN2 Label_6_01005C8B
 BYTE   PATT
  POIN2 Label_6_01005C8B
 BYTE   PATT
  POIN2 Label_6_01005C8B
 BYTE   PATT
  POIN2 Label_6_01005C8B
// 102   ----------------------------------------
 BYTE   W96
// 103   ----------------------------------------
 BYTE   W96
// 104   ----------------------------------------
 BYTE   W96
// 105   ----------------------------------------
 BYTE   W96
// 106   ----------------------------------------
 BYTE   W96
// 107   ----------------------------------------
 BYTE   W96
// 108   ----------------------------------------
 BYTE   W96
// 109   ----------------------------------------
 BYTE   W96
// 110   ----------------------------------------
 BYTE   W96
// 111   ----------------------------------------
 BYTE   W96
// 112   ----------------------------------------
 BYTE   W96
// 113   ----------------------------------------
 BYTE   W96
 BYTE   PATT
  POIN2 Label_6_01005CEC
 BYTE   PATT
  POIN2 Label_6_01005CF7
 BYTE   PATT
  POIN2 Label_6_01005D04
 BYTE   PATT
  POIN2 Label_6_01005D11
// 114   ----------------------------------------
 BYTE   W96
// 115   ----------------------------------------
 BYTE   W96
// 116   ----------------------------------------
 BYTE   W96
// 117   ----------------------------------------
 BYTE   W96
// 118   ----------------------------------------
 BYTE   W96
// 119   ----------------------------------------
 BYTE   W96
// 120   ----------------------------------------
 BYTE   W96
// 121   ----------------------------------------
 BYTE   W96
 BYTE   PATT
  POIN2 Label_6_01005D22
 BYTE   PATT
  POIN2 Label_6_01005D22
 BYTE   PATT
  POIN2 Label_6_01005D40
 BYTE   PATT
  POIN2 Label_6_01005D5B
 BYTE   PATT
  POIN2 Label_6_01005D22
 BYTE   PATT
  POIN2 Label_6_01005D22
 BYTE   PATT
  POIN2 Label_6_01005D7E
 BYTE   PATT
  POIN2 Label_6_01005D97
// 122   ----------------------------------------
 BYTE   W96
// 123   ----------------------------------------
 BYTE   W96
// 124   ----------------------------------------
 BYTE   W96
// 125   ----------------------------------------
 BYTE   W96
// 126   ----------------------------------------
 BYTE   W96
// 127   ----------------------------------------
 BYTE   W96
// 128   ----------------------------------------
 BYTE   W96
// 129   ----------------------------------------
 BYTE   W96
// 130   ----------------------------------------
 BYTE   W96
// 131   ----------------------------------------
 BYTE   W96
 BYTE   FINE

//**************** Track 8 (Midi-Chn.7) ****************//

MountHorn_008:
// 000   ----------------------------------------
 BYTE   KEYSH   MountHorn_key+0
 BYTE   W24
 BYTE   VOICE   68
 BYTE   VOL   43*MountHorn_mvl/mxv
 BYTE   PAN   c_v+0
 BYTE   BEND   c_v+0
 BYTE   W96
// 001   ----------------------------------------
 BYTE   W96
// 002   ----------------------------------------
 BYTE   W96
// 003   ----------------------------------------
 BYTE   W96
// 004   ----------------------------------------
 BYTE   W96
// 005   ----------------------------------------
 BYTE   W96
// 006   ----------------------------------------
 BYTE   W96
// 007   ----------------------------------------
 BYTE   W96
// 008   ----------------------------------------
 BYTE   W96
// 009   ----------------------------------------
 BYTE   W96
// 010   ----------------------------------------
 BYTE   W96
// 011   ----------------------------------------
 BYTE   W96
// 012   ----------------------------------------
 BYTE   W96
// 013   ----------------------------------------
 BYTE   W96
// 014   ----------------------------------------
Label_7_01005FB5:
 BYTE   N48  Cn2  v120
 BYTE   N48  En2
 BYTE   W48
 BYTE   Dn2
 BYTE   N48  Fs2
 BYTE   W48
 BYTE   PEND 
// 015   ----------------------------------------
Label_7_01005FC0:
 BYTE   N48  Ds2  v120
 BYTE   N48  Gn2
 BYTE   W48
 BYTE   Fn2
 BYTE   N48  An2
 BYTE   W48
 BYTE   PEND 
// 016   ----------------------------------------
Label_7_01005FCB:
 BYTE   N48  Fs2  v120
 BYTE   N48  As2
 BYTE   W48
 BYTE   Gs2
 BYTE   N48  Cn3
 BYTE   W48
 BYTE   PEND 
// 017   ----------------------------------------
Label_7_01005FD6:
 BYTE   N48  An2  v120
 BYTE   N48  Cs3
 BYTE   W48
 BYTE   Bn2
 BYTE   N48  Ds3
 BYTE   W48
 BYTE   PEND 
// 018   ----------------------------------------
Label_7_01005FE1:
 BYTE   N48  Cn3  v120
 BYTE   N48  En3
 BYTE   W48
 BYTE   Dn3
 BYTE   N48  Fs3
 BYTE   W48
 BYTE   PEND 
// 019   ----------------------------------------
Label_7_01005FEC:
 BYTE   N48  Ds3  v120
 BYTE   N48  Gn3
 BYTE   W48
 BYTE   Fn3
 BYTE   N48  An3
 BYTE   W48
 BYTE   PEND 
// 020   ----------------------------------------
Label_7_01005FF7:
 BYTE   N48  Fs3  v120
 BYTE   N48  As3
 BYTE   W48
 BYTE   Gs3
 BYTE   N48  Cn4
 BYTE   W48
 BYTE   PEND 
// 021   ----------------------------------------
Label_7_01006002:
 BYTE   N48  An3  v120
 BYTE   N48  Cs4
 BYTE   W48
 BYTE   Bn3
 BYTE   N48  Ds4
 BYTE   W48
 BYTE   PEND 
// 022   ----------------------------------------
 BYTE   W96
// 023   ----------------------------------------
 BYTE   W96
// 024   ----------------------------------------
 BYTE   W96
// 025   ----------------------------------------
 BYTE   W96
// 026   ----------------------------------------
Label_7_01006011:
 BYTE   N16  Dn3  v127
 BYTE   N16  Fs3
 BYTE   W24
 BYTE   Cn3
 BYTE   N16  En3
 BYTE   W24
 BYTE   Dn3
 BYTE   N16  Fs3
 BYTE   W24
 BYTE   As2
 BYTE   N16  Dn3
 BYTE   W24
 BYTE   PEND 
// 027   ----------------------------------------
Label_7_01006024:
 BYTE   N08  Cn3  v127
 BYTE   N08  En3
 BYTE   W08
 BYTE   Dn3
 BYTE   N08  Fs3
 BYTE   W08
 BYTE   Ds3
 BYTE   N08  Gn3
 BYTE   W08
 BYTE   N40  Dn3
 BYTE   N40  Fs3
 BYTE   W48
 BYTE   N16  As2
 BYTE   N16  Dn3
 BYTE   W24
 BYTE   PEND 
// 028   ----------------------------------------
Label_7_0100603D:
 BYTE   N08  Cn3  v127
 BYTE   N08  En3
 BYTE   W08
 BYTE   Dn3
 BYTE   N08  Fs3
 BYTE   W08
 BYTE   Ds3
 BYTE   N08  Gn3
 BYTE   W08
 BYTE   N56  Fn3
 BYTE   N56  An3
 BYTE   W64
 BYTE   N08  Ds3
 BYTE   N08  Gn3
 BYTE   W08
 BYTE   PEND 
// 029   ----------------------------------------
Label_7_01006056:
 BYTE   N32  Dn3  v127
 BYTE   N32  Fs3
 BYTE   W40
 BYTE   N08  Cn3
 BYTE   N08  En3
 BYTE   W08
 BYTE   N40  As2
 BYTE   N40  Dn3
 BYTE   W48
 BYTE   PEND 
// 030   ----------------------------------------
Label_7_01006067:
 BYTE   N16  An2  v127
 BYTE   N16  Cs3
 BYTE   W24
 BYTE   N16
 BYTE   N16  En3
 BYTE   W24
 BYTE   N32  Bn2
 BYTE   N32  Ds3
 BYTE   W40
 BYTE   N08  Fs2
 BYTE   N08  Bn2
 BYTE   W08
 BYTE   PEND 
// 031   ----------------------------------------
Label_7_0100607C:
 BYTE   N16  An2  v127
 BYTE   N16  Cs3
 BYTE   W24
 BYTE   N16
 BYTE   N16  En3
 BYTE   W24
 BYTE   Bn2
 BYTE   N16  Ds3
 BYTE   W24
 BYTE   N16
 BYTE   N16  Fs3
 BYTE   W24
 BYTE   PEND 
// 032   ----------------------------------------
Label_7_0100608F:
 BYTE   N16  Gn2  v127
 BYTE   N16  Bn2
 BYTE   W24
 BYTE   N16
 BYTE   N16  Dn3
 BYTE   W24
 BYTE   An2
 BYTE   N16  Cs3
 BYTE   W24
 BYTE   En2
 BYTE   N16  An2
 BYTE   W24
 BYTE   PEND 
// 033   ----------------------------------------
Label_7_010060A2:
 BYTE   N08  Gn2  v127
 BYTE   N08  Bn2
 BYTE   W16
 BYTE   Dn3
 BYTE   N08  Fs3
 BYTE   W08
 BYTE   N64  Dn3
 BYTE   N64  Fs3
 BYTE   W72
 BYTE   PEND 
 BYTE   PATT
  POIN2 Label_7_01006067
// 034   ----------------------------------------
Label_7_010060B7:
 BYTE   N16  An2  v127
 BYTE   N16  Cs3
 BYTE   W24
 BYTE   En3
 BYTE   N16  Gs3
 BYTE   W24
 BYTE   Ds3
 BYTE   N16  Fs3
 BYTE   W24
 BYTE   Bn2
 BYTE   N16  Ds3
 BYTE   W24
 BYTE   PEND 
// 035   ----------------------------------------
Label_7_010060CA:
 BYTE   N08  Bn2  v127
 BYTE   N08  Dn3
 BYTE   W08
 BYTE   Cs3
 BYTE   N08  En3
 BYTE   W08
 BYTE   Dn3
 BYTE   N08  Fs3
 BYTE   W08
 BYTE   N32  Bn2
 BYTE   N32  Dn3
 BYTE   W48
 BYTE   N08  Gn2
 BYTE   N08  Bn2
 BYTE   W16
 BYTE   N08
 BYTE   N08  Dn3
 BYTE   W08
 BYTE   PEND 
// 036   ----------------------------------------
Label_7_010060E7:
 BYTE   N40  Cn3  v127
 BYTE   N40  En3
 BYTE   W48
 BYTE   N16  Bn2
 BYTE   N16  Dn3
 BYTE   W24
 BYTE   N24  An2
 BYTE   N24  Cn3
 BYTE   W24
 BYTE   PEND 
 BYTE   PATT
  POIN2 Label_7_01006067
 BYTE   PATT
  POIN2 Label_7_0100607C
 BYTE   PATT
  POIN2 Label_7_0100608F
 BYTE   PATT
  POIN2 Label_7_010060A2
 BYTE   PATT
  POIN2 Label_7_01006067
 BYTE   PATT
  POIN2 Label_7_010060B7
 BYTE   PATT
  POIN2 Label_7_010060CA
 BYTE   PATT
  POIN2 Label_7_010060E7
// 037   ----------------------------------------
Label_7_01006120:
 BYTE   N21  Fn2  v127
 BYTE   N21  An2
 BYTE   W24
 BYTE   Fn2  v060
 BYTE   N21  An2
 BYTE   W24
 BYTE   An2  v127
 BYTE   N21  Cn3
 BYTE   W24
 BYTE   An2  v060
 BYTE   N21  Cn3
 BYTE   W24
 BYTE   PEND 
// 038   ----------------------------------------
Label_7_01006136:
 BYTE   N21  Gn2  v127
 BYTE   N21  Bn2
 BYTE   W24
 BYTE   Gn2  v060
 BYTE   N21  Bn2
 BYTE   W24
 BYTE   Bn2  v127
 BYTE   N21  Dn3
 BYTE   W24
 BYTE   Bn2  v060
 BYTE   N21  Dn3
 BYTE   W24
 BYTE   PEND 
// 039   ----------------------------------------
Label_7_0100614C:
 BYTE   N21  Cn3  v127
 BYTE   N21  En3
 BYTE   W24
 BYTE   Cn3  v060
 BYTE   N21  En3
 BYTE   W24
 BYTE   An2  v127
 BYTE   N21  Cn3
 BYTE   W24
 BYTE   An2  v060
 BYTE   N21  Cn3
 BYTE   W24
 BYTE   PEND 
// 040   ----------------------------------------
Label_7_01006162:
 BYTE   N21  Gn2  v127
 BYTE   N21  Bn2
 BYTE   W24
 BYTE   Gn2  v060
 BYTE   N21  Bn2
 BYTE   W24
 BYTE   Dn3  v127
 BYTE   N21  Fs3
 BYTE   W24
 BYTE   Dn3  v060
 BYTE   N21  Fs3
 BYTE   W24
 BYTE   PEND 
// 041   ----------------------------------------
Label_7_01006178:
 BYTE   N21  Ds3  v127
 BYTE   N21  Gn3
 BYTE   W24
 BYTE   Ds3  v060
 BYTE   N21  Gn3
 BYTE   W24
 BYTE   Cn3  v127
 BYTE   N21  Ds3
 BYTE   W24
 BYTE   Cn3  v060
 BYTE   N21  Ds3
 BYTE   W24
 BYTE   PEND 
// 042   ----------------------------------------
Label_7_0100618E:
 BYTE   N21  Fn3  v127
 BYTE   N21  An3
 BYTE   W24
 BYTE   Fn3  v060
 BYTE   N21  An3
 BYTE   W24
 BYTE   Cn3  v127
 BYTE   N21  Fn3
 BYTE   W24
 BYTE   Cn3  v060
 BYTE   N21  Fn3
 BYTE   W24
 BYTE   PEND 
// 043   ----------------------------------------
Label_7_010061A4:
 BYTE   N72  Gn3  v127
 BYTE   N72  Bn3
 BYTE   W88
 BYTE   N06  Dn3
 BYTE   N06  Gn3
 BYTE   W08
 BYTE   PEND 
// 044   ----------------------------------------
Label_7_010061B0:
 BYTE   N72  Dn3  v127
 BYTE   N72  Gn3
 BYTE   W88
 BYTE   N06  Cn3
 BYTE   N06  En3
 BYTE   W08
 BYTE   PEND 
// 045   ----------------------------------------
Label_7_010061BC:
 BYTE   TIE  As2  v127
 BYTE   TIE  Dn3
 BYTE   W32
 BYTE   W02
 BYTE   W14
 BYTE   W06
 BYTE   W06
 BYTE   W04
 BYTE   W02
 BYTE   W04
 BYTE   W03
 BYTE   W03
 BYTE   W02
 BYTE   W03
 BYTE   W01
 BYTE   W03
 BYTE   W02
 BYTE   W03
 BYTE   W03
 BYTE   W01
 BYTE   W02
 BYTE   PEND 
// 046   ----------------------------------------
Label_7_010061D5:
 BYTE   W01
 BYTE   W02
 BYTE   W01
 BYTE   W03
 BYTE   W02
 BYTE   W01
 BYTE   W03
 BYTE   W02
 BYTE   W01
 BYTE   W02
 BYTE   W01
 BYTE   W02
 BYTE   W01
 BYTE   W02
 BYTE   W01
 BYTE   W02
 BYTE   W01
 BYTE   W02
 BYTE   W01
 BYTE   W02
 BYTE   W01
 BYTE   W02
 BYTE   W01
 BYTE   W02
 BYTE   W01
 BYTE   W02
 BYTE   W01
 BYTE   W02
 BYTE   W01
 BYTE   W02
 BYTE   W01
 BYTE   W02
 BYTE   W01
 BYTE   W02
 BYTE   W01
 BYTE   W02
 BYTE   W01
 BYTE   W02
 BYTE   W01
 BYTE   W02
 BYTE   W01
 BYTE   W02
 BYTE   W01
 BYTE   W02
 BYTE   W01
 BYTE   W02
 BYTE   W01
 BYTE   W02
 BYTE   W01
 BYTE   W02
 BYTE   W01
 BYTE   W02
 BYTE   W01
 BYTE   W02
 BYTE   W01
 BYTE   W02
 BYTE   W01
 BYTE   W02
 BYTE   W01
 BYTE   W01
 BYTE   PEND 
 BYTE   EOT
 BYTE   As2  v062
 BYTE   W04
// 047   ----------------------------------------
 BYTE   W96
// 048   ----------------------------------------
 BYTE   W96
// 049   ----------------------------------------
 BYTE   W96
// 050   ----------------------------------------
 BYTE   W96
// 051   ----------------------------------------
 BYTE   W96
// 052   ----------------------------------------
 BYTE   W96
// 053   ----------------------------------------
 BYTE   W96
// 054   ----------------------------------------
 BYTE   W96
// 055   ----------------------------------------
 BYTE   W96
// 056   ----------------------------------------
 BYTE   W96
// 057   ----------------------------------------
 BYTE   W96
// 058   ----------------------------------------
 BYTE   W96
// 059   ----------------------------------------
 BYTE   W96
// 060   ----------------------------------------
 BYTE   W96
 BYTE   PATT
  POIN2 Label_7_01005FB5
 BYTE   PATT
  POIN2 Label_7_01005FC0
 BYTE   PATT
  POIN2 Label_7_01005FCB
 BYTE   PATT
  POIN2 Label_7_01005FD6
 BYTE   PATT
  POIN2 Label_7_01005FE1
 BYTE   PATT
  POIN2 Label_7_01005FEC
 BYTE   PATT
  POIN2 Label_7_01005FF7
 BYTE   PATT
  POIN2 Label_7_01006002
// 061   ----------------------------------------
 BYTE   W96
// 062   ----------------------------------------
 BYTE   W96
// 063   ----------------------------------------
 BYTE   W96
// 064   ----------------------------------------
 BYTE   W96
 BYTE   PATT
  POIN2 Label_7_01006011
 BYTE   PATT
  POIN2 Label_7_01006024
 BYTE   PATT
  POIN2 Label_7_0100603D
 BYTE   PATT
  POIN2 Label_7_01006056
 BYTE   PATT
  POIN2 Label_7_01006067
 BYTE   PATT
  POIN2 Label_7_0100607C
 BYTE   PATT
  POIN2 Label_7_0100608F
 BYTE   PATT
  POIN2 Label_7_010060A2
 BYTE   PATT
  POIN2 Label_7_01006067
 BYTE   PATT
  POIN2 Label_7_010060B7
 BYTE   PATT
  POIN2 Label_7_010060CA
 BYTE   PATT
  POIN2 Label_7_010060E7
 BYTE   PATT
  POIN2 Label_7_01006067
 BYTE   PATT
  POIN2 Label_7_0100607C
 BYTE   PATT
  POIN2 Label_7_0100608F
 BYTE   PATT
  POIN2 Label_7_010060A2
 BYTE   PATT
  POIN2 Label_7_01006067
 BYTE   PATT
  POIN2 Label_7_010060B7
 BYTE   PATT
  POIN2 Label_7_010060CA
 BYTE   PATT
  POIN2 Label_7_010060E7
 BYTE   PATT
  POIN2 Label_7_01006120
 BYTE   PATT
  POIN2 Label_7_01006136
 BYTE   PATT
  POIN2 Label_7_0100614C
 BYTE   PATT
  POIN2 Label_7_01006162
 BYTE   PATT
  POIN2 Label_7_01006178
 BYTE   PATT
  POIN2 Label_7_0100618E
 BYTE   PATT
  POIN2 Label_7_010061A4
 BYTE   PATT
  POIN2 Label_7_010061B0
 BYTE   PATT
  POIN2 Label_7_010061BC
 BYTE   PATT
  POIN2 Label_7_010061D5
// 065   ----------------------------------------
 BYTE   EOT
 BYTE   As2  v062
 BYTE   W04
 BYTE   W96
// 066   ----------------------------------------
 BYTE   W96
// 067   ----------------------------------------
 BYTE   W96
// 068   ----------------------------------------
 BYTE   W96
// 069   ----------------------------------------
 BYTE   W96
// 070   ----------------------------------------
 BYTE   W96
// 071   ----------------------------------------
 BYTE   W96
// 072   ----------------------------------------
 BYTE   W96
// 073   ----------------------------------------
 BYTE   W96
// 074   ----------------------------------------
 BYTE   W96
// 075   ----------------------------------------
 BYTE   W96
// 076   ----------------------------------------
 BYTE   W96
// 077   ----------------------------------------
 BYTE   W96
// 078   ----------------------------------------
 BYTE   W96
 BYTE   PATT
  POIN2 Label_7_01005FB5
 BYTE   PATT
  POIN2 Label_7_01005FC0
 BYTE   PATT
  POIN2 Label_7_01005FCB
 BYTE   PATT
  POIN2 Label_7_01005FD6
 BYTE   PATT
  POIN2 Label_7_01005FE1
 BYTE   PATT
  POIN2 Label_7_01005FEC
 BYTE   PATT
  POIN2 Label_7_01005FF7
 BYTE   PATT
  POIN2 Label_7_01006002
// 079   ----------------------------------------
 BYTE   W96
// 080   ----------------------------------------
 BYTE   W96
// 081   ----------------------------------------
 BYTE   W96
// 082   ----------------------------------------
 BYTE   W96
 BYTE   PATT
  POIN2 Label_7_01006011
 BYTE   PATT
  POIN2 Label_7_01006024
 BYTE   PATT
  POIN2 Label_7_0100603D
 BYTE   PATT
  POIN2 Label_7_01006056
 BYTE   PATT
  POIN2 Label_7_01006067
 BYTE   PATT
  POIN2 Label_7_0100607C
 BYTE   PATT
  POIN2 Label_7_0100608F
 BYTE   PATT
  POIN2 Label_7_010060A2
 BYTE   PATT
  POIN2 Label_7_01006067
 BYTE   PATT
  POIN2 Label_7_010060B7
 BYTE   PATT
  POIN2 Label_7_010060CA
 BYTE   PATT
  POIN2 Label_7_010060E7
 BYTE   PATT
  POIN2 Label_7_01006067
 BYTE   PATT
  POIN2 Label_7_0100607C
 BYTE   PATT
  POIN2 Label_7_0100608F
 BYTE   PATT
  POIN2 Label_7_010060A2
 BYTE   PATT
  POIN2 Label_7_01006067
 BYTE   PATT
  POIN2 Label_7_010060B7
 BYTE   PATT
  POIN2 Label_7_010060CA
 BYTE   PATT
  POIN2 Label_7_010060E7
 BYTE   PATT
  POIN2 Label_7_01006120
 BYTE   PATT
  POIN2 Label_7_01006136
 BYTE   PATT
  POIN2 Label_7_0100614C
 BYTE   PATT
  POIN2 Label_7_01006162
 BYTE   PATT
  POIN2 Label_7_01006178
 BYTE   PATT
  POIN2 Label_7_0100618E
 BYTE   PATT
  POIN2 Label_7_010061A4
 BYTE   PATT
  POIN2 Label_7_010061B0
 BYTE   PATT
  POIN2 Label_7_010061BC
 BYTE   PATT
  POIN2 Label_7_010061D5
// 083   ----------------------------------------
 BYTE   EOT
 BYTE   As2  v062
 BYTE   W04
 BYTE   W96
// 084   ----------------------------------------
 BYTE   W96
// 085   ----------------------------------------
 BYTE   W96
// 086   ----------------------------------------
 BYTE   W96
// 087   ----------------------------------------
 BYTE   W96
// 088   ----------------------------------------
 BYTE   W96
// 089   ----------------------------------------
 BYTE   W96
// 090   ----------------------------------------
 BYTE   W96
// 091   ----------------------------------------
 BYTE   W96
// 092   ----------------------------------------
 BYTE   W96
// 093   ----------------------------------------
 BYTE   W96
// 094   ----------------------------------------
 BYTE   W96
// 095   ----------------------------------------
 BYTE   W96
// 096   ----------------------------------------
 BYTE   W96
 BYTE   PATT
  POIN2 Label_7_01005FB5
 BYTE   PATT
  POIN2 Label_7_01005FC0
 BYTE   PATT
  POIN2 Label_7_01005FCB
 BYTE   PATT
  POIN2 Label_7_01005FD6
 BYTE   PATT
  POIN2 Label_7_01005FE1
 BYTE   PATT
  POIN2 Label_7_01005FEC
 BYTE   PATT
  POIN2 Label_7_01005FF7
 BYTE   PATT
  POIN2 Label_7_01006002
// 097   ----------------------------------------
 BYTE   W96
// 098   ----------------------------------------
 BYTE   W96
// 099   ----------------------------------------
 BYTE   W96
// 100   ----------------------------------------
 BYTE   W96
 BYTE   PATT
  POIN2 Label_7_01006011
 BYTE   PATT
  POIN2 Label_7_01006024
 BYTE   PATT
  POIN2 Label_7_0100603D
 BYTE   PATT
  POIN2 Label_7_01006056
 BYTE   PATT
  POIN2 Label_7_01006067
 BYTE   PATT
  POIN2 Label_7_0100607C
 BYTE   PATT
  POIN2 Label_7_0100608F
 BYTE   PATT
  POIN2 Label_7_010060A2
 BYTE   PATT
  POIN2 Label_7_01006067
 BYTE   PATT
  POIN2 Label_7_010060B7
 BYTE   PATT
  POIN2 Label_7_010060CA
 BYTE   PATT
  POIN2 Label_7_010060E7
 BYTE   PATT
  POIN2 Label_7_01006067
 BYTE   PATT
  POIN2 Label_7_0100607C
 BYTE   PATT
  POIN2 Label_7_0100608F
 BYTE   PATT
  POIN2 Label_7_010060A2
 BYTE   PATT
  POIN2 Label_7_01006067
 BYTE   PATT
  POIN2 Label_7_010060B7
 BYTE   PATT
  POIN2 Label_7_010060CA
 BYTE   PATT
  POIN2 Label_7_010060E7
 BYTE   PATT
  POIN2 Label_7_01006120
 BYTE   PATT
  POIN2 Label_7_01006136
 BYTE   PATT
  POIN2 Label_7_0100614C
 BYTE   PATT
  POIN2 Label_7_01006162
 BYTE   PATT
  POIN2 Label_7_01006178
 BYTE   PATT
  POIN2 Label_7_0100618E
 BYTE   PATT
  POIN2 Label_7_010061A4
 BYTE   PATT
  POIN2 Label_7_010061B0
 BYTE   PATT
  POIN2 Label_7_010061BC
 BYTE   PATT
  POIN2 Label_7_010061D5
// 101   ----------------------------------------
 BYTE   EOT
 BYTE   As2  v062
 BYTE   W04
 BYTE   FINE

//**************** Track 9 (Midi-Chn.8) ****************//

MountHorn_009:
// 000   ----------------------------------------
 BYTE   KEYSH   MountHorn_key+0
 BYTE   W24
 BYTE   VOICE   62
 BYTE   VOL   20*MountHorn_mvl/mxv
 BYTE   PAN   c_v-64
 BYTE   BEND   c_v+0
 BYTE   W96
// 001   ----------------------------------------
 BYTE   W96
// 002   ----------------------------------------
 BYTE   W96
// 003   ----------------------------------------
 BYTE   W96
// 004   ----------------------------------------
 BYTE   W96
// 005   ----------------------------------------
 BYTE   W96
// 006   ----------------------------------------
 BYTE   W96
// 007   ----------------------------------------
 BYTE   W96
// 008   ----------------------------------------
 BYTE   W96
// 009   ----------------------------------------
 BYTE   W96
// 010   ----------------------------------------
 BYTE   W96
// 011   ----------------------------------------
 BYTE   W96
// 012   ----------------------------------------
 BYTE   W96
// 013   ----------------------------------------
 BYTE   W96
// 014   ----------------------------------------
Label_8_010064AD:
 BYTE   W12
 BYTE   N48  En2  v120
 BYTE   W48
 BYTE   Fs2
 BYTE   W36
 BYTE   PEND 
// 015   ----------------------------------------
Label_8_010064B5:
 BYTE   W12
 BYTE   N48  Gn2  v120
 BYTE   W48
 BYTE   An2
 BYTE   W36
 BYTE   PEND 
// 016   ----------------------------------------
Label_8_010064BD:
 BYTE   W12
 BYTE   N48  As2  v120
 BYTE   W48
 BYTE   Cn3
 BYTE   W36
 BYTE   PEND 
// 017   ----------------------------------------
Label_8_010064C5:
 BYTE   W12
 BYTE   N48  Cs3  v120
 BYTE   W48
 BYTE   Ds3
 BYTE   W36
 BYTE   PEND 
// 018   ----------------------------------------
Label_8_010064CD:
 BYTE   W12
 BYTE   N48  En3  v120
 BYTE   W48
 BYTE   Fs3
 BYTE   W36
 BYTE   PEND 
// 019   ----------------------------------------
Label_8_010064D5:
 BYTE   W12
 BYTE   N48  Gn3  v120
 BYTE   W48
 BYTE   An3
 BYTE   W36
 BYTE   PEND 
// 020   ----------------------------------------
Label_8_010064DD:
 BYTE   W12
 BYTE   N48  As3  v120
 BYTE   W48
 BYTE   Cn4
 BYTE   W36
 BYTE   PEND 
// 021   ----------------------------------------
Label_8_010064E5:
 BYTE   W12
 BYTE   N48  Cs4  v120
 BYTE   W48
 BYTE   Ds4
 BYTE   W36
 BYTE   PEND 
// 022   ----------------------------------------
 BYTE   W96
// 023   ----------------------------------------
 BYTE   W96
// 024   ----------------------------------------
 BYTE   W96
// 025   ----------------------------------------
 BYTE   W96
// 026   ----------------------------------------
 BYTE   W96
// 027   ----------------------------------------
 BYTE   W96
// 028   ----------------------------------------
 BYTE   W96
// 029   ----------------------------------------
 BYTE   W96
// 030   ----------------------------------------
Label_8_010064F5:
 BYTE   W12
 BYTE   N16  An2  v100
 BYTE   N16  Cs3
 BYTE   W24
 BYTE   N16
 BYTE   N16  En3
 BYTE   W24
 BYTE   N32  Bn2
 BYTE   N32  Ds3
 BYTE   W36
 BYTE   PEND 
// 031   ----------------------------------------
Label_8_01006506:
 BYTE   W04
 BYTE   N08  Fs2  v100
 BYTE   N08  Bn2
 BYTE   W08
 BYTE   N16  An2
 BYTE   N16  Cs3
 BYTE   W24
 BYTE   N16
 BYTE   N16  En3
 BYTE   W24
 BYTE   Bn2
 BYTE   N16  Ds3
 BYTE   W24
 BYTE   N16
 BYTE   N16  Fs3
 BYTE   W12
 BYTE   PEND 
// 032   ----------------------------------------
Label_8_0100651F:
 BYTE   W12
 BYTE   N16  Gn2  v100
 BYTE   N16  Bn2
 BYTE   W24
 BYTE   N16
 BYTE   N16  Dn3
 BYTE   W24
 BYTE   An2
 BYTE   N16  Cs3
 BYTE   W24
 BYTE   En2
 BYTE   N16  An2
 BYTE   W12
 BYTE   PEND 
// 033   ----------------------------------------
Label_8_01006533:
 BYTE   W12
 BYTE   N08  Gn2  v100
 BYTE   N08  Bn2
 BYTE   W16
 BYTE   Dn3
 BYTE   N08  Fs3
 BYTE   W08
 BYTE   N64  Dn3
 BYTE   N64  Fs3
 BYTE   W60
 BYTE   PEND 
 BYTE   PATT
  POIN2 Label_8_010064F5
// 034   ----------------------------------------
Label_8_01006549:
 BYTE   W04
 BYTE   N08  Fs2  v100
 BYTE   N08  Bn2
 BYTE   W08
 BYTE   N16  An2
 BYTE   N16  Cs3
 BYTE   W24
 BYTE   En3
 BYTE   N16  Gs3
 BYTE   W24
 BYTE   Ds3
 BYTE   N16  Fs3
 BYTE   W24
 BYTE   Bn2
 BYTE   N16  Ds3
 BYTE   W12
 BYTE   PEND 
// 035   ----------------------------------------
Label_8_01006562:
 BYTE   W12
 BYTE   N08  Bn2  v100
 BYTE   N08  Dn3
 BYTE   W08
 BYTE   Cs3
 BYTE   N08  En3
 BYTE   W08
 BYTE   Dn3
 BYTE   N08  Fs3
 BYTE   W08
 BYTE   N32  Bn2
 BYTE   N32  Dn3
 BYTE   W48
 BYTE   N08  Gn2
 BYTE   N08  Bn2
 BYTE   W12
 BYTE   PEND 
// 036   ----------------------------------------
Label_8_0100657C:
 BYTE   W04
 BYTE   N08  Bn2  v100
 BYTE   N08  Dn3
 BYTE   W08
 BYTE   N40  Cn3
 BYTE   N40  En3
 BYTE   W48
 BYTE   N16  Bn2
 BYTE   N16  Dn3
 BYTE   W24
 BYTE   N40  An2
 BYTE   N24  Cn3
 BYTE   W12
 BYTE   PEND 
// 037   ----------------------------------------
 BYTE   W96
// 038   ----------------------------------------
 BYTE   W96
// 039   ----------------------------------------
 BYTE   W96
// 040   ----------------------------------------
 BYTE   W96
// 041   ----------------------------------------
 BYTE   W96
// 042   ----------------------------------------
 BYTE   W96
// 043   ----------------------------------------
 BYTE   W96
// 044   ----------------------------------------
 BYTE   W96
// 045   ----------------------------------------
 BYTE   W96
// 046   ----------------------------------------
 BYTE   W96
// 047   ----------------------------------------
 BYTE   W96
// 048   ----------------------------------------
 BYTE   W96
// 049   ----------------------------------------
 BYTE   W96
// 050   ----------------------------------------
 BYTE   W96
// 051   ----------------------------------------
 BYTE   W96
// 052   ----------------------------------------
 BYTE   W96
// 053   ----------------------------------------
 BYTE   W96
// 054   ----------------------------------------
 BYTE   W96
// 055   ----------------------------------------
 BYTE   W96
// 056   ----------------------------------------
 BYTE   W96
// 057   ----------------------------------------
 BYTE   W96
// 058   ----------------------------------------
 BYTE   W96
// 059   ----------------------------------------
 BYTE   W96
// 060   ----------------------------------------
 BYTE   W96
// 061   ----------------------------------------
 BYTE   W96
// 062   ----------------------------------------
 BYTE   W96
// 063   ----------------------------------------
 BYTE   W96
// 064   ----------------------------------------
 BYTE   W96
// 065   ----------------------------------------
 BYTE   W96
// 066   ----------------------------------------
 BYTE   W96
// 067   ----------------------------------------
 BYTE   W96
// 068   ----------------------------------------
 BYTE   W96
 BYTE   PATT
  POIN2 Label_8_010064AD
 BYTE   PATT
  POIN2 Label_8_010064B5
 BYTE   PATT
  POIN2 Label_8_010064BD
 BYTE   PATT
  POIN2 Label_8_010064C5
 BYTE   PATT
  POIN2 Label_8_010064CD
 BYTE   PATT
  POIN2 Label_8_010064D5
 BYTE   PATT
  POIN2 Label_8_010064DD
 BYTE   PATT
  POIN2 Label_8_010064E5
// 069   ----------------------------------------
 BYTE   W96
// 070   ----------------------------------------
 BYTE   W96
// 071   ----------------------------------------
 BYTE   W96
// 072   ----------------------------------------
 BYTE   W96
// 073   ----------------------------------------
 BYTE   W96
// 074   ----------------------------------------
 BYTE   W96
// 075   ----------------------------------------
 BYTE   W96
// 076   ----------------------------------------
 BYTE   W96
 BYTE   PATT
  POIN2 Label_8_010064F5
 BYTE   PATT
  POIN2 Label_8_01006506
 BYTE   PATT
  POIN2 Label_8_0100651F
 BYTE   PATT
  POIN2 Label_8_01006533
 BYTE   PATT
  POIN2 Label_8_010064F5
 BYTE   PATT
  POIN2 Label_8_01006549
 BYTE   PATT
  POIN2 Label_8_01006562
 BYTE   PATT
  POIN2 Label_8_0100657C
// 077   ----------------------------------------
 BYTE   W96
// 078   ----------------------------------------
 BYTE   W96
// 079   ----------------------------------------
 BYTE   W96
// 080   ----------------------------------------
 BYTE   W96
// 081   ----------------------------------------
 BYTE   W96
// 082   ----------------------------------------
 BYTE   W96
// 083   ----------------------------------------
 BYTE   W96
// 084   ----------------------------------------
 BYTE   W96
// 085   ----------------------------------------
 BYTE   W96
// 086   ----------------------------------------
 BYTE   W96
// 087   ----------------------------------------
 BYTE   W96
// 088   ----------------------------------------
 BYTE   W96
// 089   ----------------------------------------
 BYTE   W96
// 090   ----------------------------------------
 BYTE   W96
// 091   ----------------------------------------
 BYTE   W96
// 092   ----------------------------------------
 BYTE   W96
// 093   ----------------------------------------
 BYTE   W96
// 094   ----------------------------------------
 BYTE   W96
// 095   ----------------------------------------
 BYTE   W96
// 096   ----------------------------------------
 BYTE   W96
// 097   ----------------------------------------
 BYTE   W96
// 098   ----------------------------------------
 BYTE   W96
// 099   ----------------------------------------
 BYTE   W96
// 100   ----------------------------------------
 BYTE   W96
// 101   ----------------------------------------
 BYTE   W96
// 102   ----------------------------------------
 BYTE   W96
// 103   ----------------------------------------
 BYTE   W96
// 104   ----------------------------------------
 BYTE   W96
// 105   ----------------------------------------
 BYTE   W96
// 106   ----------------------------------------
 BYTE   W96
// 107   ----------------------------------------
 BYTE   W96
// 108   ----------------------------------------
 BYTE   W96
 BYTE   PATT
  POIN2 Label_8_010064AD
 BYTE   PATT
  POIN2 Label_8_010064B5
 BYTE   PATT
  POIN2 Label_8_010064BD
 BYTE   PATT
  POIN2 Label_8_010064C5
 BYTE   PATT
  POIN2 Label_8_010064CD
 BYTE   PATT
  POIN2 Label_8_010064D5
 BYTE   PATT
  POIN2 Label_8_010064DD
 BYTE   PATT
  POIN2 Label_8_010064E5
// 109   ----------------------------------------
 BYTE   W96
// 110   ----------------------------------------
 BYTE   W96
// 111   ----------------------------------------
 BYTE   W96
// 112   ----------------------------------------
 BYTE   W96
// 113   ----------------------------------------
 BYTE   W96
// 114   ----------------------------------------
 BYTE   W96
// 115   ----------------------------------------
 BYTE   W96
// 116   ----------------------------------------
 BYTE   W96
 BYTE   PATT
  POIN2 Label_8_010064F5
 BYTE   PATT
  POIN2 Label_8_01006506
 BYTE   PATT
  POIN2 Label_8_0100651F
 BYTE   PATT
  POIN2 Label_8_01006533
 BYTE   PATT
  POIN2 Label_8_010064F5
 BYTE   PATT
  POIN2 Label_8_01006549
 BYTE   PATT
  POIN2 Label_8_01006562
 BYTE   PATT
  POIN2 Label_8_0100657C
// 117   ----------------------------------------
 BYTE   W96
// 118   ----------------------------------------
 BYTE   W96
// 119   ----------------------------------------
 BYTE   W96
// 120   ----------------------------------------
 BYTE   W96
// 121   ----------------------------------------
 BYTE   W96
// 122   ----------------------------------------
 BYTE   W96
// 123   ----------------------------------------
 BYTE   W96
// 124   ----------------------------------------
 BYTE   W96
// 125   ----------------------------------------
 BYTE   W96
// 126   ----------------------------------------
 BYTE   W96
// 127   ----------------------------------------
 BYTE   W96
// 128   ----------------------------------------
 BYTE   W96
// 129   ----------------------------------------
 BYTE   W96
// 130   ----------------------------------------
 BYTE   W96
// 131   ----------------------------------------
 BYTE   W96
// 132   ----------------------------------------
 BYTE   W96
// 133   ----------------------------------------
 BYTE   W96
// 134   ----------------------------------------
 BYTE   W96
// 135   ----------------------------------------
 BYTE   W96
// 136   ----------------------------------------
 BYTE   W96
// 137   ----------------------------------------
 BYTE   W96
// 138   ----------------------------------------
 BYTE   W96
// 139   ----------------------------------------
 BYTE   W96
// 140   ----------------------------------------
 BYTE   W96
// 141   ----------------------------------------
 BYTE   W96
// 142   ----------------------------------------
 BYTE   W96
// 143   ----------------------------------------
 BYTE   W96
// 144   ----------------------------------------
 BYTE   W96
// 145   ----------------------------------------
 BYTE   W96
// 146   ----------------------------------------
 BYTE   W96
// 147   ----------------------------------------
 BYTE   W96
// 148   ----------------------------------------
 BYTE   W96
 BYTE   PATT
  POIN2 Label_8_010064AD
 BYTE   PATT
  POIN2 Label_8_010064B5
 BYTE   PATT
  POIN2 Label_8_010064BD
 BYTE   PATT
  POIN2 Label_8_010064C5
 BYTE   PATT
  POIN2 Label_8_010064CD
 BYTE   PATT
  POIN2 Label_8_010064D5
 BYTE   PATT
  POIN2 Label_8_010064DD
 BYTE   PATT
  POIN2 Label_8_010064E5
// 149   ----------------------------------------
 BYTE   W96
// 150   ----------------------------------------
 BYTE   W96
// 151   ----------------------------------------
 BYTE   W96
// 152   ----------------------------------------
 BYTE   W96
// 153   ----------------------------------------
 BYTE   W96
// 154   ----------------------------------------
 BYTE   W96
// 155   ----------------------------------------
 BYTE   W96
// 156   ----------------------------------------
 BYTE   W96
 BYTE   PATT
  POIN2 Label_8_010064F5
 BYTE   PATT
  POIN2 Label_8_01006506
 BYTE   PATT
  POIN2 Label_8_0100651F
 BYTE   PATT
  POIN2 Label_8_01006533
 BYTE   PATT
  POIN2 Label_8_010064F5
 BYTE   PATT
  POIN2 Label_8_01006549
 BYTE   PATT
  POIN2 Label_8_01006562
 BYTE   PATT
  POIN2 Label_8_0100657C
// 157   ----------------------------------------
 BYTE   W96
// 158   ----------------------------------------
 BYTE   W96
// 159   ----------------------------------------
 BYTE   W96
// 160   ----------------------------------------
 BYTE   W96
// 161   ----------------------------------------
 BYTE   W96
// 162   ----------------------------------------
 BYTE   W96
// 163   ----------------------------------------
 BYTE   W96
// 164   ----------------------------------------
 BYTE   W96
// 165   ----------------------------------------
 BYTE   W96
// 166   ----------------------------------------
 BYTE   W96
// 167   ----------------------------------------
 BYTE   W96
// 168   ----------------------------------------
 BYTE   W96
// 169   ----------------------------------------
 BYTE   W96
// 170   ----------------------------------------
 BYTE   W96
// 171   ----------------------------------------
 BYTE   W96
// 172   ----------------------------------------
 BYTE   W96
// 173   ----------------------------------------
 BYTE   W96
// 174   ----------------------------------------
 BYTE   W96
 BYTE   FINE

//**************** Track 10 (Midi-Chn.9) ****************//

MountHorn_010:
// 000   ----------------------------------------
 BYTE   KEYSH   MountHorn_key+0
 BYTE   W24
 BYTE   VOICE   0
 BYTE   VOL   40*MountHorn_mvl/mxv
 BYTE   PAN   c_v+0
 BYTE   BEND   c_v+0
 BYTE   N08  Cn1  v127
 BYTE   W24
 BYTE   N08
 BYTE   W24
 BYTE   N08
 BYTE   W24
// 001   ----------------------------------------
 BYTE   N08
 BYTE   W24
Label_9_01006725:
 BYTE   N08  Cn1  v127
 BYTE   W24
 BYTE   N08
 BYTE   W24
 BYTE   N08
 BYTE   W24
// 002   ----------------------------------------
 BYTE   N08
 BYTE   W24
 BYTE   PEND 
 BYTE   PATT
  POIN2 Label_9_01006725
 BYTE   PATT
  POIN2 Label_9_01006725
 BYTE   PATT
  POIN2 Label_9_01006725
 BYTE   PATT
  POIN2 Label_9_01006725
 BYTE   PATT
  POIN2 Label_9_01006725
 BYTE   PATT
  POIN2 Label_9_01006725
 BYTE   PATT
  POIN2 Label_9_01006725
 BYTE   PATT
  POIN2 Label_9_01006725
 BYTE   PATT
  POIN2 Label_9_01006725
 BYTE   PATT
  POIN2 Label_9_01006725
 BYTE   PATT
  POIN2 Label_9_01006725
 BYTE   PATT
  POIN2 Label_9_01006725
// 003   ----------------------------------------
Label_9_0100676C:
 BYTE   N08  Cn1  v127
 BYTE   N06  En1  v072
 BYTE   N48  An2  v127
 BYTE   W16
 BYTE   N06  En1  v072
 BYTE   W08
 BYTE   N08  Cn1  v127
 BYTE   N06  En1  v108
 BYTE   W16
 BYTE   En1  v072
 BYTE   W08
 BYTE   N08  Cn1  v127
 BYTE   N06  En1  v072
 BYTE   W16
 BYTE   N06
 BYTE   W08
 BYTE   N08  Cn1  v127
 BYTE   N06  En1  v108
 BYTE   W16
 BYTE   En1  v072
 BYTE   W08
 BYTE   PEND 
// 004   ----------------------------------------
Label_9_01006798:
 BYTE   N08  Cn1  v127
 BYTE   N06  En1  v072
 BYTE   W16
 BYTE   N06
 BYTE   W08
 BYTE   N08  Cn1  v127
 BYTE   N06  En1  v108
 BYTE   W16
 BYTE   En1  v072
 BYTE   W08
 BYTE   N08  Cn1  v127
 BYTE   N06  En1  v072
 BYTE   W16
 BYTE   N06
 BYTE   W08
 BYTE   N08  Cn1  v127
 BYTE   N06  En1  v108
 BYTE   W16
 BYTE   En1  v072
 BYTE   W08
 BYTE   PEND 
 BYTE   PATT
  POIN2 Label_9_01006798
 BYTE   PATT
  POIN2 Label_9_01006798
 BYTE   PATT
  POIN2 Label_9_0100676C
 BYTE   PATT
  POIN2 Label_9_01006798
 BYTE   PATT
  POIN2 Label_9_01006798
// 005   ----------------------------------------
Label_9_010067D8:
 BYTE   N08  Cn1  v127
 BYTE   N06  En1  v072
 BYTE   W16
 BYTE   N06
 BYTE   W08
 BYTE   N08  Cn1  v127
 BYTE   N06  En1  v108
 BYTE   W16
 BYTE   En1  v072
 BYTE   W08
 BYTE   N08  Cn1  v127
 BYTE   N06  En1  v072
 BYTE   W08
 BYTE   En1  v108
 BYTE   W08
 BYTE   N06
 BYTE   W08
 BYTE   N08  Cn1  v127
 BYTE   N06  En1  v108
 BYTE   W08
 BYTE   N06
 BYTE   W08
 BYTE   N06
 BYTE   W08
 BYTE   PEND 
// 006   ----------------------------------------
Label_9_01006803:
 BYTE   N08  Cn1  v127
 BYTE   N06  En1  v072
 BYTE   N48  An2  v127
 BYTE   W96
 BYTE   PEND 
// 007   ----------------------------------------
Label_9_0100680E:
 BYTE   N08  Cn1  v127
 BYTE   N06  En1  v072
 BYTE   N48  An2  v127
 BYTE   W72
 BYTE   N08  Cn1
 BYTE   N06  En1  v072
 BYTE   W24
 BYTE   PEND 
 BYTE   PATT
  POIN2 Label_9_01006803
 BYTE   PATT
  POIN2 Label_9_0100680E
// 008   ----------------------------------------
Label_9_01006829:
 BYTE   N08  Cn1  v127
 BYTE   N06  En1  v072
 BYTE   N48  An2  v127
 BYTE   W16
 BYTE   N06  En1  v048
 BYTE   W08
 BYTE   N08  Cn1  v084
 BYTE   N06  En1  v048
 BYTE   W16
 BYTE   N06
 BYTE   W08
 BYTE   N08  Cn1  v084
 BYTE   N06  En1  v048
 BYTE   W16
 BYTE   N06
 BYTE   W08
 BYTE   N08  Cn1  v088
 BYTE   N06  En1  v048
 BYTE   W16
 BYTE   N06
 BYTE   W08
 BYTE   PEND 
// 009   ----------------------------------------
Label_9_01006853:
 BYTE   N08  Cn1  v088
 BYTE   N06  En1  v048
 BYTE   N48  An2  v127
 BYTE   W16
 BYTE   N06  En1  v048
 BYTE   W08
 BYTE   N08  Cn1  v088
 BYTE   N06  En1  v048
 BYTE   W16
 BYTE   N06
 BYTE   W08
 BYTE   N08  Cn1  v092
 BYTE   N06  En1  v048
 BYTE   W16
 BYTE   N06
 BYTE   W08
 BYTE   N08  Cn1  v092
 BYTE   N06  En1  v052
 BYTE   W16
 BYTE   N06
 BYTE   W08
 BYTE   PEND 
// 010   ----------------------------------------
Label_9_0100687D:
 BYTE   N08  Cn1  v096
 BYTE   N06  En1  v052
 BYTE   N48  An2  v127
 BYTE   W16
 BYTE   N06  En1  v052
 BYTE   W08
 BYTE   N08  Cn1  v100
 BYTE   N06  En1  v056
 BYTE   W16
 BYTE   N06
 BYTE   W08
 BYTE   N08  Cn1  v104
 BYTE   N06  En1  v056
 BYTE   W16
 BYTE   En1  v060
 BYTE   W08
 BYTE   N08  Cn1  v108
 BYTE   N06  En1  v060
 BYTE   W16
 BYTE   N06
 BYTE   W08
 BYTE   PEND 
// 011   ----------------------------------------
Label_9_010068A8:
 BYTE   N08  Cn1  v112
 BYTE   N06  En1  v064
 BYTE   N48  An2  v127
 BYTE   W16
 BYTE   N06  En1  v064
 BYTE   W08
 BYTE   N08  Cn1  v116
 BYTE   N06  En1  v068
 BYTE   W16
 BYTE   N06
 BYTE   W08
 BYTE   N08  Cn1  v120
 BYTE   N06  En1  v072
 BYTE   W08
 BYTE   En1  v104
 BYTE   W08
 BYTE   N06
 BYTE   W08
 BYTE   N08  Cn1  v127
 BYTE   N06  En1  v108
 BYTE   W08
 BYTE   N06
 BYTE   W08
 BYTE   N06
 BYTE   W08
 BYTE   PEND 
 BYTE   PATT
  POIN2 Label_9_0100676C
 BYTE   PATT
  POIN2 Label_9_01006798
 BYTE   PATT
  POIN2 Label_9_01006798
 BYTE   PATT
  POIN2 Label_9_01006798
 BYTE   PATT
  POIN2 Label_9_01006798
 BYTE   PATT
  POIN2 Label_9_01006798
 BYTE   PATT
  POIN2 Label_9_01006798
 BYTE   PATT
  POIN2 Label_9_010067D8
 BYTE   PATT
  POIN2 Label_9_0100676C
 BYTE   PATT
  POIN2 Label_9_01006798
 BYTE   PATT
  POIN2 Label_9_01006798
 BYTE   PATT
  POIN2 Label_9_01006798
 BYTE   PATT
  POIN2 Label_9_01006798
 BYTE   PATT
  POIN2 Label_9_01006798
 BYTE   PATT
  POIN2 Label_9_01006798
 BYTE   PATT
  POIN2 Label_9_010067D8
// 012   ----------------------------------------
Label_9_01006927:
 BYTE   N48  An2  v127
 BYTE   W24
 BYTE   N08  Cn1
 BYTE   N06  En1  v072
 BYTE   W48
 BYTE   N08  Cn1  v127
 BYTE   N06  En1  v072
 BYTE   W24
 BYTE   PEND 
 BYTE   PATT
  POIN2 Label_9_01006927
 BYTE   PATT
  POIN2 Label_9_01006927
 BYTE   PATT
  POIN2 Label_9_01006927
 BYTE   PATT
  POIN2 Label_9_01006927
 BYTE   PATT
  POIN2 Label_9_01006927
// 013   ----------------------------------------
Label_9_01006952:
 BYTE   N08  Cn1  v127
 BYTE   N06  En1  v072
 BYTE   N48  An2  v127
 BYTE   W16
 BYTE   N06  En1  v072
 BYTE   W08
 BYTE   N08  Cn1  v127
 BYTE   N06  En1  v072
 BYTE   W16
 BYTE   N06
 BYTE   W08
 BYTE   N08  Cn1  v127
 BYTE   N06  En1  v072
 BYTE   W16
 BYTE   N06
 BYTE   W08
 BYTE   N08  Cn1  v127
 BYTE   N06  En1  v072
 BYTE   W16
 BYTE   N06
 BYTE   W08
 BYTE   PEND 
// 014   ----------------------------------------
Label_9_0100697C:
 BYTE   N08  Cn1  v127
 BYTE   N06  En1  v072
 BYTE   W16
 BYTE   N06
 BYTE   W08
 BYTE   N08  Cn1  v127
 BYTE   N06  En1  v072
 BYTE   W16
 BYTE   N06
 BYTE   W08
 BYTE   N08  Cn1  v127
 BYTE   N06  En1  v072
 BYTE   W08
 BYTE   N06
 BYTE   W08
 BYTE   N06
 BYTE   W08
 BYTE   N08  Cn1  v127
 BYTE   N06  En1  v108
 BYTE   W08
 BYTE   N06
 BYTE   W08
 BYTE   N06
 BYTE   W08
 BYTE   PEND 
 BYTE   PATT
  POIN2 Label_9_01006725
 BYTE   PATT
  POIN2 Label_9_01006725
 BYTE   PATT
  POIN2 Label_9_01006725
 BYTE   PATT
  POIN2 Label_9_01006725
 BYTE   PATT
  POIN2 Label_9_01006725
 BYTE   PATT
  POIN2 Label_9_01006725
 BYTE   PATT
  POIN2 Label_9_01006725
 BYTE   PATT
  POIN2 Label_9_01006725
 BYTE   PATT
  POIN2 Label_9_01006725
 BYTE   PATT
  POIN2 Label_9_01006725
 BYTE   PATT
  POIN2 Label_9_01006725
 BYTE   PATT
  POIN2 Label_9_01006725
 BYTE   PATT
  POIN2 Label_9_01006725
 BYTE   PATT
  POIN2 Label_9_01006725
 BYTE   PATT
  POIN2 Label_9_01006725
 BYTE   PATT
  POIN2 Label_9_01006725
 BYTE   PATT
  POIN2 Label_9_0100676C
 BYTE   PATT
  POIN2 Label_9_01006798
 BYTE   PATT
  POIN2 Label_9_01006798
 BYTE   PATT
  POIN2 Label_9_01006798
 BYTE   PATT
  POIN2 Label_9_0100676C
 BYTE   PATT
  POIN2 Label_9_01006798
 BYTE   PATT
  POIN2 Label_9_01006798
 BYTE   PATT
  POIN2 Label_9_010067D8
 BYTE   PATT
  POIN2 Label_9_01006803
 BYTE   PATT
  POIN2 Label_9_0100680E
 BYTE   PATT
  POIN2 Label_9_01006803
 BYTE   PATT
  POIN2 Label_9_0100680E
 BYTE   PATT
  POIN2 Label_9_01006829
 BYTE   PATT
  POIN2 Label_9_01006853
 BYTE   PATT
  POIN2 Label_9_0100687D
 BYTE   PATT
  POIN2 Label_9_010068A8
 BYTE   PATT
  POIN2 Label_9_0100676C
 BYTE   PATT
  POIN2 Label_9_01006798
 BYTE   PATT
  POIN2 Label_9_01006798
 BYTE   PATT
  POIN2 Label_9_01006798
 BYTE   PATT
  POIN2 Label_9_01006798
 BYTE   PATT
  POIN2 Label_9_01006798
 BYTE   PATT
  POIN2 Label_9_01006798
 BYTE   PATT
  POIN2 Label_9_010067D8
 BYTE   PATT
  POIN2 Label_9_0100676C
 BYTE   PATT
  POIN2 Label_9_01006798
 BYTE   PATT
  POIN2 Label_9_01006798
 BYTE   PATT
  POIN2 Label_9_01006798
 BYTE   PATT
  POIN2 Label_9_01006798
 BYTE   PATT
  POIN2 Label_9_01006798
 BYTE   PATT
  POIN2 Label_9_01006798
 BYTE   PATT
  POIN2 Label_9_010067D8
 BYTE   PATT
  POIN2 Label_9_01006927
 BYTE   PATT
  POIN2 Label_9_01006927
 BYTE   PATT
  POIN2 Label_9_01006927
 BYTE   PATT
  POIN2 Label_9_01006927
 BYTE   PATT
  POIN2 Label_9_01006927
 BYTE   PATT
  POIN2 Label_9_01006927
 BYTE   PATT
  POIN2 Label_9_01006952
 BYTE   PATT
  POIN2 Label_9_0100697C
 BYTE   PATT
  POIN2 Label_9_01006725
 BYTE   PATT
  POIN2 Label_9_01006725
 BYTE   PATT
  POIN2 Label_9_01006725
 BYTE   PATT
  POIN2 Label_9_01006725
 BYTE   PATT
  POIN2 Label_9_01006725
 BYTE   PATT
  POIN2 Label_9_01006725
 BYTE   PATT
  POIN2 Label_9_01006725
 BYTE   PATT
  POIN2 Label_9_01006725
 BYTE   PATT
  POIN2 Label_9_01006725
 BYTE   PATT
  POIN2 Label_9_01006725
 BYTE   PATT
  POIN2 Label_9_01006725
 BYTE   PATT
  POIN2 Label_9_01006725
 BYTE   PATT
  POIN2 Label_9_01006725
 BYTE   PATT
  POIN2 Label_9_01006725
 BYTE   PATT
  POIN2 Label_9_01006725
 BYTE   PATT
  POIN2 Label_9_01006725
 BYTE   PATT
  POIN2 Label_9_0100676C
 BYTE   PATT
  POIN2 Label_9_01006798
 BYTE   PATT
  POIN2 Label_9_01006798
 BYTE   PATT
  POIN2 Label_9_01006798
 BYTE   PATT
  POIN2 Label_9_0100676C
 BYTE   PATT
  POIN2 Label_9_01006798
 BYTE   PATT
  POIN2 Label_9_01006798
 BYTE   PATT
  POIN2 Label_9_010067D8
 BYTE   PATT
  POIN2 Label_9_01006803
 BYTE   PATT
  POIN2 Label_9_0100680E
 BYTE   PATT
  POIN2 Label_9_01006803
 BYTE   PATT
  POIN2 Label_9_0100680E
 BYTE   PATT
  POIN2 Label_9_01006829
 BYTE   PATT
  POIN2 Label_9_01006853
 BYTE   PATT
  POIN2 Label_9_0100687D
 BYTE   PATT
  POIN2 Label_9_010068A8
 BYTE   PATT
  POIN2 Label_9_0100676C
 BYTE   PATT
  POIN2 Label_9_01006798
 BYTE   PATT
  POIN2 Label_9_01006798
 BYTE   PATT
  POIN2 Label_9_01006798
 BYTE   PATT
  POIN2 Label_9_01006798
 BYTE   PATT
  POIN2 Label_9_01006798
 BYTE   PATT
  POIN2 Label_9_01006798
 BYTE   PATT
  POIN2 Label_9_010067D8
 BYTE   PATT
  POIN2 Label_9_0100676C
 BYTE   PATT
  POIN2 Label_9_01006798
 BYTE   PATT
  POIN2 Label_9_01006798
 BYTE   PATT
  POIN2 Label_9_01006798
 BYTE   PATT
  POIN2 Label_9_01006798
 BYTE   PATT
  POIN2 Label_9_01006798
 BYTE   PATT
  POIN2 Label_9_01006798
 BYTE   PATT
  POIN2 Label_9_010067D8
 BYTE   PATT
  POIN2 Label_9_01006927
 BYTE   PATT
  POIN2 Label_9_01006927
 BYTE   PATT
  POIN2 Label_9_01006927
 BYTE   PATT
  POIN2 Label_9_01006927
 BYTE   PATT
  POIN2 Label_9_01006927
 BYTE   PATT
  POIN2 Label_9_01006927
 BYTE   PATT
  POIN2 Label_9_01006952
 BYTE   PATT
  POIN2 Label_9_0100697C
 BYTE   PATT
  POIN2 Label_9_01006725
 BYTE   PATT
  POIN2 Label_9_01006725
 BYTE   PATT
  POIN2 Label_9_01006725
 BYTE   PATT
  POIN2 Label_9_01006725
 BYTE   PATT
  POIN2 Label_9_01006725
 BYTE   PATT
  POIN2 Label_9_01006725
 BYTE   PATT
  POIN2 Label_9_01006725
 BYTE   PATT
  POIN2 Label_9_01006725
 BYTE   PATT
  POIN2 Label_9_01006725
 BYTE   PATT
  POIN2 Label_9_01006725
 BYTE   PATT
  POIN2 Label_9_01006725
 BYTE   PATT
  POIN2 Label_9_01006725
 BYTE   PATT
  POIN2 Label_9_01006725
 BYTE   PATT
  POIN2 Label_9_01006725
 BYTE   PATT
  POIN2 Label_9_01006725
 BYTE   PATT
  POIN2 Label_9_01006725
 BYTE   PATT
  POIN2 Label_9_0100676C
 BYTE   PATT
  POIN2 Label_9_01006798
 BYTE   PATT
  POIN2 Label_9_01006798
 BYTE   PATT
  POIN2 Label_9_01006798
 BYTE   PATT
  POIN2 Label_9_0100676C
 BYTE   PATT
  POIN2 Label_9_01006798
 BYTE   PATT
  POIN2 Label_9_01006798
 BYTE   PATT
  POIN2 Label_9_010067D8
 BYTE   PATT
  POIN2 Label_9_01006803
 BYTE   PATT
  POIN2 Label_9_0100680E
 BYTE   PATT
  POIN2 Label_9_01006803
 BYTE   PATT
  POIN2 Label_9_0100680E
 BYTE   PATT
  POIN2 Label_9_01006829
 BYTE   PATT
  POIN2 Label_9_01006853
 BYTE   PATT
  POIN2 Label_9_0100687D
 BYTE   PATT
  POIN2 Label_9_010068A8
 BYTE   PATT
  POIN2 Label_9_0100676C
 BYTE   PATT
  POIN2 Label_9_01006798
 BYTE   PATT
  POIN2 Label_9_01006798
 BYTE   PATT
  POIN2 Label_9_01006798
 BYTE   PATT
  POIN2 Label_9_01006798
 BYTE   PATT
  POIN2 Label_9_01006798
 BYTE   PATT
  POIN2 Label_9_01006798
 BYTE   PATT
  POIN2 Label_9_010067D8
 BYTE   PATT
  POIN2 Label_9_0100676C
 BYTE   PATT
  POIN2 Label_9_01006798
 BYTE   PATT
  POIN2 Label_9_01006798
 BYTE   PATT
  POIN2 Label_9_01006798
 BYTE   PATT
  POIN2 Label_9_01006798
 BYTE   PATT
  POIN2 Label_9_01006798
 BYTE   PATT
  POIN2 Label_9_01006798
 BYTE   PATT
  POIN2 Label_9_010067D8
 BYTE   PATT
  POIN2 Label_9_01006927
 BYTE   PATT
  POIN2 Label_9_01006927
 BYTE   PATT
  POIN2 Label_9_01006927
 BYTE   PATT
  POIN2 Label_9_01006927
 BYTE   PATT
  POIN2 Label_9_01006927
 BYTE   PATT
  POIN2 Label_9_01006927
 BYTE   PATT
  POIN2 Label_9_01006952
 BYTE   PATT
  POIN2 Label_9_0100697C
 BYTE   PATT
  POIN2 Label_9_01006725
 BYTE   PATT
  POIN2 Label_9_01006725
 BYTE   FINE

//**************** Track 11 (Midi-Chn.10) ****************//

MountHorn_011:
// 000   ----------------------------------------
 BYTE   KEYSH   MountHorn_key+0
 BYTE   W24
 BYTE   VOICE   62
 BYTE   VOL   17*MountHorn_mvl/mxv
 BYTE   PAN   c_v+63
 BYTE   BEND   c_v+0
 BYTE   W96
// 001   ----------------------------------------
 BYTE   W96
// 002   ----------------------------------------
 BYTE   W96
// 003   ----------------------------------------
 BYTE   W96
// 004   ----------------------------------------
 BYTE   W96
// 005   ----------------------------------------
 BYTE   W96
// 006   ----------------------------------------
 BYTE   W96
// 007   ----------------------------------------
 BYTE   W96
// 008   ----------------------------------------
 BYTE   W96
// 009   ----------------------------------------
 BYTE   W96
// 010   ----------------------------------------
 BYTE   W96
// 011   ----------------------------------------
 BYTE   W96
// 012   ----------------------------------------
 BYTE   W96
// 013   ----------------------------------------
 BYTE   W96
// 014   ----------------------------------------
Label_10_01006D11:
 BYTE   W24
 BYTE   N48  En2  v120
 BYTE   W48
 BYTE   Fs2
 BYTE   W24
 BYTE   PEND 
// 015   ----------------------------------------
Label_10_01006D19:
 BYTE   W24
 BYTE   N48  Gn2  v120
 BYTE   W48
 BYTE   An2
 BYTE   W24
 BYTE   PEND 
// 016   ----------------------------------------
Label_10_01006D21:
 BYTE   W24
 BYTE   N48  As2  v120
 BYTE   W48
 BYTE   Cn3
 BYTE   W24
 BYTE   PEND 
// 017   ----------------------------------------
Label_10_01006D29:
 BYTE   W24
 BYTE   N48  Cs3  v120
 BYTE   W48
 BYTE   Ds3
 BYTE   W24
 BYTE   PEND 
// 018   ----------------------------------------
Label_10_01006D31:
 BYTE   W24
 BYTE   N48  En3  v120
 BYTE   W48
 BYTE   Fs3
 BYTE   W24
 BYTE   PEND 
// 019   ----------------------------------------
Label_10_01006D39:
 BYTE   W24
 BYTE   N48  Gn3  v120
 BYTE   W48
 BYTE   An3
 BYTE   W24
 BYTE   PEND 
// 020   ----------------------------------------
Label_10_01006D41:
 BYTE   W24
 BYTE   N48  As3  v120
 BYTE   W48
 BYTE   Cn4
 BYTE   W24
 BYTE   PEND 
// 021   ----------------------------------------
Label_10_01006D49:
 BYTE   W24
 BYTE   N48  Cs4  v120
 BYTE   W48
 BYTE   Ds4
 BYTE   W24
 BYTE   PEND 
// 022   ----------------------------------------
 BYTE   W96
// 023   ----------------------------------------
 BYTE   W96
// 024   ----------------------------------------
 BYTE   W96
// 025   ----------------------------------------
 BYTE   W96
// 026   ----------------------------------------
 BYTE   W96
// 027   ----------------------------------------
 BYTE   W96
// 028   ----------------------------------------
 BYTE   W96
// 029   ----------------------------------------
 BYTE   W96
// 030   ----------------------------------------
Label_10_01006D59:
 BYTE   W24
 BYTE   N16  Cs3  v127
 BYTE   W24
 BYTE   En3
 BYTE   W24
 BYTE   N32  Ds3
 BYTE   W24
 BYTE   PEND 
// 031   ----------------------------------------
Label_10_01006D64:
 BYTE   W16
 BYTE   N08  Bn2  v127
 BYTE   W08
 BYTE   N16  Cs3
 BYTE   W24
 BYTE   En3
 BYTE   W24
 BYTE   Ds3
 BYTE   W24
 BYTE   PEND 
// 032   ----------------------------------------
Label_10_01006D71:
 BYTE   N16  Fs3  v127
 BYTE   W24
 BYTE   Bn2
 BYTE   W24
 BYTE   Dn3
 BYTE   W24
 BYTE   Cs3
 BYTE   W24
 BYTE   PEND 
// 033   ----------------------------------------
Label_10_01006D7C:
 BYTE   N16  An2  v127
 BYTE   W24
 BYTE   N08  Bn2
 BYTE   W16
 BYTE   Fs3
 BYTE   W08
 BYTE   N64
 BYTE   W48
 BYTE   PEND 
 BYTE   PATT
  POIN2 Label_10_01006D59
// 034   ----------------------------------------
Label_10_01006D8D:
 BYTE   W16
 BYTE   N08  Bn2  v127
 BYTE   W08
 BYTE   N16  Cs3
 BYTE   W24
 BYTE   Gs3
 BYTE   W24
 BYTE   Fs3
 BYTE   W24
 BYTE   PEND 
// 035   ----------------------------------------
Label_10_01006D9A:
 BYTE   N16  Ds3  v127
 BYTE   W24
 BYTE   N08  Dn3
 BYTE   W08
 BYTE   En3
 BYTE   W08
 BYTE   Fs3
 BYTE   W08
 BYTE   N32  Dn3
 BYTE   W48
 BYTE   PEND 
// 036   ----------------------------------------
Label_10_01006DA9:
 BYTE   N08  Bn2  v127
 BYTE   W16
 BYTE   Dn3
 BYTE   W08
 BYTE   N40  En3
 BYTE   W48
 BYTE   N16  Dn3
 BYTE   W24
 BYTE   PEND 
// 037   ----------------------------------------
 BYTE   N24  Cn3
 BYTE   W96
// 038   ----------------------------------------
 BYTE   W96
// 039   ----------------------------------------
 BYTE   W96
// 040   ----------------------------------------
 BYTE   W96
// 041   ----------------------------------------
 BYTE   W96
// 042   ----------------------------------------
 BYTE   W96
// 043   ----------------------------------------
 BYTE   W96
// 044   ----------------------------------------
 BYTE   W96
// 045   ----------------------------------------
 BYTE   W96
// 046   ----------------------------------------
 BYTE   W96
// 047   ----------------------------------------
 BYTE   W96
// 048   ----------------------------------------
 BYTE   W96
// 049   ----------------------------------------
 BYTE   W96
// 050   ----------------------------------------
 BYTE   W96
// 051   ----------------------------------------
 BYTE   W96
// 052   ----------------------------------------
 BYTE   W96
// 053   ----------------------------------------
 BYTE   W96
// 054   ----------------------------------------
 BYTE   W96
// 055   ----------------------------------------
 BYTE   W96
// 056   ----------------------------------------
 BYTE   W96
// 057   ----------------------------------------
 BYTE   W96
// 058   ----------------------------------------
 BYTE   W96
// 059   ----------------------------------------
 BYTE   W96
// 060   ----------------------------------------
 BYTE   W96
// 061   ----------------------------------------
 BYTE   W96
// 062   ----------------------------------------
 BYTE   W96
// 063   ----------------------------------------
 BYTE   W96
// 064   ----------------------------------------
 BYTE   W96
// 065   ----------------------------------------
 BYTE   W96
// 066   ----------------------------------------
 BYTE   W96
// 067   ----------------------------------------
 BYTE   W96
// 068   ----------------------------------------
 BYTE   W96
 BYTE   PATT
  POIN2 Label_10_01006D11
 BYTE   PATT
  POIN2 Label_10_01006D19
 BYTE   PATT
  POIN2 Label_10_01006D21
 BYTE   PATT
  POIN2 Label_10_01006D29
 BYTE   PATT
  POIN2 Label_10_01006D31
 BYTE   PATT
  POIN2 Label_10_01006D39
 BYTE   PATT
  POIN2 Label_10_01006D41
 BYTE   PATT
  POIN2 Label_10_01006D49
// 069   ----------------------------------------
 BYTE   W96
// 070   ----------------------------------------
 BYTE   W96
// 071   ----------------------------------------
 BYTE   W96
// 072   ----------------------------------------
 BYTE   W96
// 073   ----------------------------------------
 BYTE   W96
// 074   ----------------------------------------
 BYTE   W96
// 075   ----------------------------------------
 BYTE   W96
// 076   ----------------------------------------
 BYTE   W96
 BYTE   PATT
  POIN2 Label_10_01006D59
 BYTE   PATT
  POIN2 Label_10_01006D64
 BYTE   PATT
  POIN2 Label_10_01006D71
 BYTE   PATT
  POIN2 Label_10_01006D7C
 BYTE   PATT
  POIN2 Label_10_01006D59
 BYTE   PATT
  POIN2 Label_10_01006D8D
 BYTE   PATT
  POIN2 Label_10_01006D9A
 BYTE   PATT
  POIN2 Label_10_01006DA9
// 077   ----------------------------------------
 BYTE   N24  Cn3  v127
 BYTE   W96
// 078   ----------------------------------------
 BYTE   W96
// 079   ----------------------------------------
 BYTE   W96
// 080   ----------------------------------------
 BYTE   W96
// 081   ----------------------------------------
 BYTE   W96
// 082   ----------------------------------------
 BYTE   W96
// 083   ----------------------------------------
 BYTE   W96
// 084   ----------------------------------------
 BYTE   W96
// 085   ----------------------------------------
 BYTE   W96
// 086   ----------------------------------------
 BYTE   W96
// 087   ----------------------------------------
 BYTE   W96
// 088   ----------------------------------------
 BYTE   W96
// 089   ----------------------------------------
 BYTE   W96
// 090   ----------------------------------------
 BYTE   W96
// 091   ----------------------------------------
 BYTE   W96
// 092   ----------------------------------------
 BYTE   W96
// 093   ----------------------------------------
 BYTE   W96
// 094   ----------------------------------------
 BYTE   W96
// 095   ----------------------------------------
 BYTE   W96
// 096   ----------------------------------------
 BYTE   W96
// 097   ----------------------------------------
 BYTE   W96
// 098   ----------------------------------------
 BYTE   W96
// 099   ----------------------------------------
 BYTE   W96
// 100   ----------------------------------------
 BYTE   W96
// 101   ----------------------------------------
 BYTE   W96
// 102   ----------------------------------------
 BYTE   W96
// 103   ----------------------------------------
 BYTE   W96
// 104   ----------------------------------------
 BYTE   W96
// 105   ----------------------------------------
 BYTE   W96
// 106   ----------------------------------------
 BYTE   W96
// 107   ----------------------------------------
 BYTE   W96
// 108   ----------------------------------------
 BYTE   W96
 BYTE   PATT
  POIN2 Label_10_01006D11
 BYTE   PATT
  POIN2 Label_10_01006D19
 BYTE   PATT
  POIN2 Label_10_01006D21
 BYTE   PATT
  POIN2 Label_10_01006D29
 BYTE   PATT
  POIN2 Label_10_01006D31
 BYTE   PATT
  POIN2 Label_10_01006D39
 BYTE   PATT
  POIN2 Label_10_01006D41
 BYTE   PATT
  POIN2 Label_10_01006D49
// 109   ----------------------------------------
 BYTE   W96
// 110   ----------------------------------------
 BYTE   W96
// 111   ----------------------------------------
 BYTE   W96
// 112   ----------------------------------------
 BYTE   W96
// 113   ----------------------------------------
 BYTE   W96
// 114   ----------------------------------------
 BYTE   W96
// 115   ----------------------------------------
 BYTE   W96
// 116   ----------------------------------------
 BYTE   W96
 BYTE   PATT
  POIN2 Label_10_01006D59
 BYTE   PATT
  POIN2 Label_10_01006D64
 BYTE   PATT
  POIN2 Label_10_01006D71
 BYTE   PATT
  POIN2 Label_10_01006D7C
 BYTE   PATT
  POIN2 Label_10_01006D59
 BYTE   PATT
  POIN2 Label_10_01006D8D
 BYTE   PATT
  POIN2 Label_10_01006D9A
 BYTE   PATT
  POIN2 Label_10_01006DA9
// 117   ----------------------------------------
 BYTE   N24  Cn3  v127
 BYTE   W96
// 118   ----------------------------------------
 BYTE   W96
// 119   ----------------------------------------
 BYTE   W96
// 120   ----------------------------------------
 BYTE   W96
// 121   ----------------------------------------
 BYTE   W96
// 122   ----------------------------------------
 BYTE   W96
// 123   ----------------------------------------
 BYTE   W96
// 124   ----------------------------------------
 BYTE   W96
// 125   ----------------------------------------
 BYTE   W96
// 126   ----------------------------------------
 BYTE   W96
// 127   ----------------------------------------
 BYTE   W96
// 128   ----------------------------------------
 BYTE   W96
// 129   ----------------------------------------
 BYTE   W96
// 130   ----------------------------------------
 BYTE   W96
// 131   ----------------------------------------
 BYTE   W96
// 132   ----------------------------------------
 BYTE   W96
// 133   ----------------------------------------
 BYTE   W96
// 134   ----------------------------------------
 BYTE   W96
// 135   ----------------------------------------
 BYTE   W96
// 136   ----------------------------------------
 BYTE   W96
// 137   ----------------------------------------
 BYTE   W96
// 138   ----------------------------------------
 BYTE   W96
// 139   ----------------------------------------
 BYTE   W96
// 140   ----------------------------------------
 BYTE   W96
// 141   ----------------------------------------
 BYTE   W96
// 142   ----------------------------------------
 BYTE   W96
// 143   ----------------------------------------
 BYTE   W96
// 144   ----------------------------------------
 BYTE   W96
// 145   ----------------------------------------
 BYTE   W96
// 146   ----------------------------------------
 BYTE   W96
// 147   ----------------------------------------
 BYTE   W96
// 148   ----------------------------------------
 BYTE   W96
 BYTE   PATT
  POIN2 Label_10_01006D11
 BYTE   PATT
  POIN2 Label_10_01006D19
 BYTE   PATT
  POIN2 Label_10_01006D21
 BYTE   PATT
  POIN2 Label_10_01006D29
 BYTE   PATT
  POIN2 Label_10_01006D31
 BYTE   PATT
  POIN2 Label_10_01006D39
 BYTE   PATT
  POIN2 Label_10_01006D41
 BYTE   PATT
  POIN2 Label_10_01006D49
// 149   ----------------------------------------
 BYTE   W96
// 150   ----------------------------------------
 BYTE   W96
// 151   ----------------------------------------
 BYTE   W96
// 152   ----------------------------------------
 BYTE   W96
// 153   ----------------------------------------
 BYTE   W96
// 154   ----------------------------------------
 BYTE   W96
// 155   ----------------------------------------
 BYTE   W96
// 156   ----------------------------------------
 BYTE   W96
 BYTE   PATT
  POIN2 Label_10_01006D59
 BYTE   PATT
  POIN2 Label_10_01006D64
 BYTE   PATT
  POIN2 Label_10_01006D71
 BYTE   PATT
  POIN2 Label_10_01006D7C
 BYTE   PATT
  POIN2 Label_10_01006D59
 BYTE   PATT
  POIN2 Label_10_01006D8D
 BYTE   PATT
  POIN2 Label_10_01006D9A
 BYTE   PATT
  POIN2 Label_10_01006DA9
// 157   ----------------------------------------
 BYTE   N24  Cn3  v127
 BYTE   W96
// 158   ----------------------------------------
 BYTE   W96
// 159   ----------------------------------------
 BYTE   W96
// 160   ----------------------------------------
 BYTE   W96
// 161   ----------------------------------------
 BYTE   W96
// 162   ----------------------------------------
 BYTE   W96
// 163   ----------------------------------------
 BYTE   W96
// 164   ----------------------------------------
 BYTE   W96
// 165   ----------------------------------------
 BYTE   W96
// 166   ----------------------------------------
 BYTE   W96
// 167   ----------------------------------------
 BYTE   W96
// 168   ----------------------------------------
 BYTE   W96
// 169   ----------------------------------------
 BYTE   W96
// 170   ----------------------------------------
 BYTE   W96
// 171   ----------------------------------------
 BYTE   W96
// 172   ----------------------------------------
 BYTE   W96
// 173   ----------------------------------------
 BYTE   W96
// 174   ----------------------------------------
 BYTE   W96
 BYTE   FINE

//**************** Track 12 (Midi-Chn.11) ****************//

MountHorn_012:
// 000   ----------------------------------------
 BYTE   KEYSH   MountHorn_key+0
 BYTE   W24
 BYTE   VOICE   47
 BYTE   VOL   50*MountHorn_mvl/mxv
 BYTE   PAN   c_v+0
 BYTE   BEND   c_v+0
 BYTE   N06  Cn2  v127
 BYTE   W24
 BYTE   N06
 BYTE   W24
 BYTE   N06
 BYTE   W24
// 001   ----------------------------------------
 BYTE   N06
 BYTE   W24
Label_11_01006F51:
 BYTE   N06  Cn2  v127
 BYTE   W24
 BYTE   N06
 BYTE   W24
 BYTE   N06
 BYTE   W24
// 002   ----------------------------------------
 BYTE   Gn1
 BYTE   W08
 BYTE   N06
 BYTE   W08
 BYTE   N06
 BYTE   W08
 BYTE   PEND 
Label_11_01006F60:
 BYTE   N06  Cn2  v127
 BYTE   W24
 BYTE   N06
 BYTE   W24
 BYTE   N06
 BYTE   W24
// 003   ----------------------------------------
 BYTE   N06
 BYTE   W24
 BYTE   PEND 
 BYTE   PATT
  POIN2 Label_11_01006F51
 BYTE   PATT
  POIN2 Label_11_01006F60
 BYTE   PATT
  POIN2 Label_11_01006F51
 BYTE   PATT
  POIN2 Label_11_01006F60
 BYTE   PATT
  POIN2 Label_11_01006F51
 BYTE   PATT
  POIN2 Label_11_01006F60
 BYTE   PATT
  POIN2 Label_11_01006F51
 BYTE   PATT
  POIN2 Label_11_01006F60
 BYTE   PATT
  POIN2 Label_11_01006F51
 BYTE   PATT
  POIN2 Label_11_01006F60
// 004   ----------------------------------------
Label_11_01006F9D:
 BYTE   N06  Cn2  v127
 BYTE   W24
 BYTE   N06
 BYTE   W24
 BYTE   N06
 BYTE   W16
 BYTE   N06
 BYTE   W08
 BYTE   Gn1
 BYTE   W08
 BYTE   N06
 BYTE   W08
 BYTE   N06
 BYTE   W08
 BYTE   PEND 
 BYTE   PATT
  POIN2 Label_11_01006F60
 BYTE   PATT
  POIN2 Label_11_01006F60
// 005   ----------------------------------------
Label_11_01006FB8:
 BYTE   N06  Fs2  v127
 BYTE   W24
 BYTE   N06
 BYTE   W24
 BYTE   N06
 BYTE   W24
 BYTE   N06
 BYTE   W24
 BYTE   PEND 
// 006   ----------------------------------------
Label_11_01006FC3:
 BYTE   N06  Fs2  v127
 BYTE   W24
 BYTE   N06
 BYTE   W24
 BYTE   N06
 BYTE   W08
 BYTE   Cn2
 BYTE   W08
 BYTE   Fs2
 BYTE   W08
 BYTE   Cn2
 BYTE   W08
 BYTE   Fs2
 BYTE   W08
 BYTE   Cn2
 BYTE   W08
 BYTE   PEND 
 BYTE   PATT
  POIN2 Label_11_01006F60
 BYTE   PATT
  POIN2 Label_11_01006F60
 BYTE   PATT
  POIN2 Label_11_01006FB8
 BYTE   PATT
  POIN2 Label_11_01006FC3
// 007   ----------------------------------------
 BYTE   N06  Cn2  v127
 BYTE   W96
// 008   ----------------------------------------
Label_11_01006FEE:
 BYTE   N06  Cn2  v127
 BYTE   W72
 BYTE   Gn1
 BYTE   W24
 BYTE   PEND 
// 009   ----------------------------------------
 BYTE   Cn2
 BYTE   W96
// 010   ----------------------------------------
Label_11_01006FF7:
 BYTE   N06  Cn2  v127
 BYTE   W72
 BYTE   Gn1
 BYTE   W08
 BYTE   Cn2
 BYTE   W08
 BYTE   Gn1
 BYTE   W08
 BYTE   PEND 
 BYTE   PATT
  POIN2 Label_11_01006F60
 BYTE   PATT
  POIN2 Label_11_01006F51
 BYTE   PATT
  POIN2 Label_11_01006F60
 BYTE   PATT
  POIN2 Label_11_01006F9D
// 011   ----------------------------------------
Label_11_01007016:
 BYTE   N06  Bn1  v127
 BYTE   W24
 BYTE   N06
 BYTE   W24
 BYTE   N06
 BYTE   W24
 BYTE   N06
 BYTE   W24
 BYTE   PEND 
 BYTE   PATT
  POIN2 Label_11_01007016
// 012   ----------------------------------------
Label_11_01007026:
 BYTE   N06  An1  v127
 BYTE   W24
 BYTE   N06
 BYTE   W24
 BYTE   N06
 BYTE   W24
 BYTE   N06
 BYTE   W24
 BYTE   PEND 
 BYTE   PATT
  POIN2 Label_11_01007026
 BYTE   PATT
  POIN2 Label_11_01007016
 BYTE   PATT
  POIN2 Label_11_01007016
// 013   ----------------------------------------
Label_11_01007040:
 BYTE   N06  En2  v127
 BYTE   W24
 BYTE   N06
 BYTE   W24
 BYTE   N06
 BYTE   W24
 BYTE   N06
 BYTE   W24
 BYTE   PEND 
// 014   ----------------------------------------
Label_11_0100704B:
 BYTE   N06  Dn2  v127
 BYTE   W24
 BYTE   N06
 BYTE   W24
 BYTE   N06
 BYTE   W24
 BYTE   Cn2
 BYTE   W24
 BYTE   PEND 
 BYTE   PATT
  POIN2 Label_11_01007016
 BYTE   PATT
  POIN2 Label_11_01007016
 BYTE   PATT
  POIN2 Label_11_01007026
 BYTE   PATT
  POIN2 Label_11_01007026
 BYTE   PATT
  POIN2 Label_11_01007016
 BYTE   PATT
  POIN2 Label_11_01007016
 BYTE   PATT
  POIN2 Label_11_01007040
// 015   ----------------------------------------
Label_11_01007079:
 BYTE   N06  Dn2  v127
 BYTE   W24
 BYTE   N06
 BYTE   W24
 BYTE   N06
 BYTE   W24
 BYTE   N06
 BYTE   W24
 BYTE   PEND 
// 016   ----------------------------------------
Label_11_01007084:
 BYTE   N06  Dn2  v127
 BYTE   W48
 BYTE   N06
 BYTE   W48
 BYTE   PEND 
// 017   ----------------------------------------
Label_11_0100708B:
 BYTE   N06  Cn2  v127
 BYTE   W48
 BYTE   N06
 BYTE   W48
 BYTE   PEND 
// 018   ----------------------------------------
Label_11_01007092:
 BYTE   N06  As1  v127
 BYTE   W48
 BYTE   N06
 BYTE   W48
 BYTE   PEND 
// 019   ----------------------------------------
Label_11_01007099:
 BYTE   N06  An1  v127
 BYTE   W48
 BYTE   N06
 BYTE   W48
 BYTE   PEND 
// 020   ----------------------------------------
Label_11_010070A0:
 BYTE   N06  Gs1  v127
 BYTE   W48
 BYTE   N06
 BYTE   W48
 BYTE   PEND 
// 021   ----------------------------------------
Label_11_010070A7:
 BYTE   N06  Gn1  v127
 BYTE   W48
 BYTE   N06
 BYTE   W48
 BYTE   PEND 
// 022   ----------------------------------------
Label_11_010070AE:
 BYTE   N06  Fn2  v127
 BYTE   W24
 BYTE   N06
 BYTE   W24
 BYTE   N06
 BYTE   W24
 BYTE   N06
 BYTE   W24
 BYTE   PEND 
 BYTE   PATT
  POIN2 Label_11_010070AE
 BYTE   PATT
  POIN2 Label_11_01006F60
 BYTE   PATT
  POIN2 Label_11_01006F60
 BYTE   PATT
  POIN2 Label_11_01006F60
 BYTE   PATT
  POIN2 Label_11_01006F51
 BYTE   PATT
  POIN2 Label_11_01006F60
 BYTE   PATT
  POIN2 Label_11_01006F51
 BYTE   PATT
  POIN2 Label_11_01006F60
 BYTE   PATT
  POIN2 Label_11_01006F51
 BYTE   PATT
  POIN2 Label_11_01006F60
 BYTE   PATT
  POIN2 Label_11_01006F51
 BYTE   PATT
  POIN2 Label_11_01006F60
 BYTE   PATT
  POIN2 Label_11_01006F51
 BYTE   PATT
  POIN2 Label_11_01006F60
 BYTE   PATT
  POIN2 Label_11_01006F51
 BYTE   PATT
  POIN2 Label_11_01006F60
 BYTE   PATT
  POIN2 Label_11_01006F9D
 BYTE   PATT
  POIN2 Label_11_01006F60
 BYTE   PATT
  POIN2 Label_11_01006F60
 BYTE   PATT
  POIN2 Label_11_01006FB8
 BYTE   PATT
  POIN2 Label_11_01006FC3
 BYTE   PATT
  POIN2 Label_11_01006F60
 BYTE   PATT
  POIN2 Label_11_01006F60
 BYTE   PATT
  POIN2 Label_11_01006FB8
 BYTE   PATT
  POIN2 Label_11_01006FC3
// 023   ----------------------------------------
 BYTE   N06  Cn2  v127
 BYTE   W96
 BYTE   PATT
  POIN2 Label_11_01006FEE
// 024   ----------------------------------------
 BYTE   N06  Cn2  v127
 BYTE   W96
 BYTE   PATT
  POIN2 Label_11_01006FF7
 BYTE   PATT
  POIN2 Label_11_01006F60
 BYTE   PATT
  POIN2 Label_11_01006F51
 BYTE   PATT
  POIN2 Label_11_01006F60
 BYTE   PATT
  POIN2 Label_11_01006F9D
 BYTE   PATT
  POIN2 Label_11_01007016
 BYTE   PATT
  POIN2 Label_11_01007016
 BYTE   PATT
  POIN2 Label_11_01007026
 BYTE   PATT
  POIN2 Label_11_01007026
 BYTE   PATT
  POIN2 Label_11_01007016
 BYTE   PATT
  POIN2 Label_11_01007016
 BYTE   PATT
  POIN2 Label_11_01007040
 BYTE   PATT
  POIN2 Label_11_0100704B
 BYTE   PATT
  POIN2 Label_11_01007016
 BYTE   PATT
  POIN2 Label_11_01007016
 BYTE   PATT
  POIN2 Label_11_01007026
 BYTE   PATT
  POIN2 Label_11_01007026
 BYTE   PATT
  POIN2 Label_11_01007016
 BYTE   PATT
  POIN2 Label_11_01007016
 BYTE   PATT
  POIN2 Label_11_01007040
 BYTE   PATT
  POIN2 Label_11_01007079
 BYTE   PATT
  POIN2 Label_11_01007084
 BYTE   PATT
  POIN2 Label_11_0100708B
 BYTE   PATT
  POIN2 Label_11_01007092
 BYTE   PATT
  POIN2 Label_11_01007099
 BYTE   PATT
  POIN2 Label_11_010070A0
 BYTE   PATT
  POIN2 Label_11_010070A7
 BYTE   PATT
  POIN2 Label_11_010070AE
 BYTE   PATT
  POIN2 Label_11_010070AE
 BYTE   PATT
  POIN2 Label_11_01006F60
 BYTE   PATT
  POIN2 Label_11_01006F60
 BYTE   PATT
  POIN2 Label_11_01006F60
 BYTE   PATT
  POIN2 Label_11_01006F51
 BYTE   PATT
  POIN2 Label_11_01006F60
 BYTE   PATT
  POIN2 Label_11_01006F51
 BYTE   PATT
  POIN2 Label_11_01006F60
 BYTE   PATT
  POIN2 Label_11_01006F51
 BYTE   PATT
  POIN2 Label_11_01006F60
 BYTE   PATT
  POIN2 Label_11_01006F51
 BYTE   PATT
  POIN2 Label_11_01006F60
 BYTE   PATT
  POIN2 Label_11_01006F51
 BYTE   PATT
  POIN2 Label_11_01006F60
 BYTE   PATT
  POIN2 Label_11_01006F51
 BYTE   PATT
  POIN2 Label_11_01006F60
 BYTE   PATT
  POIN2 Label_11_01006F9D
 BYTE   PATT
  POIN2 Label_11_01006F60
 BYTE   PATT
  POIN2 Label_11_01006F60
 BYTE   PATT
  POIN2 Label_11_01006FB8
 BYTE   PATT
  POIN2 Label_11_01006FC3
 BYTE   PATT
  POIN2 Label_11_01006F60
 BYTE   PATT
  POIN2 Label_11_01006F60
 BYTE   PATT
  POIN2 Label_11_01006FB8
 BYTE   PATT
  POIN2 Label_11_01006FC3
// 025   ----------------------------------------
 BYTE   N06  Cn2  v127
 BYTE   W96
 BYTE   PATT
  POIN2 Label_11_01006FEE
// 026   ----------------------------------------
 BYTE   N06  Cn2  v127
 BYTE   W96
 BYTE   PATT
  POIN2 Label_11_01006FF7
 BYTE   PATT
  POIN2 Label_11_01006F60
 BYTE   PATT
  POIN2 Label_11_01006F51
 BYTE   PATT
  POIN2 Label_11_01006F60
 BYTE   PATT
  POIN2 Label_11_01006F9D
 BYTE   PATT
  POIN2 Label_11_01007016
 BYTE   PATT
  POIN2 Label_11_01007016
 BYTE   PATT
  POIN2 Label_11_01007026
 BYTE   PATT
  POIN2 Label_11_01007026
 BYTE   PATT
  POIN2 Label_11_01007016
 BYTE   PATT
  POIN2 Label_11_01007016
 BYTE   PATT
  POIN2 Label_11_01007040
 BYTE   PATT
  POIN2 Label_11_0100704B
 BYTE   PATT
  POIN2 Label_11_01007016
 BYTE   PATT
  POIN2 Label_11_01007016
 BYTE   PATT
  POIN2 Label_11_01007026
 BYTE   PATT
  POIN2 Label_11_01007026
 BYTE   PATT
  POIN2 Label_11_01007016
 BYTE   PATT
  POIN2 Label_11_01007016
 BYTE   PATT
  POIN2 Label_11_01007040
 BYTE   PATT
  POIN2 Label_11_01007079
 BYTE   PATT
  POIN2 Label_11_01007084
 BYTE   PATT
  POIN2 Label_11_0100708B
 BYTE   PATT
  POIN2 Label_11_01007092
 BYTE   PATT
  POIN2 Label_11_01007099
 BYTE   PATT
  POIN2 Label_11_010070A0
 BYTE   PATT
  POIN2 Label_11_010070A7
 BYTE   PATT
  POIN2 Label_11_010070AE
 BYTE   PATT
  POIN2 Label_11_010070AE
 BYTE   PATT
  POIN2 Label_11_01006F60
 BYTE   PATT
  POIN2 Label_11_01006F60
 BYTE   PATT
  POIN2 Label_11_01006F60
 BYTE   PATT
  POIN2 Label_11_01006F51
 BYTE   PATT
  POIN2 Label_11_01006F60
 BYTE   PATT
  POIN2 Label_11_01006F51
 BYTE   PATT
  POIN2 Label_11_01006F60
 BYTE   PATT
  POIN2 Label_11_01006F51
 BYTE   PATT
  POIN2 Label_11_01006F60
 BYTE   PATT
  POIN2 Label_11_01006F51
 BYTE   PATT
  POIN2 Label_11_01006F60
 BYTE   PATT
  POIN2 Label_11_01006F51
 BYTE   PATT
  POIN2 Label_11_01006F60
 BYTE   PATT
  POIN2 Label_11_01006F51
 BYTE   PATT
  POIN2 Label_11_01006F60
 BYTE   PATT
  POIN2 Label_11_01006F9D
 BYTE   PATT
  POIN2 Label_11_01006F60
 BYTE   PATT
  POIN2 Label_11_01006F60
 BYTE   PATT
  POIN2 Label_11_01006FB8
 BYTE   PATT
  POIN2 Label_11_01006FC3
 BYTE   PATT
  POIN2 Label_11_01006F60
 BYTE   PATT
  POIN2 Label_11_01006F60
 BYTE   PATT
  POIN2 Label_11_01006FB8
 BYTE   PATT
  POIN2 Label_11_01006FC3
// 027   ----------------------------------------
 BYTE   N06  Cn2  v127
 BYTE   W96
 BYTE   PATT
  POIN2 Label_11_01006FEE
// 028   ----------------------------------------
 BYTE   N06  Cn2  v127
 BYTE   W96
 BYTE   PATT
  POIN2 Label_11_01006FF7
 BYTE   PATT
  POIN2 Label_11_01006F60
 BYTE   PATT
  POIN2 Label_11_01006F51
 BYTE   PATT
  POIN2 Label_11_01006F60
 BYTE   PATT
  POIN2 Label_11_01006F9D
 BYTE   PATT
  POIN2 Label_11_01007016
 BYTE   PATT
  POIN2 Label_11_01007016
 BYTE   PATT
  POIN2 Label_11_01007026
 BYTE   PATT
  POIN2 Label_11_01007026
 BYTE   PATT
  POIN2 Label_11_01007016
 BYTE   PATT
  POIN2 Label_11_01007016
 BYTE   PATT
  POIN2 Label_11_01007040
 BYTE   PATT
  POIN2 Label_11_0100704B
 BYTE   PATT
  POIN2 Label_11_01007016
 BYTE   PATT
  POIN2 Label_11_01007016
 BYTE   PATT
  POIN2 Label_11_01007026
 BYTE   PATT
  POIN2 Label_11_01007026
 BYTE   PATT
  POIN2 Label_11_01007016
 BYTE   PATT
  POIN2 Label_11_01007016
 BYTE   PATT
  POIN2 Label_11_01007040
 BYTE   PATT
  POIN2 Label_11_01007079
 BYTE   PATT
  POIN2 Label_11_01007084
 BYTE   PATT
  POIN2 Label_11_0100708B
 BYTE   PATT
  POIN2 Label_11_01007092
 BYTE   PATT
  POIN2 Label_11_01007099
 BYTE   PATT
  POIN2 Label_11_010070A0
 BYTE   PATT
  POIN2 Label_11_010070A7
 BYTE   PATT
  POIN2 Label_11_010070AE
 BYTE   PATT
  POIN2 Label_11_010070AE
 BYTE   PATT
  POIN2 Label_11_01006F60
 BYTE   PATT
  POIN2 Label_11_01006F60
 BYTE   FINE

//******************************************************//
	ALIGN 4

MountHorn:
	BYTE	12	// NumTrks
	BYTE	0	// NumBlks
	BYTE	MountHorn_pri	// Priority
	BYTE	MountHorn_rev	// Reverb.
    
	POIN2	MountHorn_grp
    
	POIN2	MountHorn_001
	POIN2	MountHorn_002
	POIN2	MountHorn_003
	POIN2	MountHorn_004
	POIN2	MountHorn_005
	POIN2	MountHorn_006
	POIN2	MountHorn_007
	POIN2	MountHorn_008
	POIN2	MountHorn_009
	POIN2	MountHorn_010
	POIN2	MountHorn_011
	POIN2	MountHorn_012

	
